<?xml version="1.0" encoding="UTF-8" standalone="no"?>
<!-- Created with Inkscape (http://www.inkscape.org/) -->

<svg
   xmlns:dc="http://purl.org/dc/elements/1.1/"
   xmlns:cc="http://creativecommons.org/ns#"
   xmlns:rdf="http://www.w3.org/1999/02/22-rdf-syntax-ns#"
   xmlns:svg="http://www.w3.org/2000/svg"
   xmlns="http://www.w3.org/2000/svg"
   xmlns:sodipodi="http://sodipodi.sourceforge.net/DTD/sodipodi-0.dtd"
   xmlns:inkscape="http://www.inkscape.org/namespaces/inkscape"
   width="155.69458"
   height="157.85236"
   id="svg6267"
   version="1.1"
   inkscape:version="0.48.2 r9819"
   sodipodi:docname="New document 4">
  <defs
     id="defs6269" />
  <sodipodi:namedview
     id="base"
     pagecolor="#ffffff"
     bordercolor="#666666"
     borderopacity="1.0"
     inkscape:pageopacity="0.0"
     inkscape:pageshadow="2"
     inkscape:zoom="0.98994949"
     inkscape:cx="59.039852"
     inkscape:cy="74.024073"
     inkscape:document-units="px"
     inkscape:current-layer="layer1"
     showgrid="false"
     fit-margin-top="0"
     fit-margin-left="0"
     fit-margin-right="0"
     fit-margin-bottom="0"
     inkscape:window-width="477"
     inkscape:window-height="464"
     inkscape:window-x="110"
     inkscape:window-y="110"
     inkscape:window-maximized="0" />
  <metadata
     id="metadata6272">
    <rdf:RDF>
      <cc:Work
         rdf:about="">
        <dc:format>image/svg+xml</dc:format>
        <dc:type
           rdf:resource="http://purl.org/dc/dcmitype/StillImage" />
        <dc:title></dc:title>
      </cc:Work>
    </rdf:RDF>
  </metadata>
  <g
     inkscape:label="Layer 1"
     inkscape:groupmode="layer"
     id="layer1"
     transform="translate(-336.24439,-355.68157)">
    <g
       id="g7134">
      <path
         inkscape:connector-curvature="0"
         d="m 342.70797,355.68157 142.76741,0 c 3.56712,0 6.46359,2.89646 6.46359,6.46358 l 0,144.92518 c 0,3.57198 -2.89647,6.46359 -6.46359,6.46359 l -142.76741,0 c -3.56712,0 -6.46358,-2.89161 -6.46358,-6.46359 l 0,-144.92518 c 0,-3.56712 2.89646,-6.46358 6.46358,-6.46358"
         style="fill:#434da7;fill-opacity:1;fill-rule:evenodd;stroke:none"
         id="path3865" />
      <g
         transform="matrix(4.8598364,0,0,-4.8598364,399.64096,460.03684)"
         id="g3867">
        <path
           id="path3869"
           style="fill:#ffffff;fill-opacity:1;fill-rule:evenodd;stroke:none"
           d="m 0,0 c 0,1.178 0.398,2.167 1.194,2.969 0.797,0.796 1.781,1.195 2.959,1.2 0.531,0 1.045,-0.1 1.542,-0.31 C 6.193,3.655 6.635,3.362 7.028,2.969 7.426,2.576 7.73,2.129 7.951,1.615 8.167,1.111 8.272,0.586 8.277,0.033 8.277,-0.531 8.178,-1.067 7.973,-1.576 7.774,-2.085 7.487,-2.532 7.111,-2.931 6.724,-3.34 6.27,-3.655 5.75,-3.876 5.242,-4.092 4.705,-4.197 4.142,-4.202 c -0.592,0 -1.139,0.105 -1.648,0.32 -0.503,0.21 -0.951,0.526 -1.355,0.951 C 0.769,-2.532 0.487,-2.09 0.288,-1.592 0.1,-1.095 0.006,-0.564 0,0"
           inkscape:connector-curvature="0" />
      </g>
      <g
         transform="matrix(4.8598364,0,0,-4.8598364,336.25411,364.50218)"
         id="g3871">
        <path
           id="path3873"
           style="fill:#f89c22;fill-opacity:1;fill-rule:evenodd;stroke:none"
           d="m 0,0 c 16.91,-0.037 30.684,-2.976 30.712,-6.895 0.002,-3.965 -13.802,-5.686 -30.713,-5.24 L 0,-8.789 c 14.711,-0.25 26.874,0.62 26.843,3.379 C 26.803,-2.754 14.712,-0.674 0,-0.616 L 0,0"
           inkscape:connector-curvature="0" />
      </g>
      <g
         transform="matrix(4.8598364,0,0,-4.8598364,419.91133,444.75752)"
         id="g3875">
        <path
           id="path3877"
           style="fill:#434da7;fill-opacity:1;fill-rule:evenodd;stroke:none"
           d="m 0,0 c -0.875,0 -1.614,-0.301 -2.215,-0.903 -0.602,-0.601 -0.903,-1.34 -0.903,-2.222 0,-0.862 0.308,-1.607 0.93,-2.25 0.615,-0.636 1.333,-0.951 2.161,-0.957 0.861,0 1.586,0.307 2.181,0.93 0.588,0.622 0.882,1.395 0.889,2.331 0,0.842 -0.294,1.56 -0.896,2.168 C 1.552,-0.301 0.841,0 0,0"
           inkscape:connector-curvature="0" />
      </g>
      <g
         transform="matrix(4.8598364,0,0,-4.8598364,448.1081,480.07881)"
         id="g3879">
        <path
           id="path3881"
           style="fill:#ffffff;fill-opacity:1;fill-rule:evenodd;stroke:none"
           d="m 0,0 -1.029,0 0,8.215 0.973,0 4.497,-6.108 0,6.108 1.024,0 L 5.465,0 4.52,0 0,6.266 0,0"
           inkscape:connector-curvature="0" />
      </g>
      <g
         transform="matrix(4.8598364,0,0,-4.8598364,400.07834,440.15525)"
         id="g3883">
        <path
           id="path3885"
           style="fill:#ffffff;fill-opacity:1;fill-rule:evenodd;stroke:none"
           d="m 0,0 0,-0.9 -3.883,0 0,-6.416 3.883,0 0,-0.899 -4.935,0 0.003,7.491 -5.201,-7.491 -1.246,0 L -5.744,0 0,0"
           inkscape:connector-curvature="0" />
      </g>
      <g
         transform="matrix(4.8598364,0,0,-4.8598364,418.17637,488.88483)"
         id="g3887">
        <path
           id="path3889"
           style="fill:#ffffff;fill-opacity:1;fill-rule:evenodd;stroke:none"
           d="m 0,0 c -0.149,0.058 -0.307,0.085 -0.462,0.085 -0.378,0 -0.778,-0.186 -0.778,-0.674 0,-0.822 1.066,-0.713 1.066,-1.318 0,-0.271 -0.266,-0.403 -0.443,-0.403 -0.242,0 -0.496,0.124 -0.679,0.322 l 0.09,-0.484 c 0.177,-0.082 0.366,-0.117 0.555,-0.117 0.483,0 0.831,0.388 0.831,0.802 0,0.717 -1.067,0.71 -1.067,1.241 0,0.267 0.224,0.352 0.4,0.352 0.174,0 0.366,-0.089 0.487,-0.244 L 0,0"
           inkscape:connector-curvature="0" />
      </g>
      <g
         transform="matrix(4.8598364,0,0,-4.8598364,424.60594,495.12)"
         id="g3891">
        <path
           id="path3893"
           style="fill:#ffffff;fill-opacity:1;fill-rule:evenodd;stroke:none"
           d="m 0,0 0.229,0 c 0.096,0 0.227,0.004 0.276,-0.108 l 0.009,0 0,0.41 -0.009,0 C 0.468,0.279 0.418,0.279 0.369,0.279 L 0,0.279 0,1 c 0.099,0.023 0.208,0.027 0.316,0.027 0.143,0 0.27,-0.016 0.366,-0.155 l 0.009,0 0,0.453 -0.009,0 C 0.642,1.298 0.589,1.306 0.536,1.306 l -0.992,0 0,-0.012 c 0.158,-0.073 0.14,-0.356 0.14,-0.534 l 0,-1.461 c 0,-0.175 0.018,-0.462 -0.14,-0.531 l 0,-0.012 1.293,0 0.139,0.508 -0.009,0 C 0.812,-0.907 0.598,-0.988 0.394,-0.965 L 0,-0.918 0,0"
           inkscape:connector-curvature="0" />
      </g>
      <g
         transform="matrix(4.8598364,0,0,-4.8598364,432.37195,488.77305)"
         id="g3895">
        <path
           id="path3897"
           style="fill:#ffffff;fill-opacity:1;fill-rule:evenodd;stroke:none"
           d="m 0,0 0,-0.012 c 0.158,-0.073 0.136,-0.356 0.136,-0.534 l 0,-1.461 C 0.136,-2.182 0.158,-2.469 0,-2.538 l 0,-0.012 0.592,0 0,0.012 c -0.158,0.069 -0.139,0.352 -0.139,0.531 l 0,1.735 c 0.071,0.016 0.139,0.028 0.21,0.032 0.208,0.011 0.4,-0.152 0.4,-0.431 0,-0.364 -0.288,-0.507 -0.536,-0.554 L 0.812,-1.771 1.191,-2.356 C 1.283,-2.5 1.386,-2.55 1.55,-2.55 l 0.285,0 c -0.177,0.14 -0.372,0.341 -0.502,0.543 l -0.446,0.701 c 0.254,0.073 0.492,0.341 0.492,0.682 C 1.379,-0.272 1.153,0 0.738,0 L 0,0"
           inkscape:connector-curvature="0" />
      </g>
      <g
         transform="matrix(4.8598364,0,0,-4.8598364,447.28679,498.93983)"
         id="g3899">
        <path
           id="path3901"
           style="fill:#ffffff;fill-opacity:1;fill-rule:evenodd;stroke:none"
           d="m 0,0 -0.493,1.686 c -0.025,0.085 -0.084,0.275 -0.084,0.36 l 0.003,0.047 -0.452,0 0,-0.012 C -0.89,1.949 -0.843,1.724 -0.784,1.527 l 0.468,-1.585 c 0.09,-0.306 0.161,-0.338 0.378,-0.516 l 0.818,2.667 -0.462,0 0,-0.012 C 0.61,1.984 0.505,1.666 0.422,1.391 L 0,0"
           inkscape:connector-curvature="0" />
      </g>
      <g
         transform="matrix(4.8598364,0,0,-4.8598364,454.99449,498.52675)"
         id="g3903">
        <path
           id="path3905"
           style="fill:#ffffff;fill-opacity:1;fill-rule:evenodd;stroke:none"
           d="m 0,0 c 0,-0.174 0.019,-0.461 -0.136,-0.531 l 0,-0.011 0.589,0 0,0.011 C 0.298,-0.457 0.316,-0.174 0.316,0 l 0,1.461 c 0,0.174 -0.018,0.461 0.137,0.535 l 0,0.011 -0.589,0 0,-0.011 C 0.022,1.922 0,1.639 0,1.461 L 0,0"
           inkscape:connector-curvature="0" />
      </g>
      <g
         transform="matrix(4.8598364,0,0,-4.8598364,468.21811,488.94315)"
         id="g3907">
        <path
           id="path3909"
           style="fill:#ffffff;fill-opacity:1;fill-rule:evenodd;stroke:none"
           d="m 0,0 c -0.183,0.054 -0.375,0.097 -0.564,0.097 -0.636,0 -1.088,-0.531 -1.088,-1.333 0,-0.829 0.452,-1.341 1.184,-1.341 0.161,0 0.322,0.031 0.468,0.117 l 0.158,0.449 -0.009,0 c -0.195,-0.14 -0.428,-0.244 -0.66,-0.244 -0.478,0 -0.788,0.508 -0.788,1.077 0,0.562 0.298,0.953 0.725,0.953 0.205,0 0.403,-0.085 0.574,-0.221 L 0,0"
           inkscape:connector-curvature="0" />
      </g>
      <g
         transform="matrix(4.8598364,0,0,-4.8598364,473.96729,495.12)"
         id="g3911">
        <path
           id="path3913"
           style="fill:#ffffff;fill-opacity:1;fill-rule:evenodd;stroke:none"
           d="m 0,0 0.229,0 c 0.097,0 0.227,0.004 0.276,-0.108 l 0.01,0 0,0.41 -0.01,0 C 0.468,0.279 0.419,0.279 0.369,0.279 L 0,0.279 0,1 c 0.099,0.023 0.208,0.027 0.316,0.027 0.143,0 0.27,-0.016 0.366,-0.155 l 0.009,0 0,0.453 -0.009,0 C 0.642,1.298 0.589,1.306 0.536,1.306 l -0.992,0 0,-0.012 c 0.158,-0.073 0.14,-0.356 0.14,-0.534 l 0,-1.461 c 0,-0.175 0.018,-0.462 -0.14,-0.531 l 0,-0.012 1.293,0 0.14,0.508 -0.01,0 C 0.812,-0.907 0.598,-0.988 0.394,-0.965 L 0,-0.918 0,0"
           inkscape:connector-curvature="0" />
      </g>
      <g
         transform="matrix(4.8598364,0,0,-4.8598364,355.5185,488.94315)"
         id="g3915">
        <path
           id="path3917"
           style="fill:#ffffff;fill-opacity:1;fill-rule:evenodd;stroke:none"
           d="m 0,0 c -0.183,0.054 -0.375,0.097 -0.564,0.097 -0.636,0 -1.088,-0.531 -1.088,-1.333 0,-0.829 0.452,-1.341 1.184,-1.341 0.161,0 0.322,0.031 0.468,0.117 l 0.158,0.449 -0.009,0 c -0.195,-0.14 -0.428,-0.244 -0.661,-0.244 -0.477,0 -0.787,0.508 -0.787,1.077 0,0.562 0.298,0.953 0.725,0.953 0.205,0 0.403,-0.085 0.574,-0.221 L 0,0"
           inkscape:connector-curvature="0" />
      </g>
      <g
         transform="matrix(4.8598364,0,0,-4.8598364,359.00786,488.77305)"
         id="g3919">
        <path
           id="path3921"
           style="fill:#ffffff;fill-opacity:1;fill-rule:evenodd;stroke:none"
           d="m 0,0 0,-0.012 c 0.158,-0.073 0.136,-0.356 0.136,-0.534 l 0,-1.461 C 0.136,-2.182 0.158,-2.469 0,-2.538 l 0,-0.012 0.592,0 0,0.012 c -0.158,0.069 -0.139,0.352 -0.139,0.531 l 0,1.735 c 0.07,0.016 0.139,0.028 0.21,0.032 0.208,0.011 0.4,-0.152 0.4,-0.431 0,-0.364 -0.288,-0.507 -0.536,-0.554 L 0.812,-1.771 1.19,-2.356 C 1.283,-2.5 1.386,-2.55 1.55,-2.55 l 0.285,0 c -0.177,0.14 -0.372,0.341 -0.502,0.543 l -0.447,0.701 c 0.255,0.073 0.493,0.341 0.493,0.682 C 1.379,-0.272 1.153,0 0.738,0 L 0,0"
           inkscape:connector-curvature="0" />
      </g>
      <g
         transform="matrix(4.8598364,0,0,-4.8598364,371.59484,495.12)"
         id="g3923">
        <path
           id="path3925"
           style="fill:#ffffff;fill-opacity:1;fill-rule:evenodd;stroke:none"
           d="m 0,0 0.229,0 c 0.096,0 0.226,0.004 0.276,-0.108 l 0.009,0 0,0.41 -0.009,0 C 0.468,0.279 0.418,0.279 0.369,0.279 L 0,0.279 0,1 c 0.099,0.023 0.208,0.027 0.316,0.027 0.143,0 0.27,-0.016 0.366,-0.155 l 0.009,0 0,0.453 -0.009,0 C 0.642,1.298 0.589,1.306 0.536,1.306 l -0.992,0 0,-0.012 c 0.158,-0.073 0.14,-0.356 0.14,-0.534 l 0,-1.461 c 0,-0.175 0.018,-0.462 -0.14,-0.531 l 0,-0.012 1.293,0 0.139,0.508 -0.009,0 C 0.812,-0.907 0.598,-0.988 0.393,-0.965 L 0,-0.918 0,0"
           inkscape:connector-curvature="0" />
      </g>
      <g
         transform="matrix(4.8598364,0,0,-4.8598364,379.97806,498.45385)"
         id="g3927">
        <path
           id="path3929"
           style="fill:#ffffff;fill-opacity:1;fill-rule:evenodd;stroke:none"
           d="m 0,0 c 0,-0.229 0.019,-0.415 -0.137,-0.546 l 0,-0.012 0.744,0 c 0.695,0 1.163,0.535 1.163,1.298 0,0.771 -0.44,1.252 -1.147,1.252 l -0.76,0 0,-0.012 C 0.022,1.922 0,1.639 0,1.461 L 0,0 z m 0.316,1.67 c 0.093,0.027 0.186,0.043 0.279,0.043 0.518,0 0.821,-0.341 0.821,-1.019 0,-0.671 -0.412,-0.973 -0.874,-0.973 -0.077,0 -0.151,0.008 -0.226,0.027 l 0,1.922"
           inkscape:connector-curvature="0" />
      </g>
      <g
         transform="matrix(4.8598364,0,0,-4.8598364,392.43382,498.52675)"
         id="g3931">
        <path
           id="path3933"
           style="fill:#ffffff;fill-opacity:1;fill-rule:evenodd;stroke:none"
           d="m 0,0 c 0,-0.174 0.019,-0.461 -0.137,-0.531 l 0,-0.011 0.59,0 0,0.011 C 0.298,-0.457 0.316,-0.174 0.316,0 l 0,1.461 c 0,0.174 -0.018,0.461 0.137,0.535 l 0,0.011 -0.59,0 0,-0.011 C 0.022,1.922 0,1.639 0,1.461 L 0,0"
           inkscape:connector-curvature="0" />
      </g>
      <g
         transform="matrix(4.8598364,0,0,-4.8598364,401.46825,490.12895)"
         id="g3935">
        <path
           id="path3937"
           style="fill:#ffffff;fill-opacity:1;fill-rule:evenodd;stroke:none"
           d="m 0,0 0.279,0 c 0.102,0 0.226,-0.019 0.267,-0.155 l 0.009,0 0.099,0.461 -0.009,0 C 0.604,0.283 0.555,0.279 0.502,0.279 l -1.233,0 c -0.041,0.008 -0.081,0.008 -0.118,0.027 l -0.01,0 -0.108,-0.461 0.009,0 C -0.862,-0.043 -0.722,0 -0.589,0 l 0.273,0 0,-1.728 c 0,-0.175 0.018,-0.458 -0.137,-0.531 l 0,-0.012 0.614,0 0,0.012 C -0.003,-2.139 0,-1.988 0,-1.767 L 0,0"
           inkscape:connector-curvature="0" />
      </g>
      <g
         transform="matrix(4.8598364,0,0,-4.8598364,409.32175,455.75533)"
         id="g3939">
        <path
           id="path3941"
           style="fill:#ffffff;fill-opacity:1;fill-rule:evenodd;stroke:none"
           d="m 0,0 c 1.472,-0.173 2.158,-0.533 2.124,-0.735 0.004,-0.444 -1.98,-0.876 -4.772,-0.876 -2.791,0 -5.048,0.459 -5.054,0.988 0,0.401 2,0.844 3.592,0.897 0.106,0 0.204,0.051 0.207,0.079 0.017,0.012 -0.085,0.061 -0.191,0.061 -2.032,-0.053 -4.534,-0.274 -4.532,-1.343 0,-0.751 2.764,-1.53 5.975,-1.53 3.212,0 5.627,0.884 5.587,1.464 0.04,0.449 -1.091,1.112 -3.011,1.224 -0.131,0 -0.239,-0.066 -0.238,-0.083 C -0.334,0.143 -0.132,0 0,0"
           inkscape:connector-curvature="0" />
      </g>
    </g>
  </g>
</svg>
