<?xml version="1.0" encoding="utf-8"?>
<!-- Generator: Adobe Illustrator 14.0.0, SVG Export Plug-In . SVG Version: 6.00 Build 43363)  -->
<!DOCTYPE svg PUBLIC "-//W3C//DTD SVG 1.1//EN" "http://www.w3.org/Graphics/SVG/1.1/DTD/svg11.dtd">
<svg version="1.1" id="Layer_1" xmlns="http://www.w3.org/2000/svg" xmlns:xlink="http://www.w3.org/1999/xlink" x="0px" y="0px"
	 width="40px" height="40px" viewBox="0 0 40 40" enable-background="new 0 0 40 40" xml:space="preserve">
<g>
	<path fill="#003C78" d="M22.569,9.244c-2.238,0-4.324,0.65-6.079,1.776l-5.966,3.866V1.497L0,10.375v16.79
		c0,4.987,3.247,9.221,7.752,10.712l2.007,0.626c-4.113-2.05-6.93-6.203-6.93-10.995c0-6.824,5.707-12.356,12.746-12.356
		c6.569,0,11.975,4.822,12.666,11.015l-7.263-0.002c-0.632-2.426-2.838-4.22-5.463-4.22c-3.115,0-5.643,2.528-5.643,5.642
		c0,3.118,2.528,5.644,5.643,5.644c2.883,0,5.255-2.156,5.602-4.94l7.176-0.004c-0.162,2.494-1.084,4.789-2.547,6.666
		c0,0,4.446-5.208,5.973-7.564c1.383-2.138,2.137-4.346,2.137-6.857C33.856,14.297,28.804,9.244,22.569,9.244"/>
</g>
</svg>
