<?xml version="1.0" encoding="utf-8"?>
<!-- Generator: Adobe Illustrator 14.0.0, SVG Export Plug-In . SVG Version: 6.00 Build 43363)  -->
<!DOCTYPE svg PUBLIC "-//W3C//DTD SVG 1.1//EN" "http://www.w3.org/Graphics/SVG/1.1/DTD/svg11.dtd">
<svg version="1.1" id="Layer_1" xmlns="http://www.w3.org/2000/svg" xmlns:xlink="http://www.w3.org/1999/xlink" x="0px" y="0px"
	 width="100px" height="40px" viewBox="0 0 100 40" enable-background="new 0 0 100 40" xml:space="preserve">
<path fill-rule="evenodd" clip-rule="evenodd" fill="#ED1C24" d="M13.11,31.207v-1.031c4.67-0.402,8.436-3.521,9.817-7.729
	c-0.727,0.436-1.56,0.838-2.529,1.17c-1.1,1.914-2.867,3.432-5.012,4.213c0.771-1.373,1.381-2.922,1.774-4.598
	c2.474-0.563,4.57-1.479,6.068-2.453c0.141-0.685,0.179-1.647,0.179-1.969c0-0.32-0.038-1.284-0.179-1.969
	c-1.498-0.976-3.599-1.891-6.071-2.453c-0.395-1.675-1.003-3.226-1.771-4.597c2.146,0.783,3.911,2.298,5.011,4.213
	c0.97,0.332,1.803,0.735,2.529,1.17c-1.382-4.208-5.147-7.328-9.817-7.73V6.431c3.905-0.183,7.599-1.374,9.23-2.991L21.29,2.008
	c-1.86,1.424-4.806,2.395-8.18,2.562V1.885h-2.057V4.57C7.68,4.403,4.733,3.434,2.873,2.008L1.822,3.44
	c1.631,1.617,5.323,2.809,9.231,2.991v1.015c-4.671,0.403-8.438,3.522-9.818,7.73c0.727-0.436,1.559-0.839,2.528-1.17
	c1.099-1.916,2.866-3.431,5.012-4.213c-0.77,1.374-1.377,2.924-1.771,4.599c-2.47,0.563-4.566,1.476-6.064,2.451
	c-0.138,0.685-0.176,1.648-0.176,1.969c0,0.321,0.038,1.284,0.176,1.969c1.498,0.974,3.593,1.886,6.063,2.449
	c0.393,1.678,1.003,3.229,1.773,4.602c-2.145-0.783-3.913-2.299-5.012-4.213c-0.97-0.332-1.802-0.734-2.528-1.17
	c1.381,4.207,5.147,7.326,9.818,7.729v1.031C6.002,31.541,1.752,34.289,0,37.961h2.268c1.758-2.711,5.07-4.58,8.786-4.877v5.031
	h2.057v-5.031c3.715,0.297,7.027,2.166,8.785,4.877h2.269C22.412,34.289,18.161,31.541,13.11,31.207z M21.46,17.713
	c0.036,0.333,0.057,0.792,0.057,1.098c0,0.305-0.021,0.764-0.057,1.098c-1.114,0.591-2.455,1.084-3.958,1.439
	c0.108-0.827,0.169-1.673,0.169-2.539c0-0.864-0.06-1.709-0.168-2.534C19.005,16.631,20.346,17.123,21.46,17.713z M8.362,18.809
	c0-0.993,0.08-1.961,0.231-2.898c1.107-0.159,2.276-0.247,3.492-0.247c1.212,0,2.377,0.087,3.482,0.246
	c0.151,0.936,0.232,1.905,0.232,2.898c0,0.995-0.081,1.965-0.232,2.904c-1.105,0.156-2.271,0.244-3.482,0.244
	c-1.216,0-2.385-0.088-3.492-0.246C8.442,20.774,8.362,19.803,8.362,18.809z M11.234,9.251c0.279-0.024,0.561-0.041,0.847-0.041
	s0.567,0.017,0.847,0.041c0.97,1.38,1.737,2.997,2.23,4.779c-0.983-0.134-2.012-0.21-3.072-0.21c-1.064,0-2.095,0.076-3.082,0.212
	C9.499,12.248,10.264,10.631,11.234,9.251z M2.711,19.909c-0.036-0.333-0.058-0.793-0.058-1.098c0-0.306,0.021-0.764,0.058-1.098
	c1.111-0.59,2.45-1.081,3.948-1.436c-0.107,0.824-0.168,1.669-0.168,2.532c0,0.865,0.061,1.712,0.168,2.535
	C5.161,20.991,3.822,20.498,2.711,19.909z M9.009,23.592c0.985,0.135,2.014,0.213,3.077,0.213c1.06,0,2.084-0.078,3.069-0.211
	c-0.497,1.779-1.259,3.398-2.23,4.777c-0.277,0.025-0.558,0.041-0.844,0.041c-0.284,0-0.564-0.016-0.844-0.041
	C10.267,26.992,9.502,25.373,9.009,23.592z 
    M75.924,26.467H61.662v-7.162H73.51V17.36H61.662v-6.205H75.22V9.21H58.839v19.202h16.176l0.909-1.93V26.467z 
    M96.158,28.412h2.821L89.938,9.217h-3.521l-9.042,19.195h2.823 l2.695-5.723h10.569L96.158,28.412z 
    M83.81,20.746l4.368-9.272l4.367,9.272H83.81z 
    M50.877,18.266c1.979-0.86,3.332-2.58,3.336-4.568c-0.004-2.475-2.387-4.471-5.378-4.471L36.562,9.226v19.187h11.671
    c0.819,0,1.778-0.098,2.82-0.35c3.011-0.723,3.965-3.275,3.938-4.988C54.928,19.232,50.943,18.282,50.877,18.266z 
    M48.801,26.352c-0.45,0.092-0.969,0.117-2.213,0.117h-7.204V11.172h8.888c1.858,0,3.122,1.3,3.124,2.908c0,1.601-1.064,3.277-3.831,3.365h-6.823
	v1.944l6.823-0.002c1.042,0,2.233,0.282,2.729,0.558c1.1,0.578,1.732,1.626,1.732,2.873C52.026,24.307,51.03,25.973,48.801,26.352z"/>
</svg>
