<?xml version="1.0" encoding="utf-8"?>
<!-- Generator: Adobe Illustrator 14.0.0, SVG Export Plug-In . SVG Version: 6.00 Build 43363)  -->
<!DOCTYPE svg PUBLIC "-//W3C//DTD SVG 1.1//EN" "http://www.w3.org/Graphics/SVG/1.1/DTD/svg11.dtd">
<svg version="1.1" id="Layer_1" xmlns="http://www.w3.org/2000/svg" xmlns:xlink="http://www.w3.org/1999/xlink" x="0px" y="0px"
	 width="60px" height="60px" viewBox="0 0 60 60" enable-background="new 0 0 60 60" xml:space="preserve">
<g>
	<defs>
		<rect id="SVGID_1_" x="0" y="1.68" width="200" height="56.641"/>
	</defs>
	<clipPath id="SVGID_2_">
		<use xlink:href="#SVGID_1_"  overflow="visible"/>
	</clipPath>
	<path clip-path="url(#SVGID_2_)" fill-rule="evenodd" clip-rule="evenodd" fill="#B10A32" d="M31.637,35.457l-10.148-0.003
		c0,0-0.307-0.034-0.462-0.303c-0.152-0.263-0.112-0.403-0.112-0.403v-9.459c0,0-0.012-0.336,0.168-0.537
		c0.173-0.193,0.491-0.202,0.491-0.202h13.371c0,0,0.214-0.033,0.46,0.104c0.213,0.115,0.33,0.559,0.33,0.559v9.707
		c0,0-0.117,0.27-0.234,0.365c-0.105,0.09-0.325,0.166-0.325,0.166L31.637,35.457z M31.559,18.466V8.002
		C42.305,9.566,50.56,18.818,50.56,29.997c0,11.178-8.236,20.443-18.981,22.012l-0.018-10.536h4.17c3.481,0,6.038-2.609,6.038-6.089
		V24.481c0-3.479-2.772-6.02-6.253-6.02L31.559,18.466z M14.756,24.481c0-3.479,2.117-6.037,5.595-6.037l4.633-0.014V8.027
		C14.292,9.64,6.091,18.856,6.091,29.997c0,11.143,8.202,20.383,18.893,21.994l-0.017-10.442l-3.875-0.003
		c-3.482,0-6.336-2.683-6.336-6.162V24.481z M0,29.997C0,14.358,12.683,1.68,28.325,1.68c15.644,0,28.324,12.679,28.324,28.317
		c0,15.646-12.681,28.323-28.324,28.323C12.683,58.32,0,45.644,0,29.997"/>
</g>
</svg>
