<?xml version="1.0" encoding="utf-8"?>
<!-- Generator: Adobe Illustrator 14.0.0, SVG Export Plug-In . SVG Version: 6.00 Build 43363)  -->
<!DOCTYPE svg PUBLIC "-//W3C//DTD SVG 1.1//EN" "http://www.w3.org/Graphics/SVG/1.1/DTD/svg11.dtd">
<svg version="1.1" id="Layer_1" xmlns="http://www.w3.org/2000/svg" xmlns:xlink="http://www.w3.org/1999/xlink" x="0px" y="0px"
	 width="200px" height="60px" viewBox="0 0 200 60" enable-background="new 0 0 200 60" xml:space="preserve">
<g>
	<defs>
		<rect id="SVGID_1_" x="0" y="1.68" width="200" height="56.641"/>
	</defs>
	<clipPath id="SVGID_2_">
		<use xlink:href="#SVGID_1_"  overflow="visible"/>
	</clipPath>
	<path clip-path="url(#SVGID_2_)" fill-rule="evenodd" clip-rule="evenodd" fill="#B10A32" d="M31.637,35.457l-10.148-0.003
		c0,0-0.307-0.034-0.462-0.303c-0.152-0.263-0.112-0.403-0.112-0.403v-9.459c0,0-0.012-0.336,0.168-0.537
		c0.173-0.193,0.491-0.202,0.491-0.202h13.371c0,0,0.214-0.033,0.46,0.104c0.213,0.115,0.33,0.559,0.33,0.559v9.707
		c0,0-0.117,0.27-0.234,0.365c-0.105,0.09-0.325,0.166-0.325,0.166L31.637,35.457z M31.559,18.466V8.002
		C42.305,9.566,50.56,18.818,50.56,29.997c0,11.178-8.236,20.443-18.981,22.012l-0.018-10.536h4.17c3.481,0,6.038-2.609,6.038-6.089
		V24.481c0-3.479-2.772-6.02-6.253-6.02L31.559,18.466z M14.756,24.481c0-3.479,2.117-6.037,5.595-6.037l4.633-0.014V8.027
		C14.292,9.64,6.091,18.856,6.091,29.997c0,11.143,8.202,20.383,18.893,21.994l-0.017-10.442l-3.875-0.003
		c-3.482,0-6.336-2.683-6.336-6.162V24.481z M0,29.997C0,14.358,12.683,1.68,28.325,1.68c15.644,0,28.324,12.679,28.324,28.317
		c0,15.646-12.681,28.323-28.324,28.323C12.683,58.32,0,45.644,0,29.997"/>
	<path clip-path="url(#SVGID_2_)" fill-rule="evenodd" clip-rule="evenodd" d="M189.242,55.882c0,0,0.035-0.2,0.121-0.289
		c0.084-0.085,0.584-0.213,0.791-0.466c0.193-0.256,4.34-9.645,4.34-9.645l0.252-0.063l3.813,8.75
		c0.256,0.576,0.43,0.962,0.572,1.106c0.154,0.134,0.537,0.297,0.793,0.317c0.152,0.013,0.064,0.234,0.064,0.234l-4.188-0.003
		c0,0-0.279-0.215,0-0.322c0.172-0.063,0.844-0.271,0.949-0.696c0.051-0.191-0.043-0.637-0.234-1.147
		c-0.133-0.36-0.51-1.15-0.723-1.3c-0.191-0.134-0.979-0.063-1.705-0.083c-0.658-0.021-1.529-0.044-1.809,0.104
		c-0.344,0.183-0.727,1.63-0.807,1.852c-0.076,0.216,0,0.722,0.189,0.872c0.322,0.253,0.963,0.447,1.191,0.511
		c0.084,0.024,0.063,0.256,0.063,0.256L189.242,55.882z M195.576,51.593c0.109-0.142-0.289-0.923-0.656-1.745
		c-0.277-0.615-0.744-1.814-0.896-1.765c-0.107,0.032-0.484,0.978-0.787,1.658c-0.32,0.737-0.705,1.657-0.551,1.809
		c0.092,0.092,0.807,0.15,1.402,0.128C194.773,51.653,195.482,51.721,195.576,51.593 M79.065,53.649
		c0.225-1.089-0.021-1.809-0.658-2.343c-0.302-0.249-1.111-0.637-1.768-0.637c-0.908,0-1.5-0.085-1.5,0.926l0.009,2.459
		c0,1.384,1.724,1.237,1.724,1.237C78.276,55.292,78.895,54.48,79.065,53.649 M106.289,55.479c0.016,0.022,0.535-0.127,0.771-0.486
		c0.121-0.195,0.277-0.458,0.277-1.108V47.37c0-0.402-0.129-0.792-0.301-0.954c-0.164-0.168-0.432-0.341-1.021-0.384
		c0,0-0.447-0.279,0-0.404c0.021,0.019,3.939-0.007,3.939-0.007s0.357,0.113,0.043,0.281c-0.283,0.151-0.535,0.045-0.764,0.302
		c-0.162,0.178-0.256,0.521-0.258,1.078v3.216c0,0.128,0.123,0.319,0.164,0.322c0.215,0.022,0.344-0.24,0.449-0.298
		c0.428-0.363,1.086-1.073,1.682-1.642c1.072-1.019,1.613-1.544,1.789-1.784c0.232-0.321,0.281-0.767,0.146-0.917
		c-0.146-0.17-0.465-0.17-0.742-0.257c0,0-0.254-0.17,0.043-0.276c0,0.022,3.508,0,3.508,0s0.131,0.319-0.061,0.407
		c-0.488,0.043-0.668,0.145-0.957,0.298c-0.279,0.14-0.861,0.548-1.361,1.043c0,0-2.566,2.207-2.469,2.465
		c0.148,0.406,1.629,2.141,2.635,3.536c0.432,0.596,0.863,1.344,1.109,1.532c0.24,0.173,0.617,0.531,0.938,0.531
		c0.371,0,0.193,0.339,0.193,0.339s-2-0.071-2.344-0.037c-0.236,0.017-0.516-0.408-0.51-0.408c-0.787-1.021-3.021-4.149-3.191-4.344
		c-0.086-0.063-1.004,0.617-1.021,1.194c0.018-0.021,0,1.895,0,1.895c0,0.568,0.131,0.855,0.291,1.021
		c0.283,0.274,0.984,0.36,0.984,0.34c0.32,0.087,0.104,0.302,0.104,0.302h-4.234C106.121,55.761,105.975,55.546,106.289,55.479
		 M93.167,55.486c0.289-0.112,0.812-0.44,1.012-0.664c0.193-0.229,0.341-0.424,0.341-1.234c0,0-0.044-4.941-0.044-5.668
		c0-0.589-0.209-1.377-0.486-1.593c-0.281-0.214-0.611-0.345-0.959-0.361c0,0-0.277-0.297,0.021-0.362c0.085-0.018,2.658,0,2.658,0
		l6.301,6.959c0,0,0.246,0.306,0.383,0.237c0.027-0.016,0.059-0.308,0.061-0.341c0.025-0.532,0.006-4.627,0.006-4.627
		c0-0.438,0.086-0.929-0.215-1.271c-0.381-0.435-1.139-0.512-1.36-0.596c-0.173-0.063-0.173-0.256,0.019-0.319
		c0,0.058,3.365,0,3.365,0c0.234,0.022,0.061,0.256,0.061,0.256c-0.379,0.107-0.754,0.191-0.932,0.425
		c-0.213,0.277-0.322,0.695-0.322,1.505v8.11h-0.287c0,0-6.916-7.518-7.334-7.931c-0.19-0.193-0.254,0.063-0.254,0.317
		c0,0.256-0.021,5.17-0.021,5.17c0,0.848,0.171,1.366,0.708,1.647c0.21,0.107,0.751,0.246,0.994,0.292
		c0.108,0.021,0.161,0.328,0.161,0.328h-3.876C93.167,55.767,93.064,55.523,93.167,55.486 M81.689,55.791
		c0,0,0.038-0.202,0.125-0.289c0.083-0.087,0.583-0.213,0.786-0.468c0.193-0.256,4.343-9.643,4.343-9.643l0.257-0.062l3.811,8.749
		c0.254,0.571,0.422,0.961,0.575,1.104c0.149,0.137,0.532,0.297,0.786,0.319c0.152,0.012,0.067,0.232,0.067,0.232l-4.239,0.108
		c0,0-0.147-0.234,0.128-0.341c0.171-0.067,0.768-0.361,0.871-0.79c0.05-0.192-0.04-0.633-0.231-1.149
		c-0.135-0.357-0.512-1.147-0.727-1.295c-0.188-0.137-0.977-0.064-1.701-0.085c-0.661-0.021-1.532-0.046-1.807,0.106
		c-0.348,0.187-0.73,1.626-0.813,1.851c-0.074,0.218,0,0.726,0.193,0.873c0.32,0.251,0.96,0.446,1.194,0.508
		c0.081,0.025,0.061,0.257,0.061,0.257L81.689,55.791z M88.03,51.501c0.103-0.138-0.293-0.921-0.661-1.744
		c-0.278-0.62-0.744-1.815-0.896-1.768c-0.108,0.031-0.489,0.979-0.786,1.661c-0.324,0.732-0.711,1.655-0.555,1.807
		c0.092,0.093,0.809,0.147,1.404,0.126C87.22,51.563,87.933,51.629,88.03,51.501 M78.556,48.246
		c0.008-0.683-0.389-1.319-0.832-1.685c-0.255-0.21-0.745-0.468-1.298-0.468c-0.768,0-1.272,0.104-1.272,0.829l-0.006,2.703
		c-0.062,0.64,1.467,0.48,1.467,0.48C77.896,50.106,78.533,49.927,78.556,48.246 M72.105,55.475
		c0.511-0.143,0.886-0.271,1.041-0.462c0.172-0.215,0.233-0.35,0.237-0.92V47.27c-0.001-0.41-0.106-0.643-0.342-0.899
		c-0.459-0.5-0.999-0.172-1.084-0.36c-0.067-0.145-0.045-0.399-0.045-0.399h4.295c1.227,0,2.04,0.053,2.772,0.422
		c0.553,0.274,1.214,0.936,1.214,1.925c0,1.374-1.108,1.863-1.555,2.183c0.852,0.23,2.257,0.722,2.257,2.319
		c0,1.656-0.915,2.702-1.789,2.979c-0.597,0.188-1.344,0.304-2.199,0.31h-4.803V55.475z M133.814,55.563
		c0,0.03,0.533-0.169,0.766-0.358c0.168-0.136,0.299-0.42,0.299-1.089l0.021-6.444c0-0.544-0.064-0.79-0.256-1.087
		c-0.191-0.296-0.662-0.363-1.213-0.448c0,0-0.404-0.298-0.119-0.422c-0.027-0.004,2.988,0.021,4.439,0.039
		c1.492,0.024,2.979-0.122,3.131-0.019c0.191,0.128,0.092,1.557,0.125,1.829c0.023,0.147-0.096,0.449-0.229,0.467
		c-0.174,0.021-0.213-0.281-0.213-0.467c0-0.382-0.328-0.829-0.406-0.937c-0.205-0.275-0.6-0.322-0.789-0.322h-2.289
		c-0.203,0-0.26-0.008-0.328,0.065c-0.055,0.068-0.143,0.234-0.152,0.45v2.83c0,0.17,0.01,0.407,0.111,0.445
		c0.232,0.083,1.766,0.063,1.766,0.063c0.256,0,0.551-0.257,0.641-0.402c0.129-0.234,0.35-0.511,0.465-0.852
		c0.064-0.193,0.404-0.344,0.404,0.085c0,0.268,0.043,3.316,0.043,3.316c-0.17,0.237-0.318-0.061-0.318-0.061
		c-0.113-0.593-0.219-0.806-0.41-1c-0.178-0.194-0.441-0.426-0.824-0.426c0,0-1.289-0.019-1.322-0.022
		c-0.49-0.044-0.512,0.487-0.529,0.683c0,0.021-0.025,2.724-0.025,2.724c0.025,0.276,0.086,0.645,0.26,0.809
		c0.172,0.148,0.607,0.459,1.191,0.508c0.273,0.025,0.084,0.339,0.084,0.339h-4.428C133.709,55.859,133.498,55.715,133.814,55.563
		 M123.215,46.859c0.941-0.899,2.307-1.289,3.682-1.295c1.379,0,2.52,0.213,3.471,1.125c1.02,0.981,1.545,2.191,1.555,3.833
		c0,1.66-0.533,3.013-1.598,3.997c-0.945,0.879-2.273,1.398-3.623,1.402c-1.434,0-2.813-0.385-3.764-1.356
		c-0.957-0.984-1.311-2.311-1.318-3.876C121.619,49.061,122.182,47.856,123.215,46.859 M124.533,54.268
		c0.844,0.958,1.43,1.171,2.598,1.171c0.809,0,1.625-0.479,2.256-1.234c0.531-0.642,0.787-1.767,0.787-3.43
		c0-1.669-0.457-2.781-1.086-3.549c-0.723-0.898-1.504-1.104-2.404-1.109c-0.91,0-1.83,0.235-2.43,0.915
		c-0.65,0.743-0.945,1.931-0.953,3.554C123.301,52.191,124.063,53.735,124.533,54.268 M177.941,55.479
		c0,0.022,0.682-0.212,0.938-0.597c0.16-0.238,0.262-0.466,0.262-1.274l-0.092-6.366c-0.043-0.486-0.41-0.833-0.574-0.915
		c-0.213-0.106-0.561-0.082-0.746-0.233c0,0-0.424-0.316-0.063-0.384c-0.027,0.013,2.574-0.085,2.607,0.013
		c0.289,0.18,4.354,4.69,6.031,6.63c0.557,0.658,0.77,0.55,0.748-0.085c0.021,0,0.021-4.77,0.021-4.77
		c0-0.678-0.34-0.914-0.486-1.021c-0.311-0.222-0.602-0.383-1.109-0.47c0,0-0.426-0.145,0-0.284c0.021,0.012,3.34,0,3.34,0
		c0.234-0.013,0.234,0.18,0,0.243c-0.297,0-0.652,0.241-0.848,0.467c-0.191,0.227-0.291,0.733-0.291,1.543l-0.01,7.785
		c-0.021,0.359-0.361,0.167-0.361,0.167s-6.346-6.916-7.1-7.764c-0.006-0.01-0.117-0.218-0.301-0.087
		c-0.115,0.083-0.127,0.123-0.115,0.314c0,0.024,0.02,5.217,0.02,5.217c0,0.839,0.291,1.301,0.535,1.553
		c0.156,0.164,0.418,0.305,0.979,0.359c0.34-0.019,0.279,0.34,0.279,0.34l-3.896,0.003
		C177.709,55.863,177.645,55.563,177.941,55.479 M172.023,55.587c0.148-0.041,0.475-0.219,0.662-0.361
		c0.178-0.145,0.281-0.428,0.287-1.024l0.029-6.575c-0.021-0.426-0.021-0.937-0.23-1.149c-0.311-0.308-0.66-0.441-1.289-0.47
		c0,0-0.268-0.145,0-0.284c0.012,0.03,4.229,0,4.229,0c0.338,0.055-0.045,0.284-0.045,0.284c-0.344,0.003-0.611,0.183-0.748,0.345
		c-0.191,0.232-0.184,0.709-0.213,1.063v6.787c0,0.59,0.197,0.939,0.385,1.091c0.178,0.131,0.393,0.243,1.021,0.297
		c0.404,0.062,0,0.274,0,0.274l-4.088-0.003C171.701,55.761,172.023,55.587,172.023,55.587 M158.738,55.546
		c-0.02,0.002,0.639-0.43,0.789-0.598c0.15-0.157,0.279-0.419,0.279-1.085l0.043-6.341c0-0.551-0.111-0.857-0.234-1.065
		c-0.15-0.259-0.496-0.297-1.068-0.341c0,0-0.805-0.193-0.061-0.382c-0.006,0.03,3.98,0,3.98,0c0.426,0.019,0.066,0.272,0.066,0.272
		c-0.32,0.003-0.578,0.109-0.738,0.304c-0.145,0.185-0.287,0.51-0.254,1.071v2.244c0,0-0.033,0.533,0.436,0.514
		c0.684-0.033,3.742,0.058,4.219,0.02c0.551-0.044,0.658-0.386,0.658-0.64c0.023-0.639,0-2.073,0-2.073
		c0-0.546-0.15-0.964-0.314-1.136c-0.16-0.162-0.531-0.257-1.098-0.304c-0.4-0.06-0.121-0.284-0.121-0.284l4.234,0.003
		c0,0,0.213,0.24-0.125,0.284c-0.346-0.02-0.482,0.131-0.652,0.301c-0.168,0.166-0.246,0.519-0.246,1.071l0.002,6.758
		c0,0.554,0.109,0.729,0.277,0.895c0.164,0.148,0.346,0.41,0.914,0.468c0.299,0.044,0.426,0.341,0.088,0.361
		c0.02,0.041-3.875,0.086-3.875,0.086s-0.514-0.234,0.064-0.429c0,0.025,0.447-0.146,0.619-0.423
		c0.109-0.186,0.191-0.681,0.191-1.019c0,0,0.02-2.365,0.02-2.729c0-0.253-0.086-0.596-0.43-0.529c0,0-4.148-0.014-4.49-0.046
		c-0.234-0.021-0.385,0.106-0.385,0.556c0.012-0.01,0,2.686,0,2.686c0,0.55,0.301,1.001,0.471,1.167
		c0.164,0.156,0.477,0.311,1.045,0.363c0.49,0.063,0.125,0.317,0.125,0.317l-4.529-0.003
		C158.639,55.86,158.381,55.63,158.738,55.546 M154.504,46.01c0.541,0.278,0.979,0.511,1.219,0.491
		c0.141-0.016,0.262-0.312,0.314-0.491c0.236-0.32,0.318,0.256,0.318,0.235l0.195,2.871c0,0-0.195,0.278-0.383,0
		c-0.207-0.679-0.74-1.433-1.109-1.83c-0.555-0.597-1.557-1.192-2.619-1.214c-1.209-0.019-2.055,0.48-2.68,1.259
		c-0.535,0.658-0.852,1.765-0.852,2.915c0,1.358,0.578,2.937,1.387,3.702c0.781,0.745,1.619,1.122,2.727,1.128
		c0.787,0,1.234-0.216,1.908-0.596c0.383-0.21,0.9-0.77,1.369-1.213c0.273-0.234,0.418,0.085,0.418,0.085
		c0.043,0.235-0.836,1.15-1.549,1.724c-0.535,0.426-1.92,0.917-2.617,0.917c-1.652,0-2.604-0.089-4.047-1.384
		c-0.818-0.737-1.279-2.259-1.289-3.719c0-1.486,0.477-2.739,1.416-3.752c0.992-1.063,2.273-1.596,3.877-1.596
		C153.064,45.543,153.973,45.734,154.504,46.01"/>
	<g clip-path="url(#SVGID_2_)">
		<defs>
			<rect id="SVGID_3_" x="0" y="1.68" width="200.218" height="56.641"/>
		</defs>
		<clipPath id="SVGID_4_">
			<use xlink:href="#SVGID_3_"  overflow="visible"/>
		</clipPath>
		<path clip-path="url(#SVGID_4_)" fill-rule="evenodd" clip-rule="evenodd" d="M112.693,16.684
			c0.066-0.129,0.086,0.107,0.398,0.452c0.313,0.342,0.121,0.447,0.311,0.724c0.188,0.28,0.191,0.134,0.143,0.45
			c-0.045,0.316-0.107,0.254-0.389,0.482c-0.273,0.232-0.043,0.129-0.314-0.149c-0.275-0.283-0.035-0.68-0.307-0.919
			c-0.275-0.238-0.297-0.238-0.23-0.618C112.375,16.723,112.629,16.81,112.693,16.684 M111.621,17.731
			c0.127-0.083,0.352,0.306,0.521,0.711c0.162,0.405,0.164,0.319,0.309,0.768c0.145,0.447,0.104,0.235-0.262,0.655
			c-0.369,0.42-0.857,0.369-1.348,0.811c-0.494,0.442-0.707,0.312-1.158,0.625c-0.449,0.313-0.383,0.205-0.766,0.053
			c-0.381-0.154-0.359-0.258-0.1-0.576c0.258-0.314,0.215-0.145,0.406-0.314c0.195-0.167-0.23-0.193-0.016-0.361
			c0.217-0.167,0.193,0.068,0.535-0.312c0.348-0.381,0.24-0.442,0.371-0.674c0.129-0.233,0.279-0.507,0.645-0.676
			C111.125,18.279,111.492,17.817,111.621,17.731 M114.414,8.674c0.131-0.064,0.404-0.059,0.703-0.014
			c0.17,0.026-0.131-0.045,0.617-0.077c0.383-0.017,0.59,0.178,0.93,0.374c0.793,0.456,1.35,0.618,1.52,0.866
			c0.146,0.215,0.256,0.626,0.201,0.941c-0.047,0.253-0.074,0.74-0.396,1.01c-0.281,0.24-0.438,0.455-0.576,0.591
			c-0.131,0.126-0.082,0.507-0.311,0.591c-0.273,0.104-0.484-0.09-0.824-0.095c-0.365-0.003-0.641,0.205-0.744,0.096
			c-0.076-0.076-0.162-0.208-0.299-0.3c-0.123-0.086-0.309-0.024-0.334-0.176c-0.039-0.235-0.334-0.857-0.559-1.088
			c-0.086-0.087,0.131-0.534,0.008-0.682c-0.127-0.149-0.105-0.384-0.123-0.533c-0.021-0.154-0.016-0.284-0.016-0.446
			c0.002-0.146-0.195-0.384-0.102-0.576C114.178,9.032,114.277,8.741,114.414,8.674 M110.973,11.35
			c-0.078-0.405,0.387-0.293,0.814-0.521c0.43-0.229,0.217-0.169,0.338,0.172c0.121,0.344-0.125,0.023-0.236,0.486
			c-0.113,0.466-0.113,0.383-0.414,0.591c-0.299,0.207-0.256-0.023-0.4-0.26C110.928,11.583,111.055,11.754,110.973,11.35
			 M105.873,8.783c-0.086-0.201,0.434-0.889,1.814-2.613c1.227-1.534,3.771-2.545,4.818-2.914c0.221-0.083,0.963-0.297,1.215-0.35
			c0.191-0.037,0.965-0.073,1.15-0.135c0.361-0.123,0.973-0.076,1.084-0.135c0.266-0.128,0.547-0.196,0.855-0.263
			c0.355-0.08,0.805,0.115,1.123,0.056c0.627-0.118,1.113,0.239,1.463,0.419c1.203,0.634,2.514,2.859,3.01,4.12
			c0.492,1.258,1.51,4.798,1.689,7.692c0.115,1.855,0.047,6.714-0.023,7.458c-0.131,1.324-0.186,4.44-0.277,5.033
			c-0.109,0.717-0.191,1.952-0.453,2.396c-0.48,0.818-2.438,2.277-2.859,2.66c-0.344,0.316-1.828,1.605-1.994,1.592
			c-0.217-0.013-0.465-0.452-0.928-0.901c-0.824-0.812-2.979-1.567-3.885-2.069c-0.891-0.49-3.813-0.761-5.598-0.874
			c-1.275-0.082-3.227-0.252-3.291-0.397c-0.066-0.174-0.211-0.113-0.404-0.119c-0.174,0-0.191,0.216-0.234,0.297
			c-0.066,0.129,0.082,0.068,0.018,0.427c-0.068,0.362,0.104,0.129,0.141,0.426c0.039,0.301,0.168,0.173,0.061,0.447
			c-0.109,0.273,0.441,0.474,0.541,0.771c0.125,0.356,0.119,0.81-0.264,0.826c-0.414,0.017-0.773,0.182-1.213,0.026
			c-0.316-0.109-1.41-1.098-1.467-1.716c-0.047-0.528-0.123-1.745-0.164-2.127c-0.078-0.679-0.332-2.467-0.407-3.364
			c-0.073-0.891-0.161-0.701,0.014-1.061c0.175-0.358-0.272-0.416-0.116-0.894c0.11-0.34-0.029-0.996,0.166-1.422
			c0.088-0.192-0.143-0.188-0.123-0.383c0.025-0.257,0.049-0.426,0.115-0.679c0.053-0.197,0.027-0.426,0.01-0.785
			c-0.018-0.361-0.016-0.51,0.135-0.764c0.094-0.157-0.08-0.237-0.055-0.554c0.014-0.182,0.236-1.848,0.326-2.481
			c0.094-0.637,0.234-2.325,0.352-2.546c0.326-0.612,0.516-1.993,0.646-2.479c0.143-0.516,0.592-0.978,0.695-1.374
			c0.045-0.167,0.322-0.313,0.43-0.25c0.145,0.092,0.205,0.538,0.203,0.706c-0.004,0.247-0.164,1.323-0.273,1.546
			c-0.131,0.277-0.271,1.272-0.293,1.421c-0.041,0.266-0.049,0.573-0.076,0.765c-0.021,0.188-0.15,0.444-0.219,0.655
			c-0.055,0.175,0.043,0.527-0.008,0.702c-0.068,0.233-0.047,0.383-0.156,0.572c-0.104,0.183,0.061,0.361-0.006,0.509
			c-0.082,0.184,0.08,0.362-0.049,0.573c-0.137,0.22,0.088,0.269,0.016,0.553c-0.092,0.34-0.076,0.616-0.16,0.784
			c-0.086,0.169,0.16,0.391,0.074,0.704c-0.109,0.422-0.033,2.831-0.1,3.313c-0.072,0.487-0.049,2.019,0.012,2.297
			c0.043,0.188,0.059,0.571,0.227,0.551c0.211-0.022,0.248-0.711,0.459-0.671c0.121,0.022,0.041,0.414,0.072,0.68
			c0.057,0.487,0.021,0.07,0.137,0.936c0.078,0.574-0.021,1.53,0.064,1.83c0.082,0.297,0.035,0.575,0.352,0.576
			c0.277,0.001,0.176-0.212,0.389-0.482c0.219-0.275,0.232-0.318,0.408-0.187c0.146,0.108,1.189,0.1,1.529,0.041
			c0.441-0.078,0.748-0.444,1.049-0.669c0.365-0.269,1.783-1.613,2.496-2.219c0.318-0.276,1.203-1.326,1.549-1.661
			c0.568-0.557,1.453-1.475,1.59-1.636c0.109-0.13,0.152-0.298,0.027-0.534c-0.072-0.145-0.188-0.172-0.336-0.086
			c-0.369,0.204-0.84,0.817-1.201,1.042c-0.645,0.406-1.447,0.948-1.885,1.214c-0.496,0.29-1.201,0.621-1.65,0.87
			c-0.582,0.324-1.229,0.534-1.326,0.579c-0.213,0.105-0.291,0.168-0.486,0.015c-0.17-0.127-0.115-0.056,0.049-0.594
			c0.109-0.358-0.174-0.75,0.229-1.273c0.258-0.334,0.502-1.203,0.914-1.709c0.146-0.178,0.938-1.172,1.098-1.43
			c0.135-0.211,0.395-0.327,0.432-0.4c0.131-0.257,0.293-0.571,0.371-0.611c0.268-0.14,0.537-0.541,0.58-0.587
			c0.088-0.104,0.123-0.167,0.068-0.34c-0.021-0.067-0.158-0.303-0.32-0.108c-0.17,0.209-0.486,0.266-0.617,0.352
			c-0.24,0.156-0.176,0.444-0.414,0.462c-0.342,0.028-0.309-0.532-0.264-0.724c0.053-0.226-0.125-0.28-0.016-0.514
			c0.252-0.534,0.178-0.591,0.244-0.699c0.066-0.104,0.121-0.023,0.258-0.185c0.086-0.108-0.086-0.257,0.025-0.383
			c0.215-0.257,0.281-0.559,0.498-0.695c0.234-0.145,0.645-0.693,0.688-0.842c0.057-0.183,0.068-0.365,0.133-0.552
			c0.023-0.063-0.219-0.096-0.313-0.213c-0.107-0.129-0.02-0.212,0.027-0.447c0.021-0.128-0.232-0.28-0.232-0.45
			c0.008-0.193-0.018-0.276-0.248-0.258c-0.238,0.018-0.746,0.546-1.158,0.623c-0.426,0.081-0.76-0.221-0.545-0.645
			c0.271-0.522,0.906-1.284,1.037-1.43c0.191-0.218,0.154-0.424,0.133-0.637c-0.014-0.22-0.213-0.702-0.279-1.216
			c-0.039-0.297-0.361-1.399-0.428-1.535c-0.039-0.087-0.137-0.35,0.111-0.447c0.109-0.041,0.32,0.198,0.463,0.413
			c0.223,0.321,0.563,0.919,0.668,1.133c0.129,0.263,0.254,0.539,0.311,0.749c0.039,0.148,0.141,0.423,0.355,0.45
			c0.207,0.023,0.338,0.005,0.469-0.123c0.219-0.214,1.354-0.657,1.836-0.828c0.234-0.08,0.365-0.12,0.617,0.031
			c0.143,0.083,0.313,0.575,0.398,0.619c0.174,0.09,0.252,0.069,0.207,0.195c-0.027,0.083-0.004,0.04-0.217,0.294
			c-0.213,0.252-0.023,0.341-0.24,0.679c-0.219,0.336-0.393,0.8-0.48,1.012c-0.084,0.207-0.281,0.295-0.432,0.444
			c-0.172,0.168-0.111,0.399-0.197,0.443c-0.264,0.128-0.258,0.089-0.34,0.271c-0.092,0.191-0.135,0.489,0.072,0.873
			c0.104,0.191,0.299,0.235,0.334,0.389c0.076,0.284,0.273,0.278,0.381,0.426c0.176,0.258,0.146,0.243,0.25,0.407
			c0.184,0.303,0.166,0.176,0.396,0.346c0.146,0.107,0.271,0.45,0.439,0.623c0.275,0.28,0.631,0.497,0.881,0.797
			c0.203,0.241,0.209,0.361,0.186,0.575c-0.039,0.358,0.043,0.148-0.092,0.402c-0.094,0.19,0,0.446-0.002,0.574
			c-0.004,0.235-0.006,0.405-0.158,0.615c-0.152,0.212-0.584,0.758-0.672,0.97c-0.074,0.175-0.131,0.359-0.047,0.444
			c0.117,0.122,0.207,0.174,0.363,0.07c0.27-0.188,1.076-1.519,1.768-2.401c0.369-0.472,1.129-1.729,1.303-2.069
			c0.178-0.345,0.713-0.996,0.822-1.135c0.064-0.086,0.256-0.083,0.293,0.067c0.039,0.132-0.021,0.277,0.021,0.362
			c0.055,0.116,0.209,0.046,0.227,0.238c0.02,0.193,0.041,0.277-0.023,0.381c-0.049,0.079,0.119,0.124,0.018,0.299
			c-0.088,0.146,0.02,0.447-0.221,0.717c-0.342,0.389-1.168,1.493-1.514,1.938c-0.475,0.61-1.852,2.25-2.068,2.439
			c-0.115,0.103-0.262,0.324-0.197,0.468c0.104,0.23,0.498,0.896,0.727,1.091c0.301,0.249,0.934,0.625,1.207,0.631
			c0.328,0.004,0.545-0.094,0.66-0.188c0.516-0.396,0.93-1.261,1.104-1.683c0.246-0.59,0.641-1.801,0.666-1.989
			c0.033-0.3-0.102-0.62-0.08-0.725c0.031-0.134,0.219-0.104,0.256,0.024c0.057,0.171,0.104,0.488,0.143,0.702
			c0.066,0.354-0.469,2.161-0.566,2.774c-0.115,0.746-1.012,2.009-1.09,2.2c-0.043,0.104-0.025,0.275-0.238,0.292
			c-0.246,0.023-0.34-0.05-0.486-0.089c-0.549-0.158-1.016-0.545-1.367-0.867c-0.361-0.322-1.201-1.354-1.305-1.524
			c-0.078-0.126-0.355-0.324-0.486-0.217c-0.23,0.188-0.584,0.713-0.75,0.837c-0.137,0.098-0.393,0.201-0.539,0.356
			c-0.215,0.23-0.471,0.526-0.729,0.756c-0.191,0.171-1.014,0.775-1.162,0.921c-0.236,0.23-0.52,0.609-0.688,0.733
			c-0.172,0.128-0.75,0.482-0.924,0.671c-0.193,0.211-0.465,0.639-0.689,0.734c-0.148,0.063-0.344,0.316-0.195,0.445
			c0.146,0.128,0.637-0.1,0.959-0.159c0.254-0.049,0.637-0.056,0.91-0.075c0.174-0.013,0.332-0.19,0.73-0.309
			c0.34-0.103,0.574,0.046,0.723,0.008c0.186-0.051,0.295-0.124,0.598-0.204c0.334-0.094,0.787-0.036,0.979-0.116
			c0.139-0.06,0.127-0.108,0.385-0.273c0.172-0.11,0.393-0.006,0.576-0.06c0.236-0.057,0.662-0.178,1.109-0.343
			c0.355-0.131,1.492-0.408,1.662-0.425c0.164-0.021,0.408-0.38,0.684-0.482c0.355-0.132,1.021-0.009,1.301-0.177
			c0.164-0.098,0.541,0.119,0.719,0.437c0.23,0.404-0.031,0.613-0.096,0.848c-0.17,0.583-0.33,0.847-0.521,1.057
			c-0.195,0.207-0.262,0.59-0.584,0.668c-0.365,0.097-0.557,0.151-0.957-0.029c-0.719-0.329-1.104-0.015-1.523-0.104
			c-0.635-0.135-0.879,0.181-1.174,0.156c-0.152-0.012-0.627-0.092-0.77-0.011c-0.41,0.239-0.742,0.182-1.021,0.266
			c-0.23,0.067-0.322,0.291-0.193,0.399c0.219,0.187,0.951,0.374,1.547,0.336c0.955-0.055,1.654,0.148,2.037,0.175
			c0.574,0.041,0.973,0.354,1.252,0.356c0.313,0,0.441,0.152,0.76,0.243c0.213,0.055,0.465,0.133,0.699,0.113
			c0.258-0.019,0.449,0.173,0.553,0.132c0.383-0.143,0.383-0.108,0.596-0.159c0.172-0.041,0.514-0.487,0.752-0.647
			c0.303-0.213,0.928-0.798,1.057-1.156c0.135-0.37,0.174-0.532,0.309-0.997c0.115-0.393-0.059-0.427,0.096-1.062
			c0.137-0.554-0.002-1.444,0.109-1.785c0.068-0.212,0.047-0.317,0.111-0.509c0.09-0.255,0.002-0.445-0.014-0.549
			c-0.021-0.131,0.174-0.403,0.174-0.575c0.006-0.147-0.16-0.278-0.055-0.57c0.141-0.375,0.033-0.768,0.141-0.891
			c0.105-0.126-0.123-0.34-0.059-0.535c0.1-0.287,0.109-1.466,0.045-2.08c-0.072-0.769,0.043-1.809,0.074-2.191
			c0.008-0.193-0.252-0.341-0.168-0.51c0.119-0.231-0.016-0.597-0.051-0.892c-0.055-0.396-0.18-1.128-0.195-1.576
			c-0.023-0.767-0.744-5.212-1.197-6.346c-0.643-1.604-2.338-3.28-3.041-3.586c-0.662-0.294-1.525-0.251-2.076-0.26
			c-0.426-0.006-1.939,0.23-3.279,0.661c-1.195,0.381-2.469,0.973-2.885,1.217c-0.492,0.292-1.053,0.965-1.42,1.343
			c-0.395,0.41-0.496,0.898-0.607,1.121c-0.305,0.61,0.002,1.379,0.063,1.592c0.107,0.364,0.016,0.619-0.133,0.68
			c-0.332,0.137-0.191,0.146-0.813,0.223c-0.199,0.025-0.57-0.156-0.592-0.304C106.355,9.781,106.033,9.166,105.873,8.783"/>
		<path clip-path="url(#SVGID_4_)" fill-rule="evenodd" clip-rule="evenodd" d="M200,16.519c-0.359,0.194-1.441,1.405-1.719,1.531
			c-0.27,0.119-0.656-0.176-0.893-0.138c-0.617,0.098-2.092,0.453-3.131,0.643c-0.869,0.158-2.32,0.696-2.709,0.898
			c-0.277,0.146-0.285,0.344-0.131,0.488c0.523,0.496,0.967,0.735,1.219,1.056c0.168,0.221-0.092,0.319-0.158,0.682
			c-0.084,0.438-0.371,2.522-0.234,3.65c0.117,0.985,0.637,3.951,0.77,4.769c0.119,0.725,0.219,1.718,0.313,2.087
			c0.131,0.52-0.057,1.445-0.252,1.652c-0.711,0.771-1.832,1.912-2.131,2.019c-0.449,0.151-1.039,0.133-1.461-0.213
			c-0.549-0.447-0.752-1.262-0.918-1.688c-0.281-0.732-1.09-1.289-1.654-1.701c-1.006-0.725-3.207-1.847-3.539-2.637
			c-0.049-0.111-0.125-0.342,0.113-0.423c0.443-0.156,0.652,0.393,0.945,0.608c0.559,0.407,1.037,0.52,1.441,0.653
			c0.629,0.21,1.76,0.488,2.029,0.578c0.643,0.212,0.977,0.308,1.463,0.146c0.338-0.111,0.885-1.158,0.914-1.603
			c0.064-1.085-0.182-2.364-0.154-2.894c0.078-1.53,0.045-1.815,0.203-2.974c0.119-0.847-0.104-1.488-0.078-1.87
			c0.027-0.474,0.033-1.169,0.166-1.505c0.109-0.285-0.242-0.273-0.488-0.2c-1.174,0.349-1.721,0.892-2.736,1.369
			c-0.705,0.332-1.973,1.102-2.484,1.288c-0.357,0.129-0.641,0.629-0.854,0.436c-0.236-0.221-0.572-0.157-0.781-0.54
			c-0.301-0.565,0.182-1.083,0.568-1.312c0.514-0.307,0.982-0.117,2.541-0.88c1.561-0.771,3.25-1.789,4.516-2.287
			c1.23-0.481,4.586-1.486,5.076-1.594c0.488-0.103,1.553-0.199,1.723-0.276c0.664-0.29,1.256-0.279,1.469-0.32
			c0.299-0.056,0.725,0.049,0.979,0.075C200.248,16.125,200.344,16.332,200,16.519 M186.742,12.852
			c0.447-0.23,0.568,0.306,0.721,0.306c0.443,0.005,0.842,0.055,1.402-0.134c0.428-0.141,3.121-1.491,4.037-1.714
			c1.564-0.379,3.754-0.994,4.516-0.943c0.262,0.016,0.275,0.194,0.02,0.341c-0.293,0.162-0.369,0.567-0.605,0.798
			c-0.152,0.15-0.092,0.619-0.223,0.785c-0.156,0.205-0.389,0.314-0.662,0.311c-0.428-0.006-0.469-0.006-0.744-0.009
			c-0.311-0.003-0.945,0.398-1.178,0.453c-0.082,0.019-0.297-0.163-0.5-0.219c-0.492-0.135-2.338,0.603-3.057,0.918
			c-0.744,0.333-2.072,0.985-2.738,1.689c-0.258,0.272-0.52,0.78-0.941,0.541c-0.383-0.216-0.539-1.091-0.639-1.477
			C186.059,14.17,186.102,13.179,186.742,12.852 M184.342,2.366c0.4,0.069,1.145,1.883,1.559,2.697
			c0.137,0.263,0.223,0.688,0.305,1.365c0.035,0.317,0.33,0.918,0.258,1.637c-0.039,0.361,0.066,1.012-0.064,1.32
			c-0.088,0.21-0.428,0.417-0.432,0.717c0,0.174-0.281,0.568-0.453,0.736c-0.27,0.26-0.439,0.956-0.609,1.183
			c-0.322,0.42-1.145,0.407-1.727,0.573c-0.43,0.125-0.945,0.396-1.393,0.707c-0.451,0.313-1.26,0.593-1.822,0.975
			c-0.424,0.295-1.307,1.176-1.564,1.384c-0.18,0.146-0.484,0.386-0.201,0.636c0.295,0.258,1.129,0.122,2.246,0.622
			c0.74,0.33,1.393,0.785,1.768,1.402c0.314,0.514,0.16,0.962-0.186,1.169c-0.277,0.164-0.463,0.66-1.053,1.155
			c-0.301,0.252-0.516,0.893-0.994,1.306c-0.367,0.312-1.688,1.719-2.191,2.099c-0.279,0.209-0.273,0.559,0.182,0.722
			c0.424,0.154,1.734,1.083,2.166,1.708c0.459,0.664,0.662,2.095,0.75,3.257c0.051,0.769-0.471,1.934-0.693,2.734
			c-0.111,0.404-0.191,0.577-0.707,0.483c-0.139-0.027-0.369-0.338-0.588-0.562c-0.316-0.322-0.756-0.452-0.973-0.694
			c-0.252-0.278-0.602-0.437-0.775-0.708c-0.207-0.322-0.186-1.792-0.076-2.446c0.088-0.549,0.18-0.941,0.314-1.357
			c0.109-0.339,0.328-1.449-0.086-1.53c-0.236-0.044-1.113,0.433-1.584,0.661c-0.523,0.254-1.113,0.603-1.371,0.897
			c-0.289,0.328-0.453,0.78-0.502,1.119c-0.045,0.333-0.281,0.567-0.432,0.484c-0.313-0.171-0.625-0.025-0.854,0.033
			c-0.316,0.083-0.525-0.209-0.885-0.353c-0.617-0.24-0.332-0.053-0.867-0.497c-0.334-0.28-1.082-1.379-0.799-2.156
			c0.152-0.423,0.006-0.616,0.438-1.015c1.047-0.971,1.453-1.511,2.521-2.669c0.555-0.606,1.504-1.597,2.084-2.078
			c0.234-0.194,0.451-0.542,0.627-0.948c0.109-0.253,0.723-0.714,0.332-0.973c-0.424-0.283-0.967-0.312-1.275-0.187
			c-0.301,0.123-0.492-0.221-0.842-0.414c-0.318-0.174-0.668,0.063-0.914-0.115c-0.295-0.218-0.441-0.369-0.715-0.565
			c-0.256-0.179-0.732-0.439-0.502-0.918c0.176-0.359,0.031-0.872,0.42-1.165c0.492-0.375,0.832-0.751,1.182-1.047
			c0.666-0.567,2.496-2.688,3.729-4.1c1.295-1.482,3.672-5.012,4.598-5.957c0.195-0.197,0.113-0.661,1.098-1.178
			C183.387,2.205,183.861,2.285,184.342,2.366"/>
	</g>
	<path clip-path="url(#SVGID_2_)" fill-rule="evenodd" clip-rule="evenodd" d="M155.682,7.054c0.078,0.361-0.232,1.696-0.609,2.839
		c-0.377,1.142-0.461,1.523-0.795,2.562c-0.15,0.459-0.447,0.252-0.617,0.439c-0.199,0.209,0.23-0.167-0.584,0.63
		c-0.498,0.484-1.541,1.126-1.824,1.442c-0.152,0.168-0.471,0.082-0.531-0.238c-0.037-0.209-0.035-0.403-0.049-0.831
		c-0.021-0.361,0.301-0.805,0.373-0.994c0.107-0.296,0.285-0.889,0.285-1.271c0.01-0.723,0.789-1.69,1.393-2.407
		C153.324,8.511,155.682,7.054,155.682,7.054 M151.908,18.375c0.322-0.229,0.293,0.386,0.596,0.324
		c0.186-0.034,0.344-0.268,0.469-0.417c0.105-0.125,0.27-0.22,0.379,0.324c0.063,0.297,0.117,0.581-0.051,0.785
		c-0.258,0.317-1.73,0.85-1.988,0.957c-0.182,0.071-0.24,0.148-0.313-0.218c-0.104-0.47,0.449-0.719,0.475-0.932
		C151.52,18.81,151.645,18.564,151.908,18.375 M155.1,24.917c0.301,0.046,1.07-0.391,1.393-0.643
		c0.232-0.179,0.443,0.094,0.314,0.325c-0.141,0.248-0.648,0.841-0.754,1.117c-0.068,0.16-0.24,0.272-0.365,0.229
		c-0.25-0.086-0.594-0.239-0.83-0.374C154.563,25.406,154.83,24.874,155.1,24.917 M148.258,25.364
		c0.098-0.235,0.693,0.456,1.072,0.546c0.408,0.097,0.869,0.286,1.377,0.42c0.697,0.183,1.439,0.59,1.965,0.957
		c0.365,0.254,0.848,0.354,1.264,0.781c0.162,0.161,0.104,0.385-0.023,0.531c-0.152,0.171-0.24,0.379-0.52,0.569
		c-0.725,0.489-3.145,1.767-3.467,2.038c-0.412,0.347-1.193,0.158-1.447-0.082c-0.221-0.207-0.455-0.526-0.52-0.959
		c-0.1-0.68-0.143-1.96-0.094-2.573C147.908,27.01,147.926,26.126,148.258,25.364 M140.49,25.716
		c0.006-0.15,0.771-0.499,1.197-0.707c0.414-0.197,0.795-0.374,1.156-0.411c0.18-0.021,0.385,0.138,0.316,0.366
		c-0.113,0.356-1.77,1.954-2.35,2.584c-0.123,0.134-0.359-0.344-0.375-0.643C140.42,26.566,140.49,26.043,140.49,25.716
		 M139.178,22.175c0.234-0.028,0.33,0.312,0.139,0.595c-0.127,0.188-0.492,0.291-0.574,0.185c-0.137-0.179-0.016-0.341,0.197-0.487
		C139.125,22.336,139.004,22.192,139.178,22.175 M141.08,15.906c0.426-0.038,0.438,0.165,0.465,0.197
		c0.107,0.129,0.334,0.668,0.498,0.856c0.146,0.172,0.266,0.368,0.506,0.453c0.125,0.042,0.139,0.617,0.115,0.873
		c-0.023,0.276-0.689,0.389-1.027,0.645c-0.213,0.168-0.338,0.305-0.475,0.481c-0.17,0.235-0.215,0.362-0.453,0.571
		c-0.193,0.174,0.043,1.088-0.1,1.506c-0.066,0.191,0.188,0.172,0.398,0.18c0.109,0,0.143-0.201,0.279-0.319
		c0.174-0.147,0.646-0.486,0.885-0.628c0.166-0.104-0.055-0.681,0.197-0.739c0.17-0.041,0.18,0.588,0.289,0.833
		c0.078,0.191,0.355,0.904,0.279,1.192c-0.07,0.254-0.113,0.537-0.201,0.701c-0.088,0.167-1.111,0.61-1.006,1.047
		c0.059,0.257,0.818-0.1,1.207-0.072c0.299,0.025,0.867-0.028,1.129-0.028c0.254,0.003,0.746,0.384,1.029,0.884
		c0.146,0.258-0.902,1.175-1.447,1.874c-0.537,0.694-2.641,2.476-3.072,2.897c-0.217,0.212-0.08,0.999-0.25,1.1
		c-0.203,0.128-0.387,0.003-0.613,0.059c-0.174,0.037-0.465,0.154-0.557,0.354c-0.088,0.19-0.104,0.339,0.057,0.424
		c0.211,0.108,2.436-1.012,3.512-1.976c1.121-1.008,2.664-2.561,3.227-3.276c0.434-0.548,0.266-2.863,0.766-5.131
		c0.227-1.042,0.732-4.411,1.09-6.001c0.414-1.816,1.834-4.635,2.105-5.054c0.109-0.167-0.008-0.333,0.09-0.487
		c0.113-0.168,0.148-0.294,0.533-0.12c0.154,0.072,0.4,0.366,0.547,0.304c0.334-0.139-0.174,0.146,1.037-1.027
		c1.199-1.177,2.355-1.759,2.996-2.238c0.645-0.481,1.08-1.027,1.398-1.173c0.268-0.12,0.514-0.005,0.611,0.264
		c0.105,0.277,0.131,0.684-0.012,1.188c-0.086,0.32-0.326,0.768-0.611,1.438c-0.115,0.264-0.463,1.614-0.711,2.35
		c-0.246,0.738-0.541,2.491-0.715,2.796c-0.258,0.464,0.043,0.579-0.141,1.083c-0.057,0.165-0.398,0.936-0.613,1.371
		c-0.217,0.447-0.848,1.843-0.979,1.966c-0.164,0.162-0.049,0.499,0.035,0.64c0.104,0.169,0.688,0.532,1.086,1.5
		c0.125,0.3,0.086,0.608-0.158,0.932c-0.176,0.232-0.869,0.451-1.262,0.644c-0.516,0.248-2.564,1.286-3.256,1.851
		c-0.148,0.126-0.4,0.091-0.336-0.134c0.111-0.4-0.021-1.634,0.127-2.056c0.23-0.628,0.137-0.381,0.654-1.099
		c0.273-0.381,0.85-1.774,1.473-2.468c0.064-0.067,0.191-0.422-0.012-0.551c-0.17-0.108-0.379,0.113-0.596,0.183
		c-0.131,0.042-0.152,0.361-0.305,0.423c-0.227,0.095-0.445-0.144-0.658,0.034c-0.15,0.122-0.426,0.731-0.484,1.141
		c-0.018,0.169-0.311,0.394-0.385,0.506c-0.086,0.128-0.031,0.678-0.08,1.063c-0.055,0.462-0.492,1.644-0.6,2.137
		c-0.066,0.318-0.197,1.027-0.166,1.442c0.018,0.236,0.125,0.399,0.295,0.367c0.191-0.042,0.324-0.367,0.516-0.398
		c0.232-0.04,1.002-0.053,1.336,0.039c0.158,0.042,0.443,0.239,0.957,0.137c0.289-0.054,0.738-0.18,1.086-0.175
		c0.336,0.003,1.994,0.001,2.695,0.011c0.256,0.003,1.688-0.703,2.137-0.911c0.371-0.168,1.262-1.004,1.871-1.634
		c0.346-0.357,1.154-0.602,1.576-0.404c0.213,0.098,0.086,0.733-0.242,0.974c-0.258,0.187-0.879,0.519-1.18,0.729
		c-0.48,0.333-1.252,1.29-1.617,1.916c-0.176,0.294-0.736,1.092-1.018,1.601c-0.059,0.1-0.059,0.348,0.16,0.575
		c0.213,0.216,1.971,0.685,2.793,0.97c0.074,0.026,0.189,0.171,0.363,0.11c0.115-0.041,0.273-0.101,0.295,0.196
		c0.008,0.144,1.16,0.174,1.295,0.27c0.438,0.327,2.133,0.706,2.686,1.052c0.207,0.132,0.271,0.184,0.461,0.412
		c0.127,0.149,0.443,0.144,0.4,0.365c-0.049,0.233-3.311,1.042-4.479,0.986c-1-0.05-2.035-0.175-2.99-0.506
		c-0.842-0.291-2.463-1.514-2.703-1.517c-0.379-0.006-0.34,0.079-0.598,0.333c-0.07,0.067-0.201,0.301-0.387,0.482
		c-0.217,0.211-0.967,0.946-1.121,1.154c-0.217,0.297-0.727,0.411-1.047,0.669c-0.236,0.186-0.693,0.693-0.969,0.88
		c-0.512,0.346-1.156,0.772-1.541,0.936c-0.391,0.165-1.076-0.082-1.658-0.168c-0.635-0.091-1.41-0.763-1.705-1.34
		c-0.17-0.341-0.164-1.195-0.252-1.701c-0.064-0.341,0.209-1.389-0.004-1.53c-0.295-0.196-0.453,0.026-0.596,0.184
		c-0.24,0.25-0.52,0.734-1.273,1.259c-0.328,0.231-0.33,0.391-0.707,0.754c-0.281,0.273-0.938,0.666-1.398,1.046
		c-0.445,0.377-1.262,0.606-1.791,0.699c-0.191,0.038-0.725,0.365-1.027,0.5c-0.277,0.123-1.158,0.431-1.705,0.596
		c-0.344,0.103-0.502-0.643-0.582-1.153c-0.078-0.514,0.119-1.043,0.42-1.205c0.498-0.278,1.285-1.196,1.717-1.658
		c0.113-0.122-0.109-0.398-0.313-0.389c-0.701,0.036-1.146-0.269-1.146-0.269c0.514-0.079,1.385-0.107,1.688-0.49
		c0.053-0.057,0.195-0.19,0.195-0.358c0.006-0.249-0.08-0.311-0.102-0.469c-0.02-0.12,0.146-0.329,0.09-0.446
		c-0.059-0.125-0.18-0.428-0.396-0.3c-0.447,0.264-1.215,1.028-1.422,1.427c-0.129,0.253-0.156,0.529-0.156,0.529
		c-0.127,0.126-0.361,0.016-0.361,0.016c-0.41,0.419-1.055,1.134-1.377,1.407c-0.236,0.204-0.568,0.353-0.83,0.227
		c-0.316-0.156-0.529-0.816-0.672-1.031c-0.121-0.192,0.053-0.467,0.244-0.59c0.291-0.187,1.051-0.583,1.264-0.772
		c0.238-0.207,1.25-1.215,1.484-1.404c0.377-0.303,0.902-0.646,1.203-0.965c0.213-0.232-0.051-0.512-0.209-0.385
		c-0.129,0.104-0.32,0.061-0.402-0.129c-0.205-0.483-0.639-1.668-0.631-2.115c0.002-0.276,0.006-0.428,0.111-0.679
		c0.328-0.758,1.416-2.183,1.754-2.442c0.32-0.25,0.129-0.492,0.027-0.678c-0.125-0.238-0.75-1.009-0.727-1.285
		c0.033-0.413,0.648-0.778,1.246-1.195C140.053,16.4,140.654,15.944,141.08,15.906 M143.113,9.536
		c0.156-0.319,1.195-0.388,1.66-0.303c0.424,0.087,0.93,0.917,1.092,1.313c0.104,0.255,0.279,0.796,0.197,1.001
		c-0.109,0.275-0.551,0.275-0.979,0.394c-0.154,0.039-0.553,0.186-0.836,0.327c-0.361,0.188-0.807,0.578-0.963,0.733
		c-0.174,0.168-0.461,0.243-0.598,0.206c-0.088-0.022-0.084-0.267,0.064-0.422c0.279-0.296,0.633-1.121,0.551-1.442
		c-0.037-0.165-0.207-0.235-0.223-0.746C143.072,10.339,142.982,9.8,143.113,9.536 M142.969,3.817
		c0.172-0.042,0.289,0.249,0.553,0.369c0.188,0.086,0.27,0.256,0.461,0.26c0.262,0.001,0.271,0.406,0.418,0.535
		c0.127,0.107,0.295,0.512,0.439,0.645c0.168,0.153,0.229,0.346,0.398,0.472c0.184,0.139,0.234,0.618,0.014,0.893
		c-0.174,0.212-0.451,0.497-0.818,0.607c-0.34,0.101-1.092,0.125-1.514,0.384c-0.344,0.208-0.979,0.71-1.336,1.091
		c-0.664,0.711-1.422,1.957-2.029,3.012c-0.414,0.716-1.955,3.354-2.414,4.39c-0.191,0.431-1.176,2.531-1.523,3.294
		c-0.461,0.993-1.584,3.158-1.811,3.74c-0.309,0.785-0.131,1.442-0.344,1.739c-0.195,0.276-0.572,0.248-0.809,0.076
		c-0.229-0.172-0.6-0.52-0.691-0.881c-0.078-0.318,0.088-1.061,0.189-1.442c0.066-0.254,0.201-0.425,0.414-0.524
		c0.127-0.063,0.34-0.001,0.527-0.08c0.145-0.06,0.754-1.076,1.063-1.645c0.404-0.753,1.473-3.015,1.723-3.549
		c0.152-0.325,0.766-1.709,1.219-2.557c0.283-0.528,1.67-4.334,2.342-5.261c0.154-0.213,0.865-1.725,1.303-2.406
		C141.135,6.365,142.713,3.876,142.969,3.817"/>
	<path clip-path="url(#SVGID_2_)" fill-rule="evenodd" clip-rule="evenodd" d="M82.873,28.545c0.127,0.003,0.211,0.109,0.25,0.321
		c0.055,0.296,0.017,0.296,0.057,0.55c0.039,0.251-0.057,0.316-0.009,0.526c0.062,0.252,0.038,0.396,0.058,0.656
		c0.037,0.441,0.053,0.843-0.035,1.119c-0.087,0.269,0.018,0.355,0.015,0.629c-0.005,0.253-0.152,0.654-0.181,1.034
		c-0.027,0.315,0.284,0.638,0.281,1.017c-0.001,0.229-0.105,0.229-0.317,0.205c-0.233-0.022-0.508-0.173-0.587-0.365
		c-0.085-0.194-0.33-0.825-0.327-1.058c0.003-0.255,0.077-0.717,0.118-1.014c0.047-0.314-0.035-0.691-0.03-0.992
		c0.003-0.357,0.432-0.729,0.435-1.092c0.006-0.358-0.076-0.398-0.072-0.843C82.534,28.796,82.704,28.545,82.873,28.545
		 M86.346,12.147c-0.017-0.23,0.824-0.747,1.239-1.016c0.38-0.247,0.673-0.597,0.997-0.769c0.469-0.248,0.892-0.17,1.164-0.153
		c0.422,0.025,0.935-0.202,1.16,0.078c0.207,0.255,0.146,0.465,0.075,0.758c-0.053,0.231-1.271,2.139-1.849,2.826
		c-0.603,0.723-2.099,2.436-2.245,2.525c-0.173,0.104-0.31-0.147-0.354-0.509c-0.039-0.316-0.083-0.583-0.012-0.739
		c0.086-0.188-0.02-0.309-0.058-0.486c-0.038-0.193-0.231-0.891-0.193-1.415C86.296,12.866,86.374,12.488,86.346,12.147
		 M76.292,18.231c0.053-0.129,0.614-0.414,0.87-0.623c0.178-0.143,0.617-0.436,0.789-0.582c0.489-0.418,0.427-0.338,0.875-0.643
		c0.21-0.147,0.508-0.248,0.546,0.196c0.044,0.529-0.019,1.475-0.005,1.815c0.019,0.336-0.068,0.422-0.091,0.694
		c-0.019,0.233,0.079,0.361,0.097,0.511c0.022,0.146-0.027,0.188-0.067,0.462c-0.021,0.169,0.102,0.423-0.049,0.716
		c-0.153,0.293-0.962,0.939-1.216,1.02c-0.255,0.082-0.082-0.378-0.5-0.682c-0.418-0.301-0.52-0.726-0.706-1.021
		c-0.229-0.369-0.161-0.549-0.432-0.872C76.132,18.901,76.136,18.587,76.292,18.231 M70.975,13.125
		c0.258-0.079,0.766,0.912,1.263,1.448c0.5,0.536,1.247,1.208,1.4,1.346c0.168,0.148,0.561,0.744,0.708,0.749
		c0.076,0,0.558-0.414,0.959-0.687c0.424-0.291,1.386-0.949,1.681-1.141c0.237-0.159,0.973-0.692,1.425-1.038
		c0.453-0.346,1.437-0.986,1.472-1.079c0.018-0.056-0.023-0.276,0.13-0.694c0.096-0.26-0.112-0.372-0.12-0.422
		c-0.018-0.108,0.111-0.424,0.132-0.592c0.049-0.314-0.027-0.963,0.017-1.096c0.108-0.336,0.147-1.04,0.161-1.24
		c0.05-0.579-0.019-0.826,0.055-1.059c0.249-0.768,0.272-1.388,0.214-1.96c-0.046-0.479-0.161-0.526-0.026-1.264
		c0.125-0.667,0.728-1.375,1.003-1.696c0.183-0.209,0.729-0.245,1.147,0.16c0.154,0.153,0.524,0.324,0.879,0.685
		c0.34,0.354,0.986,1.146,1.207,1.345c0.354,0.325,1.04,1.195,1.478,1.75c0.333,0.421,0.512,1.189,0.55,1.463
		c0.059,0.418-0.031,0.971,0.252,1.026c0.408,0.078,1.201-0.607,2.469-0.844c0.842-0.16,2.217-0.122,3.126-0.11
		c0.401,0.006,1.181-0.031,1.246,0.156c0.122,0.344-0.089,1.389-0.604,2.554c-0.455,1.026-0.704,1.222-1.225,1.88
		c-0.429,0.546-0.491,0.891-1.271,1.905c-0.752,0.985-2.245,2.422-1.952,2.7c0.251,0.236,0.99-0.115,1.113,0.438
		c0.1,0.443-0.389,0.731-0.565,1.17c-0.237,0.613-0.094,1.055-0.646,1.325c-0.508,0.244-0.806,0.158-1.126,0.367
		c-0.381,0.248-0.235,0.884-0.479,1.343c-0.433,0.818-0.211,1.601-0.474,2.262c-0.397,0.99-0.301,0.604-0.625,1.639
		c-0.073,0.223-0.231,1.36-0.321,1.757c-0.076,0.34-0.336,0.612-0.348,0.736c-0.027,0.348-0.199,1.246-0.184,1.347
		c0.02,0.128-0.217,0.297-0.196,0.526c0.019,0.214-0.207,0.744-0.246,1.115c-0.155,1.462-0.026,1.656,0.033,2.47
		c0.058,0.813-0.097,0.991-0.185,1.205c-0.078,0.198-0.382,0.247-0.594,0.306c-0.231,0.063-0.214,0.313-0.359,0.362
		c-0.173,0.056-0.417-0.125-0.497,0.015c-0.161,0.284-0.336,0.644-0.549,0.661c-0.219,0.016-0.293-0.109-0.355-0.446
		c-0.017-0.09-0.228-0.112-0.266-0.297c-0.065-0.303-0.129-0.118-0.4-0.612c-0.223-0.412-0.032-0.558-0.056-0.927
		c-0.018-0.286-0.398-0.545-0.302-0.997c0.05-0.237-0.015-0.727-0.065-1.131c-0.056-0.466-0.075-0.788-0.075-0.909
		c0.005-0.212-0.065-0.005-0.01-0.674c0.05-0.588-0.134-1.079-0.132-1.247c0.003-0.211-0.081-0.359-0.248-0.359
		c-0.137-0.003-0.207,0.075-0.279,0.411c-0.073,0.337-0.081,1.015-0.038,1.422c0.037,0.377,0.276,1.435,0.293,1.772
		c0.024,0.453-0.026,0.232-0.009,0.842c0.004,0.305,0.143,1.043,0.251,1.449c0.108,0.407,0.343,0.392,0.419,0.673
		c0.081,0.298,0.16,0.552,0.264,0.721c0.134,0.224,0.649,0.345,0.585,0.473c-0.079,0.155-0.303,0.46-0.471,0.48
		c-0.342,0.036-0.961-0.666-1.085-0.977c-0.222-0.552-0.371-2.525-0.486-3.245c-0.202-1.206-0.407-1.741-0.553-3.088
		c-0.152-1.394-0.486-5.036-0.477-5.808c0.006-0.507-0.33-0.679-0.514-0.691c-0.223-0.011-0.506,0.227-0.524,0.469
		c-0.02,0.294,0.048,0.992-0.262,1.114c-0.252,0.101-2.063-0.403-3.465-1.329c-2.295-1.517-3.111-5.271-3.495-5.993
		c-0.517-0.978-0.53-3.01-0.421-3.405C70.435,13.703,70.59,13.244,70.975,13.125"/>
</g>
</svg>
