<?xml version="1.0" encoding="utf-8"?>
<!-- Generator: Adobe Illustrator 14.0.0, SVG Export Plug-In . SVG Version: 6.00 Build 43363)  -->
<!DOCTYPE svg PUBLIC "-//W3C//DTD SVG 1.1//EN" "http://www.w3.org/Graphics/SVG/1.1/DTD/svg11.dtd">
<svg version="1.1" id="Layer_1" xmlns="http://www.w3.org/2000/svg" xmlns:xlink="http://www.w3.org/1999/xlink" x="0px" y="0px"
	 width="40px" height="40px" viewBox="0 0 40 40" enable-background="new 0 0 40 40" xml:space="preserve">
<g>
	<path fill-rule="evenodd" clip-rule="evenodd" fill="#005287" d="M30.766,16.028L20.268,5.532
		c-2.172-2.178-4.794-2.042-5.718-1.889C6.297,5.002,0,12.185,0,20.839c0,9.628,7.789,17.435,17.392,17.435
		c9.378,0,17.023-7.501,17.377-16.815c0.005-0.107-0.032-0.43-0.259-0.574c-0.279-0.172-0.831-0.107-0.831-0.107h-6.729
		c0,0-0.638,0-0.838,0.092c-0.13,0.06-0.309,0.198-0.309,0.198l-8.2,8.216c-0.134,0.135-0.353,0.135-0.485,0l-8.245-8.264
		c-0.135-0.131-0.135-0.351,0-0.486l8.245-8.262c0.133-0.136,0.352-0.136,0.485,0l7.565,7.581c0,0,0.394,0.355,0.766,0.452
		c0.343,0.091,0.854-0.259,0.854-0.259L30.766,16.028"/>
	<path fill-rule="evenodd" clip-rule="evenodd" fill="#005287" d="M34.599,10.642l-5.633-5.62C22.677-1.055,15.41,3.132,15.41,3.132
		s3.089-1.665,7.035,2.502l9.305,9.364l2.744-2.722c0,0,0.331-0.416,0.409-0.792C34.975,11.134,34.599,10.642,34.599,10.642"/>
</g>
</svg>
