<?xml version="1.0" encoding="UTF-8" standalone="no"?>
<!-- Created with Inkscape (http://www.inkscape.org/) -->

<svg
   xmlns:dc="http://purl.org/dc/elements/1.1/"
   xmlns:cc="http://creativecommons.org/ns#"
   xmlns:rdf="http://www.w3.org/1999/02/22-rdf-syntax-ns#"
   xmlns:svg="http://www.w3.org/2000/svg"
   xmlns="http://www.w3.org/2000/svg"
   xmlns:xlink="http://www.w3.org/1999/xlink"
   xmlns:sodipodi="http://sodipodi.sourceforge.net/DTD/sodipodi-0.dtd"
   xmlns:inkscape="http://www.inkscape.org/namespaces/inkscape"
   id="svg2"
   version="1.1"
   inkscape:version="0.48.4 r9939"
   width="85"
   height="49.516033"
   xml:space="preserve"
   sodipodi:docname="comments.pdf"><metadata
     id="metadata8"><rdf:RDF><cc:Work
         rdf:about=""><dc:format>image/svg+xml</dc:format><dc:type
           rdf:resource="http://purl.org/dc/dcmitype/StillImage" /><dc:title></dc:title></cc:Work></rdf:RDF></metadata><defs
     id="defs6"><clipPath
       clipPathUnits="userSpaceOnUse"
       id="clipPath32"><path
         d="m 64.564,670.532 -14.175,-28.351 -28.347,-14.176 0,-566.93 28.352,-14.178 14.178,-28.353 252.266,0 14.178,28.353 555.597,0.006 0,595.275 -555.597,0.003 -14.178,28.351 -252.274,0 z"
         id="path34"
         inkscape:connector-curvature="0" /></clipPath><clipPath
       clipPathUnits="userSpaceOnUse"
       id="clipPath4568"><path
         d="m 330.789,479.046 0,-432.202 0.2,0 0.027,0.053 280.637,0.003 0,432.146 -280.864,0 z"
         id="path4570"
         inkscape:connector-curvature="0" /></clipPath><clipPath
       clipPathUnits="userSpaceOnUse"
       id="clipPath4582"><path
         d="m 64.564,670.532 -14.175,-28.351 -28.347,-14.176 0,-566.93 28.352,-14.178 14.178,-28.353 252.266,0 14.178,28.353 555.597,0.006 0,595.275 -555.597,0.003 -14.178,28.351 -252.274,0 z"
         id="path4584"
         inkscape:connector-curvature="0" /></clipPath><linearGradient
       x1="0"
       y1="0"
       x2="1"
       y2="0"
       gradientUnits="userSpaceOnUse"
       gradientTransform="matrix(30.489654,-14.870801,-14.870801,-30.489654,479.28223,510.10547)"
       spreadMethod="pad"
       id="linearGradient4654"><stop
         style="stop-opacity:1;stop-color:#f99d1c"
         offset="0"
         id="stop4656" /><stop
         style="stop-opacity:1;stop-color:#f26522"
         offset="1"
         id="stop4658" /></linearGradient><clipPath
       clipPathUnits="userSpaceOnUse"
       id="clipPath4666"><path
         d="m 64.564,670.532 -14.175,-28.351 -28.347,-14.176 0,-566.93 28.352,-14.178 14.178,-28.353 252.266,0 14.178,28.353 555.597,0.006 0,595.275 -555.597,0.003 -14.178,28.351 -252.274,0 z"
         id="path4668"
         inkscape:connector-curvature="0" /></clipPath><linearGradient
       inkscape:collect="always"
       xlink:href="#linearGradient4654"
       id="linearGradient10144"
       gradientUnits="userSpaceOnUse"
       gradientTransform="matrix(30.489654,-14.870801,-14.870801,-30.489654,479.28223,510.10547)"
       spreadMethod="pad"
       x1="0"
       y1="0"
       x2="1"
       y2="0" /><linearGradient
       inkscape:collect="always"
       xlink:href="#linearGradient4654"
       id="linearGradient13531"
       gradientUnits="userSpaceOnUse"
       gradientTransform="matrix(30.489654,-14.870801,-14.870801,-30.489654,479.28223,510.10547)"
       spreadMethod="pad"
       x1="0"
       y1="0"
       x2="1"
       y2="0" /><linearGradient
       inkscape:collect="always"
       xlink:href="#linearGradient4654"
       id="linearGradient13534"
       gradientUnits="userSpaceOnUse"
       gradientTransform="matrix(30.489654,-14.870801,-14.870801,-30.489654,479.28223,510.10547)"
       spreadMethod="pad"
       x1="0"
       y1="0"
       x2="1"
       y2="0" /><linearGradient
       inkscape:collect="always"
       xlink:href="#linearGradient4654"
       id="linearGradient13557"
       gradientUnits="userSpaceOnUse"
       gradientTransform="matrix(30.489654,-14.870801,-14.870801,-30.489654,479.28223,510.10547)"
       spreadMethod="pad"
       x1="0"
       y1="0"
       x2="1"
       y2="0" /></defs><sodipodi:namedview
     pagecolor="#ffffff"
     bordercolor="#666666"
     borderopacity="1"
     objecttolerance="10"
     gridtolerance="10"
     guidetolerance="10"
     inkscape:pageopacity="0"
     inkscape:pageshadow="2"
     inkscape:window-width="1920"
     inkscape:window-height="1018"
     id="namedview4"
     showgrid="false"
     fit-margin-top="0"
     fit-margin-left="0"
     fit-margin-right="0"
     fit-margin-bottom="0"
     inkscape:zoom="1.0874198"
     inkscape:cx="260.33134"
     inkscape:cy="6.6232758"
     inkscape:window-x="-8"
     inkscape:window-y="-8"
     inkscape:window-maximized="1"
     inkscape:current-layer="g10" /><g
     id="g10"
     inkscape:groupmode="layer"
     inkscape:label="comments"
     transform="matrix(1.25,0,0,-1.25,-598.36375,658.88979)"><g
       id="g13537"
       transform="matrix(1.7526403,0,0,1.7526403,-360.28214,-366.91139)"><path
         inkscape:connector-curvature="0"
         id="path4660"
         style="fill:url(#linearGradient13557);stroke:none"
         d="m 498.896,510.05 c -0.482,0 -0.972,-0.129 -1.414,-0.404 l 0,0 c -0.439,-0.278 -0.775,-0.659 -0.984,-1.092 l 0,0 -3.24,-6.692 -0.682,0 c -0.17,0 -0.344,0.039 -0.5,0.131 l 0,0 c -0.16,0.092 -0.281,0.223 -0.369,0.365 l 0,0 -3.898,5.951 c -0.631,0.956 -1.487,1.741 -2.973,1.741 l 0,0 -5.582,0 -0.563,-1.167 c 0.293,0 0.948,-0.017 1.619,-1.091 l 0,0 7.289,-11.119 c 0.162,-0.275 0.395,-0.514 0.696,-0.686 l 0,0 c 0.297,-0.172 0.619,-0.25 0.94,-0.25 l 0,0 1.019,0 0.033,0 -3.07,-6.34 c -0.194,-0.39 -0.186,-0.872 0.065,-1.271 l 0,0 c 0.247,-0.404 0.677,-0.627 1.116,-0.627 l 0,0 16.66,0 c 0.276,0 0.549,0.076 0.798,0.234 l 0,0 c 0.252,0.157 0.437,0.371 0.558,0.618 l 0,0 2.577,5.321 -12.018,0 0.984,2.018 11.074,0 c 0.272,0 0.544,0.075 0.797,0.231 l 0,0 c 0.248,0.155 0.436,0.369 0.553,0.617 l 0,0 2.584,5.326 -11.988,0 0.986,2.012 11.037,0 c 0.272,0 0.549,0.075 0.799,0.23 l 0,0 c 0.248,0.157 0.433,0.372 0.553,0.619 l 0,0 2.582,5.325 -18.038,0 z" /></g></g></svg>