<?xml version="1.0" encoding="UTF-8" standalone="no"?>
<!-- Created with Inkscape (http://www.inkscape.org/) -->

<svg
   xmlns:dc="http://purl.org/dc/elements/1.1/"
   xmlns:cc="http://creativecommons.org/ns#"
   xmlns:rdf="http://www.w3.org/1999/02/22-rdf-syntax-ns#"
   xmlns:svg="http://www.w3.org/2000/svg"
   xmlns="http://www.w3.org/2000/svg"
   xmlns:xlink="http://www.w3.org/1999/xlink"
   xmlns:sodipodi="http://sodipodi.sourceforge.net/DTD/sodipodi-0.dtd"
   xmlns:inkscape="http://www.inkscape.org/namespaces/inkscape"
   id="svg2"
   version="1.1"
   inkscape:version="0.48.4 r9939"
   width="248.40828"
   height="49.516033"
   xml:space="preserve"
   sodipodi:docname="comments.pdf"><metadata
     id="metadata8"><rdf:RDF><cc:Work
         rdf:about=""><dc:format>image/svg+xml</dc:format><dc:type
           rdf:resource="http://purl.org/dc/dcmitype/StillImage" /><dc:title></dc:title></cc:Work></rdf:RDF></metadata><defs
     id="defs6"><clipPath
       clipPathUnits="userSpaceOnUse"
       id="clipPath32"><path
         d="m 64.564,670.532 -14.175,-28.351 -28.347,-14.176 0,-566.93 28.352,-14.178 14.178,-28.353 252.266,0 14.178,28.353 555.597,0.006 0,595.275 -555.597,0.003 -14.178,28.351 -252.274,0 z"
         id="path34"
         inkscape:connector-curvature="0" /></clipPath><clipPath
       clipPathUnits="userSpaceOnUse"
       id="clipPath4568"><path
         d="m 330.789,479.046 0,-432.202 0.2,0 0.027,0.053 280.637,0.003 0,432.146 -280.864,0 z"
         id="path4570"
         inkscape:connector-curvature="0" /></clipPath><clipPath
       clipPathUnits="userSpaceOnUse"
       id="clipPath4582"><path
         d="m 64.564,670.532 -14.175,-28.351 -28.347,-14.176 0,-566.93 28.352,-14.178 14.178,-28.353 252.266,0 14.178,28.353 555.597,0.006 0,595.275 -555.597,0.003 -14.178,28.351 -252.274,0 z"
         id="path4584"
         inkscape:connector-curvature="0" /></clipPath><linearGradient
       x1="0"
       y1="0"
       x2="1"
       y2="0"
       gradientUnits="userSpaceOnUse"
       gradientTransform="matrix(30.489654,-14.870801,-14.870801,-30.489654,479.28223,510.10547)"
       spreadMethod="pad"
       id="linearGradient4654"><stop
         style="stop-opacity:1;stop-color:#f99d1c"
         offset="0"
         id="stop4656" /><stop
         style="stop-opacity:1;stop-color:#f26522"
         offset="1"
         id="stop4658" /></linearGradient><clipPath
       clipPathUnits="userSpaceOnUse"
       id="clipPath4666"><path
         d="m 64.564,670.532 -14.175,-28.351 -28.347,-14.176 0,-566.93 28.352,-14.178 14.178,-28.353 252.266,0 14.178,28.353 555.597,0.006 0,595.275 -555.597,0.003 -14.178,28.351 -252.274,0 z"
         id="path4668"
         inkscape:connector-curvature="0" /></clipPath><linearGradient
       inkscape:collect="always"
       xlink:href="#linearGradient4654"
       id="linearGradient10144"
       gradientUnits="userSpaceOnUse"
       gradientTransform="matrix(30.489654,-14.870801,-14.870801,-30.489654,479.28223,510.10547)"
       spreadMethod="pad"
       x1="0"
       y1="0"
       x2="1"
       y2="0" /><linearGradient
       inkscape:collect="always"
       xlink:href="#linearGradient4654"
       id="linearGradient13531"
       gradientUnits="userSpaceOnUse"
       gradientTransform="matrix(30.489654,-14.870801,-14.870801,-30.489654,479.28223,510.10547)"
       spreadMethod="pad"
       x1="0"
       y1="0"
       x2="1"
       y2="0" /><linearGradient
       inkscape:collect="always"
       xlink:href="#linearGradient4654"
       id="linearGradient13534"
       gradientUnits="userSpaceOnUse"
       gradientTransform="matrix(30.489654,-14.870801,-14.870801,-30.489654,479.28223,510.10547)"
       spreadMethod="pad"
       x1="0"
       y1="0"
       x2="1"
       y2="0" /><linearGradient
       inkscape:collect="always"
       xlink:href="#linearGradient4654"
       id="linearGradient13557"
       gradientUnits="userSpaceOnUse"
       gradientTransform="matrix(30.489654,-14.870801,-14.870801,-30.489654,479.28223,510.10547)"
       spreadMethod="pad"
       x1="0"
       y1="0"
       x2="1"
       y2="0" /></defs><sodipodi:namedview
     pagecolor="#ffffff"
     bordercolor="#666666"
     borderopacity="1"
     objecttolerance="10"
     gridtolerance="10"
     guidetolerance="10"
     inkscape:pageopacity="0"
     inkscape:pageshadow="2"
     inkscape:window-width="1920"
     inkscape:window-height="1018"
     id="namedview4"
     showgrid="false"
     fit-margin-top="0"
     fit-margin-left="0"
     fit-margin-right="0"
     fit-margin-bottom="0"
     inkscape:zoom="1.0874198"
     inkscape:cx="260.33134"
     inkscape:cy="6.6232758"
     inkscape:window-x="-8"
     inkscape:window-y="-8"
     inkscape:window-maximized="1"
     inkscape:current-layer="g10" /><g
     id="g10"
     inkscape:groupmode="layer"
     inkscape:label="comments"
     transform="matrix(1.25,0,0,-1.25,-598.36375,658.88979)"><g
       id="g13537"
       transform="matrix(1.7526403,0,0,1.7526403,-360.28214,-366.91139)"><path
         d="m 523.7441,494.1162 c 0.365,-0.115 0.568,-0.172 0.611,-0.172 0.11,0 0.196,0.035 0.262,0.11 0.064,0.072 0.106,0.148 0.123,0.228 l 0.238,0 0,-1.744 -0.216,0 c -0.207,0.379 -0.418,0.678 -0.633,0.896 -0.401,0.403 -0.856,0.604 -1.364,0.604 -0.574,0 -0.982,-0.215 -1.222,-0.647 -0.242,-0.431 -0.363,-1.009 -0.363,-1.734 0,-0.535 0.072,-0.975 0.214,-1.318 0.264,-0.647 0.756,-0.969 1.477,-0.969 0.439,0 0.85,0.107 1.228,0.32 0.219,0.123 0.475,0.322 0.772,0.594 l 0.254,-0.182 c -0.334,-0.326 -0.629,-0.56 -0.883,-0.707 -0.453,-0.259 -0.955,-0.388 -1.508,-0.388 -0.845,0 -1.554,0.216 -2.127,0.654 -0.634,0.482 -0.951,1.133 -0.951,1.951 0,0.811 0.303,1.469 0.908,1.971 0.571,0.471 1.268,0.707 2.094,0.707 0.357,0 0.719,-0.059 1.086,-0.174"
         style="fill:#231f20;fill-opacity:1;fill-rule:nonzero;stroke:none"
         id="path4592"
         inkscape:connector-curvature="0" /><path
         d="m 525.8887,489.335 c 0.156,0.016 0.271,0.053 0.346,0.109 0.074,0.057 0.111,0.17 0.111,0.342 l 0,3.797 c 0,0.148 -0.031,0.254 -0.094,0.314 -0.06,0.059 -0.181,0.1 -0.363,0.12 l 0,0.177 1.658,0 0,-2.095 c 0.176,0.183 0.362,0.326 0.555,0.425 0.193,0.102 0.412,0.153 0.654,0.153 0.33,0 0.602,-0.084 0.819,-0.25 0.214,-0.166 0.322,-0.449 0.322,-0.85 l 0,-1.791 c 0,-0.168 0.031,-0.277 0.097,-0.33 0.067,-0.053 0.176,-0.094 0.329,-0.121 l 0,-0.18 -2.014,0 0,0.18 c 0.154,0.025 0.258,0.062 0.314,0.107 0.057,0.047 0.084,0.151 0.084,0.315 l 0,1.805 c 0,0.169 -0.019,0.298 -0.058,0.382 -0.069,0.155 -0.199,0.231 -0.399,0.231 -0.148,0 -0.3,-0.061 -0.459,-0.18 -0.158,-0.119 -0.236,-0.199 -0.236,-0.244 l 0,-1.994 c 0,-0.164 0.027,-0.268 0.084,-0.315 0.057,-0.045 0.16,-0.082 0.314,-0.107 l 0,-0.18 -2.064,0 0,0.18 z"
         style="fill:#231f20;fill-opacity:1;fill-rule:nonzero;stroke:none"
         id="path4596"
         inkscape:connector-curvature="0" /><path
         d="m 532.2754,489.7666 c 0.098,-0.322 0.291,-0.484 0.582,-0.484 0.275,0 0.457,0.125 0.545,0.373 0.086,0.246 0.129,0.648 0.129,1.207 0,0.556 -0.045,0.959 -0.137,1.207 -0.09,0.248 -0.267,0.373 -0.533,0.373 -0.291,0 -0.484,-0.16 -0.582,-0.483 -0.065,-0.216 -0.096,-0.582 -0.096,-1.097 0,-0.522 0.03,-0.887 0.092,-1.096 m -0.803,2.396 c 0.367,0.348 0.83,0.522 1.385,0.522 0.566,0 1.031,-0.178 1.393,-0.533 0.361,-0.354 0.541,-0.783 0.541,-1.289 0,-0.498 -0.178,-0.924 -0.536,-1.283 -0.357,-0.358 -0.824,-0.538 -1.398,-0.538 -0.559,0 -1.019,0.174 -1.387,0.524 -0.365,0.347 -0.549,0.781 -0.549,1.297 0,0.519 0.184,0.953 0.551,1.3"
         style="fill:#231f20;fill-opacity:1;fill-rule:nonzero;stroke:none"
         id="path4600"
         inkscape:connector-curvature="0" /><path
         d="m 535.375,489.335 c 0.156,0.016 0.271,0.053 0.346,0.109 0.074,0.057 0.111,0.17 0.111,0.342 l 0,2.192 c 0,0.152 -0.031,0.257 -0.092,0.314 -0.058,0.061 -0.181,0.1 -0.365,0.119 l 0,0.178 1.625,0 0,-0.535 c 0.137,0.179 0.311,0.328 0.521,0.445 0.211,0.119 0.444,0.178 0.702,0.178 0.367,0 0.654,-0.082 0.855,-0.248 0.203,-0.166 0.305,-0.455 0.305,-0.869 l 0,-1.803 c 0,-0.168 0.033,-0.276 0.097,-0.326 0.067,-0.047 0.176,-0.08 0.329,-0.096 l 0,-0.18 -2.014,0 0,0.18 c 0.154,0.025 0.258,0.062 0.314,0.107 0.057,0.047 0.084,0.151 0.084,0.315 l 0,1.805 c 0,0.169 -0.019,0.298 -0.058,0.382 -0.069,0.155 -0.199,0.231 -0.399,0.231 -0.148,0 -0.283,-0.047 -0.408,-0.143 -0.123,-0.092 -0.219,-0.185 -0.287,-0.281 l 0,-1.994 c 0,-0.164 0.029,-0.268 0.084,-0.315 0.057,-0.045 0.16,-0.082 0.314,-0.107 l 0,-0.18 -2.064,0 0,0.18 z"
         style="fill:#231f20;fill-opacity:1;fill-rule:nonzero;stroke:none"
         id="path4604"
         inkscape:connector-curvature="0" /><path
         d="m 541.7539,490.8369 c 0.082,-0.219 0.244,-0.328 0.48,-0.328 0.215,0 0.364,0.084 0.446,0.246 0.08,0.164 0.121,0.404 0.121,0.721 0,0.334 -0.043,0.578 -0.129,0.73 -0.084,0.154 -0.231,0.231 -0.438,0.231 -0.226,0 -0.376,-0.082 -0.451,-0.246 -0.076,-0.165 -0.113,-0.403 -0.113,-0.715 0,-0.287 0.027,-0.5 0.084,-0.639 m -0.301,-2.857 c 0.19,-0.088 0.463,-0.131 0.819,-0.131 0.318,0 0.582,0.021 0.787,0.064 0.388,0.084 0.582,0.236 0.582,0.457 0,0.131 -0.055,0.227 -0.164,0.291 -0.112,0.065 -0.311,0.098 -0.602,0.098 l -1.406,0 c -0.09,-0.065 -0.154,-0.117 -0.194,-0.162 -0.07,-0.08 -0.103,-0.164 -0.103,-0.254 0,-0.154 0.094,-0.276 0.281,-0.363 m -0.883,0.642 c 0.102,0.113 0.28,0.186 0.53,0.221 l 0,0.051 c -0.168,0.054 -0.289,0.113 -0.364,0.17 -0.134,0.105 -0.201,0.244 -0.201,0.419 0,0.209 0.106,0.387 0.317,0.536 0.211,0.148 0.416,0.252 0.617,0.308 l 0,0.051 c -0.291,0.104 -0.526,0.248 -0.703,0.438 -0.18,0.189 -0.268,0.417 -0.268,0.687 0,0.34 0.154,0.621 0.469,0.842 0.312,0.221 0.734,0.332 1.267,0.332 0.202,0 0.385,-0.018 0.553,-0.051 0.168,-0.035 0.297,-0.07 0.391,-0.105 l 1.129,0 0,-0.397 -0.694,0 c 0.112,-0.096 0.198,-0.207 0.256,-0.332 0.061,-0.127 0.09,-0.264 0.09,-0.412 0,-0.467 -0.254,-0.785 -0.766,-0.957 -0.267,-0.092 -0.601,-0.139 -1,-0.139 -0.087,0 -0.142,0 -0.169,0.004 -0.028,0.002 -0.067,0.004 -0.12,0.004 -0.084,-0.014 -0.171,-0.053 -0.263,-0.117 -0.096,-0.068 -0.143,-0.149 -0.143,-0.244 0,-0.074 0.024,-0.133 0.07,-0.174 0.049,-0.043 0.114,-0.068 0.198,-0.078 0.043,-0.004 0.131,-0.008 0.267,-0.012 0.137,-0.004 0.244,-0.006 0.319,-0.006 l 0.556,-0.006 c 0.317,-0.005 0.582,-0.045 0.797,-0.121 0.41,-0.146 0.615,-0.406 0.615,-0.783 0,-0.486 -0.306,-0.818 -0.921,-1.002 -0.325,-0.094 -0.731,-0.141 -1.223,-0.141 -0.402,0 -0.748,0.034 -1.039,0.102 -0.479,0.113 -0.719,0.309 -0.719,0.582 0,0.107 0.051,0.217 0.152,0.33"
         style="fill:#231f20;fill-opacity:1;fill-rule:nonzero;stroke:none"
         id="path4608"
         inkscape:connector-curvature="0" /><path
         d="m 549.123,489.3447 c 0.229,0.01 0.391,0.037 0.484,0.084 0.161,0.078 0.241,0.225 0.241,0.439 l 0,3.614 c 0,0.209 -0.073,0.351 -0.215,0.425 -0.086,0.045 -0.256,0.077 -0.51,0.098 l 0,0.19 2.902,0 0,-0.19 c -0.252,-0.012 -0.425,-0.041 -0.523,-0.086 -0.162,-0.078 -0.244,-0.222 -0.244,-0.437 l 0,-1.547 2.045,0 0,1.547 c 0,0.215 -0.078,0.359 -0.231,0.433 -0.095,0.045 -0.273,0.076 -0.531,0.09 l 0,0.19 2.918,0 0,-0.19 c -0.252,-0.015 -0.424,-0.049 -0.516,-0.094 -0.154,-0.074 -0.23,-0.218 -0.23,-0.429 l 0,-3.614 c 0,-0.216 0.086,-0.365 0.256,-0.443 0.097,-0.045 0.259,-0.072 0.49,-0.08 l 0,-0.189 -2.918,0 0,0.189 c 0.244,0.008 0.42,0.037 0.523,0.086 0.159,0.08 0.239,0.225 0.239,0.437 l 0,1.719 -2.045,0 0,-1.719 c 0,-0.22 0.088,-0.369 0.26,-0.447 0.101,-0.043 0.269,-0.068 0.507,-0.076 l 0,-0.189 -2.902,0 0,0.189 z"
         style="fill:#231f20;fill-opacity:1;fill-rule:nonzero;stroke:none"
         id="path4612"
         inkscape:connector-curvature="0" /><path
         d="m 556.5625,494.1377 c 0.131,0.113 0.287,0.17 0.473,0.17 0.179,0 0.336,-0.057 0.466,-0.17 0.129,-0.113 0.194,-0.248 0.194,-0.41 0,-0.158 -0.065,-0.295 -0.194,-0.408 -0.13,-0.114 -0.287,-0.17 -0.466,-0.17 -0.186,0 -0.342,0.056 -0.473,0.17 -0.129,0.113 -0.193,0.25 -0.193,0.408 0,0.162 0.064,0.297 0.193,0.41 m -0.57,-4.803 c 0.15,0.02 0.252,0.053 0.308,0.096 0.084,0.066 0.127,0.184 0.127,0.355 l 0,2.192 c 0,0.152 -0.031,0.254 -0.088,0.31 -0.058,0.055 -0.175,0.096 -0.347,0.123 l 0,0.178 1.644,0 0,-2.832 c 0,-0.164 0.028,-0.267 0.084,-0.314 0.057,-0.045 0.16,-0.082 0.315,-0.108 l 0,-0.179 -2.043,0 0,0.179 z"
         style="fill:#231f20;fill-opacity:1;fill-rule:nonzero;stroke:none"
         id="path4616"
         inkscape:connector-curvature="0" /><path
         d="m 558.5879,489.335 c 0.156,0.016 0.271,0.053 0.346,0.109 0.074,0.057 0.111,0.17 0.111,0.342 l 0,2.192 c 0,0.152 -0.031,0.257 -0.09,0.314 -0.06,0.061 -0.181,0.1 -0.367,0.119 l 0,0.178 1.625,0 0,-0.535 c 0.137,0.179 0.311,0.328 0.521,0.445 0.211,0.119 0.446,0.178 0.702,0.178 0.369,0 0.654,-0.082 0.857,-0.248 0.201,-0.166 0.303,-0.455 0.303,-0.869 l 0,-1.803 c 0,-0.168 0.033,-0.276 0.097,-0.326 0.067,-0.047 0.176,-0.08 0.331,-0.096 l 0,-0.18 -2.016,0 0,0.18 c 0.154,0.025 0.26,0.062 0.314,0.107 0.057,0.047 0.084,0.151 0.084,0.315 l 0,1.805 c 0,0.169 -0.019,0.298 -0.058,0.382 -0.067,0.155 -0.199,0.231 -0.399,0.231 -0.146,0 -0.283,-0.047 -0.408,-0.143 -0.123,-0.092 -0.219,-0.185 -0.285,-0.281 l 0,-1.994 c 0,-0.164 0.027,-0.268 0.082,-0.315 0.057,-0.045 0.16,-0.082 0.314,-0.107 l 0,-0.18 -2.064,0 0,0.18 z"
         style="fill:#231f20;fill-opacity:1;fill-rule:nonzero;stroke:none"
         id="path4620"
         inkscape:connector-curvature="0" /><path
         d="m 564.9668,490.8369 c 0.084,-0.219 0.244,-0.328 0.48,-0.328 0.217,0 0.364,0.084 0.446,0.246 0.08,0.164 0.121,0.404 0.121,0.721 0,0.334 -0.043,0.578 -0.127,0.73 -0.086,0.154 -0.233,0.231 -0.44,0.231 -0.224,0 -0.375,-0.082 -0.451,-0.246 -0.076,-0.165 -0.113,-0.403 -0.113,-0.715 0,-0.287 0.027,-0.5 0.084,-0.639 m -0.299,-2.857 c 0.188,-0.088 0.461,-0.131 0.819,-0.131 0.318,0 0.58,0.021 0.787,0.064 0.386,0.084 0.582,0.236 0.582,0.457 0,0.131 -0.055,0.227 -0.166,0.291 -0.11,0.065 -0.311,0.098 -0.602,0.098 l -1.406,0 c -0.09,-0.065 -0.154,-0.117 -0.192,-0.162 -0.07,-0.08 -0.105,-0.164 -0.105,-0.254 0,-0.154 0.094,-0.276 0.283,-0.363 m -0.885,0.642 c 0.104,0.113 0.28,0.186 0.532,0.221 l 0,0.051 c -0.168,0.054 -0.289,0.113 -0.366,0.17 -0.134,0.105 -0.201,0.244 -0.201,0.419 0,0.209 0.106,0.387 0.317,0.536 0.211,0.148 0.416,0.252 0.617,0.308 l 0,0.051 c -0.291,0.104 -0.526,0.248 -0.703,0.438 -0.18,0.189 -0.268,0.417 -0.268,0.687 0,0.34 0.156,0.621 0.469,0.842 0.312,0.221 0.736,0.332 1.267,0.332 0.202,0 0.387,-0.018 0.555,-0.051 0.166,-0.035 0.297,-0.07 0.389,-0.105 l 1.131,0 0,-0.397 -0.696,0 c 0.112,-0.096 0.198,-0.207 0.258,-0.332 0.059,-0.127 0.09,-0.264 0.09,-0.412 0,-0.467 -0.256,-0.785 -0.766,-0.957 -0.269,-0.092 -0.601,-0.139 -1.002,-0.139 -0.085,0 -0.142,0 -0.169,0.004 -0.028,0.002 -0.067,0.004 -0.12,0.004 -0.084,-0.014 -0.171,-0.053 -0.263,-0.117 -0.096,-0.068 -0.143,-0.149 -0.143,-0.244 0,-0.074 0.024,-0.133 0.072,-0.174 0.047,-0.043 0.112,-0.068 0.196,-0.078 0.043,-0.004 0.131,-0.008 0.269,-0.012 0.137,-0.004 0.242,-0.006 0.319,-0.006 l 0.556,-0.006 c 0.315,-0.005 0.58,-0.045 0.795,-0.121 0.41,-0.146 0.615,-0.406 0.615,-0.783 0,-0.486 -0.306,-0.818 -0.92,-1.002 -0.324,-0.094 -0.732,-0.141 -1.222,-0.141 -0.403,0 -0.748,0.034 -1.039,0.102 -0.481,0.113 -0.721,0.309 -0.721,0.582 0,0.107 0.051,0.217 0.152,0.33"
         style="fill:#231f20;fill-opacity:1;fill-rule:nonzero;stroke:none"
         id="path4624"
         inkscape:connector-curvature="0" /><path
         d="m 574.3379,489.5557 c 0.07,-0.107 0.205,-0.16 0.402,-0.16 0.405,0 0.69,0.096 0.852,0.287 0.164,0.193 0.246,0.465 0.246,0.82 0,0.53 -0.18,0.881 -0.541,1.057 -0.217,0.105 -0.559,0.154 -1.025,0.148 l 0,-1.865 c 0.002,-0.129 0.025,-0.226 0.066,-0.287 m 1.002,2.604 c 0.182,0.15 0.271,0.417 0.271,0.8 0,0.285 -0.058,0.524 -0.177,0.719 -0.119,0.193 -0.348,0.291 -0.686,0.291 -0.178,0 -0.303,-0.027 -0.371,-0.078 -0.07,-0.053 -0.105,-0.147 -0.105,-0.283 l 0,-1.674 c 0.529,0 0.886,0.074 1.068,0.225 m -3.191,-2.815 c 0.23,0.008 0.398,0.035 0.498,0.08 0.17,0.078 0.255,0.227 0.255,0.443 l 0,3.614 c 0,0.217 -0.08,0.361 -0.238,0.437 -0.096,0.045 -0.267,0.074 -0.515,0.086 l 0,0.19 2.65,0 c 0.512,0 0.935,-0.051 1.273,-0.153 0.637,-0.191 0.955,-0.541 0.955,-1.048 0,-0.309 -0.128,-0.553 -0.388,-0.735 -0.258,-0.18 -0.537,-0.295 -0.838,-0.344 l 0,-0.068 c 0.316,-0.055 0.594,-0.145 0.828,-0.27 0.457,-0.248 0.688,-0.593 0.688,-1.035 0,-0.412 -0.221,-0.746 -0.659,-1.002 -0.437,-0.257 -1.021,-0.384 -1.75,-0.384 l -2.759,0 0,0.189 z"
         style="fill:#231f20;fill-opacity:1;fill-rule:nonzero;stroke:none"
         id="path4628"
         inkscape:connector-curvature="0" /><path
         d="m 580.2148,489.6904 c 0.066,0.045 0.146,0.113 0.238,0.205 l 0,1.092 c -0.228,-0.049 -0.429,-0.125 -0.603,-0.231 -0.293,-0.177 -0.44,-0.404 -0.44,-0.679 0,-0.162 0.043,-0.285 0.127,-0.369 0.086,-0.084 0.182,-0.127 0.287,-0.127 0.141,0 0.27,0.037 0.391,0.109 m -1.496,0.961 c 0.371,0.195 0.953,0.394 1.746,0.594 l 0,0.543 c 0,0.22 -0.053,0.384 -0.16,0.49 -0.108,0.105 -0.299,0.158 -0.572,0.158 -0.155,0 -0.28,-0.025 -0.379,-0.074 -0.1,-0.051 -0.149,-0.113 -0.149,-0.188 0,-0.029 0.006,-0.054 0.016,-0.074 0.012,-0.019 0.029,-0.039 0.051,-0.06 l 0.05,-0.053 c 0.039,-0.041 0.071,-0.086 0.094,-0.135 0.024,-0.051 0.037,-0.103 0.037,-0.16 0,-0.141 -0.054,-0.248 -0.162,-0.326 -0.107,-0.076 -0.232,-0.114 -0.375,-0.114 -0.164,0 -0.305,0.043 -0.42,0.127 -0.117,0.084 -0.174,0.207 -0.174,0.368 0,0.285 0.155,0.511 0.465,0.677 0.309,0.168 0.69,0.252 1.143,0.252 0.486,0 0.892,-0.082 1.219,-0.244 0.324,-0.166 0.484,-0.469 0.484,-0.91 l 0,-1.807 c 0,-0.052 0.018,-0.099 0.049,-0.136 0.033,-0.037 0.068,-0.055 0.107,-0.055 0.033,0 0.063,0.004 0.09,0.016 0.027,0.009 0.068,0.039 0.123,0.088 l 0.131,-0.157 c -0.168,-0.17 -0.354,-0.289 -0.559,-0.357 -0.127,-0.043 -0.263,-0.065 -0.404,-0.065 -0.256,0 -0.441,0.065 -0.559,0.194 -0.066,0.072 -0.115,0.181 -0.146,0.324 -0.236,-0.207 -0.504,-0.352 -0.803,-0.438 -0.181,-0.052 -0.361,-0.08 -0.537,-0.08 -0.234,0 -0.453,0.065 -0.656,0.196 -0.205,0.131 -0.307,0.332 -0.307,0.607 0,0.336 0.186,0.602 0.557,0.799"
         style="fill:#231f20;fill-opacity:1;fill-rule:nonzero;stroke:none"
         id="path4632"
         inkscape:connector-curvature="0" /><path
         d="m 582.5859,489.335 c 0.156,0.016 0.271,0.053 0.344,0.109 0.076,0.057 0.111,0.17 0.111,0.342 l 0,2.192 c 0,0.152 -0.029,0.257 -0.09,0.314 -0.06,0.061 -0.181,0.1 -0.365,0.119 l 0,0.178 1.625,0 0,-0.535 c 0.135,0.179 0.309,0.328 0.52,0.445 0.21,0.119 0.445,0.178 0.703,0.178 0.367,0 0.652,-0.082 0.855,-0.248 0.203,-0.166 0.303,-0.455 0.303,-0.869 l 0,-1.803 c 0,-0.168 0.033,-0.276 0.099,-0.326 0.065,-0.047 0.176,-0.08 0.329,-0.096 l 0,-0.18 -2.014,0 0,0.18 c 0.152,0.025 0.258,0.062 0.314,0.107 0.055,0.047 0.082,0.151 0.082,0.315 l 0,1.805 c 0,0.169 -0.019,0.298 -0.056,0.382 -0.069,0.155 -0.201,0.231 -0.399,0.231 -0.148,0 -0.285,-0.047 -0.408,-0.143 -0.125,-0.092 -0.221,-0.185 -0.287,-0.281 l 0,-1.994 c 0,-0.164 0.027,-0.268 0.084,-0.315 0.055,-0.045 0.16,-0.082 0.314,-0.107 l 0,-0.18 -2.064,0 0,0.18 z"
         style="fill:#231f20;fill-opacity:1;fill-rule:nonzero;stroke:none"
         id="path4636"
         inkscape:connector-curvature="0" /><path
         d="m 587.5684,489.335 c 0.15,0.031 0.258,0.072 0.322,0.125 0.063,0.053 0.094,0.16 0.094,0.326 l 0,3.799 c 0,0.16 -0.029,0.262 -0.088,0.311 -0.06,0.048 -0.168,0.089 -0.328,0.121 l 0,0.177 1.609,0 0,-3.211 1.088,0.952 c 0.065,0.054 0.112,0.107 0.139,0.158 0.027,0.049 0.041,0.088 0.041,0.117 0,0.076 -0.037,0.125 -0.115,0.15 -0.076,0.024 -0.207,0.043 -0.391,0.059 l 0,0.17 1.838,0 0,-0.17 c -0.176,-0.02 -0.316,-0.047 -0.418,-0.08 -0.186,-0.065 -0.363,-0.172 -0.537,-0.322 l -0.666,-0.586 1.658,-1.985 c 0.033,-0.041 0.066,-0.068 0.098,-0.082 0.029,-0.013 0.07,-0.023 0.121,-0.029 l 0,-0.18 -2.002,0 0,0.18 c 0.123,0.004 0.213,0.018 0.269,0.039 0.057,0.022 0.086,0.057 0.086,0.102 0,0.023 -0.011,0.056 -0.035,0.099 -0.023,0.043 -0.082,0.121 -0.174,0.237 l -0.812,1 -0.188,-0.182 0,-0.844 c 0,-0.168 0.024,-0.279 0.071,-0.336 0.047,-0.054 0.168,-0.094 0.365,-0.115 l 0,-0.18 -2.045,0 0,0.18 z"
         style="fill:#231f20;fill-opacity:1;fill-rule:nonzero;stroke:none"
         id="path4640"
         inkscape:connector-curvature="0" /><path
         inkscape:connector-curvature="0"
         id="path4660"
         style="fill:url(#linearGradient13557);stroke:none"
         d="m 498.896,510.05 c -0.482,0 -0.972,-0.129 -1.414,-0.404 l 0,0 c -0.439,-0.278 -0.775,-0.659 -0.984,-1.092 l 0,0 -3.24,-6.692 -0.682,0 c -0.17,0 -0.344,0.039 -0.5,0.131 l 0,0 c -0.16,0.092 -0.281,0.223 -0.369,0.365 l 0,0 -3.898,5.951 c -0.631,0.956 -1.487,1.741 -2.973,1.741 l 0,0 -5.582,0 -0.563,-1.167 c 0.293,0 0.948,-0.017 1.619,-1.091 l 0,0 7.289,-11.119 c 0.162,-0.275 0.395,-0.514 0.696,-0.686 l 0,0 c 0.297,-0.172 0.619,-0.25 0.94,-0.25 l 0,0 1.019,0 0.033,0 -3.07,-6.34 c -0.194,-0.39 -0.186,-0.872 0.065,-1.271 l 0,0 c 0.247,-0.404 0.677,-0.627 1.116,-0.627 l 0,0 16.66,0 c 0.276,0 0.549,0.076 0.798,0.234 l 0,0 c 0.252,0.157 0.437,0.371 0.558,0.618 l 0,0 2.577,5.321 -12.018,0 0.984,2.018 11.074,0 c 0.272,0 0.544,0.075 0.797,0.231 l 0,0 c 0.248,0.155 0.436,0.369 0.553,0.617 l 0,0 2.584,5.326 -11.988,0 0.986,2.012 11.037,0 c 0.272,0 0.549,0.075 0.799,0.23 l 0,0 c 0.248,0.157 0.433,0.372 0.553,0.619 l 0,0 2.582,5.325 -18.038,0 z" /><path
         d="m 532.334,503.2607 -0.033,0.506 -0.033,0.543 0.021,0.564 0.109,0.633 0.038,0.402 0.011,0.325 -0.033,0.474 -0.051,0.477 -0.021,0.478 -0.031,0.42 0.009,0.43 -0.029,0.344 -0.092,0.263 -0.217,0.235 -0.035,0.277 0.012,0.17 0.082,0.184 0.197,0.111 0.117,0.004 0.059,-0.047 0.068,-0.102 0.204,-0.13 0.127,-0.053 0.087,-0.112 0.067,-0.039 0.135,0.024 0.142,-0.016 0.098,-0.025 0.088,-0.067 0.148,-0.148 0.051,-0.16 0.066,-0.047 0.043,-0.084 0.155,-0.111 0.119,-0.08 0.105,-0.153 0.09,-0.138 0.072,-0.153 0.157,-0.168 0.109,-0.133 0.156,-0.127 0.002,-0.125 0.031,-0.13 -0.004,-0.09 -0.15,-0.192 -0.101,-0.099 -0.047,-0.088 -0.055,-0.039 -0.152,-0.024 -0.172,-0.013 -0.104,-0.041 -0.045,-0.108 -0.062,-0.133 -0.035,-0.203 0.011,-0.402 -0.011,-0.609 0.006,-0.219 -0.114,-0.461 0.031,-0.469 -0.005,-0.486 -0.012,-0.623 0.033,-1.221 -0.051,-0.348 0.032,-0.455 0.011,-0.41 0.024,-0.174 -0.012,-0.324 0.064,-0.283 -0.015,-0.824 0.021,-0.885 0.17,-1.334 0.217,-0.979 0.057,-0.341 0.064,-0.256 -0.035,-0.098 -0.172,-0.004 -0.414,0.076 -0.334,0.02 -0.381,0.037 -0.24,0.051 -0.336,0.019 -0.404,0.079 -0.18,0.013 -0.223,0.041 -0.345,0.096 -0.225,0.129 -0.262,0.183 -0.177,0.168 -0.161,0.213 -0.195,0.342 -0.119,0.148 -0.326,0.364 -0.346,0.441 -0.219,0.336 -0.156,0.158 -0.033,0.123 -0.022,0.116 0.045,0.087 0.108,-0.005 -0.002,0.047 0.064,0.046 0.065,0.127 0.056,0.004 0.153,-0.017 0.093,0.088 0.086,0.003 0.108,-0.044 0.215,-0.225 0.244,-0.147 0.308,-0.171 0.291,-0.147 0.221,-0.078 0.233,-0.147 0.361,-0.222 0.346,-0.076 0.201,0.004 0.152,0.025 0.033,0.125 -0.023,0.18 0.027,0.453 -0.049,0.369 -0.031,0.476 0.01,0.342 -0.059,0.391 -0.049,0.43 0.026,0.544 0.078,0.635 0.023,0.524 -0.046,0.341 0.029,0.366 -0.006,0.238 z m -2.936,-1.506 -0.007,0.317 0.027,0.363 0.092,0.279 0.162,0.34 0.16,0.365 0.014,0.258 0.021,0.336 0.012,0.228 -0.024,0.182 -0.072,0.188 -0.07,0.084 -0.053,0.22 0.014,0.239 0.006,0.132 0.105,-0.004 0.172,-0.015 0.291,-0.203 0.488,-0.399 0.243,-0.175 0.267,-0.25 0.139,-0.254 0.043,-0.153 0.021,-0.15 -0.013,-0.201 -0.034,-0.211 -0.035,-0.461 -0.053,-0.481 -0.029,-0.363 -0.138,-0.564 -0.061,-0.164 0.002,-0.145 0.053,-0.199 0.131,-0.215 0.005,-0.277 -0.121,-0.002 -0.078,-0.024 -0.099,-0.154 -0.124,-0.109 -0.083,0.015 -0.243,0.051 -0.242,0.148 -0.176,0.213 -0.205,0.129 -0.176,0.133 -0.142,0.291 -0.072,0.256 -0.075,0.236 -0.043,0.17 z m -3.759,2.961 c -0.075,-0.008 -0.133,0.033 -0.207,0.119 l 0.009,0.125 -0.002,0.057 -0.013,0.131 -0.11,0.142 -0.164,0.11 -0.095,0.045 -0.069,0 -0.14,-0.108 -0.176,-0.168 -0.131,-0.156 -0.166,-0.207 -0.121,-0.115 -0.074,-0.129 0.033,-0.112 0.021,-0.105 0.079,-0.055 0.103,-0.025 0.076,-0.01 0.069,0.022 0.086,0.013 0.142,0.049 0.141,0.08 0.064,0.041 0.074,0.053 c 0.059,0.021 0.268,-0.061 0.215,-0.141 l -0.025,-0.105 0.051,-0.113 0.107,-0.053 0.135,0.012 0.179,0.033 0.18,0.045 0.16,0.039 0.155,0.015 0.15,0.032 0.135,0.021 0.209,0.035 0.226,0.026 0.19,0.041 0.172,0.035 0.256,0.045 0.22,0.015 0.106,0.004 0.037,0.008 0.064,0.098 0.084,0.127 0.065,0.058 0.025,0.088 0.057,0.029 0.029,-0.017 0.146,-0.092 0.157,-0.092 0.127,-0.138 0.148,-0.178 0.068,-0.123 0.073,-0.182 0.082,-0.207 0.033,-0.226 0.006,-0.174 -0.065,-0.067 -0.066,-0.052 -0.074,-0.067 -0.074,-0.041 -0.073,-0.088 -0.021,-0.029 -0.026,-0.105 -0.097,-0.26 -0.045,-0.154 -0.072,-0.147 -0.006,-0.133 -0.075,-0.094 -0.017,-0.082 0.002,-0.054 0,-0.098 -0.004,-0.105 -0.027,-0.084 -0.063,-0.088 0.027,-0.037 0.043,-0.153 0.125,-0.084 0.088,-0.025 0.108,-0.104 0.082,-0.121 0.068,-0.15 0.031,-0.094 -0.027,-0.021 -0.105,-0.012 -0.2,-0.006 -0.048,-0.01 -0.045,-0.037 -0.03,-0.033 -0.103,-0.049 -0.125,0.016 -0.143,-0.006 -0.172,-0.031 -0.218,-0.053 -0.274,-0.094 -1.158,-0.328 -0.176,-0.1 -0.086,-0.048 -0.056,-0.041 -0.036,-0.086 -0.037,-0.059 -0.086,0.037 -0.269,0.061 -0.463,0.131 -0.115,0.033 -0.088,0.017 -0.065,-0.048 -0.166,-0.141 -0.14,-0.166 -0.016,-0.086 -0.047,-0.068 -0.017,-0.075 0.033,-0.113 0.066,-0.096 0.166,-0.091 0.116,0.004 0.105,0.031 0.234,0.033 0.418,0.078 0.258,0.104 0.057,0.029 0.293,0.057 0.265,0.082 0.182,0.023 0.236,0.102 0.217,0.066 0.057,0.039 0.117,0.002 0.18,0.031 0.199,0.037 0.16,0.059 0.102,0.082 0.058,0 0.11,-0.121 0.154,-0.139 0.146,-0.14 0.108,-0.034 0.109,-0.201 0.053,-0.14 0.06,-0.143 0.022,-0.101 -0.084,-0.11 -0.168,-0.088 -0.113,-0.101 -0.073,-0.067 -0.103,-0.129 -0.055,-0.086 0.004,-0.125 0.041,-0.13 0.063,-0.19 0.08,-0.158 0.07,-0.115 0.125,-0.035 0.057,-0.047 0.084,-0.143 0,-0.15 0.004,-0.145 -0.254,-0.055 -0.618,-0.158 -0.417,-0.068 -0.647,-0.121 -0.334,-0.088 -0.084,-0.01 -0.094,-0.09 -0.207,-0.138 -0.265,-0.036 -0.135,-0.011 -0.162,0.062 -0.137,0.071 -0.107,0.056 -0.084,0.053 -0.108,0.027 -0.021,0.086 -0.051,0.104 -0.088,0.121 -0.166,0.139 -0.129,0.138 -0.088,0.074 -0.002,0.098 0.022,0.211 -0.031,0.219 -0.008,0.179 -0.051,0.123 -0.045,0.249 -0.012,0.103 -0.076,0.066 -0.107,0.024 -0.133,-0.029 -0.113,-0.092 -0.063,-0.153 -0.088,-0.222 -0.121,-0.186 -0.162,-0.279 -0.213,-0.303 -0.148,-0.176 -0.149,-0.146 -0.187,-0.156 -0.151,-0.092 -0.15,-0.09 -0.145,-0.031 -0.169,-0.022 -0.165,0.012 -0.14,0.014 -0.156,0.093 -0.174,0.102 -0.215,0.127 -0.07,0.141 -0.104,0.277 -0.012,0.123 -0.06,0.131 -0.119,0.14 -0.1,0.094 -0.088,0.149 -0.043,0.123 -0.07,0.172 0.064,0.103 0.004,0.117 0.02,0.076 0.047,-0.009 0.097,-0.045 0.08,-0.035 0.039,-0.088 0.049,-0.073 0.069,-0.113 0.099,-0.053 0.133,-0.056 0.154,-0.033 0.182,-0.022 0.096,0.01 0.103,0.058 0.125,0.063 0.166,0.195 0.164,0.272 0.139,0.195 0.174,0.225 0.222,0.3 0.139,0.129 0.149,0.233 0.199,0.379 0.154,0.291 0.238,0.338 0.215,0.254 0.112,0.089 0.097,0.26 0.172,0.404 0.109,0.274 0.116,0.252 0.006,0.15 -0.094,0.238 -0.051,0.188 -0.014,0.154 0.014,0.182 -0.012,0.141 -0.07,0.093 -0.098,0.075 -0.144,0.044 -0.153,-0.011 -0.134,-0.006 -0.123,-0.041 -0.073,-0.078 -0.076,-0.098 0.014,-0.084 0.021,-0.107 0.032,-0.104 -0.08,-0.125 -0.196,-0.312 -0.344,-0.369 -0.238,-0.333 -0.197,-0.177 -0.139,-0.194 -0.205,-0.158 -0.203,-0.224 -0.121,-0.108 -0.154,0.004 -0.209,0.016 -0.239,0.009 -0.107,-0.002 -0.076,0.036 -0.049,0.048 -0.111,0.131 -0.116,0.082 -0.156,0.102 -0.115,0.09 -0.129,0.113 -0.119,0.18 -0.059,0.103 -0.049,0.028 -0.203,0.058 -0.154,0.063 -0.066,0.049 -0.043,0.142 -0.034,0.141 -0.031,0.15 0.006,0.115 0.258,-0.039 0.203,-0.013 0.211,-0.016 0.236,0.045 0.17,0.064 0.151,0.088 0.177,0.157 0.262,0.246 0.268,0.285 0.324,0.427 0.406,0.528 0.488,0.662 0.471,0.65 0.25,0.323 0.34,0.507 0.281,0.495 0.184,0.355 0.136,0.205 0.243,0.285 0.24,0.338 0.152,0.274 0.117,0.316 0.137,0.271 0.1,0.196 -0.071,0.101 -0.031,0.106 -0.002,0.105 0.094,0.098 0.133,0.033 0.076,-0.008 0.088,-0.045 0.086,-0.066 0.078,-0.094 0.031,-0.064 0.088,-0.057 0.115,0.014 0.104,0.002 0.115,0.033 0.086,-0.029 0.049,-0.055 0.019,-0.068 0.051,-0.063 0.108,-0.074 0.128,-0.102 0.057,-0.047 0.061,-0.14 0.033,-0.152 -0.006,-0.069 0.037,-0.094 -0.045,-0.115 -0.006,-0.086 -0.027,-0.029 0.012,-0.057 0.086,-0.035 0.07,-0.086 0.059,-0.066 0.078,-0.092 0.156,-0.102 0.152,-0.037 0.192,-0.021 0.213,-0.022 0.216,0.004 0.243,-0.011 0.228,0.003 0.16,-0.003 0.127,-0.014 0.059,-0.057 0.039,-0.084 0.043,-0.095 -0.01,-0.116 -0.004,-0.134 -0.016,-0.153 0.012,-0.144 0.012,-0.094 0.07,-0.082 0.069,-0.115 0.062,-0.114 0.047,-0.064 0.016,-0.086 0.011,-0.17 -0.006,-0.137 -0.033,-0.115 -0.019,-0.066 0.002,-0.037 -0.047,-0.022 -0.098,0.027 -0.066,0.026 -0.116,0.045 -0.136,0.045 -0.114,0.015 -0.146,0.055 -0.096,0.043 -0.127,-0.002 -0.111,0.016 -0.152,0.035 -0.127,0.023 -0.088,0.049 -0.059,0.025 -0.14,0.006 c -0.159,-0.027 -0.352,0.045 -0.491,0.127 -0.113,0.065 -0.185,0.114 -0.271,0.11 l -0.152,-0.041 -0.123,-0.004 -0.143,-0.082 -0.141,-0.057 -0.162,-0.053 -0.142,-0.021 -0.209,0.002 -0.174,-0.004 -0.131,-0.043 -0.045,-0.143 -0.035,-0.146 0.004,-0.133 0.029,-0.045 0.088,-0.039 0.088,-0.025 0.086,-0.045 0.076,0.002 0.066,0.041 0.084,0.029 0.153,0.051 0.133,0.025 0.199,0.061 0.17,0.041 0.162,0.037 0.133,0.012 0.115,0.031 c 0.146,0.029 0.306,0.037 0.443,-0.002 l 0.072,-0.08 0.137,-0.035 0.154,-0.045 0.067,-0.045 -0.026,-0.086 0.01,-0.076 -0.099,-0.174 -0.045,-0.078 0.002,-0.088 -0.026,-0.096 0.061,-0.123 0.058,-0.084 -0.035,-0.162 -0.033,-0.078 -0.039,-0.029 -0.105,0.027 -0.114,-0.033 -0.133,-0.032 -0.17,-0.054 -0.164,-0.022 -0.218,-0.006 -0.219,-0.005 -0.211,-0.014 -0.135,0.004 -0.133,-0.012 -0.226,-0.064 c -0.055,-0.02 -0.108,-0.041 -0.16,-0.061 m -0.418,-2.254 -0.078,0.045 0.06,0.162 0.029,0.088 0.094,0.049 0.113,0.051 0.104,0.05 0.15,0.051 0.116,0.043 0.14,0.012 0.106,0.006 0.095,0.049 0.102,0.058 0.143,0.09 0.074,0.061 0.076,0.021 0.084,0.041 0.096,0.02 0.076,0.021 0.111,0.043 0.096,0.031 0.105,0.02 0.076,0.012 0.098,-0.008 0.084,-0.024 0.049,-0.029 0.051,-0.055 0.039,-0.068 -0.008,-0.074 0,-0.069 -0.006,-0.066 -0.017,-0.074 -0.026,-0.08 -0.017,-0.078 -0.057,-0.049 -0.039,-0.022 -0.055,-0.009 -0.125,0.017 -0.096,0.026 -0.087,0.015 -0.039,0.022 -0.057,-0.004 -0.068,-0.002 -0.067,0.01 -0.123,-0.036 -0.133,-0.039 -0.207,-0.082 -0.123,-0.06 -0.096,-0.053 -0.072,-0.027 -0.142,-0.08 -0.153,-0.063 -0.103,-0.049 -0.055,-0.021 -0.031,0 -0.055,0.008 -0.098,0.043 -0.134,0.056 z m -0.215,-1.318 0.035,0.117 0.045,0.127 0.074,0.076 0.076,0.08 0.065,0.039 0.066,0.002 0.115,0.002 0.123,0.004 0.125,0.004 0.114,0.002 0.076,0.016 0.123,0.037 0.113,0.052 0.143,0.069 0.094,0.062 0.074,0.02 0.078,0.002 0.115,0.004 0.106,-0.018 0.086,-0.057 0.058,-0.054 0.031,-0.073 0.022,-0.095 0.012,-0.069 -0.065,-0.087 -0.047,-0.067 -0.027,-0.012 -0.068,-0.002 -0.143,-0.013 -0.162,-0.031 -0.143,-0.041 -0.16,-0.053 -0.103,-0.043 -0.123,-0.041 -0.123,-0.031 -0.114,-0.03 -0.095,-0.004 -0.086,-0.004 -0.049,0 -0.047,-0.05 -0.065,-0.039 -0.123,-0.012 -0.097,0.025 -0.067,0.047 -0.05,0.026 -0.008,0.039 -0.004,0.074 z m 0.416,-2.768 0.055,0.071 0.039,0.066 0.17,0.016 0.105,0.019 0.152,0.026 0.143,0.021 0.17,0.035 0.141,0.041 0.22,0.082 0.065,0.049 0.045,0.004 0.087,0 0.125,0.002 0.047,0 0.061,-0.006 0.039,-0.047 0.027,-0.066 -0.015,-0.069 0.009,-0.064 -0.027,-0.066 -0.025,-0.071 -0.067,-0.086 -0.082,-0.09 -0.066,-0.046 -0.131,-0.081 -0.283,-0.101 -0.197,-0.074 -0.135,-0.073 -0.086,-0.029 -0.055,-0.019 -0.066,-0.014 -0.069,0.018 -0.076,0.037 -0.127,0.111 -0.07,0.113 -0.088,0.112 -0.033,0.095 0,0.039 -0.002,0.045"
         style="fill:#231f20;fill-opacity:1;fill-rule:evenodd;stroke:none"
         id="path4672"
         inkscape:connector-curvature="0" /><path
         d="m 544.8906,501.9912 0.029,0.455 -0.008,0.395 -0.025,0.291 -0.014,0.291 -0.023,0.252 -0.021,0.171 0.017,0.434 -0.025,0.385 -0.041,0.299 -0.022,0.14 -0.012,0.096 -10e-4,0.16 -0.036,0.215 0.006,0.207 0.014,0.359 0.008,0.225 0.011,0.246 -0.002,0.074 0.026,0.123 0.064,0.088 0.028,0.094 0.111,0.076 0.076,0.022 0.065,0.009 0.066,-0.027 0.074,-0.057 0.051,-0.082 0.049,-0.091 0.002,-0.049 0.013,-0.264 0.002,-0.234 -0.002,-0.291 -0.031,-0.33 -0.004,-0.266 0.012,-0.309 0.014,-0.207 0.027,-0.254 0.002,-0.177 0.023,-0.209 0.022,-0.151 0.012,-0.179 -0.012,-0.375 0.023,-0.262 0,-0.443 -0.006,-0.246 0,-0.112 -0.005,-0.084 0.043,-0.244 0.013,-0.18 -0.009,-0.132 -0.045,-0.102 -0.112,-0.08 -0.072,-0.049 -0.049,0 -0.084,0.025 -0.066,0.02 -0.076,0.027 -0.028,0.036 -0.041,0.027 -0.01,0.037 -0.011,0.098 -0.01,0.109 z m -1.826,0.006 0.01,0.404 0.035,0.17 -0.002,0.121 0.041,0.227 0.015,0.248 0.016,0.232 0.033,0.209 -0.004,0.237 -0.011,0.197 0.004,0.168 0.023,0.226 -0.002,0.19 0.025,0.14 0.036,0.125 0.084,0.096 0.101,0.096 0.082,0.039 0.076,0 0.086,-0.065 0.076,-0.072 0.04,-0.086 0.011,-0.056 0.002,-0.104 -0.008,-0.139 -0.007,-0.095 0.013,-0.678 -0.004,-0.311 0.012,-0.584 -0.016,-0.207 0.004,-0.234 -0.013,-0.188 -0.016,-0.248 0.006,-0.33 -0.006,-0.111 0.01,-0.064 -0.037,-0.03 -0.008,-0.058 -0.047,-0.045 -0.057,-0.061 -0.074,-0.019 -0.057,-0.02 -0.113,-0.023 -0.068,0.021 -0.084,0.016 -0.037,0.029 -0.037,0.055 -0.041,0.084 -0.039,0.084 -0.047,0.076 -0.012,0.062 -0.002,0.124 0.008,0.152 z m 5.267,0.172 -0.003,0.17 -0.01,0.14 0.015,0.133 -0.023,0.102 0.037,0.134 0.018,0.055 0.046,0.059 0.057,0.017 0.055,0.024 0.074,-0.02 0.076,-0.008 0.096,-0.025 0.152,-0.035 0.114,-0.055 0.068,-0.047 0.086,-0.082 0.086,-0.084 0.047,-0.074 0.019,-0.064 0.01,-0.079 0.014,-0.084 -0.008,-0.074 -0.01,-0.086 -0.035,-0.084 -0.018,-0.074 -0.027,-0.021 -0.01,-0.018 -0.047,-0.01 -0.074,-0.004 -0.076,-0.009 -0.057,-0.018 -0.074,0.006 -0.066,-0.012 -0.084,0 -0.084,0.008 -0.086,0.008 -0.037,0.008 -0.039,0.029 -0.065,-0.012 -0.037,0.008 -0.041,0.037 -0.02,0.039 -0.027,0.045 -0.012,0.057 z m -1.714,-0.401 c -0.01,0.01 -0.01,0.02 -0.01,0.02 l -0.02,0 -0.086,0.055 -0.056,0.046 -0.049,0.112 -0.002,0.076 0.019,0.076 0.006,0.065 0.02,0.066 0.006,0.027 0.039,0.022 0.025,0.029 0.041,0.027 0.055,0.059 0.074,0.027 0.074,0.024 0.074,0.019 0.077,-0.007 0.074,-0.02 0.068,-0.016 0.076,-0.027 0.086,-0.037 0.077,-0.065 0.037,-0.054 0.021,-0.074 0.01,-0.075 -0.008,-0.08 -0.025,-0.082 -0.084,-0.086 -0.133,-0.06 -0.109,-0.037 -0.141,-0.041 -0.143,-0.014 -0.068,0.018 -0.025,0.007 z m 0.021,1.811 0.084,0.096 0.102,0.103 0.103,0.088 0.109,0.049 0.057,0.019 0.047,0 0.057,0.002 0.066,-0.017 0.068,-0.028 0.065,-0.037 0.049,-0.035 0.047,-0.074 0.011,-0.047 0.02,-0.086 0.002,-0.076 0.004,-0.065 -0.012,-0.046 -0.047,-0.047 -0.062,-0.061 -0.065,-0.064 -0.064,-0.059 -0.084,-0.058 -0.057,-0.028 -0.103,-0.051 -0.057,-0.007 -0.067,-0.014 -0.054,0 -0.086,-0.022 -0.049,0.028 -0.043,0.019 -0.051,0.035 -0.017,0.04 -0.039,0.044 -0.03,0.047 -0.011,0.067 0.027,0.086 0.027,0.084 0.037,0.066 0.016,0.049 z m 2.102,0.51 -0.116,0.082 -0.078,0.082 -0.056,0.093 -0.049,0.077 -0.03,0.109 -0.033,0.133 -0.009,0.086 -0.012,0.111 0,0.104 -0.024,0.093 0,0.028 0.02,0.05 0.025,0.036 0.03,0.029 0.054,0.019 0.028,0.02 0.066,0.01 0.049,-0.008 0.055,0 0.029,0.004 0.039,0 0.035,0.055 0.047,0.085 0.045,0.059 0.053,0.047 0.048,0.01 0.057,-0.008 0.076,0.002 0.037,-0.01 0.049,-0.027 0.047,-0.045 0.066,-0.037 0.03,-0.055 0.021,-0.047 0.008,-0.047 -0.008,-0.037 -0.008,-0.066 -0.025,-0.059 -0.029,-0.047 -0.037,-0.047 -0.018,-0.066 0.002,-0.047 0.039,-0.066 0.037,-0.028 0.039,-0.017 0.065,-0.02 0.037,-0.035 0.058,-0.035 0.039,-0.076 0.041,-0.065 0.028,-0.076 0.049,-0.064 0.002,-0.074 0.011,-0.096 -0.017,-0.074 -0.008,-0.086 -0.029,-0.057 -0.045,-0.059 -0.047,-0.039 -0.035,-0.027 -0.039,0 -0.038,-0.02 -0.029,0 -0.066,0.008 -0.074,0.02 -0.067,0.021 -0.076,0.02 -0.057,0.027 -0.058,0.028 -0.076,0.037 -0.084,0.045 -0.084,0.037 z m -2.243,1.144 0.092,0.02 0.094,0.002 0.094,-0.018 0.076,-0.045 0.076,-0.064 0.049,-0.092 0.041,-0.086 -0.008,-0.039 -0.017,-0.084 -0.047,-0.074 -0.045,-0.078 -0.037,-0.047 -0.047,-0.049 -0.074,-0.029 -0.094,-0.022 -0.076,0.008 -0.084,0.01 -0.067,0.015 -0.039,0.03 -0.047,0.046 -0.01,0.057 -0.011,0.065 -0.02,0.076 0,0.101 0.024,0.086 0.047,0.057 0.046,0.066 0.038,0.037 0.046,0.051 z m 0.895,0.363 0.019,0.01 0.047,0.02 0.055,0.088 0.037,0.086 0.004,0.129 -0.031,0.152 -0.086,0.092 -0.152,0.129 -0.161,0.044 -0.123,0.034 -0.084,-0.02 -0.056,-0.039 -0.018,-0.027 -0.029,-0.02 -0.018,0.018 -0.047,0.037 -0.029,0.037 -0.068,0.027 -0.055,0.018 -0.066,-0.01 -0.075,-0.031 -0.039,-0.018 -0.054,-0.05 -0.036,-0.028 -0.031,-0.029 -0.043,-0.039 -0.019,-0.047 -0.03,-0.039 -0.007,-0.027 0.007,-0.018 0.04,-0.049 0.068,-0.072 0.068,-0.065 0.059,-0.056 0.055,-0.028 0.085,-0.025 0.084,-0.008 0.075,-0.017 0.097,0 0.094,-0.035 0.086,-0.036 0.086,-0.035 0.055,-0.027 0.076,-0.027 0.103,-0.008 0.057,0.009 z m -1.131,1.004 -0.027,0.123 -0.022,0.163 0.006,0.14 0.102,0.104 0.113,0.011 0.094,0.002 0.064,-0.025 0.088,-0.055 0.029,-0.076 0.02,-0.158 0.014,-0.143 0,-0.058 -0.038,-0.037 -0.025,-0.038 -0.105,-0.029 -0.038,-0.021 -0.054,0 -0.067,0.008 -0.086,0.027 -0.068,0.062 z m 3.141,-6.906 0.537,-0.01 0.326,-0.201 0.566,-0.195 0.629,-0.33 0.276,-0.096 0.189,-0.072 0.104,-0.072 0.068,-0.141 0.066,-0.365 0.161,-0.582 0.136,-0.336 0.057,-0.102 0.014,-0.103 0.021,-0.159 0.197,-0.478 0.129,-0.367 0.033,-0.213 -0.044,-0.106 -0.075,-0.046 -0.074,-0.032 -0.074,-0.068 -0.141,-0.002 -0.123,-0.002 -0.15,-0.049 -0.16,-0.013 -0.131,0.005 -0.145,0.139 -0.297,0.27 -0.328,0.427 -0.115,0.071 -0.23,0.214 -0.268,0.436 -0.205,0.26 -0.174,0.193 -0.174,0.188 -0.201,0.195 -0.113,0.148 -0.08,0.159 -0.11,0.336 -0.072,0.318 -0.051,0.271 0.032,0.2 -0.022,0.185 0.016,0.125 z m 0.246,0.594 -0.033,0.164 -0.123,0.121 -0.125,0.072 -0.198,0.024 -0.273,0.033 -0.188,-0.023 -0.123,-0.047 -0.185,-0.053 -0.106,-0.002 -0.101,-0.029 -0.162,0.015 -0.272,-0.004 -0.385,-0.007 -0.189,-0.004 -0.16,-0.002 -0.309,-0.102 -0.14,-0.031 -0.075,-0.047 -0.14,-0.004 -0.18,-0.004 -0.264,0.004 -0.224,-0.004 -0.19,-0.029 -0.197,-0.053 -0.121,-0.029 -0.117,-0.147 -0.037,-0.119 -0.026,-0.144 0.03,-0.102 0.097,-0.187 0.172,-0.157 0.272,-0.285 0.093,-0.094 0.061,-0.167 0.041,-0.188 -0.045,-0.096 -0.047,-0.056 -0.076,0.017 -0.111,0.008 -0.123,0.016 -0.104,0.009 -0.076,0.036 -0.17,0.023 -0.16,-0.076 -0.166,-0.147 -0.127,-0.291 -0.155,-0.269 -0.121,-0.106 -0.054,-0.093 -0.11,-0.155 -0.222,-0.267 -0.229,-0.25 -0.195,-0.192 -0.168,-0.162 -0.24,-0.146 -0.346,-0.147 -0.244,-0.033 -0.17,-0.051 -0.205,-0.023 -0.102,-0.029 -0.172,0.043 -0.31,0.062 -0.172,0.08 -0.182,0.092 -0.195,0.07 -0.221,0.071 -0.267,0.082 -0.139,0.072 -0.184,0.242 -0.097,0.137 -0.096,0.076 0.035,0.057 0.121,0.142 0.008,0.076 -0.008,0.096 -0.072,0.1 -0.057,0.121 -0.097,0.093 0.056,0.065 0.047,-0.016 0.075,-0.064 0.117,-0.121 0.136,-0.149 0.141,-0.092 0.275,-0.07 0.291,-0.041 0.237,0.004 0.185,0.051 0.207,0.08 0.309,0.174 0.287,0.203 0.15,0.098 0.122,0.05 0.091,0.143 0.229,0.269 0.121,0.151 0.193,0.181 0.242,0.223 0.102,0.067 0.119,0.201 0.258,0.25 0.117,0.197 0.121,0.117 -0.05,0.121 -0.012,0.133 -0.197,0.033 -0.114,0.008 -0.176,-0.016 -0.253,-0.041 -0.471,-0.111 -0.244,-0.08 -0.309,-0.082 -0.506,-0.123 -0.168,-0.01 -0.703,-0.176 -0.131,-0.011 -0.789,-0.26 -0.176,-0.086 -0.123,-0.039 -0.138,-0.051 -0.053,-0.142 -0.047,-0.077 -0.06,-0.142 -0.096,-0.057 -0.133,-0.004 -0.158,0.045 -0.137,0.194 -0.117,0.195 -0.137,0.308 -0.066,0.131 -0.031,0.078 c -0.02,0.016 -0.047,0.061 -0.047,0.082 l -0.02,0.008 0,0.02 -0.012,0 -0.039,0.027 -0.086,0.119 -0.007,0.461 -0.024,0.237 0.071,0.181 0.093,0.151 0.074,0.095 0.073,0.022 0.076,0 0.068,-0.151 0.098,-0.185 0.096,-0.092 0.179,-0.074 0.647,0.164 0.976,0.234 0.561,0.153 0.357,0.099 0.213,0.11 0.008,0.185 -0.004,0.172 -0.078,0.084 -0.105,0.186 -0.202,0.242 -0.226,0.437 -0.096,0.121 -0.1,0.354 -0.033,0.142 -0.002,0.075 0.149,0.173 0.183,0.202 0.12,0.226 0.089,0.266 0.024,0.338 0.021,0.246 -0.015,0.357 -0.057,0.498 -0.133,0.584 -0.07,0.205 -0.031,0.176 -0.078,0.123 -0.047,0.061 -0.012,0.097 0.016,0.057 0.046,0.105 0.028,0.122 0.068,0.226 0.067,0.039 0.113,-0.025 0.293,-0.071 0.23,-0.089 0.244,-0.051 0.293,-0.088 0.153,-0.047 0.047,-0.062 0.166,-0.338 0.205,-0.325 0.174,-0.214 0.095,-0.137 0.084,-0.027 0.16,0.048 0.057,0.049 0.031,0.321 -0.06,0.658 -0.004,0.349 -0.024,0.166 -0.031,0.096 -0.002,0.119 -0.041,0.285 -0.031,0.084 -0.154,0.309 -0.147,0.228 -0.08,0.178 -0.078,0.188 -0.068,0.123 -0.032,0.168 0.014,0.3 -0.002,0.19 0.025,0.057 0.018,0.066 0.084,0.029 0.045,0.02 0.078,-0.072 0.115,-0.122 0.059,-0.093 0.066,-0.065 0.076,-0.006 0.217,0.01 0.227,-0.041 0.207,-0.041 0.23,-0.205 0.201,-0.184 0.145,-0.093 0.094,-0.149 0.099,-0.213 0.039,-0.142 0.069,-0.072 0.15,10e-4 0.094,0.079 0.045,0.093 -0.004,0.2 -0.033,0.214 0.047,0.077 0.074,0.115 0.119,0.123 0.119,0.144 0.045,0.104 0.01,0.123 -0.053,0.121 0.094,0.068 0.16,0.032 0.148,0.021 0.202,-0.08 0.191,-0.129 0.17,-0.045 0.242,0.051 0.414,0.066 0.385,0.073 0.683,0.142 0.225,0.073 0.065,0 0.107,-0.073 0.246,-0.136 0.162,-0.149 0.08,-0.242 0.035,-0.283 0.002,-0.198 0.049,-0.046 0.018,-0.385 -0.074,-0.096 -0.047,-0.096 -0.073,-0.16 -0.091,-0.172 -0.112,-0.039 -0.103,-0.041 -0.102,-0.009 -0.092,-0.067 -0.046,-0.088 -0.018,-0.074 -0.027,-0.049 -0.036,-0.064 -0.029,-0.039 0.012,-0.049 0,-0.084 0.004,-0.102 -0.01,-0.037 -0.047,-0.043 -0.027,-0.064 0.002,-0.096 0.031,-0.072 0.035,-0.037 0.039,-0.01 0.076,0.002 0.047,-0.037 0.086,-0.018 0.123,-0.025 0.114,0.012 0.076,10e-4 0.037,-0.017 0.045,-0.02 0.107,-0.074 0.086,-0.082 0.078,-0.072 0.074,-0.037 0.077,-0.018 0.056,-0.008 0.065,0.02 0.066,0.019 0.047,0.039 0.008,0.096 0.035,0.065 0.027,0.113 0.055,0.16 0.031,0.152 0.045,0.209 0.072,0.114 0.016,0.162 0.027,0.111 -0.031,0.102 -0.039,0.123 -0.105,0.14 -0.127,0.157 -0.071,0.14 -0.007,0.412 0.076,0.088 0.008,0.115 -0.01,0.055 0.054,0.022 0.17,-0.036 0.248,-0.074 0.121,-0.043 0.077,0.002 0.084,0.049 0.072,0.143 0.027,0.048 0.047,0 0.152,-0.074 0.124,0.033 0.064,0 0.152,-0.193 0.383,-0.699 0.193,-0.279 0.125,-0.178 0.145,-0.242 0.111,-0.235 0.059,-0.175 -0.006,-0.17 -0.141,-0.069 -0.15,-0.011 -0.113,0.005 -0.151,-0.058 -0.148,-0.078 -0.119,-0.135 -0.065,-0.178 0.024,-0.236 0.013,-0.18 0.022,-0.121 -0.072,-0.143 -0.104,-0.076 -0.015,-0.103 -0.022,-0.426 -0.082,-0.594 -0.053,-0.679 0.002,-0.602 -0.037,-0.67 0.008,-0.357 0.049,-0.151 0.322,-0.115 0.416,0.018 0.459,0.007 0.385,0.141 0.316,0.154 0.121,0.059 0.104,0.004 0.096,-0.055 0.326,-0.277 0.316,-0.418 0.205,-0.287 0.143,-0.168 0.125,-0.121 0.08,-0.233 -0.004,-0.226 0.029,-0.149 -0.043,-0.115 -0.125,0.047 -0.509,0.111 -0.905,0.088 -0.51,0.026 -0.46,-0.043 -0.19,0.033 -0.488,0 -0.397,-0.008 -0.234,-0.061 -0.178,-0.078 -0.138,-0.164 -0.167,-0.041 -0.228,0.004 -0.111,0 -0.043,-0.121 -0.172,0.047 z m -3.02,7.818 0.086,0.074 0.121,0.09 0.178,0.051 0.166,0.059 0.236,0.052 0.123,0.032 0.075,-0.01 0.093,-0.035 0.086,-0.065 0.043,-0.115 -0.027,-0.119 -0.008,-0.199 -0.006,-0.17 -0.008,-0.114 0.012,-0.056 -0.027,-0.028 -0.094,-10e-4 -0.254,-0.034 -0.357,-0.015 -0.199,0.006 -0.151,0.005 -0.074,0.028 -0.088,0.054 -0.047,0.067 -0.029,0.053 -0.002,0.087 0.025,0.094 0.035,0.094 0.057,0.049 0.035,0.066"
         style="fill:#231f20;fill-opacity:1;fill-rule:evenodd;stroke:none"
         id="path4676"
         inkscape:connector-curvature="0" /><path
         d="m 561.6699,501.0928 -0.08,0.057 -0.059,0.039 -0.06,0.052 -0.033,0.077 -0.039,0.095 -0.436,-0.008 -0.152,-0.031 -0.088,0.006 -0.086,-0.029 -0.086,-0.072 -0.092,-0.12 -0.082,-0.07 -0.115,-0.051 -0.057,-0.043 -0.107,0.028 -0.065,-0.082 -0.056,-0.061 0.006,-0.142 0.035,-0.182 0.045,-0.154 0.058,-0.082 0.151,-0.131 0.15,-0.153 0.187,-0.08 0.172,-0.06 0.196,-0.024 0.187,-0.07 0.147,-0.08 0.041,-0.086 0.052,-0.076 -0.16,-0.11 -0.152,-0.121 -0.236,-0.066 -0.135,-0.016 -0.098,-0.021 -0.318,-0.012 -0.123,-0.033 -0.211,-0.037 -0.162,-0.045 -0.182,-0.094 -0.074,-0.057 -0.086,-0.033 -0.078,0.026 -0.196,0.004 -0.232,0.039 -0.096,0.025 -0.023,0.059 -0.067,-0.002 -0.039,0.037 -0.105,-0.063 -0.094,-0.072 -0.056,-0.029 10e-4,-0.059 0.012,-0.055 -0.006,-0.099 -0.023,-0.145 -0.082,-0.148 -0.055,-0.076 -0.027,-0.102 0.014,-0.082 0.158,-0.381 0.052,-0.127 0.036,-0.191 0.076,-0.256 0.021,-0.07 0.002,-0.028 0.176,-0.089 0.166,-0.024 0.147,-0.082 0.107,-0.045 0.129,-0.025 0.222,0.213 -0.019,-0.012 0.129,0.217 0.205,0.183 0.197,0.149 0.295,0.136 0.367,0.186 0.366,0.109 0.418,0.18 0.363,0.127 0.465,0.182 0.517,0.179 0.408,0.141 0.352,0.176 0.217,0.113 0.246,0.152 0.361,0.215 0.444,0.309 0.283,0.162 0.154,0.023 0.115,-0.045 0.082,-0.111 0.034,-0.113 -0.012,-0.225 0.006,-0.404 0.023,-0.733 0.027,-0.501 0.026,-0.211 -0.045,-0.049 -0.035,-0.117 -0.055,-0.127 -0.084,-0.071 -0.045,-0.058 -0.008,-0.09 0.073,-0.113 0.025,-0.172 0.045,-0.201 0.002,-0.059 0.109,-0.063 0.084,-0.191 0.172,-0.246 0.242,-0.309 0.121,-0.113 0.069,-0.035 0.113,-0.016 0.061,-0.008 0.127,-0.042 0.166,-0.026 0.105,0.006 0.111,0.062 0.055,0.108 0.045,0.06 0.057,0.098 0.062,0.117 0.074,0.09 0.096,0.033 0.143,0.073 0.177,0.189 0.323,0.174 0.283,0.193 0.138,0.149 0.34,0.216 0.299,0.301 0.33,0.252 0.037,0.03 -0.004,0.126 0.071,0.088 0.086,0.137 0.146,0.199 0.141,0.119 0.006,0.079 0.013,0.175 -0.021,0.096 0.07,0.147 0.082,0.214 0.117,0.237 0.063,0.119 0.076,0 0.07,-0.045 0.194,-0.022 0.283,-0.117 0.314,-0.133 0.313,-0.164 0.326,-0.209 0.221,-0.168 0.234,-0.134 0.326,-0.221 0.326,-0.193 0.254,-0.116 0.166,-0.08 0.059,0.059 -0.018,0.416 -0.087,0.4 -0.102,0.393 -0.098,0.275 -0.131,0.248 -0.154,0.217 -0.154,0.322 -0.065,0.125 -0.013,0.116 -0.051,0.045 -0.037,0.027 -0.086,-0.051 -0.115,-0.033 -0.153,-0.033 -0.166,0.023 -0.273,0.145 -0.307,0.154 -0.275,0.135 -0.342,0.142 -0.225,0.088 -0.253,0.076 -0.225,0.08 -0.199,0.161 -0.071,0.111 -0.023,0.127 0.072,0.146 0.168,0.129 0.19,0.123 0.158,0.19 0.264,0.181 0.251,0.204 0.239,0.103 0.211,0.035 0.144,-0.002 0.117,0.002 0.147,-0.013 0.142,0.003 0.231,0.096 0.17,0.104 0.15,0.111 0.065,0.088 0.013,0.117 -0.052,0.15 -0.153,0.2 -0.142,0.256 -0.201,0.232 -0.182,0.178 -0.258,0.215 -0.232,0.115 -0.092,0.115 -0.117,0.053 -0.039,-0.051 -0.055,-0.061 -0.084,-0.117 -0.053,-0.166 -0.129,-0.119 -0.125,-0.082 -0.066,-0.041 -0.135,0.025 -0.129,0.141 -0.174,0.242 -0.195,0.332 -0.074,0.192 -0.033,0.144 0.021,0.192 0,0.271 0.09,0.477 0.064,0.357 0.125,0.381 0.061,0.158 0.053,0.117 0.084,0.119 0.34,0.252 0.15,0.092 0.057,0.061 0.021,0.166 -0.002,0.133 -0.043,0.085 -0.156,0.344 -0.186,0.323 -0.105,0.226 -0.061,0.115 -0.05,0.055 -0.215,0.088 -0.332,0.096 -0.194,0.06 -0.158,0.1 -0.062,0.123 -0.061,0.094 -0.059,0.027 -0.085,-0.002 -0.147,-0.006 -0.174,-0.043 -0.181,-0.008 -0.295,-0.123 -0.373,-0.168 -0.237,-0.095 -0.349,-0.213 -0.284,-0.127 -0.265,-0.155 -0.143,-0.043 -0.019,0.028 -0.094,0.123 -0.043,0.123 -0.119,0.111 -0.07,0.076 -0.114,-0.035 -0.074,-0.109 -0.027,-0.125 -0.002,-0.123 -0.127,-0.238 -0.053,-0.206 -0.035,-0.046 -0.068,-0.002 -0.262,0.007 -0.377,0.018 c -0.008,0 -0.039,-0.004 -0.057,-0.004 l -0.291,0.02 -0.301,0.019 -0.201,-0.008 -0.273,0.118 -0.182,0.168 -0.088,0.054 -0.183,-0.008 -0.114,-0.013 -0.127,-0.004 -0.06,0.094 -0.033,0.154 -0.053,0.164 -0.064,0.141 -0.104,0.158 -0.074,0.176 -0.117,0.08 -0.135,0.025 -0.158,0.07 -0.188,0.09 -0.119,0.113 -0.107,0.082 -0.063,0.094 -0.068,0.018 -0.045,-0.029 -0.067,-0.053 -0.095,-0.071 -0.084,-0.05 -0.057,-0.041 -0.016,-0.086 -0.007,-0.098 -0.026,-0.107 -0.023,-0.155 -0.055,-0.06 -0.045,-0.108 -0.094,-0.08 -0.025,-0.107 0.004,-0.086 0.01,-0.068 0.004,-0.088 0.052,-0.082 0.014,-0.174 0.025,-0.154 0.034,-0.143 -0.024,-0.139 -0.072,-0.136 -0.072,-0.168 -0.08,-0.174 -0.246,-0.397 -0.192,-0.361 -0.217,-0.385 -0.222,-0.258 -0.119,-0.226 -0.176,-0.276 -0.194,-0.238 -0.127,-0.209 -0.173,-0.273 -0.11,-0.18 -0.111,-0.127 -0.109,-0.18 -0.094,-0.099 -0.09,-0.176 -0.111,-0.15 -0.129,-0.159 -0.114,-0.082 -0.123,-0.099 -0.082,-0.082 -0.175,0.015 -0.071,0.065 -0.019,0.056 -0.059,0.047 -0.098,-0.021 -0.035,-0.061 -0.084,-0.129 -0.045,-0.058 -0.041,0.01 -0.134,-0.016 -0.153,-0.063 -0.093,-0.033 -0.194,-0.027 -0.125,-0.012 -0.056,-0.06 0.007,-0.145 0.004,-0.125 0.014,-0.133 0.004,-0.146 0.092,-0.094 0.164,-0.053 0.09,-0.035 0.125,-0.025 0.039,-0.074 0.062,-0.084 0.092,-0.143 0.111,-0.104 0.098,-0.082 c 0,0 0.049,-0.027 0.062,-0.074 l 0.071,-0.115 0.06,-0.123 0.053,-0.076 0.088,-0.004 0.144,-0.016 0.067,0.002 0.117,0.024 0.115,-0.026 0.071,-0.054 0.048,-0.028 0.035,0.049 0.059,0.031 0.057,0.069 0.054,0.011 0.077,0.024 0.058,0.031 0.047,0.039 0.086,0.002 0.059,0.031 0.025,0.078 0.057,0.043 0.025,0.116 0.072,0.109 0.006,0.105 0.024,0.145 0.13,0.141 0.073,0.146 0.131,0.131 0.086,0.061 -0.026,0.162 -0.041,0.058 -0.021,0.076 -0.004,0.077 0.064,0.087 0.057,0.053 0.096,0.041 0.037,0.059 0.086,0.053 0.091,0.089 0.104,0.1 0.072,0.098 0.104,0.14 0.035,0.059 0.094,0.082 0.08,0.174 -0.002,0.078 0.025,0.088 -0.002,0.086 0.027,0.049 -0.003,0.066 0.058,0.053 0.063,0.088 0.054,0.08 0.01,0.047 0.055,0.06 0.027,0.061 0.047,0.011 0.068,0.02 0.059,-0.027 0.049,-0.018 0.06,-0.074 0.032,-0.067 0.05,-0.095 0.071,-0.063 0.048,-0.058 0.071,-0.065 0.033,-0.105 0.021,-0.067 0.002,-0.068 -0.015,-0.135 0.004,-0.037 c -0.014,-0.022 -0.053,-0.068 -0.032,-0.076 0.125,-0.049 0.172,-0.09 0.213,-0.18 l 0.106,0.053 0.101,0.041 0.079,0.004 0.095,-0.008 0.082,-0.094 0.002,-0.076 0.055,-0.172 0.006,-0.125 -0.049,-0.041 -0.037,-0.029 -0.047,-0.053 -0.035,-0.027 -0.078,-0.026 -0.067,-0.009 -0.105,-0.012 -0.078,-0.002 -0.106,-0.006 -0.105,0.008 -0.09,0.043 -0.529,-0.037 -0.094,-0.11 -0.123,-0.043 -0.057,0.008 -0.041,0 -0.058,0.045 -0.03,0.027 -0.047,0.008 -0.058,-0.009 -0.02,-0.051 -0.027,-0.057 -0.051,-0.148 c -0.053,-0.133 -0.125,-0.219 -0.217,-0.313 0.004,-0.058 0.008,-0.137 0.01,-0.195 l 0.035,-0.135 0.067,-0.221 0.07,-0.14 0.021,-0.02 0.176,-0.109 0.129,-0.082 0.188,-0.08 0.08,-0.074 0.25,-0.01 0.056,0.039 0.125,0.043 0.198,0.094 0.125,0.062 0.095,0.023 0.049,-0.009 0.057,0.011 0.058,-0.007 0.039,-0.045 0.051,-0.096 0.024,-0.057 0.021,-0.134 0.008,-0.164 -0.018,-0.059 -0.005,-0.096 -0.03,-0.051 -0.035,-0.058 -0.047,-0.108 0.02,-0.502 0.07,-0.103 0.022,-0.057 0.013,-0.049 -0.019,-0.058 -0.016,-0.108 -0.102,-0.087 -0.134,-0.063 -0.106,-0.014 -0.095,0.016 -0.061,0.045 -0.053,0.115 -0.029,0.067 -0.035,0.171 0.013,0.088 -0.021,0.432 z m 3.482,4.588 -0.035,0.164 0.073,0.08 0.084,0.1 0.07,0.117 0.056,0.099 0.045,0.079 0.067,0.05 0.094,0.043 0.078,0.01 0.039,0.033 0.047,-0.008 0.066,0.012 0.059,0.02 0.113,0.025 0.078,0.01 0.037,-0.006 0.031,-0.021 0.012,-0.047 -0.01,-0.067 0.026,-0.068 0.031,-0.074 0.068,-0.047 0.078,-0.057 0.057,-0.015 0.059,0 0.134,0.025 0.336,0.08 0.295,0.098 0.41,0.138 0.258,0.067 0.192,0.064 0.144,0.055 0.141,0.051 0.117,0.025 0.068,0.002 0.047,-0.008 0.073,0.117 0.046,0.11 0.024,0.115 -0.004,0.137 0.004,0.115 0.006,0.096 -0.049,0.076 -0.051,0.056 -0.07,0.045 -0.086,-0.004 -0.078,-10e-4 -0.055,-0.051 -0.098,-0.02 -0.093,-0.054 -0.045,-0.02 -0.039,-0.012 -0.059,0.008 -0.08,0.025 -0.086,-0.011 -0.055,-0.041 -0.066,-0.049 -0.065,-0.08 -0.091,-0.119 -0.076,-0.08 -0.065,-0.059 -0.078,-0.023 -0.078,-0.002 -0.086,0.013 -0.059,0.028 -0.107,0.047 -0.139,0.072 -0.117,0.062 -0.109,0.065 -0.096,0.082 -0.1,0.076 -0.09,0.053 -0.109,0.074 -0.109,0.092 -0.108,0.054 -0.07,0.008 -0.064,-0.021 -0.047,-0.041 -0.008,-0.069 -0.016,-0.058 0.012,-0.076 -0.006,-0.077 -0.019,-0.078 -0.008,-0.058 0.021,-0.037 -0.019,-0.049 -0.055,-0.063 -0.045,-0.058 -0.092,-0.129 -0.049,-0.037 -0.037,-0.032 -0.095,0.028 -0.098,0.011 -0.105,-0.002 -0.098,-0.003 -0.076,-0.022 -0.078,-0.031 -0.084,-0.031 -0.059,-0.032 -0.063,-0.05 -0.031,-0.03 -0.027,-0.033 -0.037,0 -0.086,-0.031 -0.076,-0.004 c -0.098,0.01 -0.254,0.014 -0.284,0.09 l -0.074,0.093 -0.066,0.026 -0.078,0.035 -0.106,0.018 -0.127,0.004 -0.097,0.017 -0.077,0.006 0,0.039 0.024,0.029 0.021,0.039 0.006,0.049 0,0.057 -0.051,0.084 -0.072,0.096 -0.088,0.056 -0.078,0.043 -0.097,0.018 -0.104,-0.035 -0.105,-0.057 -0.057,-0.063 -0.049,0.018 -0.059,0.008 -0.074,-0.002 -0.06,-0.002 -0.116,0.025 -0.125,-0.025 -0.107,-0.012 -0.047,-0.023 -0.066,-0.049 -0.065,-0.08 -0.111,-0.158 -0.1,-0.129 -0.111,-0.139 -0.094,-0.09 -0.072,-0.099 -0.059,-0.067 -0.062,-0.082 -0.064,-0.097 10e-4,-0.11 0.053,-0.053 0.078,-0.056 0.108,-0.045 0.097,-0.016 0.067,0.012 0.068,0.002 0.065,0.051 0.115,0.064 0.074,0.049 0.041,0 0.037,-0.027 0.041,-0.036 0.039,-0.019 0.076,-0.016 0.184,0.006 0.125,-0.004 0.164,0.035 0.191,0.034 0.165,0.054 0.162,0.043 0.142,0.055 0.153,0.062 0.287,0.106 0.054,0.012 0.061,0.004 0.037,0 c 0.072,0.029 0.113,0.019 0.115,-0.024 l 0.002,-0.078 0.045,-0.113 0.1,-0.133 0.103,-0.123 0.119,-0.121 c 0.02,-0.02 0.039,-0.037 0.059,-0.055 0.027,-0.117 0.027,-0.396 0.01,-0.56 l -0.028,-0.04 -0.017,-0.066 0.004,-0.088 -0.039,-0.039 -0.045,-0.023 -0.076,-0.059 -0.096,-0.031 -0.088,-0.024 -0.121,-0.052 -0.145,-0.055 -0.084,-0.049 -0.105,-0.062 -0.084,-0.061 -0.025,-0.06 -0.036,-0.106 0,-0.059 0.039,-0.046 0.034,-0.037 0.058,-0.047 0.092,-0.055 0.096,-0.016 0.115,-0.035 0.08,-0.035 0.108,-0.035 0.058,-0.026 0.039,-0.058 0.102,-0.17 0.052,-0.104 0.043,-0.154 0.028,-0.174 0.004,-0.164 -0.024,-0.125 -0.008,-0.095 -0.017,-0.041 -0.067,0.007 -0.095,0.008 -0.117,-0.004 -0.106,-0.023 -0.152,-0.063 -0.096,-0.052 -0.084,-0.041 -0.088,-0.041 -0.121,-0.043 0.008,0 c 0.012,0 -0.029,0 -0.047,-0.004 l -0.027,-0.008 -0.071,-0.024 -0.054,-0.029 -0.036,-0.09 -0.046,-0.068 -0.008,-0.067 -0.006,-0.085 0.014,-0.09 0.009,-0.037 0.024,-0.067 0.058,-0.037 0.079,-0.045 0.068,-0.027 0.086,0.004 0.056,0.019 0.088,0.004 0.077,0.033 0.093,0.071 0.086,0.05 0.094,0.032 0.068,0.031 0.055,0.031 0.029,0.03 0.028,0.068 0.007,0.058 0.038,0.032 0.066,0.011 0.068,-0.017 0.18,-0.168 0.07,-0.094 0.061,-0.074 0.023,-0.076 0.028,-0.049 0.035,-0.143 0.045,-0.142 0.041,-0.086 0.021,-0.039 0.049,-0.035 0.059,-0.047 0.049,-0.016 0.068,0.012 0.066,0.019 0.067,0.073 0.041,0.164 0.015,0.125 0.024,0.193 0.004,0.193 0.021,0.135 0.016,0.137 -0.053,0.103 0.045,0.1 0.008,0.086 0.004,0.105 -0.002,0.108 0.002,0.154 0.023,0.223 0.006,0.127 -0.01,0.211 0.006,0.455 0.035,0.117 0.004,0.096 0.006,0.088 -0.021,0.132 -0.024,0.098 -0.051,0.092 -0.06,0.086 -0.051,0.076 -0.07,0.076 -0.08,0.065 -0.061,0.084 -0.092,0.064 -0.011,0.363 -0.122,0.016 z m 2.522,-1.096 0.262,0.006 0.07,-0.016 0.076,-0.015 0.115,-0.006 0.096,0.021 0.07,0.002 0.077,0.022 0.066,0.041 0.055,0.06 0.046,0.051 -0.005,0.211 -0.082,0.092 -0.032,0.029 -0.076,0.049 -0.09,0.033 -0.123,-0.06 -0.326,-0.004 -0.06,0.027 -0.022,0.067 -0.051,0.027 -0.066,0.027 -0.09,0.026 -0.066,0.015 -0.078,0.01 -0.049,0.018 -0.047,-0.024 -0.057,-0.029 -0.056,-0.002 -0.051,0.006 -0.067,-0.02 -0.086,-0.043 -0.062,-0.086 -0.047,-0.058 -0.008,-0.051 -0.008,-0.088 0.006,-0.086 -0.019,-0.058 -0.018,-0.059 0.012,-0.068 0.004,-0.077 0.01,-0.076 0.002,-0.09 0.027,-0.162 0.043,-0.064 0.076,-0.074 0.031,-0.02 0.049,0.02 0.02,-0.028 0.093,0.032 0.096,0.052 0.072,0.112 0.092,0.127 0.076,0.119 0.1,0.062 z m -2.961,-3.945 -0.254,-0.135 -0.246,-0.125 -0.059,0 -0.046,-0.01 -0.106,-0.054 -0.125,-0.022 -0.086,-0.004 -0.088,0.016 -0.068,0.057 -0.029,0.027 -0.026,0.142 -0.004,0.057 0.02,0.063 0.027,0.076 0.043,0.07 0.037,0.066 0.047,0.051 0.078,0.032 0.082,0.042 0.069,0.002 0.025,0.038 0.021,0.05 0.016,0.059 0.027,0.078 0.104,0.078 0.084,0.035 0.059,0.039 0.103,0.036 0.115,0.029 0.162,0.027 0.069,0 0.105,0.004 0.119,-0.023 0.075,-0.016 0.062,-0.027 0.057,-0.037 0.033,-0.116 0.012,-0.078 -0.026,-0.103 -0.035,-0.088 -0.084,-0.082 -0.133,-0.092 -0.111,-0.102 -0.125,-0.06 z m 3.811,1.203 0.095,0.041 0.065,0.109 0.131,0.131 0.121,0.11 0.177,0.14 0.151,0.149 0.121,0.121 0.121,0.111 0.035,0.106 -0.012,0.066 -0.05,0.086 -0.03,0.057 -0.05,0.025 -0.088,0.01 -0.086,-0.004 -0.076,-0.02 -0.124,-0.074 -0.095,-0.06 -0.086,-0.042 -0.096,-0.052 -0.113,-0.051 -0.229,-0.074 -0.095,-0.026 -0.106,-0.031 -0.142,-0.064 -0.075,-0.051 -0.029,-0.027 -0.029,-0.024 -0.045,-0.01 -0.069,-0.004 -0.076,0.03 -0.166,0.041 -0.175,0.023 -0.069,0.035 -0.099,0.047 -0.079,0.016 -0.056,-0.012 -0.055,-0.068 -0.037,-0.073 -0.006,-0.064 -0.016,-0.117 -0.066,-0.303 -0.033,-0.183 -0.068,-0.262 -0.014,-0.147 0,-0.066 0.014,-0.057 0.068,-0.056 0.06,-0.045 0.088,-0.02 0.076,0.004 0.116,0.006 0.088,0 0.046,0.004 0.038,0.049 0.103,0.09 0.016,0.117 0.033,0.136 -0.014,0.106 -0.021,0.086 -0.002,0.058 -0.012,0.038 0.059,0.041 0.084,0.041 0.027,0.021 0.057,0.057 0.037,0.062 0.047,0.029 0.058,0.002 0.03,-0.037 -0.018,-0.039 0.043,-0.037 0.105,-0.076 0.098,-0.063 0.129,-0.062 0.098,-0.035 0.076,-0.008 0.058,0.002 0.038,0.041 z m 0.191,-2.996 -0.35,-0.283 -0.281,-0.192 -0.283,-0.164 -0.104,-0.049 -0.123,-0.045 -0.181,-0.084 -0.116,-0.06 -0.125,-0.074 -0.123,-0.012 -0.06,0.025 -0.088,0.065 -0.022,0.086 -0.023,0.095 -0.016,0.165 0.012,0.24 0.016,0.117 -0.041,0.094 -0.033,0.115 0.003,0.135 0.014,0.168 0.004,0.154 0.016,0.184 0.043,0.144 -0.034,0.055 -0.009,0.357 -0.006,0.117 0.035,0.098 0.047,0.059 0.084,0.06 0.095,0.014 0.086,0.004 0.11,-0.028 0.125,-0.05 0.06,-0.049 0.077,-0.004 0.07,0.002 0.056,0.029 0.067,0.031 0.027,0.022 0.059,0.012 0.056,-0.008 0.049,-0.02 0.039,-0.025 0.071,0.002 0.064,0.021 0.065,0.032 0.08,0.021 0.037,0.01 0.086,0.043 c 0,0 0.027,0.012 0.035,0.021 l 0.088,-0.039 0.062,-0.045 0.088,-0.043 0.082,-0.084 0.059,-0.058 0.088,-0.053 0.127,-0.064 0.128,-0.036 0.137,-0.082 0.108,-0.052 0.078,-0.045 0.041,-0.01 0.019,-0.055 0.014,-0.08 -0.008,-0.094 -0.045,-0.087 -0.101,-0.092 -0.114,-0.119 -0.045,-0.032 -0.105,-0.062 -0.074,-0.098 -0.047,-0.058 -0.035,-0.08 -0.067,-0.061 -0.074,-0.049 -0.074,-0.072"
         style="fill:#231f20;fill-opacity:1;fill-rule:evenodd;stroke:none"
         id="path4680"
         inkscape:connector-curvature="0" /><path
         d="m 583.834,507.7549 0.074,0.064 0.121,0.071 0.075,0.136 0.113,0.125 0.129,0.204 0.093,0.039 0.125,0.006 0.038,0.037 0.105,0.06 0.094,0.086 0.129,0.109 0.07,0.018 0.084,0.002 0.02,-0.057 0.031,-0.103 0.058,-0.106 0.071,-0.074 0.103,-0.047 0.221,0.006 0.182,0.031 0.23,0.014 0.369,0.055 0.428,0.105 0.219,0.061 0.498,0.047 0.482,0.15 0.438,0.086 0.179,0.064 0.116,0.028 0.076,0.021 0.047,-0.027 0.082,-0.125 0.295,-0.49 0.175,-0.264 0.059,-0.162 0.023,-0.19 -0.125,-0.49 -0.078,-0.306 -0.037,-0.067 -0.064,-0.127 -0.039,0.018 -0.155,0.053 -0.154,0.046 -0.037,0 -0.145,-0.031 -0.369,-0.074 -0.506,-0.066 -0.179,-0.032 -0.162,-0.004 -0.118,0.008 -0.084,0.016 -0.076,-0.018 -0.105,-0.06 -0.114,-0.032 -0.064,-0.021 -0.145,-0.029 -0.179,-0.043 -0.164,-0.041 -0.198,-0.043 -0.154,0 -0.152,-0.033 -0.17,-0.09 -0.133,-0.051 -0.15,-0.078 -0.172,-0.078 -0.112,-0.09 -0.085,-0.01 -0.096,0 -0.059,0.053 -0.068,0.125 -0.199,0.347 -0.34,0.35 -0.176,0.168 -0.107,0.16 -0.088,0.055 -0.098,0.103 -0.09,0.159 c -0.033,0.019 -0.113,0.009 -0.093,0.062 0.035,0.098 0.132,0.119 0.187,0.211 m -0.207,0.186 -0.561,-0.623 -0.349,-0.141 -0.221,-0.088 -0.254,-0.131 -0.17,-0.098 -0.093,-0.078 -0.094,-0.078 -0.084,-0.105 0.021,-0.174 0.117,-0.084 0.104,-0.063 0.182,0.02 0.162,0.043 0.209,0.098 0.181,0.062 0.215,0.108 0.238,0.121 0.104,0.029 0.059,0.021 0.029,-0.076 0.07,-0.189 0.053,-0.248 0.074,-0.352 -0.006,-0.228 -0.006,-0.219 0.006,-0.231 0.012,-0.103 0.008,-0.051 0.041,-0.057 0.238,-0.109 0.154,-0.074 0.137,-0.063 0.135,-0.007 0.094,0.029 0.256,0.111 0.482,0.143 0.676,0.203 0.668,0.137 0.539,0.154 0.754,0.137 0.435,0.095 0.545,0.125 0.649,0.08 0.533,0.039 0.39,0.045 0.135,0.03 0.053,0.088 0.088,0.021 0.056,-0.017 0.051,-0.047 0.115,-0.217 0.266,-0.264 0.203,-0.205 0.293,-0.283 0.301,-0.358 0.148,-0.15 0.01,-0.098 -0.008,-0.199 -0.039,-0.381 -0.037,-0.07 -0.086,-0.012 -0.078,0.012 -0.201,0.146 -0.176,0.151 -0.172,0.094 -0.078,0.007 -0.076,-0.002 -0.15,-0.06 -0.192,-0.1 -0.15,-0.021 -0.182,-0.022 -0.314,-0.015 -0.211,0.004 -0.201,0.027 -0.231,0.004 -0.123,-0.012 -0.143,-0.08 -0.035,-0.115 0.059,-0.151 0.092,-0.15 0.115,-0.162 0.023,-0.094 -0.019,-0.078 -0.074,-0.049 -0.121,-0.107 -0.104,-0.145 -0.014,-0.267 -0.08,-0.43 -0.009,-0.463 -0.026,-0.162 0.024,-0.6 0.035,-0.498 0.039,-0.543 0.035,-0.302 0.012,-0.653 0.031,-1.095 -0.014,-0.452 0.063,-0.246 0.025,-0.371 0.061,-0.629 0.006,-0.267 -0.018,-0.135 -0.025,-0.115 -0.065,-0.078 -0.154,-0.051 -0.158,-0.031 -0.231,-0.053 -0.25,-0.004 -0.353,0.002 -0.317,0.031 -0.4,0.061 -0.424,0.125 -0.316,0.109 -0.366,0.186 -0.328,0.109 -0.23,0.176 -0.352,0.271 -0.31,0.299 -0.1,0.113 -0.15,0.084 -0.286,0.311 -0.058,0.1 -0.067,0.068 -0.158,0.256 -0.158,0.263 -0.207,0.235 -0.049,0.123 -0.09,0.142 -0.087,0.168 -0.073,0.309 -0.103,0.34 -0.073,0.371 -0.134,0.551 -0.032,0.115 -0.021,0.131 -0.012,0.088 0.02,0.017 0.019,0 0.03,-0.084 0.078,-0.14 0.099,-0.121 0.438,-0.416 0.176,-0.196 0.195,-0.17 0.156,-0.197 0.135,-0.139 0.146,-0.101 0.096,-0.076 0.039,-0.075 0.166,-0.226 0.389,-0.318 0.43,-0.346 0.289,-0.186 0.402,-0.136 0.348,-0.1 0.257,-0.031 0.131,-0.02 0.117,0.051 0.084,0.127 0.016,0.191 0.004,0.221 -0.012,0.172 -0.043,0.221 -0.023,0.177 -0.031,0.221 -0.036,0.295 0.03,0.984 0.01,1.051 -0.024,1.11 0.01,0.582 0.004,0.218 -0.03,0.182 -0.048,0.084 -0.088,0.047 -0.125,0.017 -0.143,-0.023 -0.277,-0.082 -0.59,-0.154 -0.473,-0.153 -0.285,-0.097 -0.293,-0.151 -0.283,-0.111 -0.209,-0.08 -0.086,-0.049 -0.068,-0.029 -0.123,0.123 -0.381,0.324 -0.186,0.246 -0.168,0.303 -0.062,0.275 -0.092,0.219 -0.01,0.152 -0.051,0.067 -0.189,0.006 -0.096,-0.002 -0.105,-0.012 -0.018,-0.037 -0.17,-0.168 -0.216,-0.203 -0.159,-0.149 -0.14,-0.127 -0.123,-0.068 -0.106,-0.059 -0.187,-0.09 -0.047,-0.093 -0.028,-0.098 0.032,-0.105 0.138,-0.274 0.268,-0.482 0.285,-0.492 0.104,-0.35 0.052,-0.295 0.039,-0.01 0.036,-0.295 0.004,-0.306 0.029,-0.553 0.039,-0.545 0.053,-0.781 -0.02,-0.518 0.055,-0.295 -0.045,-0.181 -0.037,-0.135 -0.065,-0.098 -0.095,-0.002 -0.125,0.057 -0.239,0.035 -0.203,0.078 -0.279,0.133 -0.301,0.221 -0.076,0.103 -0.334,0.406 -0.135,0.139 -0.156,0.168 -0.139,0.172 -0.088,0.217 -0.068,0.095 -0.014,0.17 0,0.098 -0.004,0.096 0.008,0.086 0.037,0.068 0.106,0.029 0.094,0 0.076,0.059 0.084,0.107 0.064,0.11 0.035,0.093 0.01,0.086 -0.006,0.315 0.035,0.182 0.002,0.23 0.03,0.145 -0.051,0.123 -0.078,0.066 -0.143,0.033 -0.084,-0.037 -0.115,-0.092 -0.131,-0.152 -0.092,-0.223 -0.129,-0.232 -0.158,-0.307 -0.295,-0.476 -0.267,-0.452 -0.17,-0.261 -0.131,-0.117 -0.141,-0.09 -0.199,-0.117 -0.264,-0.122 -0.211,-0.07 -0.15,-0.06 -0.199,-0.024 -0.231,0.045 -0.144,0.084 -0.194,0.102 -0.175,0.14 -0.25,0.203 -0.061,0.096 -0.137,0.129 -0.127,0.172 -0.078,0.074 -0.117,0.104 -0.166,0.121 -0.066,0.095 -0.069,0.055 0.02,0.041 0.025,0.152 -0.031,0.131 -0.012,0.078 -0.05,0.092 0.029,0.051 0.115,0.01 0.133,0.004 0.125,-0.018 0.058,-0.103 0.157,-0.141 0.162,-0.033 0.113,0 0.154,0.06 0.19,0.088 0.187,0.151 0.219,0.146 0.346,0.32 0.113,0.164 0.084,0.069 0.147,0.187 0.16,0.192 c 0.076,0.039 0.037,0.037 0.066,0.039 l 0.16,0.195 0.196,0.225 0.289,0.433 0.121,0.069 0.123,0.203 c 0.008,0 0.045,0.011 0.056,0.011 l 0.09,0.194 0.168,0.201 0.244,0.293 0.194,0.262 0.199,0.269 0.307,0.389 0.252,0.264 0.197,0.242 0.072,0.191 0.074,0.154 -0.08,0.096 -0.076,0.082 -0.096,0.037 -0.181,-0.043 -0.114,-0.076 -0.14,-0.146 -0.158,-0.186 -0.225,-0.262 -0.104,-0.078 -0.058,-0.115 -0.09,-0.105 -0.115,-0.063 -0.084,-0.086 -0.102,-0.066 -0.086,-0.061 -0.134,-0.013 -0.202,-0.032 -0.162,-0.004 -0.131,-0.05 -0.142,-0.03 -0.125,-0.023 -0.084,0.039 -0.141,0.148 -0.162,0.178 -0.101,0.135 -0.135,0.158 -0.039,0.057 -0.086,0.047 -0.194,0.062 -0.089,0.092 -0.059,0.105 -0.104,0.094 -0.041,0.066 -0.007,0.278 -0.01,0.103 -0.08,0.114 -0.016,0.056 0.016,0.088 0.086,-0.017 0.105,0.021 0.168,0.08 0.117,0.01 0.153,-0.004 0.152,0.002 0.133,-0.018 0.135,-0.017 0.16,0.021 0.105,0.041 0.104,0.071 0.103,0.152 0.307,0.379 0.217,0.215 0.234,0.203 0.16,0.195 0.198,0.149 0.3,0.337 0.317,0.372 0.373,0.531 0.082,0.154 0.123,0.154 -0.004,0.125 -0.051,0.163 0.035,0.181 0.008,0.152 0.082,0.184 0.151,0.158 0.138,0.162 0.133,0.012 0.096,-0.045 0.156,-0.092 0.201,-0.082 0.127,-0.095 0.117,-0.121 0.125,-0.139 0.08,-0.086 0.106,-0.096 0.125,-0.062 0.129,-0.112 0.185,-0.246 0.166,-0.263 0.102,-0.276 0.049,-0.211 0.072,-0.216"
         style="fill:#231f20;fill-opacity:1;fill-rule:evenodd;stroke:none"
         id="path4684"
         inkscape:connector-curvature="0" /></g></g></svg>