<?xml version="1.0" encoding="UTF-8" standalone="no"?>
<!-- Created with Inkscape (http://www.inkscape.org/) -->

<svg
   xmlns:dc="http://purl.org/dc/elements/1.1/"
   xmlns:cc="http://creativecommons.org/ns#"
   xmlns:rdf="http://www.w3.org/1999/02/22-rdf-syntax-ns#"
   xmlns:svg="http://www.w3.org/2000/svg"
   xmlns="http://www.w3.org/2000/svg"
   xmlns:xlink="http://www.w3.org/1999/xlink"
   xmlns:sodipodi="http://sodipodi.sourceforge.net/DTD/sodipodi-0.dtd"
   xmlns:inkscape="http://www.inkscape.org/namespaces/inkscape"
   width="76.48743"
   height="75.557503"
   id="svg2"
   version="1.1"
   inkscape:version="0.48.4 r9939"
   sodipodi:docname="新建文档 1">
  <g
     inkscape:label="Layer 1"
     inkscape:groupmode="layer"
     id="layer1"
     transform="translate(-227.1431,-220.15262)">
    <g
       id="g23160">
      <g
         transform="matrix(1.25,0,0,-1.25,272.6481,243.51137)"
         id="g12467">
        <path
           id="path12469"
           style="fill:#d91920;fill-opacity:1;fill-rule:nonzero;stroke:none"
           d="m 0,0 0,-36.631 c 1.794,0.443 3.515,1.069 5.14,1.861 l 0,41.923 C 4.601,6.904 3.521,6.4 2.669,5.721 0.911,4.321 0,2.54 0,0"
           inkscape:connector-curvature="0" />
      </g>
      <g
         transform="matrix(1.25,0,0,-1.25,253.86761,236.35862)"
         id="g12471">
        <path
           id="path12473"
           style="fill:#d91920;fill-opacity:1;fill-rule:nonzero;stroke:none"
           d="m 0,0 c -0.851,0.678 -1.93,1.182 -2.469,1.431 l 0,-41.926 c 1.625,-0.792 3.346,-1.42 5.139,-1.86 l 0,36.633 C 2.67,-3.183 1.759,-1.401 0,0"
           inkscape:connector-curvature="0" />
      </g>
      <g
         transform="matrix(1.25,0,0,-1.25,277.7206,228.26812)"
         id="g12475">
        <path
           id="path12477"
           style="fill:#d91920;fill-opacity:1;fill-rule:nonzero;stroke:none"
           d="m 0,0 c -3.139,1.357 -6.601,2.111 -10.239,2.111 -3.62,0 -7.067,-0.746 -10.193,-2.09 -0.488,-0.253 -1.149,-0.736 -1.149,-1.503 0,-1.37 1.9,-1.081 4.275,-2.973 2.199,-1.752 3.337,-4.216 3.337,-6.978 l 0,-37.867 c 1.219,-0.175 2.464,-0.269 3.73,-0.269 1.27,0 2.519,0.094 3.738,0.269 l 0,37.867 c 0,2.762 1.139,5.226 3.335,6.978 2.379,1.892 4.276,1.603 4.276,2.973 C 1.11,-0.735 0.48,-0.256 0,0"
           inkscape:connector-curvature="0" />
      </g>
      <g
         transform="matrix(1.25,0,0,-1.25,264.92185,220.15262)"
         id="g12479">
        <path
           id="path12481"
           style="fill:#d91920;fill-opacity:1;fill-rule:nonzero;stroke:none"
           d="m 0,0 c -16.691,0 -30.223,-13.532 -30.223,-30.223 0,-16.692 13.532,-30.223 30.223,-30.223 16.692,0 30.222,13.531 30.222,30.223 C 30.222,-13.532 16.692,0 0,0 m 0,-57.941 c -15.309,0 -27.719,12.41 -27.719,27.718 0,15.308 12.41,27.719 27.719,27.719 15.308,0 27.717,-12.411 27.717,-27.719 0,-15.308 -12.409,-27.718 -27.717,-27.718"
           inkscape:connector-curvature="0" />
      </g>
      <g
         transform="matrix(1.25,0,0,-1.25,232.6201,257.93075)"
         id="g12483">
        <path
           id="path12485"
           style="fill:#d91920;fill-opacity:1;fill-rule:nonzero;stroke:none"
           d="m 0,0 c 0,-9.182 4.79,-17.243 12.004,-21.826 l 0,19.792 C 9.062,-2.11 7.982,-3.891 7.653,-4.584 7.385,-5.153 7.21,-5.751 6.7,-5.751 c -0.853,0 -1.546,2.467 -1.546,5.512 0,3.044 0.693,5.512 1.546,5.512 0.51,0 0.685,-0.599 0.953,-1.167 0.329,-0.692 1.409,-2.474 4.351,-2.549 l 0,20.269 C 4.79,17.244 0,9.182 0,0"
           inkscape:connector-curvature="0" />
      </g>
      <g
         transform="matrix(1.25,0,0,-1.25,291.94236,263.66112)"
         id="g12487">
        <path
           id="path12489"
           style="fill:#d91920;fill-opacity:1;fill-rule:nonzero;stroke:none"
           d="m 0,0 c -0.267,-0.567 -0.441,-1.167 -0.951,-1.167 -0.854,0 -1.545,2.468 -1.545,5.512 0,3.044 0.691,5.512 1.545,5.512 C -0.441,9.857 -0.267,9.258 0,8.69 0.323,8.011 1.366,6.288 4.175,6.148 3.667,14.671 -0.975,22.084 -7.774,26.406 l 0,-43.643 C -1.102,-12.997 3.492,-5.781 4.143,2.542 1.358,2.389 0.321,0.676 0,0"
           inkscape:connector-curvature="0" />
      </g>
    </g>
  </g>
</svg>
