<?xml version="1.0" encoding="UTF-8" standalone="no"?>
<!-- Created with Inkscape (http://www.inkscape.org/) -->

<svg
   xmlns:dc="http://purl.org/dc/elements/1.1/"
   xmlns:cc="http://creativecommons.org/ns#"
   xmlns:rdf="http://www.w3.org/1999/02/22-rdf-syntax-ns#"
   xmlns:svg="http://www.w3.org/2000/svg"
   xmlns="http://www.w3.org/2000/svg"
   xmlns:xlink="http://www.w3.org/1999/xlink"
   xmlns:sodipodi="http://sodipodi.sourceforge.net/DTD/sodipodi-0.dtd"
   xmlns:inkscape="http://www.inkscape.org/namespaces/inkscape"
   width="275.48743"
   height="75.557503"
   id="svg2"
   version="1.1"
   inkscape:version="0.48.4 r9939"
   sodipodi:docname="新建文档 1">
  <g
     inkscape:label="Layer 1"
     inkscape:groupmode="layer"
     id="layer1"
     transform="translate(-227.1431,-220.15262)">
    <g
       id="g23160">
      <g
         transform="matrix(1.25,0,0,-1.25,340.0286,239.7095)"
         id="g12359">
        <path
           id="path12361"
           style="fill:#231f20;fill-opacity:1;fill-rule:nonzero;stroke:none"
           d="m 0,0 c 0.019,-0.071 0.045,-0.201 0.045,-0.452 0,-0.356 -0.051,-0.941 -0.235,-1.89 -0.416,-1.874 -0.911,-4.351 -1.2,-4.669 l 0,-10e-4 c -0.191,-0.112 -1.54,-0.458 -5.955,-0.993 0.025,1.118 0.169,6.865 0.188,7.751 C -2.145,0.245 -0.362,0.101 0,0 m -10.624,-0.712 c -0.012,-1.121 -0.116,-6.783 -0.126,-7.67 -0.869,-0.089 -5.16,-0.46 -6.141,-0.563 -0.085,0.993 -0.344,6.491 -0.425,7.424 0.928,0.128 5.586,0.657 6.692,0.809 m 0.109,12.112 c -1.472,0.058 -1.457,-0.291 -1.448,-0.569 0.008,-0.278 0.293,-0.652 0.52,-1.464 0.132,-0.468 0.472,-0.988 0.753,-4.218 0.039,-1.258 0.062,-2.572 0.07,-3.43 -0.993,-0.101 -7.226,-0.667 -7.482,-0.693 -2.659,0.974 -4.405,0.812 -4.592,0.109 -0.098,-0.366 0.121,-0.708 0.367,-1.319 0,0 1.406,-4.486 2.049,-9.258 l -0.003,0.023 c 0.436,-2.607 1.12,-3.518 1.314,-3.682 0.333,-0.277 0.587,-0.537 1.14,-0.261 0.325,0.164 0.781,0.635 1.118,1.856 0.807,0.079 4.799,0.393 5.854,0.496 -0.165,-10.847 0.623,-12.724 0.799,-13.434 0.094,-0.378 0.255,-0.589 0.435,-0.578 0.231,0.013 0.504,0.313 0.7,0.65 0.325,0.561 0.707,1.044 1.053,3.799 0.152,1.562 0.276,1.76 0.408,4.3 l 0.062,2.538 c 0,1.091 -0.011,2.102 -0.027,3.057 3.409,0.198 6.161,0.3 7.334,0.3 1.544,0 2.936,-0.315 3.285,-0.028 0.415,0.317 0.198,0.954 -0.074,1.52 -0.161,0.344 -0.389,0.751 -0.814,1.454 1.913,3.171 2.915,5.637 3.304,6.125 l 0.424,0.392 C 6.644,-0.34 6.75,-0.167 6.814,0.059 6.881,0.288 6.55,0.703 6.55,0.703 5.594,1.836 4.012,2.849 1.713,3.799 L 1.457,3.85 C 1.225,3.85 0.514,3.497 0.514,3.497 L 0.525,3.504 C 0.316,3.373 -1.433,3.029 -7.03,2.264 c 0.233,4.291 0.544,5.218 0.66,5.498 0.04,0.088 0.104,0.218 0.227,0.415 0.128,0.212 0.207,0.422 0.218,0.571 0.013,0.162 -0.107,0.397 -0.195,0.503 -1.417,1.71 -3.125,2.099 -4.395,2.149"
           inkscape:connector-curvature="0" />
      </g>
      <g
         transform="matrix(1.25,0,0,-1.25,377.99661,228.75225)"
         id="g12363">
        <path
           id="path12365"
           style="fill:#231f20;fill-opacity:1;fill-rule:nonzero;stroke:none"
           d="M 0,0 C -0.723,-0.206 -0.358,-0.635 -0.358,-0.635 1.35,-2.734 2.718,-3.971 5.017,-5.127 L 5.4,-5.139 c 0.502,0.132 1.342,0.598 1.321,2.228 L 6.72,-2.877 C 6.656,-1.939 6.223,-1.13 5.425,-0.472 4.905,-0.045 4.064,0.224 2.858,0.353 L 2.833,0.354 C 1.564,0.374 0.799,0.227 0,0"
           inkscape:connector-curvature="0" />
      </g>
      <g
         transform="matrix(1.25,0,0,-1.25,364.76848,228.89312)"
         id="g12367">
        <path
           id="path12369"
           style="fill:#231f20;fill-opacity:1;fill-rule:nonzero;stroke:none"
           d="m 0,0 c 0,-0.153 0.073,-0.44 0.121,-1.099 0,0 0.025,-0.416 -0.048,-0.881 -0.082,-0.518 -1.18,-3.903 -2.629,-6.415 -1.302,-2.251 -3.426,-5.475 -5.502,-7.845 -1.09,-1.241 -1.319,-1.438 -1.709,-1.828 -0.319,-0.32 -0.805,-0.659 -0.587,-0.88 0.122,-0.221 1.613,0.023 3.615,1.343 1.539,1.025 3.217,2.544 5.379,5.235 0.113,-1.012 0.2,-2.167 0.256,-3.487 0.028,-0.692 0.042,-1.366 0.042,-2.019 0,-0.212 -0.003,-0.422 -0.005,-0.63 -0.024,-0.816 -0.068,-1.567 -0.129,-2.222 -0.123,-2.098 -0.476,-4.458 -1.05,-6.596 -0.003,-0.011 -0.098,-0.492 -0.098,-0.492 l 0,-0.041 c 0.143,-2.332 1.589,-4.106 2.1,-4.227 0.41,-0.098 0.96,0.798 0.96,0.798 0.317,0.537 0.75,1.301 0.878,3.343 l 0.002,0.042 c 0.142,12.024 0.261,14.559 0.319,14.865 l -0.004,-0.023 0.022,0.126 0.04,0.618 c 0.002,0.025 0.002,0.051 0.002,0.076 0,0.819 -0.461,1.718 -1.398,2.729 0.02,0.03 0.071,0.101 0.071,0.101 0.84,1.117 1.379,2.01 1.765,2.573 0.59,0.853 1.151,1.665 1.75,2.472 0.573,0.775 0.621,0.835 0.688,1.134 0,0 0.001,0.151 -0.04,0.324 C 4.371,-1.149 2.832,-0.082 0.682,0.44 0.682,0.44 0,0.635 0,0"
           inkscape:connector-curvature="0" />
      </g>
      <g
         transform="matrix(1.25,0,0,-1.25,389.10248,236.059)"
         id="g12371">
        <path
           id="path12373"
           style="fill:#231f20;fill-opacity:1;fill-rule:nonzero;stroke:none"
           d="m 0,0 c -1.188,-0.296 -8.127,-1.523 -15.066,-2.181 -0.775,-0.058 -1.376,-0.122 -1.541,-0.27 -0.242,-0.216 -0.624,-0.509 -0.046,-1.057 0,0 1.592,-1.435 2.851,-1.738 l 0.244,-0.016 c 0.921,0.115 1.437,0.316 2.122,0.511 0.684,0.195 2.125,0.39 2.125,0.39 4.396,0.929 6.343,1.366 12.89,1.204 0,0 1.418,-0.145 1.954,-0.145 0.536,0 1.392,-0.085 1.758,0.586 0.294,0.537 -0.196,1.269 -0.634,1.71 C 6.045,-0.397 4.166,0.784 2.375,0.498 1.175,0.307 1.301,0.328 0,0"
           inkscape:connector-curvature="0" />
      </g>
      <g
         transform="matrix(1.25,0,0,-1.25,388.28598,242.92762)"
         id="g12375">
        <path
           id="path12377"
           style="fill:#231f20;fill-opacity:1;fill-rule:nonzero;stroke:none"
           d="m 0,0 -0.02,-0.002 c -0.761,-0.028 -3.648,-0.44 -5.473,-0.882 -1.857,-0.468 -4.125,-0.752 -5.102,-0.847 -0.409,-0.044 -1.216,-0.15 -1.451,-0.477 -0.128,-0.173 0.058,-0.708 0.515,-1.147 0,0 0.872,-0.904 2.619,-0.828 0,0 5.232,0.409 8.821,0.955 -0.006,0 1.279,0.189 1.279,0.189 0.779,0.151 1.542,0.085 1.859,0.427 C 3.315,-2.32 2.944,-1.604 2.471,-1.114 1.929,-0.559 1.157,0.016 0,0"
           inkscape:connector-curvature="0" />
      </g>
      <g
         transform="matrix(1.25,0,0,-1.25,388.11473,249.11162)"
         id="g12379">
        <path
           id="path12381"
           style="fill:#231f20;fill-opacity:1;fill-rule:nonzero;stroke:none"
           d="m 0,0 c -0.161,0 -3.686,-0.262 -7.281,-1.159 -2.094,-0.534 -2.524,-0.614 -2.614,-0.625 -1.052,-0.155 -1.776,-0.059 -1.844,-0.621 -0.005,-0.051 0.062,-0.273 0.11,-0.389 0.124,-0.276 0.372,-0.472 0.615,-0.708 l 0.103,-0.082 c 0.718,-0.453 1.18,-0.566 2.221,-0.521 l 0.034,0.002 c 3.091,0.314 8.706,0.764 10.354,1.167 l 0.512,0.103 c 0.587,0.122 1.063,0.099 1.063,0.635 0,0.523 -0.45,1.011 -0.792,1.385 L 2.429,-0.76 C 1.946,-0.333 1.34,0.201 0,0"
           inkscape:connector-curvature="0" />
      </g>
      <g
         transform="matrix(1.25,0,0,-1.25,378.78023,260.3)"
         id="g12383">
        <path
           id="path12385"
           style="fill:#231f20;fill-opacity:1;fill-rule:nonzero;stroke:none"
           d="M 0,0 C 3.837,0.718 7.187,0.716 7.652,0.652 7.36,-0.806 7.321,-2.096 6.872,-3.05 5.741,-3.231 1.897,-3.492 -0.621,-3.824 -0.74,-3.023 -0.996,-0.981 -1.115,-0.191 -0.594,-0.101 0,0 0,0 m 6.92,3.638 c 0,0 -5.666,-1.213 -9.1,-1.397 -0.118,0.011 -0.355,0.046 -0.856,0.121 -1.468,0.227 -2.125,0.155 -2.34,-0.064 L -5.404,2.272 C -5.864,1.808 -5.541,1.449 -5.407,1.196 l 0.271,-0.61 c 0.116,-0.345 0.39,-1.001 1.561,-5.788 0.261,-1.288 0.659,-1.977 1.171,-2.442 l 0.343,-0.17 c 0.29,-0.057 0.527,0.11 0.731,0.318 0.196,0.195 0.296,0.586 0.637,1.281 2.942,0.27 7.105,0.455 8.413,0.553 2.772,0.175 3.137,0.318 3.278,0.835 0.089,0.326 -0.303,1.074 -0.722,1.777 1.115,1.609 1.063,1.639 1.528,2.194 0.488,0.588 1.235,1.062 1.326,1.656 0.09,0.59 -1.512,2.17 -4.518,3.296 L 8.437,4.136 C 8.201,4.155 7.849,4.015 6.92,3.638"
           inkscape:connector-curvature="0" />
      </g>
      <g
         transform="matrix(1.25,0,0,-1.25,470.51235,225.86412)"
         id="g12387">
        <path
           id="path12389"
           style="fill:#231f20;fill-opacity:1;fill-rule:nonzero;stroke:none"
           d="m 0,0 c -0.416,0.098 -0.71,0 -0.904,-0.173 -0.196,-0.174 -0.366,-0.94 -0.293,-1.58 0.052,-0.443 -0.097,-0.791 -0.993,-2.209 -1.712,-2.428 -4.163,-4.931 -5.014,-5.713 -0.806,-0.739 -2.674,-2.173 -2.474,-2.496 0.2,-0.326 2.539,0.277 4.033,0.984 1.056,0.502 2.666,1.742 5.531,4.445 0.739,0.671 1.487,1.454 2.418,2.121 0.99,0.708 0.917,1.395 0.967,1.587 0.047,0.192 -0.079,0.538 -0.079,0.538 C 2.061,-0.685 0.786,-0.189 0,0"
           inkscape:connector-curvature="0" />
      </g>
      <g
         transform="matrix(1.25,0,0,-1.25,489.79836,230.30162)"
         id="g12391">
        <path
           id="path12393"
           style="fill:#231f20;fill-opacity:1;fill-rule:nonzero;stroke:none"
           d="m 0,0 c -0.407,-0.094 -0.923,-0.302 -1.927,-0.698 l -0.036,-0.017 c -0.873,-0.41 -4.4,-1.503 -6.814,-2.121 -1.067,-0.24 -2.018,-0.332 -2.048,-0.763 -0.032,-0.492 0.36,-0.856 0.848,-1.217 0.469,-0.348 1.658,-1.085 3.996,-0.576 1.614,0.354 9.588,2.303 10.169,2.829 0,0 0.314,0.153 0.367,0.425 0.099,0.493 -0.948,1.341 -1.268,1.579 C 2.049,0.363 0.404,0.096 0,0"
           inkscape:connector-curvature="0" />
      </g>
      <g
         transform="matrix(1.25,0,0,-1.25,469.43536,237.05975)"
         id="g12395">
        <path
           id="path12397"
           style="fill:#231f20;fill-opacity:1;fill-rule:nonzero;stroke:none"
           d="m 0,0 c -0.408,-0.249 -0.667,-0.855 -0.75,-1.288 0,0 -0.203,-1.577 -2.458,-4.603 -2.236,-2.644 -2.844,-3.653 -5.581,-5.703 -1.512,-1.134 -2.762,-1.857 -2.295,-2.152 0.35,-0.225 2.704,0.268 4.412,1.059 1.37,0.633 1.725,0.568 3.937,2.84 0.066,-0.75 0.108,-1.493 0.108,-2.223 0,-2.405 0.215,-5.257 -0.476,-7.385 -0.165,-0.499 -0.297,-0.859 -0.309,-0.959 -0.038,-0.209 -0.155,-0.419 -0.158,-0.657 -0.004,-0.454 0.194,-1.126 0.439,-1.603 0.327,-0.632 0.881,-1.466 1.238,-1.858 0.359,-0.397 0.783,-0.791 1.237,-0.661 0.418,0.122 0.977,2.108 1.012,4.081 0.029,1.975 0.005,3.391 0.022,7.415 0,0.365 0,1.168 0.07,1.728 0.048,0.542 0.146,1.09 0.146,1.43 0,1.071 -0.442,1.729 -1.288,2.787 0.44,0.432 1.028,1.063 1.785,1.92 0.621,0.698 1.195,1.25 1.71,1.639 0.345,0.273 0.563,0.66 0.624,0.785 0.144,0.297 0.006,0.517 0.006,0.517 C 2.788,-1.284 1.375,-0.199 1.007,-0.028 0.761,0.091 0.409,0.252 0,0"
           inkscape:connector-curvature="0" />
      </g>
      <g
         transform="matrix(1.25,0,0,-1.25,491.83485,240.73375)"
         id="g12399">
        <path
           id="path12401"
           style="fill:#231f20;fill-opacity:1;fill-rule:nonzero;stroke:none"
           d="m 0,0 c -1.025,-0.346 -5.866,-1.556 -12.979,-2.762 -0.835,-0.137 -1.606,-0.161 -1.785,-0.563 -0.195,-0.446 0.215,-0.913 0.554,-1.168 0.391,-0.296 1.327,-0.811 2.546,-0.983 l 0.129,-0.004 c 0.493,0.027 1.079,0.141 1.798,0.348 l 0.092,0.033 c 0.379,0.173 0.819,0.31 4.343,0.885 0.413,-1.501 0.673,-4.05 0.773,-7.602 0.006,-0.358 0.007,-0.692 0.007,-1.008 0,-3.361 -0.232,-4.484 -0.363,-4.852 -0.213,0.025 -0.617,0.087 -1.378,0.251 -1.824,0.447 -3.732,1.506 -3.54,0.669 0.095,-0.396 1.222,-1.443 2.149,-2.633 0.718,-0.922 1.171,-1.448 1.693,-2.435 0.528,-1 0.79,-1.907 1.64,-1.602 0.851,0.304 1.919,1.092 2.673,2.136 0.482,0.675 0.836,1.453 0.911,2.279 0.118,1.246 -0.429,3.18 -0.535,4.756 -0.13,1.907 -0.13,3.419 -0.13,4.144 l 0,1.909 c 0,0.653 0.102,1.107 0.264,1.829 0.146,0.294 0.236,0.597 0.236,0.897 0,0.193 -0.027,0.383 -0.09,0.571 -0.148,0.449 -0.467,0.868 -0.96,1.263 1.82,0.208 3.373,0.327 5.103,0.337 1.232,0.023 2.392,0.086 2.924,0.079 0.527,-0.004 2.02,0.007 2.375,0.56 0.535,0.84 -0.13,1.909 -1.367,2.765 C 6.188,0.717 4.689,1.136 2.933,0.739 2.65,0.677 0.802,0.269 0,0"
           inkscape:connector-curvature="0" />
      </g>
      <g
         transform="matrix(1.25,0,0,-1.25,430.79398,241.74137)"
         id="g12403">
        <path
           id="path12405"
           style="fill:#231f20;fill-opacity:1;fill-rule:nonzero;stroke:none"
           d="M 0,0 C 1.289,0.447 5.743,0.936 5.99,1.076 6.233,1.213 6.233,1.213 6.393,1.347 6.241,0.377 6.052,-0.692 5.835,-1.844 5.345,-1.809 4.918,-1.675 4.137,-1.748 3.646,-1.793 0.946,-2.237 0,-2.56 L 0,0 z M -0.015,2.628 0.011,2.64 c 0,0 -0.074,-0.037 -0.086,-0.042 l 0,2.302 C 3.017,6.034 6.423,6.235 6.855,6.247 6.862,6.157 6.868,6.042 6.868,5.873 6.868,5.501 6.841,4.912 6.741,3.98 6.703,3.613 6.654,3.218 6.6,2.807 6.599,2.811 6.599,2.814 6.595,2.816 l -0.05,0.058 c -0.429,0.413 -0.966,1.042 -1.75,1.09 0,0 -3.481,-1.253 -4.81,-1.336 m 18.029,-17.713 c -0.154,0.312 -0.94,0.409 -2.124,0.641 -3.728,0.796 -5.07,1.895 -8.014,4.008 1.165,0.884 1.994,1.395 2.669,2.004 0.427,0.383 0.99,0.822 1.475,1.266 0.44,0.446 0.93,0.346 0.954,0.847 0.033,0.585 -0.756,1.448 -1.34,1.858 l -0.026,0.016 C 10.556,-3.766 9.529,-3.626 9.121,-3.902 8.712,-4.177 8.846,-4.182 8.846,-4.35 L 8.78,-5.273 c 0,-0.152 -0.517,-1.461 -2.491,-4.091 -0.61,0.469 -3.456,2.916 -4.281,3.645 -0.366,0.324 -0.702,0.616 -1.011,0.886 0.455,0.113 0.931,0.238 0.931,0.238 0.926,0.248 3.67,0.374 3.969,0.44 0.172,-0.139 0.55,-0.337 0.674,-0.401 0.391,-0.196 0.913,0.263 1.173,0.593 0.259,0.329 0.805,1.151 1.08,2.025 l 0.009,0.024 c 0.327,1.207 0.68,2.806 1.045,4.745 0.17,0.832 0.28,1.342 0.326,1.51 0.15,0.59 0.589,1.077 0.918,1.719 0.332,0.647 0.692,1.079 0.692,1.503 l -0.188,0.31 C 10.574,8.912 9.335,9.672 7.256,9.966 L 6.931,9.934 C 6.652,9.864 6.539,9.578 6.135,9.305 L 5.977,9.158 5.985,9.168 C 5.877,9.049 2.891,8.614 -1.034,7.098 -2.413,7.667 -3.593,7.626 -4.05,7.362 -4.601,6.999 -3.946,5.87 -3.756,5.386 c 0.26,-0.658 0.62,-1.564 0.812,-3.986 0,-0.056 0.169,-15.746 0.171,-15.814 -0.173,-2.259 -0.182,-2.588 -0.989,-3.525 -0.806,-0.939 -0.824,-0.262 -0.671,-1.195 0.156,-0.934 0.862,-3.32 1.587,-3.527 0.656,-0.185 1.385,0.606 2.05,1.332 0.462,0.606 1.718,1.781 3.048,3.275 2.149,2.417 3.067,3.357 2.954,3.729 -0.105,0.353 -0.983,0.255 -5.252,-1.554 0,0 -0.013,-0.006 -0.021,-0.01 0.012,1.493 0.041,6.821 0.056,8.934 1.109,-1.176 2.098,-2.243 2.955,-3.183 1.497,-1.643 3.649,-4.159 5.451,-6.005 1.846,-1.982 3.059,-2.418 7.765,-0.401 1.022,0.444 2.049,1.062 1.854,1.459"
           inkscape:connector-curvature="0" />
      </g>
      <g
         transform="matrix(1.25,0,0,-1.25,425.42573,257.642)"
         id="g12407">
        <path
           id="path12409"
           style="fill:#231f20;fill-opacity:1;fill-rule:nonzero;stroke:none"
           d="m 0,0 c -0.083,0.346 -0.959,0.115 -5.454,-1.949 0.035,1.303 0.091,3.975 0.105,4.628 0.273,0.087 0.557,0.176 0.557,0.176 1.733,0.572 3.413,1.094 3.725,1.199 0.342,0.115 0.913,0.083 0.977,0.577 0.033,0.249 -0.358,0.938 -0.998,1.518 -0.635,0.581 -1.452,0.63 -1.906,0.434 0,0 -0.39,-0.138 -0.586,-0.224 C -3.775,6.273 -3.688,6.3 -4.508,5.964 c 0,10e-4 -0.486,-0.163 -0.83,-0.297 0.015,0.092 -0.024,0.198 0.097,0.496 0.107,0.337 0.197,1.208 0.268,1.454 0.22,0.736 -0.411,1.019 -0.481,1.107 1.168,0.273 3.214,1.094 3.214,1.094 0.37,0.202 1.131,0.387 1.273,0.814 0.12,0.371 -0.177,0.74 -0.661,1.21 -0.451,0.438 -1.124,0.964 -2.341,0.562 -0.8,-0.26 -1.93,-0.591 -1.93,-0.591 -1.732,-0.564 -2.685,-0.922 -3.554,-1.19 0.614,0.89 1.324,2.022 1.926,3.261 0.895,-0.24 1.993,-0.116 6.022,1.095 0.528,0.158 1.294,0.296 1.49,0.717 0.092,0.198 -0.075,0.813 -0.612,1.335 -0.488,0.47 -1.124,0.887 -1.758,0.813 -1.107,-0.129 -2.002,-0.419 -3.49,-0.984 -0.083,-0.031 -0.15,-0.065 -0.227,-0.099 0.126,0.27 0.262,0.557 0.404,0.877 1.052,2.319 1.431,2.895 1.635,3.103 0.347,0.455 0.621,0.627 0.621,0.988 0,0.362 -0.473,1.053 -1.265,1.606 -1.031,0.716 -2.283,1.078 -2.789,1.143 -0.277,0.037 -0.569,0 -0.7,-0.08 -0.339,-0.217 -0.205,-1.328 -0.269,-2.208 -0.097,-1.333 -0.242,-1.892 -0.541,-2.897 -1.54,-5.19 -4.065,-9.069 -7.273,-12.899 -0.629,-0.752 -1.879,-1.684 -1.036,-1.65 0.385,0.014 1.628,0.401 2.293,0.766 1.074,0.593 2.359,1.331 4.091,3.166 0.169,-0.202 0.42,-0.407 0.944,-0.513 0.283,-0.057 0.814,0.033 1.239,0.099 0.125,-0.311 0.165,-0.838 0.233,-1.244 0.067,-0.415 0.101,-1.509 0.103,-2.321 -1.38,-0.383 -2.995,-0.776 -4.83,-1.167 -0.631,-0.152 -1.431,-0.173 -1.521,-0.629 -0.05,-0.247 0.188,-0.746 0.83,-1.356 0.438,-0.42 1.148,-0.916 1.781,-0.842 0.464,0.049 1.709,0.403 2.1,0.544 0.394,0.142 1.202,0.352 1.623,0.484 -0.014,-0.779 -0.034,-1.761 -0.086,-2.424 0,0 -0.042,-0.529 -0.054,-0.683 -0.252,-1.41 -0.644,-2.156 -1.2,-2.535 -0.52,-0.354 -0.806,-0.525 -0.925,-0.766 0,0 -0.108,-0.092 -0.081,-0.49 0.031,-0.399 0.391,-2.077 0.879,-2.885 0.227,-0.379 0.439,-0.526 0.439,-0.526 0.618,-0.261 1.238,0.272 1.978,1.085 0.513,0.529 0.988,0.992 1.397,1.357 0.694,0.64 1.955,1.793 3.167,2.949 1.248,1.186 1.881,1.828 2.175,2.149 C -0.23,-0.477 0.068,-0.28 0,0"
           inkscape:connector-curvature="0" />
      </g>
      <g
         transform="matrix(1.25,0,0,-1.25,324.69123,286.74775)"
         id="g12411">
        <path
           id="path12413"
           style="fill:#231f20;fill-opacity:1;fill-rule:nonzero;stroke:none"
           d="m 0,0 -0.079,0.054 -0.054,-0.078 c -0.45,-0.636 -0.935,-1.111 -1.442,-1.411 -0.505,-0.3 -1.069,-0.452 -1.674,-0.452 -1.037,0 -1.883,0.382 -2.517,1.135 -0.639,0.757 -0.962,1.776 -0.962,3.028 0,1.314 0.313,2.377 0.931,3.159 0.612,0.778 1.428,1.172 2.424,1.172 0.701,0 1.302,-0.203 1.785,-0.605 0.489,-0.402 0.855,-0.997 1.09,-1.768 l 0.021,-0.068 0.072,0 0.516,0 0.1,0 -0.004,0.099 -0.113,3.026 -0.004,0.092 -0.093,0 -0.457,0 -0.058,0 -0.028,-0.051 C -0.619,7.189 -0.705,7.082 -0.799,7.013 -0.891,6.94 -0.982,6.906 -1.081,6.906 -1.137,6.915 -1.706,7.104 -1.95,7.185 -2.522,7.378 -3.091,7.476 -3.641,7.476 -4.378,7.476 -5.082,7.309 -5.735,6.98 -6.387,6.651 -6.961,6.172 -7.438,5.558 -7.82,5.066 -8.11,4.523 -8.305,3.943 -8.499,3.363 -8.598,2.745 -8.598,2.106 c 0,-0.783 0.145,-1.503 0.43,-2.136 0.287,-0.633 0.724,-1.209 1.298,-1.711 0.455,-0.395 0.964,-0.696 1.514,-0.891 0.557,-0.199 1.167,-0.299 1.808,-0.299 0.923,0 1.738,0.203 2.422,0.604 0.685,0.407 1.258,1.019 1.704,1.823 L 0.621,-0.428 0.548,-0.377 0,0 z"
           inkscape:connector-curvature="0" />
      </g>
      <g
         transform="matrix(1.25,0,0,-1.25,335.17185,277.7145)"
         id="g12415">
        <path
           id="path12417"
           style="fill:#231f20;fill-opacity:1;fill-rule:nonzero;stroke:none"
           d="m 0,0 -0.097,0 0,-0.097 0,-0.483 0,-0.094 0.095,-0.003 c 0.443,-0.011 0.756,-0.09 0.93,-0.236 0.169,-0.139 0.255,-0.388 0.255,-0.739 l 0,-2.58 -4.716,0 0,2.58 c 0,0.351 0.086,0.6 0.256,0.739 0.175,0.145 0.492,0.224 0.94,0.236 l 0.095,0.003 0,0.094 0,0.483 0,0.097 -0.097,0 -3.996,0 -0.097,0 0,-0.097 0,-0.483 0,-0.094 0.093,-0.003 c 0.411,-0.014 0.704,-0.094 0.871,-0.239 0.161,-0.141 0.242,-0.388 0.242,-0.736 l 0,-6.603 c 0,-0.349 -0.08,-0.596 -0.24,-0.737 -0.16,-0.144 -0.454,-0.224 -0.873,-0.238 l -0.093,-0.003 0,-0.094 0,-0.498 0,-0.096 0.097,0 3.996,0 0.097,0 0,0.096 0,0.492 0,0.096 -0.095,0 c -0.446,0.01 -0.761,0.089 -0.937,0.235 -0.172,0.144 -0.259,0.394 -0.259,0.747 l 0,3.035 4.716,0 0,-3.035 c 0,-0.356 -0.084,-0.607 -0.251,-0.748 -0.175,-0.144 -0.49,-0.222 -0.934,-0.234 l -0.095,-10e-4 0,-0.095 0,-0.492 0,-0.096 0.097,0 3.981,0 0.098,0 0,0.096 0,0.498 0,0.094 -0.094,0.003 c -0.418,0.014 -0.712,0.094 -0.873,0.237 -0.158,0.142 -0.237,0.39 -0.237,0.738 l 0,6.603 c 0,0.348 0.079,0.595 0.241,0.736 0.165,0.145 0.458,0.225 0.869,0.239 l 0.094,0.003 0,0.094 0,0.483 L 4.079,0 3.981,0 0,0 z"
           inkscape:connector-curvature="0" />
      </g>
      <g
         transform="matrix(1.25,0,0,-1.25,342.12723,277.7145)"
         id="g12419">
        <path
           id="path12421"
           style="fill:#231f20;fill-opacity:1;fill-rule:nonzero;stroke:none"
           d="m 0,0 -0.099,0 0.002,-0.099 0.007,-0.483 0.002,-0.092 0.093,-0.003 c 0.441,-0.011 0.756,-0.091 0.936,-0.237 0.168,-0.139 0.255,-0.388 0.255,-0.738 l 0,-6.596 C 1.196,-8.606 1.113,-8.849 0.942,-8.99 0.769,-9.137 0.453,-9.215 0.006,-9.225 l -0.095,-0.001 -0.001,-0.094 -0.007,-0.504 -0.002,-0.097 0.099,0 4.084,0 0.098,0 0,0.096 0,0.498 0,0.094 -0.094,0.003 c -0.449,0.014 -0.764,0.092 -0.935,0.235 -0.167,0.139 -0.249,0.39 -0.249,0.747 l 0,6.596 c 0,0.35 0.084,0.599 0.253,0.739 0.175,0.146 0.488,0.224 0.93,0.236 l 0.095,0.003 0,0.094 0,0.483 L 4.182,0 4.084,0 0,0 z"
           inkscape:connector-curvature="0" />
      </g>
      <g
         transform="matrix(1.25,0,0,-1.25,358.09111,277.7145)"
         id="g12423">
        <path
           id="path12425"
           style="fill:#231f20;fill-opacity:1;fill-rule:nonzero;stroke:none"
           d="m 0,0 -0.098,0 0,-0.097 0,-0.483 0,-0.097 0.098,0 c 0.416,0 0.72,-0.086 0.904,-0.256 0.183,-0.163 0.275,-0.437 0.275,-0.814 l 0,-5.223 -5.614,6.934 -0.03,0.036 -0.046,0 -2.591,0 -0.097,0 0,-0.097 0,-0.483 0,-0.089 0.089,-0.008 c 0.275,-0.024 0.495,-0.078 0.676,-0.164 0.177,-0.08 0.324,-0.19 0.442,-0.33 l 0,-7.018 c 0,-0.366 -0.085,-0.634 -0.255,-0.796 -0.166,-0.163 -0.44,-0.245 -0.813,-0.245 l -0.042,0 -0.097,0 0,-0.097 0,-0.498 0,-0.096 0.097,0 3.353,0 0.096,0 0,0.096 0,0.498 0,0.097 -0.096,0 -0.099,0 c -0.386,0 -0.664,0.082 -0.829,0.245 -0.168,0.16 -0.253,0.428 -0.253,0.796 l 0,6.124 6.463,-7.97 0.029,-0.036 0.046,0 0.535,0 0.097,0 0,0.098 0,8.226 c 0,0.361 0.088,0.631 0.262,0.8 0.175,0.171 0.453,0.258 0.848,0.27 l 0.095,0.003 0,0.094 0,0.483 L 3.445,0 3.349,0 0,0 z"
           inkscape:connector-curvature="0" />
      </g>
      <g
         transform="matrix(1.25,0,0,-1.25,371.3226,284.87925)"
         id="g12427">
        <path
           id="path12429"
           style="fill:#231f20;fill-opacity:1;fill-rule:nonzero;stroke:none"
           d="M 0,0 -3.039,0 -1.459,3.439 0,0 z M 3.535,-3.213 C 3.31,-3.044 3.103,-2.746 2.918,-2.326 l -3.606,8.001 -0.025,0.057 -0.063,0 -0.598,0 -0.062,0 -0.025,-0.056 -3.759,-8.054 c -0.178,-0.38 -0.363,-0.656 -0.552,-0.824 -0.184,-0.161 -0.421,-0.261 -0.702,-0.297 l -0.085,-0.01 0,-0.086 0,-0.498 0,-0.096 0.097,0 3.349,0 0.098,0 0,0.096 0,0.498 0,0.082 -0.081,0.014 c -0.43,0.072 -0.718,0.159 -0.857,0.258 -0.126,0.091 -0.188,0.22 -0.188,0.398 0,0.094 0.013,0.193 0.039,0.292 0.024,0.103 0.063,0.217 0.12,0.351 l 0.51,1.197 3.924,0 0.543,-1.21 C 1.048,-2.33 1.09,-2.448 1.122,-2.576 1.145,-2.692 1.158,-2.804 1.158,-2.907 1.158,-3.094 1.087,-3.228 0.938,-3.315 0.774,-3.417 0.49,-3.478 0.093,-3.498 l -0.091,-0.005 -0.001,-0.091 -0.005,-0.498 -0.001,-0.097 0.098,0 4.291,0 0.096,0 0,0.096 0,0.498 0,0.091 -0.091,0.006 c -0.35,0.02 -0.637,0.115 -0.854,0.285"
           inkscape:connector-curvature="0" />
      </g>
      <g
         transform="matrix(1.25,0,0,-1.25,396.69723,286.74775)"
         id="g12431">
        <path
           id="path12433"
           style="fill:#231f20;fill-opacity:1;fill-rule:nonzero;stroke:none"
           d="m 0,0 -0.077,0.054 -0.056,-0.078 c -0.45,-0.636 -0.935,-1.111 -1.443,-1.411 -0.504,-0.3 -1.069,-0.452 -1.676,-0.452 -1.033,0 -1.88,0.382 -2.514,1.135 -0.64,0.758 -0.965,1.776 -0.965,3.028 0,1.308 0.314,2.372 0.934,3.159 0.61,0.778 1.427,1.172 2.423,1.172 0.7,0 1.301,-0.203 1.787,-0.605 0.489,-0.405 0.856,-0.999 1.089,-1.768 l 0.02,-0.068 0.072,0 0.518,0 0.101,0 -0.004,0.099 -0.113,3.026 -0.004,0.092 -0.094,0 -0.458,0 -0.058,0 -0.028,-0.051 C -0.619,7.191 -0.704,7.084 -0.799,7.012 -0.891,6.94 -0.983,6.906 -1.081,6.906 -1.135,6.915 -1.686,7.096 -1.952,7.185 -2.524,7.378 -3.092,7.476 -3.642,7.476 -4.377,7.476 -5.083,7.309 -5.735,6.98 -6.387,6.649 -6.962,6.17 -7.439,5.558 -7.82,5.065 -8.11,4.522 -8.305,3.943 -8.499,3.361 -8.597,2.743 -8.597,2.106 c 0,-0.776 0.145,-1.495 0.431,-2.135 0.288,-0.636 0.725,-1.212 1.296,-1.712 0.453,-0.394 0.962,-0.695 1.514,-0.891 0.557,-0.199 1.166,-0.299 1.808,-0.299 0.923,0 1.74,0.203 2.421,0.604 0.684,0.403 1.257,1.017 1.705,1.823 L 0.619,-0.428 0.548,-0.377 0,0 z"
           inkscape:connector-curvature="0" />
      </g>
      <g
         transform="matrix(1.25,0,0,-1.25,399.17023,277.7145)"
         id="g12435">
        <path
           id="path12437"
           style="fill:#231f20;fill-opacity:1;fill-rule:nonzero;stroke:none"
           d="m 0,0 -0.1,0 0.002,-0.097 0.006,-0.485 0,-0.092 0.094,-0.003 c 0.443,-0.012 0.758,-0.091 0.936,-0.236 0.17,-0.139 0.257,-0.388 0.257,-0.739 l 0,-6.596 C 1.195,-8.6 1.108,-8.849 0.94,-8.99 0.766,-9.137 0.45,-9.215 0.002,-9.225 l -0.094,-0.001 0,-0.094 -0.006,-0.504 -0.002,-0.097 0.1,0 4.085,0 0.096,0 0,0.096 0,0.498 0,0.094 -0.094,0.003 c -0.448,0.014 -0.764,0.092 -0.936,0.235 -0.166,0.139 -0.249,0.391 -0.249,0.747 l 0,6.596 c 0,0.351 0.085,0.6 0.254,0.739 0.173,0.146 0.486,0.224 0.931,0.236 l 0.094,0.003 0,0.094 0,0.483 L 4.181,0 4.085,0 0,0 z"
           inkscape:connector-curvature="0" />
      </g>
      <g
         transform="matrix(1.25,0,0,-1.25,416.81985,277.829)"
         id="g12439">
        <path
           id="path12441"
           style="fill:#231f20;fill-opacity:1;fill-rule:nonzero;stroke:none"
           d="m 0,0 -0.006,0.092 -0.092,0 -8.531,0 -0.091,0 L -8.725,0 l -0.131,-2.396 -0.007,-0.102 0.103,0 0.495,0 0.078,0 0.015,0.078 c 0.126,0.61 0.334,1.034 0.618,1.262 0.289,0.233 0.771,0.351 1.429,0.351 l 0.912,0 0,-7.356 c 0,-0.354 -0.089,-0.605 -0.26,-0.747 -0.181,-0.147 -0.494,-0.226 -0.937,-0.235 l -0.094,-0.001 0,-0.095 0,-0.492 0,-0.097 0.098,0 4.081,0 0.098,0 0,0.097 0,0.497 0,0.097 -0.096,10e-4 c -0.446,0.008 -0.759,0.086 -0.931,0.23 -0.165,0.143 -0.249,0.393 -0.249,0.745 l 0,7.356 0.894,0 c 0.665,0 1.15,-0.118 1.44,-0.351 0.289,-0.227 0.494,-0.651 0.612,-1.262 l 0.016,-0.078 0.078,0 0.507,0 0.102,0 L 0.139,-2.395 0,0 z"
           inkscape:connector-curvature="0" />
      </g>
      <g
         transform="matrix(1.25,0,0,-1.25,418.46685,277.7145)"
         id="g12443">
        <path
           id="path12445"
           style="fill:#231f20;fill-opacity:1;fill-rule:nonzero;stroke:none"
           d="m 0,0 -0.099,0 0.001,-0.098 0.006,-0.484 0.002,-0.092 0.094,-0.003 c 0.442,-0.012 0.757,-0.091 0.935,-0.236 0.17,-0.142 0.256,-0.39 0.256,-0.739 l 0,-6.596 C 1.195,-8.6 1.109,-8.849 0.94,-8.991 0.768,-9.137 0.452,-9.215 0.004,-9.225 l -0.094,-0.001 -0.002,-0.094 -0.006,-0.504 -0.001,-0.097 0.099,0 4.084,0 0.097,0 0,0.096 0,0.498 0,0.094 -0.094,0.003 c -0.448,0.014 -0.764,0.092 -0.936,0.235 -0.167,0.14 -0.247,0.384 -0.247,0.747 l 0,6.596 c 0,0.352 0.084,0.601 0.25,0.739 0.177,0.146 0.49,0.225 0.931,0.236 l 0.096,0.003 0,0.094 0,0.483 L 4.181,0 4.084,0 0,0 z"
           inkscape:connector-curvature="0" />
      </g>
      <g
         transform="matrix(1.25,0,0,-1.25,436.40035,286.74775)"
         id="g12447">
        <path
           id="path12449"
           style="fill:#231f20;fill-opacity:1;fill-rule:nonzero;stroke:none"
           d="m 0,0 -0.079,0.054 -0.054,-0.078 c -0.454,-0.64 -0.939,-1.114 -1.444,-1.411 -0.504,-0.3 -1.068,-0.452 -1.675,-0.452 -1.031,0 -1.879,0.382 -2.514,1.135 -0.64,0.761 -0.965,1.779 -0.965,3.028 0,1.312 0.314,2.375 0.931,3.159 0.617,0.778 1.432,1.172 2.425,1.172 0.702,0 1.302,-0.203 1.786,-0.605 0.489,-0.401 0.854,-0.997 1.091,-1.768 l 0.019,-0.068 0.072,0 0.517,0 0.101,0 -0.004,0.099 -0.111,3.026 -0.004,0.092 -0.094,0 -0.456,0 -0.057,0 -0.027,-0.05 C -0.621,7.191 -0.708,7.082 -0.798,7.011 -0.893,6.939 -0.981,6.906 -1.081,6.906 -1.14,6.916 -1.748,7.118 -1.95,7.185 -2.522,7.378 -3.092,7.476 -3.644,7.476 -4.379,7.476 -5.083,7.309 -5.735,6.98 -6.388,6.649 -6.962,6.17 -7.44,5.558 -7.825,5.059 -8.116,4.516 -8.306,3.943 -8.502,3.362 -8.599,2.743 -8.599,2.106 c 0,-0.778 0.143,-1.496 0.431,-2.135 0.29,-0.636 0.724,-1.212 1.296,-1.712 0.453,-0.394 0.962,-0.694 1.518,-0.891 0.555,-0.199 1.162,-0.299 1.806,-0.299 0.923,0 1.739,0.203 2.421,0.604 0.683,0.405 1.257,1.018 1.702,1.823 L 0.619,-0.428 0.546,-0.377 0,0 z"
           inkscape:connector-curvature="0" />
      </g>
      <g
         transform="matrix(1.25,0,0,-1.25,449.8361,284.24)"
         id="g12451">
        <path
           id="path12453"
           style="fill:#231f20;fill-opacity:1;fill-rule:nonzero;stroke:none"
           d="m 0,0 1.679,0 c 0.724,0 1.296,-0.174 1.7,-0.518 0.404,-0.343 0.6,-0.802 0.6,-1.403 0,-0.613 -0.221,-1.062 -0.677,-1.375 -0.458,-0.317 -1.15,-0.477 -2.054,-0.477 -0.553,0 -0.904,0.055 -1.042,0.164 C 0.112,-3.538 0,-3.342 0,-2.821 L 0,0 z m 1.396,4.322 c 0.725,0 1.279,-0.14 1.64,-0.416 C 3.395,3.634 3.569,3.238 3.569,2.695 3.569,2.126 3.373,1.69 2.984,1.398 2.59,1.096 2.002,0.944 1.23,0.944 l -1.23,0 0,3.378 1.396,0 z M 3.402,0.56 C 3.981,0.75 4.423,1.003 4.748,1.328 5.148,1.722 5.35,2.224 5.35,2.815 5.35,3.59 5.041,4.192 4.431,4.605 3.823,5.019 2.979,5.22 1.85,5.22 l -4.65,0 -0.098,0 0,-0.097 0,-0.483 0,-0.094 0.094,-0.003 c 0.41,-0.014 0.704,-0.094 0.873,-0.239 0.157,-0.143 0.239,-0.392 0.239,-0.74 l 0,-6.597 c 0,-0.348 -0.082,-0.597 -0.239,-0.738 -0.16,-0.144 -0.454,-0.225 -0.873,-0.239 l -0.094,-0.002 0,-0.095 0,-0.497 0,-0.097 0.098,0 4.948,0 c 1.054,0 1.934,0.261 2.612,0.774 0.695,0.52 1.047,1.188 1.047,1.985 0,0.703 -0.245,1.283 -0.732,1.725 C 4.667,0.15 4.106,0.411 3.402,0.56"
           inkscape:connector-curvature="0" />
      </g>
      <g
         transform="matrix(1.25,0,0,-1.25,466.12248,284.87925)"
         id="g12455">
        <path
           id="path12457"
           style="fill:#231f20;fill-opacity:1;fill-rule:nonzero;stroke:none"
           d="M 0,0 -3.039,0 -1.457,3.439 0,0 z M 3.534,-3.213 C 3.31,-3.04 3.102,-2.741 2.92,-2.326 l -3.607,8.001 -0.026,0.057 -0.062,0 -0.6,0 -0.062,0 -0.026,-0.056 -3.757,-8.054 c -0.182,-0.388 -0.363,-0.657 -0.552,-0.823 -0.184,-0.162 -0.422,-0.262 -0.704,-0.298 l -0.084,-0.01 0,-0.086 0,-0.498 0,-0.096 0.097,0 3.353,0 0.097,0 0,0.096 0,0.498 0,0.082 -0.081,0.014 c -0.433,0.072 -0.718,0.159 -0.856,0.258 -0.127,0.089 -0.187,0.219 -0.187,0.398 0,0.101 0.011,0.199 0.035,0.292 0.025,0.111 0.067,0.229 0.121,0.349 l 0.51,1.199 3.923,0 0.546,-1.21 C 1.05,-2.335 1.092,-2.457 1.12,-2.574 1.146,-2.695 1.16,-2.807 1.16,-2.907 1.16,-3.094 1.087,-3.228 0.939,-3.315 0.773,-3.417 0.491,-3.478 0.094,-3.498 l -0.09,-0.005 -0.002,-0.091 -0.008,-0.498 -0.002,-0.097 0.1,0 4.295,0 0.094,0 0,0.096 0,0.498 0,0.091 -0.091,0.006 c -0.348,0.02 -0.636,0.115 -0.856,0.285"
           inkscape:connector-curvature="0" />
      </g>
      <g
         transform="matrix(1.25,0,0,-1.25,481.6136,277.7145)"
         id="g12459">
        <path
           id="path12461"
           style="fill:#231f20;fill-opacity:1;fill-rule:nonzero;stroke:none"
           d="m 0,0 -0.095,0 0,-0.097 0,-0.483 0,-0.097 0.095,0 c 0.416,0 0.723,-0.086 0.909,-0.256 0.181,-0.163 0.273,-0.437 0.273,-0.814 l 0,-5.223 -5.616,6.934 -0.03,0.036 -0.046,0 -2.589,0 -0.097,0 0,-0.097 0,-0.483 0,-0.089 0.088,-0.008 c 0.275,-0.024 0.496,-0.078 0.676,-0.164 0.178,-0.08 0.326,-0.19 0.442,-0.33 l 0,-7.018 c 0,-0.367 -0.085,-0.635 -0.253,-0.796 C -6.41,-9.148 -6.685,-9.23 -7.06,-9.23 l -0.039,0 -0.097,0 0,-0.097 0,-0.498 0,-0.096 0.097,0 3.351,0 0.096,0 0,0.096 0,0.498 0,0.097 -0.096,0 -0.098,0 c -0.385,0 -0.664,0.082 -0.831,0.245 -0.168,0.161 -0.252,0.429 -0.252,0.796 l 0,6.124 6.463,-7.97 0.029,-0.036 0.046,0 0.537,0 0.098,0 0,0.098 0,8.226 c 0,0.365 0.086,0.633 0.26,0.8 0.171,0.169 0.458,0.259 0.85,0.27 l 0.094,0.003 0,0.094 0,0.483 L 3.448,0 3.352,0 0,0 z"
           inkscape:connector-curvature="0" />
      </g>
      <g
         transform="matrix(1.25,0,0,-1.25,500.20285,289.25212)"
         id="g12463">
        <path
           id="path12465"
           style="fill:#231f20;fill-opacity:1;fill-rule:nonzero;stroke:none"
           d="M 0,0 C -0.361,0.016 -0.667,0.114 -0.911,0.288 -1.168,0.464 -1.479,0.831 -1.84,1.38 l -2.604,3.97 2.587,2.318 c 0.278,0.249 0.568,0.449 0.857,0.595 0.287,0.145 0.581,0.239 0.904,0.291 l 0.083,0.013 0,0.083 0,0.483 0,0.097 -0.097,0 -4.121,0 -0.097,0 0,-0.097 0,-0.483 0,-0.089 0.09,-0.008 C -3.694,8.506 -3.459,8.43 -3.356,8.374 -3.23,8.303 -3.171,8.201 -3.171,8.051 -3.171,7.968 -3.212,7.872 -3.294,7.757 -3.379,7.641 -3.529,7.485 -3.75,7.283 l -3.445,-3.11 0,3.405 c 0,0.347 0.079,0.594 0.237,0.733 0.161,0.139 0.454,0.22 0.874,0.242 l 0.09,0.004 0.002,0.091 0.005,0.484 0.002,0.098 -0.097,0 -3.916,0 -0.096,0 0,-0.097 0,-0.483 0,-0.094 0.093,-0.003 c 0.41,-0.014 0.704,-0.094 0.868,-0.239 0.162,-0.141 0.245,-0.388 0.245,-0.736 l 0,-6.603 C -8.888,0.628 -8.971,0.38 -9.129,0.237 -9.288,0.094 -9.579,0.014 -10.001,0 l -0.093,-0.003 0,-0.094 0,-0.498 0,-0.096 0.096,0 3.916,0 0.097,0 -0.002,0.097 -0.005,0.499 -0.002,0.092 L -6.086,0 C -6.5,0.014 -6.792,0.094 -6.954,0.238 -7.116,0.379 -7.195,0.62 -7.195,0.975 l 0,1.878 1.445,1.303 1.983,-3.022 c 0.198,-0.3 0.286,-0.465 0.325,-0.551 0.046,-0.107 0.071,-0.206 0.071,-0.288 0,-0.054 -0.022,-0.134 -0.2,-0.201 C -3.738,0.032 -3.985,0 -4.311,0 l -0.096,0 0,-0.097 0,-0.498 0,-0.096 0.096,0 4.307,0 0.095,0 0,0.096 0,0.498 0,0.092 L 0,0 z"
           inkscape:connector-curvature="0" />
      </g>
      <g
         transform="matrix(1.25,0,0,-1.25,272.6481,243.51137)"
         id="g12467">
        <path
           id="path12469"
           style="fill:#d91920;fill-opacity:1;fill-rule:nonzero;stroke:none"
           d="m 0,0 0,-36.631 c 1.794,0.443 3.515,1.069 5.14,1.861 l 0,41.923 C 4.601,6.904 3.521,6.4 2.669,5.721 0.911,4.321 0,2.54 0,0"
           inkscape:connector-curvature="0" />
      </g>
      <g
         transform="matrix(1.25,0,0,-1.25,253.86761,236.35862)"
         id="g12471">
        <path
           id="path12473"
           style="fill:#d91920;fill-opacity:1;fill-rule:nonzero;stroke:none"
           d="m 0,0 c -0.851,0.678 -1.93,1.182 -2.469,1.431 l 0,-41.926 c 1.625,-0.792 3.346,-1.42 5.139,-1.86 l 0,36.633 C 2.67,-3.183 1.759,-1.401 0,0"
           inkscape:connector-curvature="0" />
      </g>
      <g
         transform="matrix(1.25,0,0,-1.25,277.7206,228.26812)"
         id="g12475">
        <path
           id="path12477"
           style="fill:#d91920;fill-opacity:1;fill-rule:nonzero;stroke:none"
           d="m 0,0 c -3.139,1.357 -6.601,2.111 -10.239,2.111 -3.62,0 -7.067,-0.746 -10.193,-2.09 -0.488,-0.253 -1.149,-0.736 -1.149,-1.503 0,-1.37 1.9,-1.081 4.275,-2.973 2.199,-1.752 3.337,-4.216 3.337,-6.978 l 0,-37.867 c 1.219,-0.175 2.464,-0.269 3.73,-0.269 1.27,0 2.519,0.094 3.738,0.269 l 0,37.867 c 0,2.762 1.139,5.226 3.335,6.978 2.379,1.892 4.276,1.603 4.276,2.973 C 1.11,-0.735 0.48,-0.256 0,0"
           inkscape:connector-curvature="0" />
      </g>
      <g
         transform="matrix(1.25,0,0,-1.25,264.92185,220.15262)"
         id="g12479">
        <path
           id="path12481"
           style="fill:#d91920;fill-opacity:1;fill-rule:nonzero;stroke:none"
           d="m 0,0 c -16.691,0 -30.223,-13.532 -30.223,-30.223 0,-16.692 13.532,-30.223 30.223,-30.223 16.692,0 30.222,13.531 30.222,30.223 C 30.222,-13.532 16.692,0 0,0 m 0,-57.941 c -15.309,0 -27.719,12.41 -27.719,27.718 0,15.308 12.41,27.719 27.719,27.719 15.308,0 27.717,-12.411 27.717,-27.719 0,-15.308 -12.409,-27.718 -27.717,-27.718"
           inkscape:connector-curvature="0" />
      </g>
      <g
         transform="matrix(1.25,0,0,-1.25,232.6201,257.93075)"
         id="g12483">
        <path
           id="path12485"
           style="fill:#d91920;fill-opacity:1;fill-rule:nonzero;stroke:none"
           d="m 0,0 c 0,-9.182 4.79,-17.243 12.004,-21.826 l 0,19.792 C 9.062,-2.11 7.982,-3.891 7.653,-4.584 7.385,-5.153 7.21,-5.751 6.7,-5.751 c -0.853,0 -1.546,2.467 -1.546,5.512 0,3.044 0.693,5.512 1.546,5.512 0.51,0 0.685,-0.599 0.953,-1.167 0.329,-0.692 1.409,-2.474 4.351,-2.549 l 0,20.269 C 4.79,17.244 0,9.182 0,0"
           inkscape:connector-curvature="0" />
      </g>
      <g
         transform="matrix(1.25,0,0,-1.25,291.94236,263.66112)"
         id="g12487">
        <path
           id="path12489"
           style="fill:#d91920;fill-opacity:1;fill-rule:nonzero;stroke:none"
           d="m 0,0 c -0.267,-0.567 -0.441,-1.167 -0.951,-1.167 -0.854,0 -1.545,2.468 -1.545,5.512 0,3.044 0.691,5.512 1.545,5.512 C -0.441,9.857 -0.267,9.258 0,8.69 0.323,8.011 1.366,6.288 4.175,6.148 3.667,14.671 -0.975,22.084 -7.774,26.406 l 0,-43.643 C -1.102,-12.997 3.492,-5.781 4.143,2.542 1.358,2.389 0.321,0.676 0,0"
           inkscape:connector-curvature="0" />
      </g>
    </g>
  </g>
</svg>
