<?xml version="1.0" encoding="UTF-8" standalone="no"?>
<!-- Created with Inkscape (http://www.inkscape.org/) -->

<svg
   xmlns:dc="http://purl.org/dc/elements/1.1/"
   xmlns:cc="http://creativecommons.org/ns#"
   xmlns:rdf="http://www.w3.org/1999/02/22-rdf-syntax-ns#"
   xmlns:svg="http://www.w3.org/2000/svg"
   xmlns="http://www.w3.org/2000/svg"
   xmlns:xlink="http://www.w3.org/1999/xlink"
   xmlns:sodipodi="http://sodipodi.sourceforge.net/DTD/sodipodi-0.dtd"
   xmlns:inkscape="http://www.inkscape.org/namespaces/inkscape"
   width="58.1674"
   height="51.37912"
   id="svg6816"
   version="1.1"
   inkscape:version="0.48.1 r9760"
   sodipodi:docname="New document 12">
  <defs
     id="defs6818">
    <clipPath
       id="clipPath6466"
       clipPathUnits="userSpaceOnUse">
      <path
         inkscape:connector-curvature="0"
         id="path6468"
         d="m 0,841.89 595.275,0 L 595.275,0 0,0 0,841.89 z" />
    </clipPath>
    <linearGradient
       id="linearGradient6448"
       spreadMethod="pad"
       gradientTransform="matrix(44.735947,0,0,44.735947,40.125,781.9834)"
       gradientUnits="userSpaceOnUse"
       y2="0"
       x2="1"
       y1="0"
       x1="0">
      <stop
         id="stop6450"
         offset="0"
         style="stop-opacity:1;stop-color:#b2b1b1" />
      <stop
         id="stop6452"
         offset="0.199997"
         style="stop-opacity:1;stop-color:#c8c7c7" />
      <stop
         id="stop6454"
         offset="0.429993"
         style="stop-opacity:1;stop-color:#918f90" />
      <stop
         id="stop6456"
         offset="0.740005"
         style="stop-opacity:1;stop-color:#c8c7c7" />
      <stop
         id="stop6458"
         offset="1"
         style="stop-opacity:1;stop-color:#656263" />
    </linearGradient>
    <linearGradient
       inkscape:collect="always"
       xlink:href="#linearGradient6448"
       id="linearGradient7131"
       gradientUnits="userSpaceOnUse"
       gradientTransform="matrix(44.735947,0,0,44.735947,40.125,781.9834)"
       spreadMethod="pad"
       x1="0"
       y1="0"
       x2="1"
       y2="0" />
  </defs>
  <sodipodi:namedview
     id="base"
     pagecolor="#ffffff"
     bordercolor="#666666"
     borderopacity="1.0"
     inkscape:pageopacity="0.0"
     inkscape:pageshadow="2"
     inkscape:zoom="1.4"
     inkscape:cx="157.79287"
     inkscape:cy="59.826536"
     inkscape:document-units="px"
     inkscape:current-layer="layer1"
     showgrid="false"
     fit-margin-top="0"
     fit-margin-left="0"
     fit-margin-right="0"
     fit-margin-bottom="0"
     inkscape:window-width="1024"
     inkscape:window-height="719"
     inkscape:window-x="-4"
     inkscape:window-y="-4"
     inkscape:window-maximized="1" />
  <metadata
     id="metadata6821">
    <rdf:RDF>
      <cc:Work
         rdf:about="">
        <dc:format>image/svg+xml</dc:format>
        <dc:type
           rdf:resource="http://purl.org/dc/dcmitype/StillImage" />
        <dc:title></dc:title>
      </cc:Work>
    </rdf:RDF>
  </metadata>
  <g
     inkscape:label="Layer 1"
     inkscape:groupmode="layer"
     id="layer1"
     transform="translate(-181.59232,-451.1977)">
    <g
       id="g7120">
      <g
         transform="matrix(1.25,0,0,-1.25,131.47982,1454.5427)"
         id="g6436">
        <g
           id="g6438">
          <g
             id="g6444">
            <g
               id="g6446">
              <path
                 id="path6460"
                 style="fill:url(#linearGradient7131);stroke:none"
                 d="m 76.157,801.995 -27.379,0 c -0.017,0 -0.034,0 -0.051,0 l 0,0 c -4.76,10e-4 -8.637,-3.982 -8.637,-8.836 l 0,0 c 0,-4.869 3.905,-8.834 8.688,-8.834 l 0,0 11.254,0 0,11.725 4.869,0 0,-11.725 11.256,0 c 4.78,0 8.688,3.965 8.688,8.834 l 0,0 c 0,4.853 -3.878,8.836 -8.636,8.836 l 0,0 -0.052,0 z m -10.584,-22.481 9.163,-9.133 -3.393,-3.389 -8.811,8.837 -8.976,-8.845 -3.391,3.415 9.248,9.115 -10.635,0 c -4.783,0 -8.688,-3.995 -8.688,-8.835 l 0,0 c 0,-4.869 3.905,-8.865 8.688,-8.834 l 0,0 27.379,0 c 4.78,-0.031 8.688,3.965 8.688,8.834 l 0,0 c 0,4.84 -3.908,8.835 -8.688,8.835 l 0,0 -10.584,0 z"
                 inkscape:connector-curvature="0" />
            </g>
          </g>
        </g>
      </g>
      <g
         transform="matrix(1.25,0,0,-1.25,226.70744,500.32945)"
         id="g6470">
        <path
           id="path6472"
           style="fill:#b6114d;fill-opacity:1;fill-rule:nonzero;stroke:none"
           d="m 0,0 -0.045,0 -27.216,0 -0.047,0 c -3.985,0 -7.229,3.266 -7.229,7.28 0,4.049 3.235,7.343 7.215,7.343 l 6.76,0 -7.705,-7.592 5.595,-5.605 8.954,8.818 8.865,-8.831 5.592,5.605 -7.62,7.605 6.773,0 c 3.977,0 7.212,-3.294 7.212,-7.343 C 7.104,3.266 3.918,0 0,0"
           inkscape:connector-curvature="0" />
      </g>
      <g
         transform="matrix(1.25,0,0,-1.25,226.55607,472.19708)"
         id="g6474">
        <path
           id="path6476"
           style="fill:#b6114d;fill-opacity:1;fill-rule:nonzero;stroke:none"
           d="m 0,0 -9.608,0 0,11.717 -7.984,0 0,-11.717 -9.609,0 c -3.98,0 -7.215,3.265 -7.215,7.276 0,4.026 3.218,7.301 7.168,7.301 l 0.045,0 27.203,0 0.047,0 C 4,14.577 7.215,11.302 7.215,7.276 7.215,3.265 3.979,0 0,0"
           inkscape:connector-curvature="0" />
      </g>
    </g>
  </g>
</svg>
