<?xml version="1.0" encoding="UTF-8" standalone="no"?>
<!-- Created with Inkscape (http://www.inkscape.org/) -->

<svg
   xmlns:dc="http://purl.org/dc/elements/1.1/"
   xmlns:cc="http://creativecommons.org/ns#"
   xmlns:rdf="http://www.w3.org/1999/02/22-rdf-syntax-ns#"
   xmlns:svg="http://www.w3.org/2000/svg"
   xmlns="http://www.w3.org/2000/svg"
   xmlns:xlink="http://www.w3.org/1999/xlink"
   xmlns:sodipodi="http://sodipodi.sourceforge.net/DTD/sodipodi-0.dtd"
   xmlns:inkscape="http://www.inkscape.org/namespaces/inkscape"
   width="222.1674"
   height="51.37912"
   id="svg6816"
   version="1.1"
   inkscape:version="0.48.1 r9760"
   sodipodi:docname="New document 12">
  <defs
     id="defs6818">
    <clipPath
       id="clipPath6466"
       clipPathUnits="userSpaceOnUse">
      <path
         inkscape:connector-curvature="0"
         id="path6468"
         d="m 0,841.89 595.275,0 L 595.275,0 0,0 0,841.89 z" />
    </clipPath>
    <linearGradient
       id="linearGradient6448"
       spreadMethod="pad"
       gradientTransform="matrix(44.735947,0,0,44.735947,40.125,781.9834)"
       gradientUnits="userSpaceOnUse"
       y2="0"
       x2="1"
       y1="0"
       x1="0">
      <stop
         id="stop6450"
         offset="0"
         style="stop-opacity:1;stop-color:#b2b1b1" />
      <stop
         id="stop6452"
         offset="0.199997"
         style="stop-opacity:1;stop-color:#c8c7c7" />
      <stop
         id="stop6454"
         offset="0.429993"
         style="stop-opacity:1;stop-color:#918f90" />
      <stop
         id="stop6456"
         offset="0.740005"
         style="stop-opacity:1;stop-color:#c8c7c7" />
      <stop
         id="stop6458"
         offset="1"
         style="stop-opacity:1;stop-color:#656263" />
    </linearGradient>
    <linearGradient
       inkscape:collect="always"
       xlink:href="#linearGradient6448"
       id="linearGradient7131"
       gradientUnits="userSpaceOnUse"
       gradientTransform="matrix(44.735947,0,0,44.735947,40.125,781.9834)"
       spreadMethod="pad"
       x1="0"
       y1="0"
       x2="1"
       y2="0" />
  </defs>
  <sodipodi:namedview
     id="base"
     pagecolor="#ffffff"
     bordercolor="#666666"
     borderopacity="1.0"
     inkscape:pageopacity="0.0"
     inkscape:pageshadow="2"
     inkscape:zoom="1.4"
     inkscape:cx="157.79287"
     inkscape:cy="59.826536"
     inkscape:document-units="px"
     inkscape:current-layer="layer1"
     showgrid="false"
     fit-margin-top="0"
     fit-margin-left="0"
     fit-margin-right="0"
     fit-margin-bottom="0"
     inkscape:window-width="1024"
     inkscape:window-height="719"
     inkscape:window-x="-4"
     inkscape:window-y="-4"
     inkscape:window-maximized="1" />
  <metadata
     id="metadata6821">
    <rdf:RDF>
      <cc:Work
         rdf:about="">
        <dc:format>image/svg+xml</dc:format>
        <dc:type
           rdf:resource="http://purl.org/dc/dcmitype/StillImage" />
        <dc:title></dc:title>
      </cc:Work>
    </rdf:RDF>
  </metadata>
  <g
     inkscape:label="Layer 1"
     inkscape:groupmode="layer"
     id="layer1"
     transform="translate(-181.59232,-451.1977)">
    <g
       id="g7120">
      <g
         transform="matrix(1.25,0,0,-1.25,131.47982,1454.5427)"
         id="g6436">
        <g
           id="g6438">
          <g
             id="g6444">
            <g
               id="g6446">
              <path
                 id="path6460"
                 style="fill:url(#linearGradient7131);stroke:none"
                 d="m 76.157,801.995 -27.379,0 c -0.017,0 -0.034,0 -0.051,0 l 0,0 c -4.76,10e-4 -8.637,-3.982 -8.637,-8.836 l 0,0 c 0,-4.869 3.905,-8.834 8.688,-8.834 l 0,0 11.254,0 0,11.725 4.869,0 0,-11.725 11.256,0 c 4.78,0 8.688,3.965 8.688,8.834 l 0,0 c 0,4.853 -3.878,8.836 -8.636,8.836 l 0,0 -0.052,0 z m -10.584,-22.481 9.163,-9.133 -3.393,-3.389 -8.811,8.837 -8.976,-8.845 -3.391,3.415 9.248,9.115 -10.635,0 c -4.783,0 -8.688,-3.995 -8.688,-8.835 l 0,0 c 0,-4.869 3.905,-8.865 8.688,-8.834 l 0,0 27.379,0 c 4.78,-0.031 8.688,3.965 8.688,8.834 l 0,0 c 0,4.84 -3.908,8.835 -8.688,8.835 l 0,0 -10.584,0 z"
                 inkscape:connector-curvature="0" />
            </g>
          </g>
        </g>
      </g>
      <g
         transform="matrix(1.25,0,0,-1.25,226.70744,500.32945)"
         id="g6470">
        <path
           id="path6472"
           style="fill:#b6114d;fill-opacity:1;fill-rule:nonzero;stroke:none"
           d="m 0,0 -0.045,0 -27.216,0 -0.047,0 c -3.985,0 -7.229,3.266 -7.229,7.28 0,4.049 3.235,7.343 7.215,7.343 l 6.76,0 -7.705,-7.592 5.595,-5.605 8.954,8.818 8.865,-8.831 5.592,5.605 -7.62,7.605 6.773,0 c 3.977,0 7.212,-3.294 7.212,-7.343 C 7.104,3.266 3.918,0 0,0"
           inkscape:connector-curvature="0" />
      </g>
      <g
         transform="matrix(1.25,0,0,-1.25,226.55607,472.19708)"
         id="g6474">
        <path
           id="path6476"
           style="fill:#b6114d;fill-opacity:1;fill-rule:nonzero;stroke:none"
           d="m 0,0 -9.608,0 0,11.717 -7.984,0 0,-11.717 -9.609,0 c -3.98,0 -7.215,3.265 -7.215,7.276 0,4.026 3.218,7.301 7.168,7.301 l 0.045,0 27.203,0 0.047,0 C 4,14.577 7.215,11.302 7.215,7.276 7.215,3.265 3.979,0 0,0"
           inkscape:connector-curvature="0" />
      </g>
    </g>
    <g
       id="g7087">
      <g
         transform="matrix(1.1406942,0,0,-1.25,253.83603,501.80157)"
         id="g6518">
        <path
           id="path6520"
           style="fill:#4f4c4d;fill-opacity:1;fill-rule:nonzero;stroke:none"
           d="m 0,0 1.701,0 c 3.754,0 4.213,2.954 4.213,6.165 0,3.485 -0.477,6.02 -3.965,6.02 L 0,12.185 0,0 z m -4.426,0 1.549,0 0,12.185 -1.549,0 0,0.328 6.605,0 c 4.006,0 6.802,-2.479 6.802,-6.511 0,-2.301 -1.477,-6.331 -6.686,-6.331 l -6.721,0 0,0.329 z"
           inkscape:connector-curvature="0" />
      </g>
      <g
         transform="matrix(1.1406942,0,0,-1.25,296.83701,496.16932)"
         id="g6522">
        <path
           id="path6524"
           style="fill:#4f4c4d;fill-opacity:1;fill-rule:nonzero;stroke:none"
           d="m 0,0 0.342,0 c 0.462,-2.061 1.919,-4.799 4.5,-4.799 1.648,0 2.762,0.968 2.762,2.573 0,3.977 -7.643,1.114 -7.643,6.603 0,2.408 1.685,3.923 4.216,3.923 1.929,0 2.545,-0.986 3.407,-0.986 0.574,0 0.61,0.474 0.61,0.713 l 0.347,0 0,-4.106 -0.347,0 c -0.474,1.934 -1.548,4.05 -3.965,4.05 -1.457,0 -2.544,-1.08 -2.544,-2.485 0,-3.52 7.757,-0.749 7.757,-6.166 0,-2.845 -1.688,-4.446 -4.386,-4.446 -1.666,0 -3.241,0.948 -4.007,0.948 -0.514,0 -0.707,-0.328 -0.707,-0.675 L 0,-4.853 0,0 z"
           inkscape:connector-curvature="0" />
      </g>
      <g
         transform="matrix(1.1406942,0,0,-1.25,337.3807,497.85995)"
         id="g6526">
        <path
           id="path6528"
           style="fill:#4f4c4d;fill-opacity:1;fill-rule:nonzero;stroke:none"
           d="m 0,0 0,-0.393 0.004,0 0,-0.003 1.183,0 0,-1.565 c 0,-1.045 -0.814,-1.436 -1.872,-1.436 -1.514,0 -2.727,0.476 -2.727,4.864 0,2.849 0.733,4.887 2.697,4.887 2.062,0 3.241,-1.572 3.463,-3.236 l 0.289,0 0,3.243 -0.289,0 c 0,-0.266 -0.144,-0.45 -0.477,-0.45 -0.429,0 -1.629,0.749 -3.097,0.749 -2.825,0 -5.139,-2.202 -5.139,-5.362 0,-2.936 2.407,-5.024 5.332,-5.024 1.913,0 3.284,0.523 4.066,1.2 l 0,2.13 1.069,0 L 4.502,0 0,0 z"
           inkscape:connector-curvature="0" />
      </g>
      <g
         transform="matrix(1.1406942,0,0,-1.25,352.59744,501.7247)"
         id="g6530">
        <path
           id="path6532"
           style="fill:#4f4c4d;fill-opacity:1;fill-rule:nonzero;stroke:none"
           d="m 0,0 -1.028,0 0,6.167 1.315,0 C 1.99,6.167 3.183,5.027 3.183,3.095 3.183,0.868 1.937,0 0,0 m 0.136,12.052 c 1.627,0 2.625,-0.823 2.625,-2.939 0,-1.859 -1.457,-2.524 -2.61,-2.524 l -1.179,0 0,5.463 1.164,0 z m 1.358,-5.583 0,0.038 C 3.332,6.65 5.42,7.473 5.42,9.425 c 0,2.115 -2.317,3.026 -4.461,3.026 l -6.112,0 0,-0.399 1.28,0 0,-12.059 -1.278,0 -0.002,-0.384 0.002,0 0,-0.01 5.961,0.004 c 3.559,0 5.375,1.502 5.375,3.509 0,2.189 -2.066,3.357 -4.691,3.357"
           inkscape:connector-curvature="0" />
      </g>
      <g
         transform="matrix(1.1406942,0,0,-1.25,401.64273,501.74907)"
         id="g6534">
        <path
           id="path6536"
           style="fill:#4f4c4d;fill-opacity:1;fill-rule:nonzero;stroke:none"
           d="m 0,0 -1.442,0 -4.532,6.096 2.392,2.109 c 0.731,0.695 1.567,0.94 2.619,0.94 l 0.414,0 0,0.399 -4.084,0 0,-0.398 0.286,0 c 0.625,0 0.761,-0.068 0.761,-0.251 0,-0.089 -0.297,-0.356 -0.645,-0.652 l -3.64,-3.218 0,4.128 1.447,0 0.002,0.391 -5.242,0 0,-0.391 1.414,0 0,-9.153 -1.405,0 0,-0.384 5.157,-0.01 0,0.394 -1.373,0 0,4.46 0.238,0.244 3.43,-4.704 -1.151,0 0,-0.394 5.354,0 0,0.01 L 0,0 z"
           inkscape:connector-curvature="0" />
      </g>
      <g
         transform="matrix(1.1406942,0,0,-1.25,382.87478,489.8192)"
         id="g6538">
        <path
           id="path6540"
           style="fill:#4f4c4d;fill-opacity:1;fill-rule:nonzero;stroke:none"
           d="m 0,0 0,-0.391 0.306,0 c 0.7,0 1.026,-0.215 1.026,-0.753 l 0,-5.7 -0.058,0 -6.018,6.844 -3.207,0.003 0,-0.394 0.625,0 0.555,-0.672 0,-7.793 c -0.089,-0.612 -0.5,-0.692 -0.936,-0.692 l -0.289,0 0,-0.385 3.017,0 0,0.385 -0.142,0 c -0.858,0 -1.174,0.088 -1.196,0.809 l 0,7.196 7.421,-8.559 0.706,0 0,9.001 c -0.038,0.354 0.266,0.71 0.983,0.71 l 0.228,0 L 3.021,0 0,0 z"
           inkscape:connector-curvature="0" />
      </g>
      <g
         transform="matrix(1.1406942,0,0,-1.25,326.07174,489.8192)"
         id="g6542">
        <path
           id="path6544"
           style="fill:#4f4c4d;fill-opacity:1;fill-rule:nonzero;stroke:none"
           d="m 0,0 0,-0.391 0.304,0 c 0.7,0 1.024,-0.215 1.024,-0.753 l 0,-5.7 -0.057,0 -6.017,6.844 -3.228,0.003 0,-0.394 0.644,0 0.558,-0.672 0,-7.793 c -0.088,-0.612 -0.5,-0.692 -0.939,-0.692 l -0.261,0 0,-0.385 2.991,0 0,0.385 -0.144,0 c -0.858,0 -1.17,0.088 -1.194,0.809 l 0,7.196 7.422,-8.559 0.707,0 0,9.001 c -0.039,0.354 0.262,0.71 0.983,0.71 l 0.224,0 L 3.017,0 0,0 z"
           inkscape:connector-curvature="0" />
      </g>
      <g
         transform="matrix(1.1406942,0,0,-1.25,315.39336,490.30745)"
         id="g6546">
        <path
           id="path6548"
           style="fill:#4f4c4d;fill-opacity:1;fill-rule:nonzero;stroke:none"
           d="m 0,0 0,0.394 -5.09,0 0,-0.394 1.383,0 0,-9.145 -1.383,0 0,-0.395 0.008,0 0,-0.002 5.082,0 0.006,0.397 -1.389,0 0,9.145 L 0,0 z"
           inkscape:connector-curvature="0" />
      </g>
      <g
         transform="matrix(1.1406942,0,0,-1.25,290.89525,490.30745)"
         id="g6558">
        <path
           id="path6560"
           style="fill:#4f4c4d;fill-opacity:1;fill-rule:nonzero;stroke:none"
           d="m 0,0 0,0.394 -5.088,0 0,-0.394 1.359,0 0,-4.098 -4.25,0 0,4.098 1.341,0 0,0.394 -5.079,0 0,-0.394 1.446,0 0,-9.145 -1.446,0 0,-0.393 0.004,0 0,-0.004 5.075,0 0,0.397 -1.341,0 0,4.652 4.25,0 0,-4.652 -1.359,0 0,-0.393 5.09,-0.004 -0.002,0.397 -1.438,0 0,9.145 L 0,0 z"
           inkscape:connector-curvature="0" />
      </g>
      <g
         transform="matrix(1.1406942,0,0,-1.25,365.49254,493.2872)"
         id="g6562">
        <path
           id="path6564"
           style="fill:#4f4c4d;fill-opacity:1;fill-rule:nonzero;stroke:none"
           d="m 0,0 1.406,-3.63 -2.934,0 1.455,3.62 L 0,0 z m 6.058,-6.761 -0.836,0 -4.228,9.763 -0.236,0 -3.668,-8.956 c -0.193,-0.465 -0.514,-0.775 -1.118,-0.817 l -0.209,0 0,-0.387 2.886,0 0,0.387 -0.444,0 c -0.319,0 -0.731,0.027 -0.731,0.493 0,0.155 0.059,0.311 0.108,0.423 l 0.73,1.83 3.272,0 1.065,-2.736 -1.352,0 0.005,-0.397 4.758,0 -0.002,0.397 z"
           inkscape:connector-curvature="0" />
      </g>
      <g
         transform="matrix(1.1406942,0,0,-1.25,269.1908,493.2872)"
         id="g6566">
        <path
           id="path6568"
           style="fill:#4f4c4d;fill-opacity:1;fill-rule:nonzero;stroke:none"
           d="m 0,0 1.403,-3.63 -2.934,0 1.459,3.62 L 0,0 z m 6.056,-6.761 -0.837,0 -4.223,9.763 -0.24,0 -3.668,-8.956 c -0.191,-0.465 -0.512,-0.775 -1.119,-0.817 l -0.207,0 0,-0.387 2.887,0 0,0.387 -0.444,0 c -0.32,0 -0.733,0.027 -0.733,0.493 0,0.155 0.063,0.311 0.11,0.423 l 0.728,1.83 3.272,0 1.065,-2.736 -1.352,0 0.004,-0.397 4.759,0 -0.002,0.397 z"
           inkscape:connector-curvature="0" />
      </g>
    </g>
    <g
       id="g7111">
      <path
         id="path6478"
         style="fill:#4f4c4d;fill-opacity:1;fill-rule:nonzero;stroke:none"
         d="m 354.95232,459.07395 -6.09625,0 0,3.67875 6.09625,0 0,-3.67875 z m 0,-4.525 -6.09625,0 0,3.67875 6.09625,0 0,-3.67875 z m 6.93625,19.62375 -0.12625,0.38 c -1.62375,-0.0425 -2.85875,0.3825 -3.70375,1.2825 -1.5725,-1.07375 -2.9425,-2.2825 -4.11375,-3.62625 -1.1625,-1.3425 -1.94625,-2.61375 -2.35375,-3.8075 -0.4075,-1.19625 -0.8125,-2.8025 -1.21375,-4.8175 l -1.565,0 0,9.87875 c 2.0025,-0.58125 3.4325,-1.045 4.29,-1.3925 l 0.15625,0.3975 -5.77875,4.10375 c -0.0438,0.30875 -0.2025,0.4625 -0.48875,0.4625 -0.16875,0 -0.53625,-0.345 -1.10375,-1.02875 -0.56125,-0.68625 -0.7975,-1.06625 -0.7025,-1.14 0.0713,-0.0713 0.26375,-0.18 0.57875,-0.325 0.31,-0.14625 0.46125,-0.2775 0.46125,-0.395 l 0,-16.92375 -0.2325,-4.9075 c 1.0875,0.4175 2.1175,0.88125 3.08875,1.38875 l 5.51,0 1.14,-0.9675 c 0.0638,-0.0538 0.16875,-0.0813 0.315,-0.0813 0.17875,0 0.60375,0.19625 1.2625,0.58 0.6575,0.38625 0.98375,0.63375 0.98375,0.74125 0,0.095 -0.105,0.25125 -0.3225,0.47125 -0.21625,0.225 -0.32625,0.4 -0.32625,0.52375 l 0,5.0425 c 0.0863,0.74625 0.13125,1.96625 0.13125,3.66625 0,0.1725 -0.3825,0.405 -1.1425,0.69375 -0.76125,0.295 -1.20875,0.4375 -1.345,0.4375 -0.22,0 -0.335,-0.11 -0.335,-0.32625 l 0,-0.9 -3.705,0 c 0.45625,1.87125 1.1275,3.40625 2.01125,4.60625 2.15375,-1.59 3.83,-3.125 5.02375,-4.60625 l 2.18125,2.12625 c 0.0437,0.23625 -0.18375,0.35375 -0.68125,0.35375 -0.23,0 -0.385,0.0213 -0.46,0.0675 -2.10875,1.225 -3.93625,2.16 -5.48,2.79375 0.2125,0.49 1.02,1.2625 2.41125,2.315 1.39,1.05625 3.2725,2.03125 5.635,2.9325 m -27.56625,-8.15 c 1.8475,1.67125 2.77125,2.88625 2.77125,3.6375 0,0.4825 -0.1975,0.92125 -0.595,1.31625 -0.39375,0.39625 -0.7325,0.59375 -1.01875,0.59375 -0.22,0 -0.40375,-0.11875 -0.54125,-0.3575 0,-1.915 -0.355,-3.565 -1.075,-4.94375 l 0.45875,-0.24625 z m 11.32125,-1.65 c 0.03,0.24 -0.0588,0.35625 -0.27125,0.35625 l -4.95375,0 0,4.91875 c 1.09875,-1.335 2.03625,-2.6575 2.8175,-3.96375 1.52125,1.00875 2.285,1.5825 2.285,1.7275 0,0.165 -0.14875,0.2475 -0.43125,0.2475 -0.275,0 -0.50125,0.0675 -0.68125,0.205 -1.21125,0.9525 -2.5325,1.88375 -3.9575,2.7925 l 0,1.865 c 2.74625,-0.445 4.29875,-0.7075 4.67,-0.79 l 0.125,0.5325 -5.66875,1.65125 c -1.75125,0.5175 -3.59875,1.11125 -5.54,1.78375 -0.0738,0.24625 -0.22,0.36625 -0.44625,0.36625 -0.115,0 -0.215,-0.04 -0.29625,-0.12 -0.0825,-0.085 -0.43625,-0.825 -1.045,-2.22375 l 4.86125,-0.63875 0.77125,-0.15125 0,-8.2025 -2.44875,0 c -0.33375,0 -0.74,0.0425 -1.235,0.1275 -0.50125,0.0875 -0.8275,0.14 -0.98375,0.15625 l -0.84,-1.09 5.47875,0 0,-3.24125 -2.65875,0 c -0.87875,1.00875 -1.9725,2.17125 -3.27875,3.4875 l -0.53875,-0.24625 c 1.79125,-2.24375 3.63125,-5.69375 5.50875,-10.355 l 0.87375,-2.17875 c 0.1375,0.0275 0.62125,0.22875 1.4625,0.605 0.84,0.375 1.365,0.62 1.5775,0.7275 0.21,0.11125 0.315,0.20625 0.315,0.2875 0,0.10125 -0.13125,0.2075 -0.39,0.3275 -0.25875,0.11875 -0.50375,0.335 -0.735,0.65375 1.64,0.43625 2.97625,0.88625 4.03,1.34875 1.05,0.46375 1.58,1.03 1.58,1.705 0,0.425 -0.13,0.81375 -0.38375,1.165 -0.25125,0.34875 -0.495,0.52375 -0.7275,0.52375 -0.23375,0 -0.6025,-0.30875 -1.1125,-0.92875 -1.3675,-1.67 -2.635,-2.71125 -3.79875,-3.12 -1.03375,1.60875 -2.24375,3.32375 -3.63875,5.14 l 4.66875,0.0537 1.17375,-1.1725 c 0.0612,-0.035 0.14625,-0.0537 0.25375,-0.0537 0.135,0 0.555,0.26875 1.265,0.805 0.70625,0.53125 1.06,0.87 1.06,1.005 0,0.14875 -0.095,0.22 -0.28125,0.22 l -3.66,0 0,3.24125 1.695,0 1.1225,-1.28 c 0.0538,-0.0462 0.135,-0.0662 0.24,-0.0662 0.2,0 0.92125,0.5975 2.1675,1.79625"
         inkscape:connector-curvature="0" />
      <g
         transform="matrix(1.25,0,0,-1.25,396.93348,454.46645)"
         id="g6480">
        <path
           id="path6482"
           style="fill:#4f4c4d;fill-opacity:1;fill-rule:nonzero;stroke:none"
           d="m 0,0 1.19,1.406 c 0.038,0.051 0.101,0.076 0.193,0.076 0.125,0 0.598,-0.292 1.425,-0.877 0.823,-0.585 1.233,-0.922 1.233,-1.008 0,-0.19 -0.158,-0.285 -0.479,-0.285 l -10.491,0 C -7.983,-0.82 -8.588,-0.909 -8.74,-0.96 L -9.334,0 0,0 z m 1.633,-5.244 0.966,1.253 c 0.048,0.065 0.136,0.099 0.263,0.099 0.194,0 0.675,-0.271 1.446,-0.812 0.768,-0.542 1.153,-0.86 1.153,-0.954 0,-0.168 -0.099,-0.251 -0.291,-0.251 l -4.474,0 -0.05,-0.099 0,-9.801 c 0,-1.067 -1.064,-1.827 -3.191,-2.277 -0.052,0.058 -0.091,0.173 -0.113,0.348 -0.204,1.113 -1.35,1.883 -3.434,2.311 l 0.025,0.49 c 1.679,-0.18 3.056,-0.272 4.129,-0.272 0.11,0 0.246,0.105 0.407,0.317 l 0,8.961 -6.409,0 c -0.206,-0.03 -0.541,-0.062 -1.015,-0.099 -0.474,-0.035 -0.871,-0.094 -1.191,-0.173 l -0.619,0.959 12.398,0 z m -13.766,7.859 c 1.838,-1.009 2.76,-1.577 2.76,-1.7 0,-0.117 -0.219,-0.246 -0.651,-0.387 -0.437,-0.143 -1.161,-0.608 -2.173,-1.401 -1.012,-0.792 -2.129,-1.552 -3.344,-2.278 -1.217,-0.728 -1.879,-1.091 -1.99,-1.091 -0.059,0 -0.118,0.032 -0.182,0.094 -0.065,0.06 -0.109,0.099 -0.134,0.114 2.576,2.354 4.48,4.571 5.714,6.649 m 0.125,-4.306 c 1.842,-0.777 2.762,-1.294 2.762,-1.548 0,-0.152 -0.14,-0.257 -0.412,-0.316 -0.277,-0.057 -0.506,-0.173 -0.696,-0.348 -0.191,-0.175 -0.5,-0.547 -0.931,-1.114 -0.432,-0.566 -0.746,-0.953 -0.939,-1.164 l 1.459,-0.535 c 0.025,-0.058 0.036,-0.108 0.036,-0.152 0,-0.125 -0.133,-0.242 -0.404,-0.355 -0.27,-0.113 -0.404,-0.243 -0.404,-0.386 l 0,-7.01 0.125,-2.454 c 0,-0.174 -0.346,-0.383 -1.039,-0.626 -0.695,-0.244 -1.07,-0.366 -1.139,-0.366 -0.181,0 -0.264,0.069 -0.264,0.207 l 0.112,6.344 0,3.588 -2.814,-2.387 -1.733,-1.319 c -0.064,0.006 -0.133,0.05 -0.217,0.131 -0.086,0.079 -0.152,0.126 -0.203,0.141 0.033,0.058 0.092,0.123 0.17,0.195 0.082,0.074 0.129,0.12 0.147,0.142 l 2.545,2.902 c 1.666,1.91 2.946,4.053 3.839,6.43"
           inkscape:connector-curvature="0" />
      </g>
      <g
         transform="matrix(1.25,0,0,-1.25,248.04608,461.17358)"
         id="g6484">
        <path
           id="path6486"
           style="fill:#4f4c4d;fill-opacity:1;fill-rule:nonzero;stroke:none"
           d="m 0,0 -0.705,0.892 9.877,0 c 0.065,0.84 0.1,1.756 0.1,2.749 0,1.326 -0.059,2.753 -0.175,4.282 1.614,-0.254 2.625,-0.429 3.026,-0.527 0.403,-0.098 0.606,-0.212 0.606,-0.342 0,-0.102 -0.164,-0.225 -0.485,-0.37 C 11.92,6.539 11.758,6.402 11.758,6.271 L 11.67,2.739 11.519,0.892 l 6.698,0 1.136,1.553 c 0.043,0.058 0.112,0.088 0.212,0.088 0.168,0 0.707,-0.317 1.618,-0.951 0.907,-0.635 1.36,-1.013 1.36,-1.136 0,-0.065 -0.013,-0.119 -0.037,-0.163 l -0.139,-0.066 -9.525,0 -0.064,-0.021 c 0.716,-4.767 4.2,-8.386 10.448,-10.857 l -0.079,-0.338 -1.221,0.044 c -0.893,0.029 -1.838,-0.34 -2.838,-1.108 -4.519,3.282 -6.918,7.375 -7.203,12.28 L 11.543,0.24 C 11.131,-3.999 9.744,-7.026 7.381,-8.841 5.019,-10.656 2.685,-11.893 0.379,-12.552 l -0.771,-0.229 -0.225,0.381 c 6.164,2.854 9.421,7.061 9.763,12.617 l -6.9,0 C 1.709,0.217 0.959,0.145 0,0"
           inkscape:connector-curvature="0" />
      </g>
      <g
         transform="matrix(1.25,0,0,-1.25,314.50391,462.0817)"
         id="g6574">
        <path
           id="path6576"
           style="fill:#4f4c4d;fill-opacity:1;fill-rule:nonzero;stroke:none"
           d="m 0,0 0,-9.626 0.053,-1.713 c 0,-0.472 -0.697,-0.798 -2.075,-0.981 -0.136,0.089 -0.206,0.204 -0.206,0.35 l 0.105,6.148 0,5.822 -2.394,0.022 -0.274,-3.925 c -0.103,-1.418 -0.533,-2.754 -1.285,-4.012 -0.756,-1.257 -2.125,-2.554 -4.109,-3.891 -0.209,0.269 -0.313,0.41 -0.313,0.424 2.31,2.202 3.556,4.642 3.729,7.316 l 0.103,1.548 0,5.178 c 0,1.148 -0.043,2.421 -0.127,3.815 C -6.242,6.3 -5.412,5.996 -4.302,5.559 -2.215,6.345 -0.438,7.232 1.037,8.22 2.235,6.89 2.834,6.151 2.834,6.007 2.834,5.876 2.735,5.812 2.543,5.812 2.457,5.812 2.33,5.835 2.149,5.887 1.976,5.937 1.834,5.963 1.731,5.963 1.517,5.963 1.217,5.908 0.834,5.8 -0.506,5.422 -2.289,5.087 -4.517,4.796 l 0,-4.121 4.441,0 1.091,1.472 C 1.063,2.199 1.146,2.224 1.252,2.224 1.385,2.224 1.769,1.93 2.392,1.345 3.015,0.761 3.328,0.417 3.328,0.315 3.328,0.106 2.951,0 2.201,0 L 0,0 z m -12.229,-4.514 0.317,0.296 c 1.615,-0.881 2.604,-1.468 2.963,-1.766 0.359,-0.299 0.537,-0.629 0.537,-0.993 0,-0.406 -0.14,-0.748 -0.422,-1.019 -0.283,-0.273 -0.535,-0.41 -0.754,-0.41 -0.246,0 -0.559,0.446 -0.938,1.335 -0.39,0.891 -0.953,1.742 -1.703,2.557 m -5.618,8.285 0.252,0.274 c 2.026,-0.698 3.035,-1.483 3.035,-2.357 0,-0.355 -0.141,-0.683 -0.425,-0.985 C -15.274,0.4 -15.56,0.25 -15.836,0.25 c -0.06,0 -0.3,0.475 -0.711,1.424 -0.421,0.948 -0.85,1.648 -1.3,2.097 m 5.3,-7.271 0,-4.251 0.066,-3.543 c 0,-0.254 -0.329,-0.486 -0.989,-0.697 l -0.786,-0.24 -0.225,-0.045 c -0.198,0 -0.293,0.073 -0.293,0.219 l 0.102,2.53 0,6.027 -2.479,0 c -0.464,0 -1.05,-0.083 -1.757,-0.25 l -0.784,0.938 5.056,0 -0.036,2.214 -3.072,-0.023 c -0.465,0 -1.025,-0.069 -1.685,-0.208 l -0.806,0.894 6.813,0 c 0.594,1.366 1.004,2.794 1.239,4.283 l -5.182,0 c -0.178,0 -0.775,-0.079 -1.784,-0.238 l -0.823,0.937 5.278,0 c -0.099,1.359 -0.535,2.347 -1.321,2.965 l 0.252,0.36 c 2.196,-0.625 3.289,-1.301 3.289,-2.027 0,-0.363 -0.291,-0.796 -0.871,-1.298 l 2.328,0 1.088,1.385 c 0.069,0.08 0.158,0.119 0.28,0.119 0.11,0 0.541,-0.31 1.3,-0.937 0.759,-0.625 1.142,-0.969 1.142,-1.035 0,-0.153 -0.129,-0.231 -0.383,-0.231 l -4.173,0 2.123,-0.935 c 0.071,-0.024 0.103,-0.089 0.103,-0.196 0,-0.155 -0.133,-0.248 -0.401,-0.284 -0.263,-0.037 -0.435,-0.091 -0.509,-0.165 -0.875,-1.271 -1.555,-2.165 -2.034,-2.681 l 1.983,0 1.112,1.363 c 0.052,0.043 0.134,0.066 0.24,0.066 0.135,0 0.54,-0.292 1.217,-0.878 0.671,-0.584 1.013,-0.925 1.013,-1.019 0,-0.146 -0.082,-0.217 -0.242,-0.217 l -5.414,0 0,-2.214 1.719,0 1.084,1.188 c 0.064,0.059 0.142,0.086 0.247,0.086 0.098,0 0.179,-0.021 0.239,-0.065 l 1.822,-1.427 c 0.125,-0.102 0.19,-0.197 0.19,-0.284 0,-0.124 -0.074,-0.186 -0.214,-0.186 l -5.062,0 z m -7.688,-6.791 -0.394,0.338 c 1.459,1.976 2.506,3.925 3.137,5.843 l 0.164,0.044 2.11,-1.113 c 0.076,-0.043 0.115,-0.101 0.115,-0.173 0,-0.089 -0.171,-0.21 -0.52,-0.366 -0.342,-0.156 -0.541,-0.289 -0.59,-0.399 -1.231,-1.7 -2.576,-3.091 -4.022,-4.174"
           inkscape:connector-curvature="0" />
      </g>
    </g>
  </g>
</svg>
