<?xml version="1.0" encoding="UTF-8" standalone="no"?>
<!-- Generator: Adobe Illustrator 14.0.0, SVG Export Plug-In . SVG Version: 6.00 Build 43363)  -->

<svg
   xmlns:dc="http://purl.org/dc/elements/1.1/"
   xmlns:cc="http://creativecommons.org/ns#"
   xmlns:rdf="http://www.w3.org/1999/02/22-rdf-syntax-ns#"
   xmlns:svg="http://www.w3.org/2000/svg"
   xmlns="http://www.w3.org/2000/svg"
   xmlns:sodipodi="http://sodipodi.sourceforge.net/DTD/sodipodi-0.dtd"
   xmlns:inkscape="http://www.inkscape.org/namespaces/inkscape"
   version="1.1"
   id="Layer_1"
   x="0px"
   y="0px"
   width="28"
   height="27.282"
   viewBox="0 0 28 27.282"
   enable-background="new 0 0 200 30"
   xml:space="preserve"
   inkscape:version="0.48.2 r9819"
   sodipodi:docname="DBS.svg"><metadata
   id="metadata25"><rdf:RDF><cc:Work
       rdf:about=""><dc:format>image/svg+xml</dc:format><dc:type
         rdf:resource="http://purl.org/dc/dcmitype/StillImage" /><dc:title></dc:title></cc:Work></rdf:RDF></metadata><defs
   id="defs23">
	
	
	
	
	
	
	
	
</defs><sodipodi:namedview
   pagecolor="#ffffff"
   bordercolor="#666666"
   borderopacity="1"
   objecttolerance="10"
   gridtolerance="10"
   guidetolerance="10"
   inkscape:pageopacity="0"
   inkscape:pageshadow="2"
   inkscape:window-width="640"
   inkscape:window-height="480"
   id="namedview21"
   showgrid="false"
   fit-margin-top="0"
   fit-margin-left="0"
   fit-margin-right="0"
   fit-margin-bottom="0"
   inkscape:zoom="1.64"
   inkscape:cx="31.571414"
   inkscape:cy="13.639"
   inkscape:window-x="-10"
   inkscape:window-y="6"
   inkscape:window-maximized="0"
   inkscape:current-layer="Layer_1" />
<path
   style="fill:#ef3b3f;fill-rule:evenodd"
   inkscape:connector-curvature="0"
   id="path13"
   d="m 22.291,22.116 -6.634,-5.529 -0.18,-0.107 -0.462,-0.355 -0.537,-0.25 -0.354,-0.107 -0.465,-0.07 -0.356,0.07 -0.357,0.107 -0.534,0.25 -0.464,0.355 -0.178,0.107 -6.671,5.529 5.601,-6.6 0.178,-0.178 0.285,-0.357 0.251,-0.641 0.07,-0.357 0.106,-0.356 -0.106,-0.357 -0.07,-0.356 -0.251,-0.606 -0.285,-0.464 -0.178,-0.178 -5.601,-6.599 6.671,5.528 0.178,0.178 0.464,0.286 0.534,0.25 0.357,0.179 h 0.821 l 0.354,-0.179 0.537,-0.25 0.462,-0.286 0.18,-0.178 6.634,-5.528 -5.564,6.599 -0.179,0.178 -0.285,0.464 -0.284,0.606 -0.071,0.356 -0.107,0.357 0.107,0.356 0.071,0.357 0.284,0.641 0.285,0.357 0.179,0.178 5.564,6.6 m 3.068,-8.49 0,0 0.071,-1.32 0.178,-1.427 0.214,-0.714 0.179,-0.892 0.32,-0.891 0.465,-0.999 0.534,-1.07 0.107,-0.464 V 5.421 L 27.32,4.993 27.142,4.529 26.786,3.994 26.428,3.638 26.001,3.46 25.608,3.281 25.18,3.211 24.824,3.281 H 24.431 L 23.825,3.531 24.11,2.925 24.181,2.568 V 2.212 L 24.11,1.784 24.004,1.391 23.753,1.033 23.362,0.606 22.933,0.25 22.363,0.071 21.935,0 H 21.506 L 21.043,0.143 20.688,0.25 19.937,0.606 18.974,1.033 18.046,1.391 17.261,1.677 16.442,1.854 15.016,1.926 13.66,2.033 12.412,1.926 10.985,1.854 10.164,1.677 9.343,1.391 8.452,1.033 7.453,0.606 6.74,0.25 6.383,0.143 5.919,0 H 5.455 L 5.026,0.071 4.492,0.25 4.028,0.606 3.671,1.033 3.423,1.391 3.315,1.784 3.209,2.212 V 2.568 L 3.315,2.925 3.602,3.531 2.958,3.281 H 2.602 L 2.245,3.211 1.782,3.281 1.426,3.46 0.963,3.638 0.641,3.994 0.285,4.529 0,4.993 v 0.856 l 0.071,0.464 0.214,0.356 0.356,0.713 0.429,0.999 0.356,0.891 0.178,0.892 0.179,0.714 0.18,1.427 0.106,1.32 L 1.963,14.98 1.783,16.3 1.604,17.12 1.426,17.905 1.07,18.831 0.641,19.796 0.285,20.509 0.071,20.866 0,21.294 v 0.926 l 0.285,0.5 0.356,0.572 0.322,0.248 0.463,0.285 0.356,0.072 0.463,0.107 h 0.357 l 0.356,-0.107 0.644,-0.25 -0.287,0.607 -0.106,0.355 v 0.465 l 0.215,0.713 0.248,0.428 0.357,0.355 0.464,0.357 0.534,0.287 0.429,0.068 0.464,-0.068 0.464,-0.107 1.069,-0.537 0.999,-0.428 0.891,-0.283 0.821,-0.252 0.821,-0.178 1.427,-0.178 h 2.604 l 1.426,0.178 0.819,0.178 0.785,0.252 0.928,0.283 0.963,0.428 0.751,0.357 0.355,0.18 0.464,0.107 0.429,0.068 0.428,-0.068 0.57,-0.287 0.429,-0.357 0.391,-0.355 0.251,-0.428 0.106,-0.357 0.071,-0.355 V 24.61 l -0.071,-0.355 -0.285,-0.607 0.606,0.25 0.393,0.107 h 0.356 l 0.428,-0.107 0.393,-0.072 0.427,-0.285 0.358,-0.248 0.356,-0.572 0.178,-0.5 0.107,-0.463 v -0.463 l -0.107,-0.428 -0.534,-1.07 -0.465,-0.965 -0.32,-0.926 -0.179,-0.785 -0.214,-0.82 -0.178,-1.32 -0.072,-1.355 z"
   clip-rule="evenodd" />
</svg>