<?xml version="1.0" encoding="UTF-8" standalone="no"?>
<!-- Generator: Adobe Illustrator 14.0.0, SVG Export Plug-In . SVG Version: 6.00 Build 43363)  -->

<svg
   xmlns:dc="http://purl.org/dc/elements/1.1/"
   xmlns:cc="http://creativecommons.org/ns#"
   xmlns:rdf="http://www.w3.org/1999/02/22-rdf-syntax-ns#"
   xmlns:svg="http://www.w3.org/2000/svg"
   xmlns="http://www.w3.org/2000/svg"
   xmlns:sodipodi="http://sodipodi.sourceforge.net/DTD/sodipodi-0.dtd"
   xmlns:inkscape="http://www.inkscape.org/namespaces/inkscape"
   version="1.1"
   id="Layer_1"
   x="0px"
   y="0px"
   width="94.237"
   height="27.282"
   viewBox="0 0 94.237 27.282"
   enable-background="new 0 0 200 30"
   xml:space="preserve"
   inkscape:version="0.48.2 r9819"
   sodipodi:docname="DBS.svg"><metadata
   id="metadata25"><rdf:RDF><cc:Work
       rdf:about=""><dc:format>image/svg+xml</dc:format><dc:type
         rdf:resource="http://purl.org/dc/dcmitype/StillImage" /><dc:title></dc:title></cc:Work></rdf:RDF></metadata><defs
   id="defs23">
	
	
	
	
	
	
	
	
</defs><sodipodi:namedview
   pagecolor="#ffffff"
   bordercolor="#666666"
   borderopacity="1"
   objecttolerance="10"
   gridtolerance="10"
   guidetolerance="10"
   inkscape:pageopacity="0"
   inkscape:pageshadow="2"
   inkscape:window-width="640"
   inkscape:window-height="480"
   id="namedview21"
   showgrid="false"
   fit-margin-top="0"
   fit-margin-left="0"
   fit-margin-right="0"
   fit-margin-bottom="0"
   inkscape:zoom="1.64"
   inkscape:cx="31.571414"
   inkscape:cy="13.639"
   inkscape:window-x="-10"
   inkscape:window-y="6"
   inkscape:window-maximized="0"
   inkscape:current-layer="Layer_1" />
<polyline
   style="fill:#010101;fill-rule:evenodd"
   id="polyline7"
   points="198.18,2.962 198.358,2.962 198.465,7.243 198.18,7.243    198.002,6.6 197.646,5.993 197.183,5.352 196.575,4.852 195.862,4.389 194.935,4.032 193.864,3.748 192.688,3.675 191.261,3.675    190.619,3.748 189.977,3.925 189.548,4.103 189.013,4.389 188.656,4.674 188.192,4.924 187.657,5.637 187.229,6.458 186.944,7.243    186.873,8.027 186.873,8.562 186.944,9.133 187.052,9.561 187.229,9.918 187.729,10.63 188.479,11.167 189.299,11.522    190.262,11.88 192.688,12.593 193.508,12.771 194.614,13.021 195.862,13.484 196.504,13.77 197.109,14.091 197.753,14.555    198.287,15.09 198.823,15.697 199.286,16.48 199.644,17.301 199.82,18.301 200,19.369 200,20.512 199.82,21.402 199.644,22.225    199.357,22.938 199.001,23.65 198.538,24.258 198.11,24.793 197.466,25.326 196.861,25.754 196.11,26.219 195.397,26.576    194.507,26.826 193.687,27.004 192.688,27.182 191.725,27.289 190.726,27.396 189.191,27.396 187.943,27.182 186.124,26.932    183.807,26.326 183.342,26.326 183.056,26.398 182.878,26.576 182.734,26.826 182.414,26.826 182.414,22.225 182.734,22.225    182.985,23.186 183.234,23.723 183.413,23.971 183.807,24.363 184.412,24.898 184.875,25.148 185.41,25.506 186.124,25.754    186.944,26.041 187.943,26.219 190.262,26.219 191.367,26.041 192.366,25.684 193.257,25.148 193.615,24.898 193.972,24.543    194.327,24.078 194.614,23.65 194.863,23.186 195.042,22.652 195.22,22.045 195.291,21.402 195.291,20.512 195.22,19.977    195.042,19.369 194.791,18.834 194.436,18.193 193.864,17.766 193.15,17.301 192.366,17.053 191.367,16.766 189.013,16.16    187.729,15.697 186.588,15.269 185.482,14.733 184.982,14.376 184.519,14.091 184.163,13.77 183.699,13.305 183.234,12.664    182.808,11.951 182.414,11.06 182.344,10.56 182.272,9.989 182.272,8.74 182.414,7.885 182.628,7.064 182.985,6.351 183.342,5.709    183.699,5.173 184.233,4.674 184.804,4.21 185.303,3.854 185.947,3.604 186.588,3.318 187.837,2.89 189.299,2.676 190.619,2.606    191.261,2.606 192.616,2.676 194.614,2.89 195.576,3.069 196.575,3.248 197.038,3.318 197.359,3.318 197.753,3.248 198.002,3.069    198.18,2.962  "
   clip-rule="evenodd"
   transform="translate(-105.763,-1.357)" /><path
   style="fill:#010101;fill-rule:evenodd"
   inkscape:connector-curvature="0"
   id="path9"
   d="m 70.944,19.797 0,0 -0.178,1.248 -0.285,0.998 -0.356,0.893 -0.536,0.605 -0.535,0.465 -0.535,0.25 -0.57,0.285 -0.535,0.107 -1.069,0.178 -1.284,0.07 -2.498,-0.07 h -0.462 l -0.358,-0.109 -0.285,-0.176 -0.142,-0.18 -0.107,-0.178 V 24.005 L 61.137,23.54 61.209,17.835 61.458,3.28 61.565,2.71 61.636,2.46 62.028,2.39 h 2.782 l 0.714,0.07 0.928,0.178 0.785,0.356 0.463,0.286 0.714,0.713 0.285,0.428 0.249,0.537 0.286,0.712 0.071,0.75 0.107,0.784 v 0.892 l -0.107,0.785 -0.25,0.642 -0.356,0.606 -0.356,0.57 -0.464,0.428 -0.464,0.357 -0.535,0.356 -1.07,0.464 -1.105,0.249 -0.893,0.179 h -0.604 l -0.106,0.107 0.106,0.179 1.426,0.072 1.427,0.285 0.749,0.25 0.606,0.214 0.643,0.321 1.07,0.714 0.463,0.568 0.356,0.5 0.357,0.643 0.285,0.643 0.179,0.783 0.071,0.893 0.104,0.893 m -1.641,-7.063 0,0 0.999,-0.428 0.82,-0.464 0.892,-0.713 0.428,-0.356 0.392,-0.464 0.358,-0.499 0.356,-0.536 0.285,-0.642 0.179,-0.606 0.07,-0.749 V 6.491 L 73.903,5.493 73.654,4.708 73.262,3.995 72.832,3.46 72.264,2.889 71.764,2.461 71.121,2.212 70.371,1.926 69.766,1.747 69.052,1.677 67.769,1.498 H 54.998 v 0.249 h 0.356 l 0.357,0.179 0.25,0.179 0.285,0.286 0.178,0.321 0.071,0.463 0.108,0.642 v 0.606 l -0.108,18.619 v 0.607 l -0.071,0.428 -0.178,0.465 -0.428,0.535 -0.394,0.178 -0.355,0.178 -0.357,0.072 v 0.285 h 14.161 l 0.821,-0.107 0.962,-0.072 1.106,-0.355 0.5,-0.178 0.568,-0.25 0.536,-0.393 0.464,-0.428 0.429,-0.465 0.462,-0.605 0.357,-0.643 0.249,-0.713 0.179,-0.893 0.106,-0.891 V 19.19 l -0.106,-0.82 -0.248,-0.963 -0.18,-0.463 -0.357,-0.535 -0.284,-0.535 -0.428,-0.535 -0.571,-0.535 -0.607,-0.463 -0.712,-0.428 -0.821,-0.465 -0.928,-0.356 -1.067,-0.358 z"
   clip-rule="evenodd" /><path
   style="fill:#010101;fill-rule:evenodd"
   inkscape:connector-curvature="0"
   id="path11"
   d="m 45.048,24.184 0,0 -1.354,0.465 -1.535,0.178 -1.496,0.07 L 38.95,24.827 38.485,24.718 38.129,24.65 37.844,24.435 37.774,24.257 37.595,23.9 37.488,23.543 V 19.799 L 37.382,13.378 37.488,7.1 37.595,3.462 37.667,2.82 l 0.106,-0.179 0.07,-0.178 0.179,-0.07 h 0.82 l 2.141,0.07 1.105,0.107 0.963,0.25 0.928,0.286 0.784,0.427 0.821,0.463 0.712,0.535 0.536,0.714 0.643,0.606 0.428,0.82 0.463,0.785 0.358,0.891 0.248,0.927 0.286,0.964 0.178,1.07 0.25,2.14 v 2.176 l -0.07,0.963 -0.072,0.998 -0.285,0.893 -0.18,0.783 -0.354,0.822 -0.287,0.713 -0.463,0.643 -0.32,0.605 -0.358,0.535 -0.463,0.463 -0.463,0.322 -0.464,0.357 -0.429,0.285 -0.43,0.178 M 42.694,1.498 H 31.316 v 0.249 l 0.535,0.179 0.534,0.286 0.357,0.427 0.07,0.25 v 0.393 l 0.106,1.605 0.071,2.568 0.108,6.706 -0.108,6.634 -0.071,2.318 -0.106,1.32 -0.25,0.393 -0.356,0.25 -0.535,0.248 -0.535,0.18 v 0.285 h 12.842 l 0.855,-0.107 0.999,-0.178 0.999,-0.25 0.891,-0.357 0.893,-0.463 0.928,-0.535 0.784,-0.678 0.82,-0.748 0.713,-0.785 0.644,-0.893 0.535,-1.105 0.534,-1.035 0.356,-1.178 0.357,-1.246 0.179,-1.25 v -2.96 L 54.18,10.594 53.823,9.274 53.359,8.026 52.753,6.922 52.111,5.958 51.326,5.067 50.506,4.247 49.615,3.533 48.723,2.997 47.722,2.462 46.724,2.106 45.761,1.855 44.655,1.571 43.693,1.499 h -0.999 z"
   clip-rule="evenodd" /><path
   style="fill:#ef3b3f;fill-rule:evenodd"
   inkscape:connector-curvature="0"
   id="path13"
   d="m 22.291,22.116 -6.634,-5.529 -0.18,-0.107 -0.462,-0.355 -0.537,-0.25 -0.354,-0.107 -0.465,-0.07 -0.356,0.07 -0.357,0.107 -0.534,0.25 -0.464,0.355 -0.178,0.107 -6.671,5.529 5.601,-6.6 0.178,-0.178 0.285,-0.357 0.251,-0.641 0.07,-0.357 0.106,-0.356 -0.106,-0.357 -0.07,-0.356 -0.251,-0.606 -0.285,-0.464 -0.178,-0.178 -5.601,-6.599 6.671,5.528 0.178,0.178 0.464,0.286 0.534,0.25 0.357,0.179 h 0.821 l 0.354,-0.179 0.537,-0.25 0.462,-0.286 0.18,-0.178 6.634,-5.528 -5.564,6.599 -0.179,0.178 -0.285,0.464 -0.284,0.606 -0.071,0.356 -0.107,0.357 0.107,0.356 0.071,0.357 0.284,0.641 0.285,0.357 0.179,0.178 5.564,6.6 m 3.068,-8.49 0,0 0.071,-1.32 0.178,-1.427 0.214,-0.714 0.179,-0.892 0.32,-0.891 0.465,-0.999 0.534,-1.07 0.107,-0.464 V 5.421 L 27.32,4.993 27.142,4.529 26.786,3.994 26.428,3.638 26.001,3.46 25.608,3.281 25.18,3.211 24.824,3.281 H 24.431 L 23.825,3.531 24.11,2.925 24.181,2.568 V 2.212 L 24.11,1.784 24.004,1.391 23.753,1.033 23.362,0.606 22.933,0.25 22.363,0.071 21.935,0 H 21.506 L 21.043,0.143 20.688,0.25 19.937,0.606 18.974,1.033 18.046,1.391 17.261,1.677 16.442,1.854 15.016,1.926 13.66,2.033 12.412,1.926 10.985,1.854 10.164,1.677 9.343,1.391 8.452,1.033 7.453,0.606 6.74,0.25 6.383,0.143 5.919,0 H 5.455 L 5.026,0.071 4.492,0.25 4.028,0.606 3.671,1.033 3.423,1.391 3.315,1.784 3.209,2.212 V 2.568 L 3.315,2.925 3.602,3.531 2.958,3.281 H 2.602 L 2.245,3.211 1.782,3.281 1.426,3.46 0.963,3.638 0.641,3.994 0.285,4.529 0,4.993 v 0.856 l 0.071,0.464 0.214,0.356 0.356,0.713 0.429,0.999 0.356,0.891 0.178,0.892 0.179,0.714 0.18,1.427 0.106,1.32 L 1.963,14.98 1.783,16.3 1.604,17.12 1.426,17.905 1.07,18.831 0.641,19.796 0.285,20.509 0.071,20.866 0,21.294 v 0.926 l 0.285,0.5 0.356,0.572 0.322,0.248 0.463,0.285 0.356,0.072 0.463,0.107 h 0.357 l 0.356,-0.107 0.644,-0.25 -0.287,0.607 -0.106,0.355 v 0.465 l 0.215,0.713 0.248,0.428 0.357,0.355 0.464,0.357 0.534,0.287 0.429,0.068 0.464,-0.068 0.464,-0.107 1.069,-0.537 0.999,-0.428 0.891,-0.283 0.821,-0.252 0.821,-0.178 1.427,-0.178 h 2.604 l 1.426,0.178 0.819,0.178 0.785,0.252 0.928,0.283 0.963,0.428 0.751,0.357 0.355,0.18 0.464,0.107 0.429,0.068 0.428,-0.068 0.57,-0.287 0.429,-0.357 0.391,-0.355 0.251,-0.428 0.106,-0.357 0.071,-0.355 V 24.61 l -0.071,-0.355 -0.285,-0.607 0.606,0.25 0.393,0.107 h 0.356 l 0.428,-0.107 0.393,-0.072 0.427,-0.285 0.358,-0.248 0.356,-0.572 0.178,-0.5 0.107,-0.463 v -0.463 l -0.107,-0.428 -0.534,-1.07 -0.465,-0.965 -0.32,-0.926 -0.179,-0.785 -0.214,-0.82 -0.178,-1.32 -0.072,-1.355 z"
   clip-rule="evenodd" />
</svg>