<?xml version="1.0" encoding="UTF-8" standalone="no"?>
<!-- Created with Inkscape (http://www.inkscape.org/) -->

<svg
   xmlns:dc="http://purl.org/dc/elements/1.1/"
   xmlns:cc="http://creativecommons.org/ns#"
   xmlns:rdf="http://www.w3.org/1999/02/22-rdf-syntax-ns#"
   xmlns:svg="http://www.w3.org/2000/svg"
   xmlns="http://www.w3.org/2000/svg"
   xmlns:sodipodi="http://sodipodi.sourceforge.net/DTD/sodipodi-0.dtd"
   xmlns:inkscape="http://www.inkscape.org/namespaces/inkscape"
   width="42.37013"
   height="42.43721"
   id="svg3857"
   version="1.1"
   inkscape:version="0.48.1 r9760"
   sodipodi:docname="New document 4">
  <defs
     id="defs3859">
    <clipPath
       id="clipPath3151"
       clipPathUnits="userSpaceOnUse">
      <path
         inkscape:connector-curvature="0"
         id="path3153"
         d="m 0,0 1241.575,0 0,807.874 L 0,807.874 0,0 z" />
    </clipPath>
    <clipPath
       id="clipPath3123"
       clipPathUnits="userSpaceOnUse">
      <path
         inkscape:connector-curvature="0"
         id="path3125"
         d="m 0,0 1241.575,0 0,807.874 L 0,807.874 0,0 z" />
    </clipPath>
    <clipPath
       id="clipPath3093"
       clipPathUnits="userSpaceOnUse">
      <path
         inkscape:connector-curvature="0"
         id="path3095"
         d="m 0,0 1241.575,0 0,807.874 L 0,807.874 0,0 z" />
    </clipPath>
    <clipPath
       id="clipPath3079"
       clipPathUnits="userSpaceOnUse">
      <path
         inkscape:connector-curvature="0"
         id="path3081"
         d="m 0,0 1241.575,0 0,807.874 L 0,807.874 0,0 z" />
    </clipPath>
  </defs>
  <sodipodi:namedview
     id="base"
     pagecolor="#ffffff"
     bordercolor="#666666"
     borderopacity="1.0"
     inkscape:pageopacity="0.0"
     inkscape:pageshadow="2"
     inkscape:zoom="2.8"
     inkscape:cx="138.49066"
     inkscape:cy="-16.323862"
     inkscape:document-units="px"
     inkscape:current-layer="layer1"
     showgrid="false"
     fit-margin-top="0"
     fit-margin-left="0"
     fit-margin-right="0"
     fit-margin-bottom="0"
     inkscape:window-width="1920"
     inkscape:window-height="1024"
     inkscape:window-x="-4"
     inkscape:window-y="-4"
     inkscape:window-maximized="1" />
  <metadata
     id="metadata3862">
    <rdf:RDF>
      <cc:Work
         rdf:about="">
        <dc:format>image/svg+xml</dc:format>
        <dc:type
           rdf:resource="http://purl.org/dc/dcmitype/StillImage" />
        <dc:title></dc:title>
      </cc:Work>
    </rdf:RDF>
  </metadata>
  <g
     inkscape:label="Layer 1"
     inkscape:groupmode="layer"
     id="layer1"
     transform="translate(-255.17205,-476.85784)">
    <g
       id="g4000">
      <g
         transform="matrix(1.25,0,0,-1.25,285.60693,497.85255)"
         id="g3135">
        <path
           id="path3137"
           style="fill:#009e9c;fill-opacity:1;fill-rule:nonzero;stroke:none"
           d="M 0,0 C -0.017,-0.012 0.017,0.004 0,0 0,0 -0.002,-0.098 0.284,-0.299 2.077,-1.742 3.025,-3.133 3.013,-5.975 3,-9.521 -0.076,-12.096 -3.571,-12.096 l 0,-4.902 c 6.085,0 11.612,4.338 11.612,10.519 0,2.213 -0.603,4.391 -2.109,6.514 0.067,0.086 0.391,0.47 0.657,0.944 0.373,0.654 0.442,1.453 0.442,4.119 l 0,11.555 -15.608,0 0,-9.21 -4.973,0 0,-5.055 10.059,0 0,9.085 5.615,0 0,-7.839 C 2.124,3.634 2.353,1.447 0,0"
           inkscape:connector-curvature="0" />
      </g>
      <g
         transform="matrix(1.25,0,0,-1.25,268.7308,477.03568)"
         id="g3139">
        <path
           id="path3141"
           style="fill:#008fc7;fill-opacity:1;fill-rule:nonzero;stroke:none"
           d="m 0,0 -1.446,0 0,-0.008 c -2.65,-0.068 -5.423,-0.906 -7.268,-3.003 -1.948,-2.217 -2.133,-4.183 -2.133,-7.431 l 0,-23.204 15.852,0 0,9.109 5.018,0 0,5.114 -10.068,0 0,-9.18 -5.756,0 0,19.232 c 0,0 -0.375,4.179 4.653,4.292 L 0.003,-5.022 0,0 z"
           inkscape:connector-curvature="0" />
      </g>
    </g>
  </g>
</svg>
