<?xml version="1.0" encoding="UTF-8" standalone="no"?>
<!-- Created with Inkscape (http://www.inkscape.org/) -->

<svg
   xmlns:dc="http://purl.org/dc/elements/1.1/"
   xmlns:cc="http://creativecommons.org/ns#"
   xmlns:rdf="http://www.w3.org/1999/02/22-rdf-syntax-ns#"
   xmlns:svg="http://www.w3.org/2000/svg"
   xmlns="http://www.w3.org/2000/svg"
   xmlns:sodipodi="http://sodipodi.sourceforge.net/DTD/sodipodi-0.dtd"
   xmlns:inkscape="http://www.inkscape.org/namespaces/inkscape"
   width="175.37013"
   height="42.43721"
   id="svg3857"
   version="1.1"
   inkscape:version="0.48.1 r9760"
   sodipodi:docname="New document 4">
  <defs
     id="defs3859">
    <clipPath
       id="clipPath3151"
       clipPathUnits="userSpaceOnUse">
      <path
         inkscape:connector-curvature="0"
         id="path3153"
         d="m 0,0 1241.575,0 0,807.874 L 0,807.874 0,0 z" />
    </clipPath>
    <clipPath
       id="clipPath3123"
       clipPathUnits="userSpaceOnUse">
      <path
         inkscape:connector-curvature="0"
         id="path3125"
         d="m 0,0 1241.575,0 0,807.874 L 0,807.874 0,0 z" />
    </clipPath>
    <clipPath
       id="clipPath3093"
       clipPathUnits="userSpaceOnUse">
      <path
         inkscape:connector-curvature="0"
         id="path3095"
         d="m 0,0 1241.575,0 0,807.874 L 0,807.874 0,0 z" />
    </clipPath>
    <clipPath
       id="clipPath3079"
       clipPathUnits="userSpaceOnUse">
      <path
         inkscape:connector-curvature="0"
         id="path3081"
         d="m 0,0 1241.575,0 0,807.874 L 0,807.874 0,0 z" />
    </clipPath>
  </defs>
  <sodipodi:namedview
     id="base"
     pagecolor="#ffffff"
     bordercolor="#666666"
     borderopacity="1.0"
     inkscape:pageopacity="0.0"
     inkscape:pageshadow="2"
     inkscape:zoom="2.8"
     inkscape:cx="138.49066"
     inkscape:cy="-16.323862"
     inkscape:document-units="px"
     inkscape:current-layer="layer1"
     showgrid="false"
     fit-margin-top="0"
     fit-margin-left="0"
     fit-margin-right="0"
     fit-margin-bottom="0"
     inkscape:window-width="1920"
     inkscape:window-height="1024"
     inkscape:window-x="-4"
     inkscape:window-y="-4"
     inkscape:window-maximized="1" />
  <metadata
     id="metadata3862">
    <rdf:RDF>
      <cc:Work
         rdf:about="">
        <dc:format>image/svg+xml</dc:format>
        <dc:type
           rdf:resource="http://purl.org/dc/dcmitype/StillImage" />
        <dc:title></dc:title>
      </cc:Work>
    </rdf:RDF>
  </metadata>
  <g
     inkscape:label="Layer 1"
     inkscape:groupmode="layer"
     id="layer1"
     transform="translate(-255.17205,-476.85784)">
    <g
       id="g4000">
      <g
         transform="matrix(1.25,0,0,-1.25,285.60693,497.85255)"
         id="g3135">
        <path
           id="path3137"
           style="fill:#009e9c;fill-opacity:1;fill-rule:nonzero;stroke:none"
           d="M 0,0 C -0.017,-0.012 0.017,0.004 0,0 0,0 -0.002,-0.098 0.284,-0.299 2.077,-1.742 3.025,-3.133 3.013,-5.975 3,-9.521 -0.076,-12.096 -3.571,-12.096 l 0,-4.902 c 6.085,0 11.612,4.338 11.612,10.519 0,2.213 -0.603,4.391 -2.109,6.514 0.067,0.086 0.391,0.47 0.657,0.944 0.373,0.654 0.442,1.453 0.442,4.119 l 0,11.555 -15.608,0 0,-9.21 -4.973,0 0,-5.055 10.059,0 0,9.085 5.615,0 0,-7.839 C 2.124,3.634 2.353,1.447 0,0"
           inkscape:connector-curvature="0" />
      </g>
      <g
         transform="matrix(1.25,0,0,-1.25,268.7308,477.03568)"
         id="g3139">
        <path
           id="path3141"
           style="fill:#008fc7;fill-opacity:1;fill-rule:nonzero;stroke:none"
           d="m 0,0 -1.446,0 0,-0.008 c -2.65,-0.068 -5.423,-0.906 -7.268,-3.003 -1.948,-2.217 -2.133,-4.183 -2.133,-7.431 l 0,-23.204 15.852,0 0,9.109 5.018,0 0,5.114 -10.068,0 0,-9.18 -5.756,0 0,19.232 c 0,0 -0.375,4.179 4.653,4.292 L 0.003,-5.022 0,0 z"
           inkscape:connector-curvature="0" />
      </g>
    </g>
    <g
       id="g4111">
      <path
         inkscape:connector-curvature="0"
         d="m 340.14926,488.20269 0,-11.32 7.63125,0 0,1.87875 -5.09625,0 0,2.7275 4.75875,0 0,1.8775 -4.75875,0 0,4.83625 -2.535,0 z"
         style="fill:#000000;fill-opacity:1;fill-rule:nonzero;stroke:none"
         id="path3145" />
      <g
         transform="matrix(1.25,0,0,-1.25,354.82455,487.22693)"
         id="g3155">
        <path
           id="path3157"
           style="fill:#000000;fill-opacity:1;fill-rule:nonzero;stroke:none"
           d="m 0,0 c -0.419,-0.58 -1.033,-0.967 -2.031,-0.967 -0.653,0 -1.927,0.478 -2.167,1.391 -0.105,0.394 -0.129,0.795 -0.129,1.005 l 0,4.094 1.966,0 0,-3.778 c 0.015,-0.681 0.21,-1.458 1.185,-1.458 0.613,0 1.152,0.538 1.176,1.458 l 0,3.778 1.967,0 0,-5.171 c 0.011,-0.378 0.041,-0.758 0.078,-1.133 l -1.965,0 L 0,0 z"
           inkscape:connector-curvature="0" />
      </g>
      <g
         transform="matrix(1.25,0,0,-1.25,359.50717,486.6293)"
         id="g3159">
        <path
           id="path3161"
           style="fill:#000000;fill-opacity:1;fill-rule:nonzero;stroke:none"
           d="m 0,0 c 0,-0.418 -0.039,-0.844 -0.065,-1.259 l 1.969,0 c 0.022,0.304 0.051,0.595 0.051,0.892 l 0.025,0 C 2.418,-1.106 3.15,-1.445 4,-1.445 c 1.927,0 2.835,1.717 2.835,3.336 0,1.691 -1.035,3.335 -3.082,3.335 -0.685,0 -1.394,-0.388 -1.759,-0.913 l -0.026,0 0,3.484 L 0,7.797 0,0 z m 1.968,1.891 c 0,0.866 0.352,2.082 1.417,2.082 1.257,0 1.417,-1.118 1.417,-2.082 0,-0.966 -0.16,-2.082 -1.417,-2.082 -1.065,0 -1.417,1.212 -1.417,2.082"
           inkscape:connector-curvature="0" />
      </g>
      <g
         transform="matrix(1.25,0,0,-1.25,377.96543,484.2653)"
         id="g3163">
        <path
           id="path3165"
           style="fill:#000000;fill-opacity:1;fill-rule:nonzero;stroke:none"
           d="m 0,0 c 0,1.981 -1.284,3.335 -3.435,3.335 -2.15,0 -3.437,-1.354 -3.437,-3.335 0,-1.975 1.287,-3.337 3.437,-3.337 C -1.284,-3.337 0,-1.975 0,0 m -4.837,0 c 0,1.003 0.196,2.082 1.402,2.082 1.212,0 1.405,-1.079 1.405,-2.082 0,-1.003 -0.193,-2.082 -1.405,-2.082 -1.206,0 -1.402,1.079 -1.402,2.082"
           inkscape:connector-curvature="0" />
      </g>
      <g
         transform="matrix(1.25,0,0,-1.25,381.82392,481.23818)"
         id="g3167">
        <path
           id="path3169"
           style="fill:#000000;fill-opacity:1;fill-rule:nonzero;stroke:none"
           d="m 0,0 0.027,-0.039 c 0.409,0.572 1.024,0.952 2.022,0.952 0.655,0 1.924,-0.461 2.164,-1.378 0.102,-0.389 0.131,-0.795 0.131,-1.006 l 0,-4.101 -1.967,0 0,3.791 C 2.362,-1.109 2.166,-0.34 1.193,-0.34 0.574,-0.34 0.041,-0.865 0.019,-1.781 l 0,-3.791 -1.968,0 0,6.304 L 0,0.732 0,0 z"
           inkscape:connector-curvature="0" />
      </g>
      <g
         transform="matrix(1.25,0,0,-1.25,396.19417,486.35455)"
         id="g3171">
        <path
           id="path3173"
           style="fill:#000000;fill-opacity:1;fill-rule:nonzero;stroke:none"
           d="M 0,0 C 0.961,0 1.62,0.165 1.62,1.212 1.62,2.257 0.961,2.421 0,2.421 l -1.594,0 L -1.594,0 0,0 z m 0,3.934 c 0.855,0 1.328,0.341 1.328,1.072 0,0.731 -0.473,1.071 -1.328,1.071 l -1.594,0 0,-2.143 1.594,0 z m -3.635,-5.442 0,9.096 3.57,0 C 1.633,7.687 3.373,7.008 3.373,5.236 3.373,4.239 2.646,3.542 1.7,3.239 L 1.7,3.21 C 2.897,2.975 3.795,2.183 3.795,0.85 c 0,-1.807 -2.371,-2.46 -3.834,-2.358 l -3.596,0 z"
           inkscape:connector-curvature="0" />
      </g>
      <g
         transform="matrix(1.25,0,0,-1.25,404.55592,485.76943)"
         id="g3175">
        <path
           id="path3177"
           style="fill:#000000;fill-opacity:1;fill-rule:nonzero;stroke:none"
           d="m 0,0 c 0,-0.525 0.41,-0.908 0.963,-0.908 1.094,0 1.133,1.161 1.133,1.906 C 1.412,1.009 0,1.017 0,0 m -1.592,2.561 c 0.011,0.787 0.367,1.283 0.896,1.571 0.54,0.307 1.239,0.406 1.946,0.406 1.332,0 2.822,-0.466 2.822,-2.371 l 0,-3.453 c 0.012,-0.313 0.066,-0.503 0.092,-0.69 l -1.779,0 c -0.04,0.291 -0.065,0.58 -0.065,0.842 l -0.026,0 C 1.847,-1.863 1.162,-2.168 0.263,-2.168 c -1.236,0 -2.158,0.686 -2.158,1.915 0,0.442 0.211,1.512 1.41,2.005 0.788,0.325 1.791,0.366 2.581,0.337 l 0,0.595 c 0,0.266 -0.212,0.782 -0.908,0.782 -0.686,0 -0.911,-0.618 -0.885,-0.905 l -1.895,0 z"
           inkscape:connector-curvature="0" />
      </g>
      <g
         transform="matrix(1.25,0,0,-1.25,414.20917,481.24405)"
         id="g3179">
        <path
           id="path3181"
           style="fill:#000000;fill-opacity:1;fill-rule:nonzero;stroke:none"
           d="m 0,0 0.022,-0.04 c 0.41,0.578 1.029,0.958 2.031,0.958 0.657,0 1.935,-0.466 2.174,-1.39 0.103,-0.388 0.13,-0.791 0.13,-1.007 l 0,-4.117 -1.974,0 0,3.805 c -0.014,0.678 -0.211,1.45 -1.188,1.45 -0.616,0 -1.157,-0.538 -1.183,-1.45 l 0,-3.805 -1.978,0 0,6.326 L 0,0.73 0,0 z"
           inkscape:connector-curvature="0" />
      </g>
      <g
         transform="matrix(1.25,0,0,-1.25,424.29966,483.53307)"
         id="g3183">
        <path
           id="path3185"
           style="fill:#000000;fill-opacity:1;fill-rule:nonzero;stroke:none"
           d="m 0,0 0.027,-0.026 1.95,2.656 2.2,0 -2.282,-2.769 2.425,-3.626 -2.304,0 L 0.027,-0.302 0,-0.327 l 0,-3.438 -1.977,0 0,9.096 L 0,5.331 0,0 z"
           inkscape:connector-curvature="0" />
      </g>
    </g>
    <g
       id="g4049">
      <g
         transform="matrix(1.25,0,0,-1.25,-1080.3007,1415.8338)"
         id="g3075">
        <g
           clip-path="url(#clipPath3079)"
           id="g3077">
          <path
             id="path3083"
             style="fill:#000000;fill-opacity:1;fill-rule:nonzero;stroke:none"
             d="m 1113.546,719.51 5.01,0 0,1.076 -5.01,0 0,-1.076 z m 7.477,0.01 5.014,0 0,1.082 -5.014,0 0,-1.082 z m -7.477,2.761 5.01,0 0,1.078 -5.01,0 0,-1.078 z m 7.477,0.003 5.014,0 0,1.082 -5.014,0 0,-1.082 z m -10.175,-5.053 0,7.933 16.072,0 c 0.37,0 0.788,-0.223 0.788,-0.223 0.604,-0.298 0.993,-0.868 1.026,-1.53 l 0,-6.18 -2.697,0 0,0.545 -12.501,0 0,-0.545 -2.688,0 z"
             inkscape:connector-curvature="0" />
          <path
             id="path3085"
             style="fill:#000000;fill-opacity:1;fill-rule:nonzero;stroke:none"
             d="m 1115.508,727.844 8.092,0 0,1.384 -8.092,0 0,-1.384 z m 10.615,1.75 c 0,-0.039 0,-3.272 0,-3.272 l -12.959,-0.011 0,4.508 11.391,0 c 1.66,0.002 1.568,-1.225 1.568,-1.225"
             inkscape:connector-curvature="0" />
        </g>
      </g>
      <path
         id="path3087"
         style="fill:#000000;fill-opacity:1;fill-rule:nonzero;stroke:none"
         d="m 311.13938,501.23632 16.21248,0 0,-2.115 -16.21248,0 0,2.115 z"
         inkscape:connector-curvature="0" />
      <g
         transform="matrix(1.25,0,0,-1.25,-1080.3007,1415.8338)"
         id="g3091"
         clip-path="url(#clipPath3093)">
        <g
           id="g3097"
           transform="translate(1109.7539,731.2493)">
          <path
             inkscape:connector-curvature="0"
             d="m 0,0 0,5.204 8.585,0 0,1.345 2.593,0 0,-1.26 6.778,0 c 0,0 1.737,-0.131 1.737,-1.582 l 0,-3.707 -2.361,0 0,2.981 -14.84,0 L 2.492,0 0,0 z"
             style="fill:#000000;fill-opacity:1;fill-rule:nonzero;stroke:none"
             id="path3099" />
        </g>
        <g
           id="g3101"
           transform="translate(1153.6685,723.8051)">
          <path
             inkscape:connector-curvature="0"
             d="m 0,0 c -0.338,-0.922 -1.246,-1.838 -2.17,-2.095 -0.508,-0.118 -0.84,-0.206 -1.461,-0.062 l 0,13.228 3.188,0 C -0.92,9.346 -1.524,7.553 -2.059,5.856 -1.889,5.543 -1.524,5.256 -1.326,4.908 -0.399,3.473 0.502,1.838 0,0 m 0.568,6.358 1.639,5.43 C 2.449,12.7 1.625,13.547 0.774,13.547 l -6.868,-0.001 0,-19.968 2.498,0 0,3.609 c 0,0 0.746,-1.111 1.148,-1.67 0.805,-0.03 1.291,0.207 1.979,0.499 1.639,0.793 2.758,2.463 2.99,4.191 0.17,2.371 -0.574,4.424 -1.953,6.151"
             style="fill:#000000;fill-opacity:1;fill-rule:nonzero;stroke:none"
             id="path3103" />
        </g>
        <g
           id="g3105"
           transform="translate(1146.7134,728.5022)">
          <path
             inkscape:connector-curvature="0"
             d="m 0,0 0,2.579 -3.588,0 0.008,1.957 3.498,0 0,2.477 -3.498,0 0,2.334 -2.717,0 0.008,-2.334 -4.092,0 0,-2.529 4.084,0 -0.002,-1.918 -4.082,0 0,-2.527 4.092,0 0,-1.89 -4.03,0 0,-2.578 3.916,-0.004 c -0.148,-2.893 -2.449,-4.714 -2.449,-4.714 l 1.481,-1.972 c 3.642,2.035 3.813,6.668 3.813,6.668 l 3.558,0 0,2.6 -3.58,0 L -3.58,0 0,0 z"
             style="fill:#000000;fill-opacity:1;fill-rule:nonzero;stroke:none"
             id="path3107" />
        </g>
        <g
           id="g3109"
           transform="translate(1174.5299,733.4163)">
          <path
             inkscape:connector-curvature="0"
             d="m 0,0 0,1.787 c 0,0.014 0.022,0.141 0.022,0.141 l 0.161,0.047 4.907,0 c 0.135,0 0.172,-0.039 0.179,-0.18 0,0 -0.002,-1.432 -0.002,-1.795 L 0,0 m 5.051,-4.088 -5.051,0 0,1.973 5.267,0 0,-1.746 c 0,-0.179 -0.044,-0.227 -0.216,-0.227 m 3.597,-9.873 c -1.334,0.87 -2.491,1.928 -3.466,3.135 1.257,0.965 2.313,1.904 3.105,2.793 L 8.422,-7.88 7.01,-6.307 6.842,-6.494 C 6.213,-7.188 5.289,-8.014 4.151,-8.938 3.879,-8.183 3.685,-7.271 3.58,-6.197 l 3.086,0 c 0.463,0 0.739,0.275 0.762,0.762 l 0,8.783 c 0,0.461 -0.279,0.731 -0.746,0.731 l -8.12,0 c -0.453,0 -0.722,-0.27 -0.722,-0.731 l 0,-16.635 c -0.275,-0.066 -1.427,-0.349 -1.427,-0.349 l 0.07,-0.229 0.525,-1.897 0.215,0.045 c 2.426,0.516 4.496,1.159 6.151,1.914 l 0.189,0.083 -0.699,2.082 -0.227,-0.096 C 1.889,-12.049 0.994,-12.371 0,-12.69 l 0,6.493 1.418,0 c 0.174,-2.609 1.015,-4.852 2.539,-6.651 0.412,-0.593 1.369,-1.476 2.913,-2.697 l 0.14,-0.111 1.905,1.518 -0.267,0.177 z"
             style="fill:#000000;fill-opacity:1;fill-rule:nonzero;stroke:none"
             id="path3111" />
        </g>
        <g
           id="g3113"
           transform="translate(1166.8091,734.8754)">
          <path
             inkscape:connector-curvature="0"
             d="m 0,0 c 0,0 -1.537,-1.99 -2.991,-3.003 l 6.139,0.002 C 2.242,-2.451 0,0 0,0 m 4.219,-15.775 -8.127,-1.525 -0.715,2.304 3.383,0.547 0,0.957 c 0,0 -1.545,-0.276 -1.737,0.182 -0.559,1.185 -1.059,2.457 -1.537,3.738 l 2.282,0 c 0.179,-0.375 0.891,-1.972 1.007,-2.321 l 0.002,3.459 -3.382,0 0,2.108 3.419,0 0,1.302 -2.257,0 0,1.774 -0.392,-0.339 -1.565,1.706 c 1.546,0.99 3.651,2.918 4.771,4.553 l 1.311,0 C 1.82,1.039 3.654,-0.842 5.508,-1.859 l -1.684,-1.726 -0.358,0.347 0,-1.786 -2.256,0 0,-1.294 3.233,0 0,-2.116 -3.233,0 0,-2.75 c 0.502,0.558 1.199,1.627 1.199,1.627 l 2.209,0.02 C 4.137,-10.502 3.419,-11.847 2.811,-12.477 2.406,-12.89 1.21,-13.111 1.21,-13.111 l 0,-0.931 2.76,0.491 c 0,0 0.315,-1.555 0.307,-1.498"
             style="fill:#000000;fill-opacity:1;fill-rule:nonzero;stroke:none"
             id="path3115" />
        </g>
      </g>
      <path
         id="path3117"
         style="fill:#000000;fill-opacity:1;fill-rule:nonzero;stroke:none"
         d="m 416.49066,497.48382 13.0475,0 0,-3.0325 -13.0475,0 0,3.0325 z"
         inkscape:connector-curvature="0" />
      <g
         transform="matrix(1.25,0,0,-1.25,430.54217,504.35643)"
         id="g3127">
        <path
           id="path3129"
           style="fill:#000000;fill-opacity:1;fill-rule:nonzero;stroke:none"
           d="m 0,0 0,2.47 -12.348,0 0,-2.515 7.219,0 0.008,-7.748 c 0,-0.121 -0.083,-0.67 -0.245,-0.86 -0.159,-0.193 -0.284,-0.822 -2.494,-0.761 l 1.092,-2.043 c 2.274,-0.64 3.586,1.387 3.454,1.189 -0.183,-0.277 0.619,0.787 0.619,1.919 L -2.703,0 0,0 z"
           inkscape:connector-curvature="0" />
      </g>
      <g
         transform="matrix(1.25,0,0,-1.25,410.67642,493.31193)"
         id="g3131">
        <path
           id="path3133"
           style="fill:#000000;fill-opacity:1;fill-rule:nonzero;stroke:none"
           d="M 0,0 2.318,-0.873 C 1,-3.623 -0.517,-5.681 -2.238,-7.074 L -4.33,-5.681 C -2.367,-4.087 -0.923,-2.194 0,0 m -1.119,-12.345 c -0.52,-0.474 -1.021,-0.877 -1.509,-1.203 l -1.974,1.518 c 2.358,1.653 4.171,3.714 5.455,6.166 L 3.092,-6.89 c -0.58,-1 -1.154,-1.885 -1.707,-2.658 l 0,-10.861 -2.504,0 0,8.064 z"
           inkscape:connector-curvature="0" />
      </g>
      <g
         id="g4019"
         transform="matrix(1.25,0,0,-1.25,306.89167,501.77218)">
        <path
           inkscape:connector-curvature="0"
           d="m 0,0 0,5.204 8.585,0 0,1.345 2.593,0 0,-1.26 6.778,0 c 0,0 1.737,-0.131 1.737,-1.582 l 0,-3.707 -2.361,0 0,2.981 -14.84,0 L 2.492,0 0,0 z"
           style="fill:#000000;fill-opacity:1;fill-rule:nonzero;stroke:none"
           id="path4021" />
      </g>
      <g
         id="g4023"
         transform="matrix(1.25,0,0,-1.25,361.78492,511.07743)">
        <path
           inkscape:connector-curvature="0"
           d="m 0,0 c -0.338,-0.922 -1.246,-1.838 -2.17,-2.095 -0.508,-0.118 -0.84,-0.206 -1.461,-0.062 l 0,13.228 3.188,0 C -0.92,9.346 -1.524,7.553 -2.059,5.856 -1.889,5.543 -1.524,5.256 -1.326,4.908 -0.399,3.473 0.502,1.838 0,0 m 0.568,6.358 1.639,5.43 C 2.449,12.7 1.625,13.547 0.774,13.547 l -6.868,-0.001 0,-19.968 2.498,0 0,3.609 c 0,0 0.746,-1.111 1.148,-1.67 0.805,-0.03 1.291,0.207 1.979,0.499 1.639,0.793 2.758,2.463 2.99,4.191 0.17,2.371 -0.574,4.424 -1.953,6.151"
           style="fill:#000000;fill-opacity:1;fill-rule:nonzero;stroke:none"
           id="path4025" />
      </g>
      <g
         id="g4027"
         transform="matrix(1.25,0,0,-1.25,353.09105,505.20605)">
        <path
           inkscape:connector-curvature="0"
           d="m 0,0 0,2.579 -3.588,0 0.008,1.957 3.498,0 0,2.477 -3.498,0 0,2.334 -2.717,0 0.008,-2.334 -4.092,0 0,-2.529 4.084,0 -0.002,-1.918 -4.082,0 0,-2.527 4.092,0 0,-1.89 -4.03,0 0,-2.578 3.916,-0.004 c -0.148,-2.893 -2.449,-4.714 -2.449,-4.714 l 1.481,-1.972 c 3.642,2.035 3.813,6.668 3.813,6.668 l 3.558,0 0,2.6 -3.58,0 L -3.58,0 0,0 z"
           style="fill:#000000;fill-opacity:1;fill-rule:nonzero;stroke:none"
           id="path4029" />
      </g>
      <g
         id="g4031"
         transform="matrix(1.25,0,0,-1.25,387.86167,499.06343)">
        <path
           inkscape:connector-curvature="0"
           d="m 0,0 0,1.787 c 0,0.014 0.022,0.141 0.022,0.141 l 0.161,0.047 4.907,0 c 0.135,0 0.172,-0.039 0.179,-0.18 0,0 -0.002,-1.432 -0.002,-1.795 L 0,0 m 5.051,-4.088 -5.051,0 0,1.973 5.267,0 0,-1.746 c 0,-0.179 -0.044,-0.227 -0.216,-0.227 m 3.597,-9.873 c -1.334,0.87 -2.491,1.928 -3.466,3.135 1.257,0.965 2.313,1.904 3.105,2.793 L 8.422,-7.88 7.01,-6.307 6.842,-6.494 C 6.213,-7.188 5.289,-8.014 4.151,-8.938 3.879,-8.183 3.685,-7.271 3.58,-6.197 l 3.086,0 c 0.463,0 0.739,0.275 0.762,0.762 l 0,8.783 c 0,0.461 -0.279,0.731 -0.746,0.731 l -8.12,0 c -0.453,0 -0.722,-0.27 -0.722,-0.731 l 0,-16.635 c -0.275,-0.066 -1.427,-0.349 -1.427,-0.349 l 0.07,-0.229 0.525,-1.897 0.215,0.045 c 2.426,0.516 4.496,1.159 6.151,1.914 l 0.189,0.083 -0.699,2.082 -0.227,-0.096 C 1.889,-12.049 0.994,-12.371 0,-12.69 l 0,6.493 1.418,0 c 0.174,-2.609 1.015,-4.852 2.539,-6.651 0.412,-0.593 1.369,-1.476 2.913,-2.697 l 0.14,-0.111 1.905,1.518 -0.267,0.177 z"
           style="fill:#000000;fill-opacity:1;fill-rule:nonzero;stroke:none"
           id="path4033" />
      </g>
      <g
         id="g4035"
         transform="matrix(1.25,0,0,-1.25,378.21068,497.23955)">
        <path
           inkscape:connector-curvature="0"
           d="m 0,0 c 0,0 -1.537,-1.99 -2.991,-3.003 l 6.139,0.002 C 2.242,-2.451 0,0 0,0 m 4.219,-15.775 -8.127,-1.525 -0.715,2.304 3.383,0.547 0,0.957 c 0,0 -1.545,-0.276 -1.737,0.182 -0.559,1.185 -1.059,2.457 -1.537,3.738 l 2.282,0 c 0.179,-0.375 0.891,-1.972 1.007,-2.321 l 0.002,3.459 -3.382,0 0,2.108 3.419,0 0,1.302 -2.257,0 0,1.774 -0.392,-0.339 -1.565,1.706 c 1.546,0.99 3.651,2.918 4.771,4.553 l 1.311,0 C 1.82,1.039 3.654,-0.842 5.508,-1.859 l -1.684,-1.726 -0.358,0.347 0,-1.786 -2.256,0 0,-1.294 3.233,0 0,-2.116 -3.233,0 0,-2.75 c 0.502,0.558 1.199,1.627 1.199,1.627 l 2.209,0.02 C 4.137,-10.502 3.419,-11.847 2.811,-12.477 2.406,-12.89 1.21,-13.111 1.21,-13.111 l 0,-0.931 2.76,0.491 c 0,0 0.315,-1.555 0.307,-1.498"
           style="fill:#000000;fill-opacity:1;fill-rule:nonzero;stroke:none"
           id="path4037" />
      </g>
    </g>
  </g>
</svg>
