<?xml version="1.0" encoding="UTF-8" standalone="no"?>
<svg
   xmlns:dc="http://purl.org/dc/elements/1.1/"
   xmlns:cc="http://web.resource.org/cc/"
   xmlns:rdf="http://www.w3.org/1999/02/22-rdf-syntax-ns#"
   xmlns:svg="http://www.w3.org/2000/svg"
   xmlns="http://www.w3.org/2000/svg"
   xmlns:sodipodi="http://sodipodi.sourceforge.net/DTD/sodipodi-0.dtd"
   xmlns:inkscape="http://www.inkscape.org/namespaces/inkscape"
   width="100.00002"
   height="100.0039"
   id="svg2"
   sodipodi:version="0.32"
   inkscape:version="0.44"
   sodipodi:docname="Hang_Seng_Bank.svg"
   sodipodi:docbase="C:\Documents and Settings\shizhao\My Documents\My Pictures"
   version="1.0">
  <metadata
     id="metadata155">
    <rdf:RDF>
      <cc:Work
         rdf:about="">
        <dc:format>image/svg+xml</dc:format>
        <dc:type
           rdf:resource="http://purl.org/dc/dcmitype/StillImage" />
      </cc:Work>
    </rdf:RDF>
  </metadata>
  <defs
     id="defs153" />
  <sodipodi:namedview
     inkscape:window-height="808"
     inkscape:window-width="1152"
     inkscape:pageshadow="2"
     inkscape:pageopacity="0.0"
     guidetolerance="10.0"
     gridtolerance="10.0"
     objecttolerance="10.0"
     borderopacity="1.0"
     bordercolor="#666666"
     pagecolor="#ffffff"
     id="base"
     width="182px"
     height="45px"
     inkscape:zoom="3.1092783"
     inkscape:cx="115.79933"
     inkscape:cy="49.896899"
     inkscape:window-x="-4"
     inkscape:window-y="-4"
     inkscape:current-layer="svg2" />
  <g
     id="g2060"
     transform="scale(2.283825,2.283825)">
    <g
       id="g8"
       style="fill:red;fill-opacity:1;fill-rule:evenodd;stroke:none;stroke-width:1pt;stroke-linecap:butt;stroke-linejoin:miter;stroke-dasharray:none">
      <path
         style="fill:red;fill-opacity:1"
         id="path10"
         d="M 21.8916,43.7879 C 33.9854,43.7879 43.7862,33.9849 43.7862,21.8907 C 43.7862,9.8008 33.9854,0 21.8916,0 C 9.80077,0 0,9.8008 0,21.8907 C 0,33.9849 9.80077,43.7879 21.8916,43.7879 z " />
    </g>
    <g
       id="g12"
       style="fill:white;fill-rule:evenodd;stroke:none;stroke-width:1pt;stroke-linecap:butt;stroke-linejoin:miter;stroke-dasharray:none"
       transform="translate(2.78417,2.7803)">
      <path
         id="path14"
         d="M 0.875,19.0957 C 0.875,9.0303 9.0352,0.8701 19.1016,0.8701 C 29.168,0.8701 37.3252,9.0303 37.3252,19.0957 C 37.3252,29.1616 29.168,37.3186 19.1016,37.3186 C 9.0352,37.3186 0.875,29.1616 0.875,19.0957 z M 19.1016,38.1996 C 29.6523,38.1996 38.2061,29.6476 38.2061,19.1016 C 38.2061,8.5508 29.6523,0 19.1016,0 C 8.5527,0 0,8.5508 0,19.1016 C 0,29.6476 8.5527,38.1996 19.1016,38.1996 z " />
    </g>
    <g
       id="g16"
       style="fill:white;fill-rule:evenodd;stroke:none;stroke-width:1pt;stroke-linecap:butt;stroke-linejoin:miter;stroke-dasharray:none"
       transform="translate(11.25977,7.0557)">
      <path
         id="path18"
         d="M 10.1885,5.1709 C 10.1885,5.1709 10.1855,5.1709 10.1855,5.1709 C 10.1855,5.1709 8.792,5.1709 8.792,5.1709 C 8.5303,5.1709 8.3184,4.9629 8.3184,4.7041 C 8.3184,4.4414 8.5303,4.2275 8.792,4.2275 C 8.792,4.2275 10.1855,4.2275 10.1855,4.2275 C 10.1855,4.2275 10.1885,4.2275 10.1885,4.2275 C 10.1885,4.2275 10.1885,0 10.1885,0 C 10.1885,0 10.1855,0 10.1855,0 C 10.1855,0 6.8447,0 6.8447,0 C 6.8447,0 7.6611,5.9336 7.6611,5.9336 C 7.6611,5.9336 2.9814,5.9336 2.9814,5.9336 C 2.9814,5.9336 4.7461,17.4248 0,27.0122 C 2.8262,27.0192 6.2373,27.0122 6.2373,27.0122 C 6.2373,27.0122 6.2256,27.0122 6.2256,27.0122 C 9.5127,18.1842 9.1435,17.1309 9.1435,17.1309 C 9.1435,17.1309 10.1855,17.1309 10.1855,17.1309 C 10.1855,17.1309 10.1885,17.1309 10.1885,17.1309 C 10.1885,17.1309 10.1885,13.1855 10.1885,13.1855 C 10.1885,13.1855 10.1855,13.1855 10.1855,13.1855 C 10.1855,13.1855 9.1318,13.1855 9.1318,13.1855 C 8.8701,13.1855 8.6553,12.9746 8.6553,12.7129 C 8.6553,12.4531 8.8701,12.2363 9.1318,12.2363 C 9.1318,12.2363 10.1855,12.2363 10.1855,12.2363 C 10.1855,12.2363 10.1885,12.2363 10.1885,12.2363 C 10.1885,12.2363 10.1885,5.1709 10.1885,5.1709 z " />
    </g>
    <g
       id="g20"
       style="fill:white;fill-rule:evenodd;stroke:none;stroke-width:1pt;stroke-linecap:butt;stroke-linejoin:miter;stroke-dasharray:none"
       transform="translate(22.39457,7.0557)">
      <path
         id="path22"
         d="M 0,5.1709 C 0,5.1709 1.3613,5.1709 1.3613,5.1709 C 1.623,5.1709 1.8339,4.9629 1.8339,4.7041 C 1.8339,4.4414 1.623,4.2275 1.3613,4.2275 C 1.3613,4.2275 0,4.2275 0,4.2275 C 0,4.2275 0,0 0,0 C 0,0 3.3105,0 3.3105,0 C 3.3105,0 2.5097,5.9336 2.5097,5.9336 C 2.5097,5.9336 7.1962,5.9336 7.1962,5.9336 C 7.1962,5.9336 5.416,17.4248 10.1611,27.0122 C 7.3359,27.0192 3.915,27.0122 3.915,27.0122 C 0.6289,18.1842 1.0097,17.1309 1.0097,17.1309 C 1.0097,17.1309 0,17.1309 0,17.1309 C 0,17.1309 0,13.1855 0,13.1855 C 0,13.1855 0.0634,13.1855 0.0634,13.1855 C 0.0634,13.1855 1.0332,13.1855 1.0332,13.1855 C 1.2959,13.1855 1.5068,12.9746 1.5068,12.7129 C 1.5068,12.4531 1.2959,12.2363 1.0332,12.2363 C 1.0332,12.2363 0.0634,12.2363 0.0634,12.2363 C 0.0634,12.2363 0,12.2363 0,12.2363 C 0,12.2363 0,5.1709 0,5.1709 z " />
    </g>
    <g
       id="g24"
       style="fill:red;fill-opacity:1;fill-rule:evenodd;stroke:none;stroke-width:1pt;stroke-linecap:butt;stroke-linejoin:miter;stroke-dasharray:none"
       transform="translate(15.82127,15.9453)">
      <path
         style="fill:red;fill-opacity:1"
         id="path26"
         d="M 2.709,9.1106 C 2.6826,9.1366 2.6494,9.1576 2.6231,9.1776 C 2.6231,9.1776 3.0401,10.7356 3.0401,10.7356 C 3.1026,10.9736 2.9619,11.2146 2.7246,11.2776 C 2.4863,11.3426 2.2451,11.2036 2.1826,10.9676 C 2.1826,10.9676 1.8008,9.5536 1.8008,9.5536 C 1.7266,9.5656 1.6494,9.5806 1.5723,9.5766 C 1.5069,9.5766 1.4434,9.5656 1.3789,9.5556 C 1.3789,9.5556 1,10.9676 1,10.9676 C 0.9375,11.2036 0.6934,11.3426 0.459,11.2776 C 0.2236,11.2146 0.0801,10.9736 0.1426,10.7356 C 0.1426,10.7356 0.5567,9.1906 0.5567,9.1906 C 0.5264,9.1646 0.4912,9.1456 0.461,9.1126 C 0.1631,8.8125 0,8.4131 0,7.9844 C 0,7.9844 0,1.5899 0,1.5899 C 0.0059,0.709 0.7266,0 1.6074,0.0069 C 2.4736,0.0088 3.1797,0.7237 3.1768,1.5957 C 3.1768,1.5957 3.1768,7.9932 3.1768,7.9932 C 3.1768,8.417 3.0098,8.8125 2.709,9.1106 z " />
    </g>
    <g
       id="g28"
       style="fill:white;fill-rule:evenodd;stroke:none;stroke-width:1pt;stroke-linecap:butt;stroke-linejoin:miter;stroke-dasharray:none"
       transform="translate(16.71187,20.209)">
      <path
         id="path30"
         d="M 0,0 C 0,1.751 0,3.7207 0,3.7207 C 0,3.9141 0.0713,4.0928 0.2022,4.2246 C 0.3291,4.3526 0.5,4.4229 0.6846,4.4229 C 0.875,4.4268 1.0567,4.3487 1.1905,4.2149 C 1.3243,4.084 1.3955,3.9082 1.3995,3.7295 C 1.3995,3.7295 1.3995,1.751 1.3995,0 C 1.3995,0 0,0 0,0 z " />
    </g>
    <g
       id="g32"
       style="fill:white;fill-rule:evenodd;stroke:none;stroke-width:1pt;stroke-linecap:butt;stroke-linejoin:miter;stroke-dasharray:none"
       transform="translate(16.71187,16.8389)">
      <path
         id="path34"
         d="M 1.3995,2.4834 C 1.3995,1.4736 1.3995,0.7021 1.3995,0.7021 C 1.3995,0.3096 1.0987,0 0.7139,0 C 0.3213,0 0,0.3125 0,0.6963 C 0,0.6963 0,1.4707 0,2.4834 C 0,2.4834 1.3995,2.4834 1.3995,2.4834 z " />
    </g>
    <g
       id="g36"
       style="fill:red;fill-opacity:1;fill-rule:evenodd;stroke:none;stroke-width:1pt;stroke-linecap:butt;stroke-linejoin:miter;stroke-dasharray:none"
       transform="translate(24.52047,16.0293)">
      <path
         style="fill:red;fill-opacity:1"
         id="path38"
         d="M 3.8291,3.7334 C 3.8291,3.7334 1.9141,0 1.9141,0 C 1.9141,0 0,3.7334 0,3.7334 C 0,3.7334 1.4717,6.6026 1.4717,6.6026 C 1.4717,6.6026 1.4717,10.7586 1.4717,10.7586 C 1.4717,11.0026 1.6709,11.1996 1.918,11.1996 C 2.1612,11.1996 2.3614,11.0026 2.3614,10.7586 C 2.3614,10.7586 2.3614,6.5909 2.3614,6.5909 C 2.3614,6.5909 3.8291,3.7334 3.8291,3.7334 z M 1.9141,5.5547 C 1.9141,5.5547 0.9795,3.7334 0.9795,3.7334 C 0.9795,3.7334 1.9141,1.9082 1.9141,1.9082 C 1.9141,1.9082 2.8496,3.7334 2.8496,3.7334 C 2.8496,3.7334 1.9141,5.5547 1.9141,5.5547 z " />
    </g>
  </g>
</svg>
