<?xml version="1.0" encoding="UTF-8" standalone="no"?>
<!-- Created with Inkscape (http://www.inkscape.org/) -->
<svg
   xmlns:dc="http://purl.org/dc/elements/1.1/"
   xmlns:cc="http://creativecommons.org/ns#"
   xmlns:rdf="http://www.w3.org/1999/02/22-rdf-syntax-ns#"
   xmlns:svg="http://www.w3.org/2000/svg"
   xmlns="http://www.w3.org/2000/svg"
   xmlns:sodipodi="http://sodipodi.sourceforge.net/DTD/sodipodi-0.dtd"
   xmlns:inkscape="http://www.inkscape.org/namespaces/inkscape"
   width="713.3515"
   height="172.6805"
   id="svg2"
   sodipodi:version="0.32"
   inkscape:version="0.46"
   version="1.0"
   sodipodi:docname="HSB.svg"
   inkscape:output_extension="org.inkscape.output.svg.inkscape">
  <defs
     id="defs4">
    <inkscape:perspective
       sodipodi:type="inkscape:persp3d"
       inkscape:vp_x="0 : 526.18109 : 1"
       inkscape:vp_y="0 : 1000 : 0"
       inkscape:vp_z="744.09448 : 526.18109 : 1"
       inkscape:persp3d-origin="372.04724 : 350.78739 : 1"
       id="perspective10" />
    <clipPath
       id="clipPath2554"
       clipPathUnits="userSpaceOnUse">
      <path
         id="path2556"
         d="M 272.511,494.39 L 322.511,494.39 L 322.511,347.75 L 272.511,347.75 L 272.511,494.39 z" />
    </clipPath>
    <inkscape:perspective
       id="perspective2410"
       inkscape:persp3d-origin="372.04724 : 350.78739 : 1"
       inkscape:vp_z="744.09448 : 526.18109 : 1"
       inkscape:vp_y="0 : 1000 : 0"
       inkscape:vp_x="0 : 526.18109 : 1"
       sodipodi:type="inkscape:persp3d" />
  </defs>
  <sodipodi:namedview
     id="base"
     pagecolor="#ffffff"
     bordercolor="#666666"
     borderopacity="1.0"
     gridtolerance="10000"
     guidetolerance="10"
     objecttolerance="10"
     inkscape:pageopacity="0.0"
     inkscape:pageshadow="2"
     inkscape:zoom="0.65045072"
     inkscape:cx="356.67575"
     inkscape:cy="86.340248"
     inkscape:document-units="px"
     inkscape:current-layer="layer1"
     showgrid="false"
     inkscape:window-width="1024"
     inkscape:window-height="712"
     inkscape:window-x="-4"
     inkscape:window-y="-4" />
  <metadata
     id="metadata7">
    <rdf:RDF>
      <cc:Work
         rdf:about="">
        <dc:format>image/svg+xml</dc:format>
        <dc:type
           rdf:resource="http://purl.org/dc/dcmitype/StillImage" />
      </cc:Work>
    </rdf:RDF>
  </metadata>
  <g
     inkscape:label="Layer 1"
     inkscape:groupmode="layer"
     id="layer1"
     transform="translate(-7.0668173,46.845743)">
    <g
       id="g2856"
       transform="matrix(4.3201175,0,0,4.3201175,-657.0232,-632.87236)">
      <g
         id="g2416"
         transform="matrix(0,1.25,1.25,0,173.71036,175.62187)">
        <path
           d="M 0,0 C 0,8.824 -7.16,15.989 -15.988,15.989 C -24.818,15.989 -31.977,8.824 -31.977,0 C -31.977,-8.831 -24.818,-15.992 -15.988,-15.992 C -7.16,-15.992 0,-8.831 0,0"
           style="fill:#ed1c24;fill-opacity:1;fill-rule:nonzero;stroke:none"
           id="path2418" />
      </g>
      <g
         id="g2420"
         transform="matrix(0,1.25,1.25,0,157.06411,155.61937)">
        <path
           d="M 0,0 C -7.351,0 -13.309,5.957 -13.309,13.312 C -13.309,20.66 -7.351,26.62 0,26.62 C 7.351,26.62 13.312,20.66 13.312,13.312 C 13.312,5.957 7.351,0 0,0 z M 13.953,13.313 C 13.953,21.014 7.703,27.262 0.003,27.262 C -7.701,27.262 -13.947,21.014 -13.947,13.313 C -13.947,5.604 -7.701,-0.638 0.003,-0.638 C 7.703,-0.638 13.953,5.604 13.953,13.313"
           style="fill:#ffffff;fill-opacity:1;fill-rule:nonzero;stroke:none"
           id="path2422" />
      </g>
      <g
         id="g2424"
         transform="matrix(0,1.25,1.25,0,173.30161,146.81062)">
        <path
           d="M 0,0 L 0,-1.022 C 0,-1.211 -0.152,-1.363 -0.34,-1.363 C -0.533,-1.363 -0.685,-1.211 -0.685,-1.022 L -0.685,0 L -3.779,0 L -3.779,-2.442 L 0.555,-1.85 L 0.555,-5.266 C 0.555,-5.266 8.949,-3.98 15.95,-7.444 C 15.959,-5.377 15.95,-2.888 15.95,-2.888 L 15.95,-2.897 C 9.505,-0.5 8.736,-0.764 8.736,-0.764 L 8.736,0 L 5.853,0 L 5.853,-0.773 C 5.853,-0.968 5.697,-1.123 5.512,-1.123 C 5.317,-1.123 5.161,-0.968 5.161,-0.773 L 5.161,0 L 0,0"
           style="fill:#ffffff;fill-opacity:1;fill-rule:nonzero;stroke:none"
           id="path2426" />
      </g>
      <g
         id="g2428"
         transform="matrix(0,1.25,1.25,0,174.16286,146.81062)">
        <path
           d="M 0,0 L 0,0.997 C 0,1.187 -0.152,1.336 -0.34,1.336 C -0.533,1.336 -0.685,1.187 -0.685,0.997 L -0.685,0 L -3.779,0 L -3.779,2.419 L 0.555,1.828 L 0.555,5.258 C 0.555,5.258 8.949,3.957 15.95,7.425 C 15.959,5.356 15.95,2.861 15.95,2.861 C 9.505,0.462 8.736,0.735 8.736,0.735 L 8.736,0 L 5.853,0 L 5.853,0.753 C 5.853,0.946 5.697,1.098 5.512,1.098 C 5.317,1.098 5.161,0.946 5.161,0.753 L 5.161,0 L 0,0"
           style="fill:#ffffff;fill-opacity:1;fill-rule:nonzero;stroke:none"
           id="path2430" />
      </g>
      <g
         id="g2432"
         transform="matrix(0,1.25,1.25,0,170.62911,158.52562)">
        <path
           d="M 0,0 C 0.018,-0.02 0.034,-0.038 0.052,-0.059 L 1.186,0.249 C 1.354,0.294 1.54,0.192 1.579,0.013 C 1.63,-0.156 1.528,-0.332 1.352,-0.379 L 0.328,-0.658 C 0.332,-0.712 0.34,-0.771 0.34,-0.826 C 0.34,-0.872 0.332,-0.915 0.328,-0.963 L 1.352,-1.242 C 1.528,-1.289 1.63,-1.462 1.579,-1.634 C 1.54,-1.815 1.354,-1.916 1.186,-1.87 L 0.059,-1.562 C 0.041,-1.585 0.025,-1.611 0.002,-1.632 C -0.221,-1.854 -0.511,-1.973 -0.822,-1.971 L -5.498,-1.971 C -6.132,-1.971 -6.656,-1.442 -6.653,-0.798 C -6.651,-0.166 -6.127,0.349 -5.489,0.347 L -0.819,0.347 C -0.507,0.347 -0.221,0.225 0,0 z M -4.19,-0.298 C -4.926,-0.298 -5.489,-0.298 -5.492,-0.298 C -5.78,-0.298 -6.006,-0.525 -6.006,-0.801 C -6.006,-1.088 -5.78,-1.322 -5.498,-1.323 C -5.498,-1.323 -4.926,-1.323 -4.19,-1.323 L -4.19,-0.298 z M -3.541,-1.323 C -2.265,-1.323 -0.822,-1.323 -0.822,-1.323 C -0.685,-1.323 -0.553,-1.272 -0.458,-1.179 C -0.361,-1.079 -0.308,-0.952 -0.308,-0.824 C -0.306,-0.685 -0.365,-0.555 -0.465,-0.446 C -0.559,-0.354 -0.686,-0.298 -0.819,-0.298 C -0.819,-0.298 -2.26,-0.298 -3.541,-0.298 L -3.541,-1.323"
           style="fill:#ed1c24;fill-opacity:1;fill-rule:nonzero;stroke:none"
           id="path2434" />
      </g>
      <g
         id="g2436"
         transform="matrix(0,1.25,1.25,0,179.59661,153.68812)">
        <path
           d="M 0,0 L -2.725,-1.399 L 0,-2.791 L 2.097,-1.715 L 5.135,-1.715 C 5.316,-1.715 5.458,-1.569 5.458,-1.396 C 5.458,-1.216 5.316,-1.067 5.135,-1.067 L 2.092,-1.067 L 0,0 z M 1.331,-1.399 L 0,-2.081 L -1.334,-1.399 L 0,-0.713 L 1.331,-1.399"
           style="fill:#ed1c24;fill-opacity:1;fill-rule:nonzero;stroke:none"
           id="path2438" />
      </g>
      <g
         id="g2440"
         transform="matrix(0,1.25,1.25,0,313.09786,164.50812)">
        <path
           d="M 0,0 L 2.462,0 L 0,2.39 L 0,3.946 L 2.541,1.457 L 5.649,4.247 L 5.649,2.569 L 2.676,0 L 5.649,0 L 5.649,-1.271 L 0,-1.271 L 0,0"
           style="fill:#231f20;fill-opacity:1;fill-rule:nonzero;stroke:none"
           id="path2442" />
      </g>
      <path
         d="M 205.82661,159.44937 L 205.82661,160.34437 L 318.05661,160.34437 L 318.05661,159.44937 L 205.82661,159.44937 z"
         style="fill:#231f20;fill-opacity:1;fill-rule:nonzero;stroke:none"
         id="path2444" />
      <g
         id="g2446"
         transform="matrix(0,1.25,1.25,0,205.69411,164.50812)">
        <path
           d="M 0,0 L 0,1.267 L 2.3,1.267 L 2.3,4.343 L 0,4.343 L 0,5.612 L 5.649,5.612 L 5.649,4.343 L 3.225,4.343 L 3.225,1.267 L 5.649,1.267 L 5.649,0 L 0,0"
           style="fill:#231f20;fill-opacity:1;fill-rule:nonzero;stroke:none"
           id="path2448" />
      </g>
      <g
         id="g2450"
         transform="matrix(0,1.25,1.25,0,217.25911,164.50812)">
        <path
           d="M 0,0 L 0,1.6 L 5.649,4.493 L 5.649,2.985 L 4.383,2.336 L 4.383,-0.921 L 5.649,-1.517 L 5.649,-2.881 L 0,0 z M 3.462,1.886 L 0.998,0.707 L 3.462,-0.466 L 3.462,1.886"
           style="fill:#231f20;fill-opacity:1;fill-rule:nonzero;stroke:none"
           id="path2452" />
      </g>
      <g
         id="g2454"
         transform="matrix(0,1.25,1.25,0,223.79661,164.50812)">
        <path
           d="M 0,0 L 0,1.784 L 4.334,4.989 L 4.334,5.006 L 0,5.006 L 0,6.149 L 5.649,6.149 L 5.649,4.439 L 1.235,1.162 L 1.235,1.146 L 5.649,1.146 L 5.649,0 L 0,0"
           style="fill:#231f20;fill-opacity:1;fill-rule:nonzero;stroke:none"
           id="path2456" />
      </g>
      <g
         id="g2458"
         transform="matrix(0,1.25,1.25,0,239.31286,166.78187)">
        <path
           d="M 0,0 C -0.79,-0.038 -1.096,-0.85 -1.096,-1.482 C -1.096,-2.668 -0.495,-3.775 0.979,-3.775 C 2.03,-3.775 3.06,-3.211 3.06,-1.469 C 3.06,-0.981 2.991,-0.545 2.801,0.083 L 1.717,0.083 L 1.717,-1.729 L 0.842,-1.729 L 0.842,1.319 L 3.482,1.319 C 3.828,0.51 3.981,-0.728 3.981,-1.55 C 3.981,-3.66 3.041,-5.09 0.991,-5.09 C -0.7,-5.09 -1.971,-3.893 -1.971,-1.668 C -1.971,0.041 -1.323,1.319 0,1.319 L 0,0"
           style="fill:#231f20;fill-opacity:1;fill-rule:nonzero;stroke:none"
           id="path2460" />
      </g>
      <g
         id="g2462"
         transform="matrix(0,1.25,1.25,0,247.48286,169.35687)">
        <path
           d="M 0,0 C 0.676,0.07 1.086,0.566 1.086,1.566 C 1.086,2.619 0.629,3.001 0.225,3.001 C -0.185,3.001 -0.373,2.712 -0.459,2.083 L -0.61,0.915 C -0.821,-0.579 -1.456,-1.071 -2.197,-1.071 C -3.509,-1.071 -4.031,0.146 -4.031,1.463 C -4.031,3.12 -3.331,4.011 -2.192,4.05 L -2.192,2.78 C -2.927,2.733 -3.196,2.229 -3.196,1.348 C -3.196,0.826 -2.937,0.244 -2.417,0.244 C -1.981,0.244 -1.799,0.566 -1.73,1.067 L -1.503,2.689 C -1.314,4.036 -0.524,4.316 0.065,4.316 C 1.234,4.316 1.921,3.313 1.921,1.393 C 1.921,-0.241 1.218,-1.268 0,-1.268 L 0,0"
           style="fill:#231f20;fill-opacity:1;fill-rule:nonzero;stroke:none"
           id="path2464" />
      </g>
      <g
         id="g2466"
         transform="matrix(0,1.25,1.25,0,259.81786,165.65812)">
        <path
           d="M 0,0 L 0,-3.213 L 1.335,-3.213 L 1.335,-0.115 L 2.259,-0.115 L 2.259,-3.213 L 3.81,-3.213 L 3.81,0.141 L 4.729,0.141 L 4.729,-4.482 L -0.92,-4.482 L -0.92,0 L 0,0"
           style="fill:#231f20;fill-opacity:1;fill-rule:nonzero;stroke:none"
           id="path2468" />
      </g>
      <g
         id="g2470"
         transform="matrix(0,1.25,1.25,0,261.49661,164.50812)">
        <path
           d="M 0,0 L 0,1.786 L 4.334,4.993 L 4.334,5.008 L 0,5.008 L 0,6.149 L 5.649,6.149 L 5.649,4.446 L 1.235,1.161 L 1.235,1.144 L 5.649,1.144 L 5.649,0 L 0,0"
           style="fill:#231f20;fill-opacity:1;fill-rule:nonzero;stroke:none"
           id="path2472" />
      </g>
      <g
         id="g2474"
         transform="matrix(0,1.25,1.25,0,277.01161,166.78187)">
        <path
           d="M 0,0 C -0.79,-0.035 -1.096,-0.849 -1.096,-1.478 C -1.096,-2.67 -0.495,-3.774 0.979,-3.774 C 2.03,-3.774 3.06,-3.21 3.06,-1.469 C 3.06,-0.975 2.991,-0.545 2.801,0.081 L 1.717,0.081 L 1.717,-1.728 L 0.842,-1.728 L 0.842,1.317 L 3.482,1.317 C 3.828,0.51 3.981,-0.728 3.981,-1.55 C 3.981,-3.655 3.041,-5.091 0.991,-5.091 C -0.7,-5.091 -1.971,-3.892 -1.971,-1.668 C -1.971,0.043 -1.323,1.317 0,1.317 L 0,0"
           style="fill:#231f20;fill-opacity:1;fill-rule:nonzero;stroke:none"
           id="path2476" />
      </g>
      <g
         id="g2478"
         transform="matrix(0,1.25,1.25,0,284.05286,164.50812)">
        <path
           d="M 0,0 L 0,3.334 C 0,4.445 0.273,5.429 1.444,5.429 C 2.149,5.429 2.597,4.771 2.645,4.039 L 2.703,4.039 C 2.759,4.771 3.058,5.723 4.133,5.723 C 4.751,5.723 5.649,5.282 5.649,3.456 L 5.649,0 L 0,0 z M 4.771,1.272 L 4.771,3.028 C 4.771,3.803 4.563,4.36 3.984,4.36 C 3.334,4.36 3.179,3.676 3.179,3.114 L 3.179,1.272 L 4.771,1.272 z M 2.3,1.272 L 2.3,3.08 C 2.3,3.699 2.11,4.068 1.61,4.068 C 0.998,4.068 0.876,3.497 0.876,2.838 L 0.876,1.272 L 2.3,1.272"
           style="fill:#231f20;fill-opacity:1;fill-rule:nonzero;stroke:none"
           id="path2480" />
      </g>
      <g
         id="g2482"
         transform="matrix(0,1.25,1.25,0,295.36036,164.50812)">
        <path
           d="M 0,0 L 0,1.603 L 5.649,4.487 L 5.649,2.987 L 4.383,2.331 L 4.383,-0.92 L 5.649,-1.516 L 5.649,-2.882 L 0,0 z M 3.462,1.885 L 0.998,0.705 L 3.462,-0.47 L 3.462,1.885"
           style="fill:#231f20;fill-opacity:1;fill-rule:nonzero;stroke:none"
           id="path2484" />
      </g>
      <g
         id="g2486"
         transform="matrix(0,1.25,1.25,0,301.94411,164.50812)">
        <path
           d="M 0,0 L 0,1.784 L 4.334,4.994 L 4.334,5.01 L 0,5.01 L 0,6.151 L 5.649,6.151 L 5.649,4.443 L 1.235,1.16 L 1.235,1.146 L 5.649,1.146 L 5.649,0 L 0,0"
           style="fill:#231f20;fill-opacity:1;fill-rule:nonzero;stroke:none"
           id="path2488" />
      </g>
      <g
         id="g2490"
         transform="matrix(0,1.25,1.25,0,248.18786,140.60562)">
        <path
           d="M 0,0 C 0.9,-0.315 2.033,-0.211 2.985,-0.223 C 3.169,-0.062 3.076,0.241 3.076,0.471 C 3.016,1.013 2.704,1.765 3.224,2.169 C 3.445,2.262 3.7,2.331 3.939,2.308 C 4.043,2.016 4.034,1.686 4.082,1.406 C 4.27,0.851 4.203,0.1 4.82,-0.176 C 5.063,-0.253 5.326,-0.253 5.57,-0.186 L 5.72,-0.012 C 5.57,0.733 5.839,1.395 5.961,2.076 C 6.216,2.34 6.599,2.492 6.959,2.492 L 7.036,2.378 C 6.959,1.57 7.061,0.761 7.024,-0.045 C 7.161,-0.397 7.56,-0.397 7.833,-0.523 C 8.178,-0.558 8.745,-0.787 8.963,-0.383 C 9.128,0.202 8.861,0.829 9,1.45 C 9.17,2.322 9.037,3.474 9.978,3.869 C 10.281,3.879 10.548,3.795 10.771,3.636 C 10.771,3.302 10.561,3.013 10.54,2.664 C 10.457,1.626 10.218,-0.425 10.238,-0.566 C 10.255,-0.713 10.42,-1.908 10.874,-2.428 C 11.103,-2.777 10.985,-3.271 11.195,-3.618 C 11.26,-4.185 11.38,-4.798 11.229,-5.353 C 11.25,-5.733 11.533,-6.031 11.562,-6.377 C 11.13,-6.53 10.651,-6.578 10.194,-6.664 C 10.007,-6.725 9.879,-6.6 9.74,-6.493 C 9.636,-6.231 9.958,-6.045 9.978,-5.788 C 10.076,-5.062 9.718,-4.379 9.694,-3.618 L 9.17,-1.944 C 8.838,-1.584 8.286,-1.536 7.801,-1.64 C 7.752,-1.689 7.65,-1.737 7.683,-1.818 C 7.791,-2.208 7.822,-2.638 7.857,-3.048 C 7.949,-3.328 8.137,-3.572 8.178,-3.86 C 7.776,-4.217 7.173,-4.194 6.681,-4.206 C 6.585,-3.86 6.783,-3.537 6.715,-3.155 C 6.609,-2.614 6.45,-2.107 6.228,-1.613 C 5.939,-1.26 5.406,-1.397 5.05,-1.494 C 4.947,-1.76 5.026,-2.069 5.05,-2.336 C 5.094,-2.797 5.326,-3.238 5.247,-3.71 C 4.96,-4.01 4.565,-4.032 4.254,-4.275 C 4.279,-4.567 4.616,-4.6 4.737,-4.82 C 5.316,-5.43 5.338,-6.332 5.504,-7.105 C 5.456,-7.163 5.467,-7.254 5.37,-7.279 C 5.037,-7.163 4.82,-6.773 4.471,-6.655 C 4.159,-6.344 3.883,-5.964 3.514,-5.757 C 2.868,-5.131 2.164,-4.567 1.347,-4.333 C 1.214,-4.291 1.019,-4.368 0.974,-4.194 C 0.997,-3.78 1.531,-3.572 1.686,-3.201 C 1.766,-3.06 1.804,-2.9 1.968,-2.81 L 2.139,-2.81 C 2.542,-3.328 2.914,-4.185 3.711,-4.032 C 3.962,-3.618 3.99,-3.048 3.975,-2.577 C 3.756,-2.269 3.779,-1.851 3.606,-1.504 C 3.455,-1.297 3.213,-1.308 2.985,-1.26 C 2.057,-1.397 0.935,-1.03 0.174,-1.64 C -0.069,-1.515 -0.057,-1.19 -0.134,-0.938 C 0.045,-0.615 -0.422,-0.176 0,0"
           style="fill:#231f20;fill-opacity:1;fill-rule:nonzero;stroke:none"
           id="path2492" />
      </g>
      <g
         id="g2494"
         transform="matrix(0,1.25,1.25,0,308.42161,141.26062)">
        <path
           d="M 0,0 C 0.13,0.193 0.279,0.487 0.541,0.556 C 0.933,0.707 0.736,0.207 0.884,0.069 C 1.313,-0.634 2.332,-0.821 2.525,-1.685 C 2.652,-2.02 2.652,-2.434 2.619,-2.806 C 2.587,-2.874 2.518,-2.874 2.461,-2.841 C 1.767,-2.148 0.91,-1.456 0.054,-0.96 C -0.127,-0.855 -0.444,-0.981 -0.524,-0.715 C -0.512,-0.39 -0.127,-0.278 0,0"
           style="fill:#231f20;fill-opacity:1;fill-rule:nonzero;stroke:none"
           id="path2496" />
      </g>
      <g
         id="g2498"
         transform="matrix(0,1.25,1.25,0,316.47911,141.34187)">
        <path
           d="M 0,0 C 0.534,0.01 1.009,-0.302 1.237,-0.776 C 1.379,-1.292 1.702,-1.742 1.946,-2.218 C 1.839,-2.76 2.512,-3.477 1.768,-3.766 C 1.401,-3.834 1.092,-4.18 0.686,-4.087 C 0.443,-3.753 0.776,-3.315 0.587,-2.948 C 0.267,-2.115 -0.087,-1.261 -0.255,-0.368 C -0.218,-0.208 -0.218,0.01 0,0"
           style="fill:#231f20;fill-opacity:1;fill-rule:nonzero;stroke:none"
           id="path2500" />
      </g>
      <g
         id="g2502"
         transform="matrix(0,1.25,1.25,0,318.61286,144.66187)">
        <path
           d="M 0,0 C 0.223,0.062 0.444,0.244 0.671,0.165 C 1.065,-0.561 0.613,-1.625 1.055,-2.324 C 1.183,-2.538 1.468,-2.446 1.654,-2.422 C 2.071,-2.227 2.404,-1.834 2.881,-1.765 C 3.257,-1.625 3.69,-1.672 4.079,-1.663 C 4.911,-1.476 5.5,-1.663 6.346,-1.502 C 7.048,-1.612 7.637,-1.29 8.328,-1.382 L 8.426,-1.487 C 8.304,-2.549 8.485,-3.671 8.075,-4.618 C 7.971,-4.724 7.913,-4.882 7.762,-4.917 C 7.594,-4.699 7.604,-4.362 7.484,-4.098 C 7.295,-3.671 7.303,-3.078 6.733,-2.848 C 6.128,-2.549 5.294,-2.793 4.612,-2.656 C 3.83,-2.804 2.937,-2.538 2.259,-2.943 C 2.025,-3.078 1.747,-3.177 1.596,-3.426 C 1.575,-3.91 1.898,-4.256 2.002,-4.685 C 2.125,-5.194 2.1,-5.773 2.58,-6.12 C 2.635,-6.291 2.521,-6.465 2.359,-6.546 C 2.012,-6.697 1.633,-6.754 1.307,-6.94 C 1.183,-6.913 1.009,-7.009 0.958,-6.859 C 0.975,-6.422 1.065,-6.072 0.958,-5.646 C 0.478,-3.879 -0.731,-2.238 -0.244,-0.241 L 0,0"
           style="fill:#231f20;fill-opacity:1;fill-rule:nonzero;stroke:none"
           id="path2504" />
      </g>
      <g
         id="g2506"
         transform="matrix(0,1.25,1.25,0,308.98786,145.52937)">
        <path
           d="M 0,0 C 0.104,0.02 0.197,-0.033 0.244,-0.126 C 0.281,-0.395 0.152,-0.661 0.35,-0.856 C 0.788,-1.218 1.366,-1.318 1.941,-1.237 C 2.563,-0.856 3.339,-0.722 4.103,-0.786 C 4.955,-0.625 5.788,-0.924 6.644,-0.996 C 6.85,-1.098 7.164,-1.144 7.244,-1.422 C 7.428,-1.745 7.397,-2.197 7.346,-2.566 C 7.277,-2.75 7.096,-2.601 6.989,-2.588 C 6.012,-1.977 4.834,-1.849 3.639,-1.758 C 3.271,-1.687 2.853,-1.597 2.474,-1.701 C 2.324,-1.931 2.742,-2.035 2.788,-2.209 C 3.365,-2.923 4.147,-3.558 4.103,-4.53 C 4.064,-4.911 4.129,-5.359 3.983,-5.674 L 3.827,-5.651 C 3.465,-5.004 2.8,-4.554 2.404,-3.914 C 2.011,-3.119 1.124,-2.533 0.519,-1.909 C 0.071,-1.651 -0.359,-1.318 -0.863,-1.175 C -0.989,-1.111 -0.923,-0.959 -0.863,-0.868 L 0,0"
           style="fill:#231f20;fill-opacity:1;fill-rule:nonzero;stroke:none"
           id="path2508" />
      </g>
      <g
         id="g2510"
         transform="matrix(0,1.25,1.25,0,275.03411,141.15687)">
        <path
           d="M 0,0 C 0.072,0.246 0.257,0.485 0.485,0.636 C 0.937,0.546 0.566,-0.123 1.072,-0.228 C 1.433,-0.255 1.895,-0.09 2.217,-0.297 C 2.575,-0.669 2.969,-0.942 3.442,-1.027 C 3.562,-1.038 3.593,-0.942 3.65,-0.867 C 3.695,-0.714 3.614,-0.587 3.475,-0.507 C 3.338,-0.437 3.127,-0.516 3.027,-0.332 C 2.992,-0.112 2.96,0.142 2.992,0.348 C 3.073,0.408 3.2,0.419 3.224,0.533 C 3.282,0.74 3.097,1.044 3.338,1.109 C 4.008,1.122 4.052,0.048 4.723,0.255 C 4.885,0.338 4.792,0.555 4.746,0.673 C 4.713,0.88 4.506,1.167 4.723,1.329 C 5.314,1.4 5.692,0.939 6.073,0.568 C 6.223,0.393 6.207,0.095 6.485,0.037 C 6.651,0.037 6.931,-0.068 7.033,0.116 C 6.931,0.511 6.494,0.779 6.446,1.192 C 6.46,1.365 6.651,1.4 6.769,1.454 C 7.062,1.445 7.265,1.679 7.553,1.596 C 7.636,1.478 7.539,1.365 7.553,1.248 C 7.726,0.869 8.051,0.546 8.117,0.142 C 8.248,-0.048 8.492,-0.035 8.664,0 C 8.875,0.348 8.406,0.673 8.596,1.044 C 9.537,1.306 9.933,0.277 10.433,-0.276 C 10.734,-0.953 10.844,-1.721 10.879,-2.48 C 10.926,-2.781 11.264,-3.046 11.092,-3.349 C 10.879,-3.568 10.594,-3.674 10.288,-3.624 C 10.164,-3.463 10.304,-3.277 10.317,-3.102 C 10.22,-2.689 9.946,-2.345 9.808,-1.936 C 9.644,-1.614 9.575,-1.18 9.218,-0.992 C 8.522,-0.876 7.798,-0.867 7.082,-0.793 C 6.72,-1.084 7.107,-1.477 7.152,-1.812 C 7.128,-2.056 7.612,-2.412 7.137,-2.528 C 6.828,-2.549 6.595,-2.853 6.247,-2.755 C 6.05,-2.54 6.073,-2.218 6.031,-1.929 C 5.716,-1.512 5.856,-0.714 5.175,-0.623 C 5.045,-0.631 4.92,-0.691 4.864,-0.817 C 4.92,-1.222 5.314,-1.638 4.897,-1.999 C 5.498,-2.943 6.645,-3.695 6.46,-4.937 C 6.351,-5.043 6.247,-4.904 6.144,-4.85 C 5.264,-4.284 4.458,-3.463 3.549,-2.932 C 2.804,-2.065 1.793,-1.858 1.042,-1.002 C 0.797,-0.867 0.362,-0.842 0.35,-0.45 C 0.159,-0.195 -0.288,-0.842 -0.208,-0.297 L 0,0"
           style="fill:#231f20;fill-opacity:1;fill-rule:nonzero;stroke:none"
           id="path2512" />
      </g>
      <g
         id="g2514"
         transform="matrix(0,1.25,1.25,0,277.34786,143.55187)">
        <path
           d="M 0,0 C 0.044,0.106 0.163,0.126 0.244,0.093 C 0.557,-0.021 0.644,-0.346 0.729,-0.603 C 0.644,-1.178 0.012,-1.236 -0.357,-1.528 C -0.413,-1.528 -0.483,-1.538 -0.52,-1.466 C -0.344,-0.982 -0.149,-0.497 0,0"
           style="fill:#231f20;fill-opacity:1;fill-rule:nonzero;stroke:none"
           id="path2516" />
      </g>
      <g
         id="g2518"
         transform="matrix(0,1.25,1.25,0,282.84786,140.65437)">
        <path
           d="M 0,0 C 0.275,0.357 0.53,0.738 0.887,1.04 C 1.175,1.099 1.175,0.656 1.45,0.715 C 2.239,0.854 2.839,0.473 3.556,0.437 C 4.072,0.334 4.607,0.269 5.148,0.23 C 5.231,0.23 5.382,0.254 5.358,0.383 C 5.299,0.531 5.322,0.68 5.441,0.796 C 5.716,0.981 5.932,1.339 6.271,1.304 C 6.396,1.18 6.317,0.966 6.419,0.831 C 6.763,0.615 7.036,0.334 7.298,0.023 C 7.377,-0.037 7.509,-0.023 7.586,0 C 8.098,0.59 8.611,1.202 8.855,1.93 C 9.131,2.751 9.334,3.6 9.688,4.4 C 9.701,4.412 9.733,4.446 9.769,4.433 C 10.325,3.559 10.07,2.359 10.254,1.339 C 10.299,0.754 10.046,0.209 9.515,-0.037 C 8.847,-0.707 7.99,-1.12 7.464,-1.871 C 7.112,-1.858 6.887,-2.112 6.642,-2.345 C 6.586,-2.426 6.511,-2.518 6.609,-2.61 C 7.089,-2.888 7.783,-2.675 8.298,-2.783 C 8.664,-2.809 9.031,-2.981 9.377,-2.82 C 9.388,-2.599 9.156,-2.435 9.098,-2.219 C 9.01,-1.952 8.706,-1.742 8.753,-1.431 C 8.95,-1.329 9.17,-1.456 9.355,-1.524 C 10.391,-1.895 11.064,-3.041 11.566,-3.925 C 11.594,-4.238 12.113,-4.414 11.87,-4.773 C 11.503,-4.978 11.234,-5.648 10.69,-5.465 C 10.544,-5.303 10.69,-5.037 10.566,-4.862 C 10.219,-3.925 9.109,-4.205 8.351,-3.925 C 7.783,-3.848 7.239,-3.678 6.609,-3.743 C 5.981,-3.892 5.306,-3.663 4.71,-3.815 C 3.877,-3.824 3.037,-3.616 2.252,-3.986 C 1.905,-4.078 1.511,-4.25 1.128,-4.101 L 1.063,-3.986 C 1.409,-3.317 1.033,-2.599 0.727,-2.02 C 0.53,-1.408 0.161,-0.86 -0.011,-0.22 L 0,0 z M 1.418,-1.006 L 1.974,-2.078 C 2.125,-2.333 2.018,-2.675 2.341,-2.862 C 2.595,-2.944 3.003,-2.994 3.174,-2.774 C 2.977,-2.057 2.724,-1.341 2.181,-0.79 C 1.961,-0.735 1.727,-0.622 1.492,-0.707 C 1.385,-0.773 1.444,-0.9 1.418,-1.006 z M 3.661,-1.28 C 3.864,-1.684 4.109,-2.088 4.231,-2.527 C 4.377,-2.797 4.71,-2.774 4.987,-2.783 C 5.148,-2.75 5.382,-2.76 5.358,-2.527 L 4.908,-1.535 C 4.731,-1.099 4.215,-1.19 3.844,-1.053 C 3.74,-1.063 3.637,-1.166 3.661,-1.28 z M 5.577,-0.797 C 5.716,-1.223 6.094,-1.547 6.245,-1.976 L 6.463,-2.009 C 6.642,-1.976 6.763,-1.816 6.848,-1.664 C 7.161,-1.133 6.546,-0.81 6.304,-0.427 C 6.143,-0.325 6.018,-0.056 5.786,-0.137 C 5.546,-0.255 5.621,-0.568 5.577,-0.797"
           style="fill:#231f20;fill-opacity:1;fill-rule:nonzero;stroke:none"
           id="path2520" />
      </g>
      <g
         id="g2522"
         transform="matrix(0,1.25,1.25,0,273.44786,151.26187)">
        <path
           d="M 0,0 C 0.58,-0.033 1.09,-0.394 1.37,-0.912 C 1.41,-1.401 0.891,-1.42 0.612,-1.63 C 0.304,-1.65 0.487,-1.259 0.383,-1.083 C 0.232,-0.752 -0.022,-0.452 -0.068,-0.068 L 0,0"
           style="fill:#231f20;fill-opacity:1;fill-rule:nonzero;stroke:none"
           id="path2524" />
      </g>
      <g
         id="g2526"
         transform="matrix(0,1.25,1.25,0,220.40036,144.88312)">
        <path
           d="M 0,0 C 0.289,0.262 0.127,1.018 0.706,0.841 L 1.491,0.324 C 2.403,0.256 3.177,-0.117 4.087,-0.173 C 4.4,-0.324 4.955,-0.369 4.929,-0.81 C 4.769,-1.11 5.024,-1.372 5.061,-1.652 C 5.193,-2.495 5.627,-3.258 5.557,-4.135 C 5.451,-4.471 5.615,-4.852 5.578,-5.21 C 5.39,-5.359 5.117,-5.28 4.898,-5.348 C 3.739,-5.756 2.445,-5.809 1.259,-6.169 C 1.167,-6.145 1.071,-6.099 1.014,-6.007 C 0.948,-5.821 1.006,-5.603 1.036,-5.42 C 0.689,-4.31 0.146,-3.281 -0.104,-2.126 C -0.696,-1.476 -0.118,-0.669 0,0 z M 0.726,-1.476 C 1.315,-2.601 1.709,-3.789 2.344,-4.874 C 2.445,-4.992 2.613,-5.049 2.711,-4.909 C 2.806,-4.585 2.648,-4.283 2.613,-3.961 C 2.403,-3.339 2.194,-2.727 1.999,-2.102 C 1.916,-1.951 2.045,-1.813 2.171,-1.724 C 2.458,-1.618 2.727,-1.754 2.945,-1.929 C 3.361,-2.717 3.568,-3.582 3.788,-4.436 C 3.825,-4.561 3.915,-4.679 4.052,-4.723 C 4.156,-4.723 4.306,-4.751 4.379,-4.631 C 4.492,-4.167 4.411,-3.648 4.306,-3.2 C 4.009,-2.565 4.156,-1.523 3.266,-1.339 C 2.445,-1.409 1.825,-1.016 0.969,-1.153 C 0.781,-1.131 0.682,-1.304 0.726,-1.476"
           style="fill:#231f20;fill-opacity:1;fill-rule:nonzero;stroke:none"
           id="path2528" />
      </g>
      <g
         id="g2530"
         transform="matrix(0,1.25,1.25,0,209.97411,140.35312)">
        <path
           d="M 0,0 C 0.193,0 0.311,-0.197 0.468,-0.265 C 0.993,-0.542 1.589,-0.289 2.076,-0.14 C 2.886,-0.208 3.589,0.07 4.35,0.153 C 5.043,0.083 5.706,0.141 6.394,0.172 C 7.643,0.198 8.959,0.116 10.209,0.098 C 10.659,-0.021 11.198,0.061 11.663,-0.035 C 12.34,-0.394 12.078,-1.329 12.162,-1.976 L 12.053,-2.013 C 9.953,-1.294 7.618,-1.281 5.322,-1.027 C 4.33,-0.958 3.264,-0.87 2.283,-0.97 C 1.626,-0.811 0.993,-1.003 0.494,-1.373 C 0.247,-1.11 0.214,-0.765 0,-0.481 C -0.085,-0.357 -0.209,-0.092 0,0"
           style="fill:#231f20;fill-opacity:1;fill-rule:nonzero;stroke:none"
           id="path2532" />
      </g>
      <g
         id="g2534"
         transform="matrix(0,1.25,1.25,0,219.95161,141.20062)">
        <path
           d="M 0,0 C 0.315,0.104 0.647,-0.046 0.972,-0.07 C 1.64,-0.603 2.094,-1.339 2.228,-2.148 C 2.876,-2.842 2.911,-3.867 2.781,-4.783 C 2.586,-5.258 2.009,-5.164 1.594,-5.201 C 1.398,-4.862 1.758,-4.448 1.492,-4.124 C 1.188,-3.397 0.902,-2.681 0.727,-1.905 C 0.508,-1.294 -0.309,-0.877 -0.173,-0.158 L 0,0"
           style="fill:#231f20;fill-opacity:1;fill-rule:nonzero;stroke:none"
           id="path2536" />
      </g>
      <g
         id="g2538"
         transform="matrix(0,1.25,1.25,0,212.87536,142.86062)">
        <path
           d="M 0,0 C 0.129,0.025 0.277,0.074 0.404,0.052 C 0.632,-0.446 1.133,-0.829 1.166,-1.411 C 1.096,-1.673 1.181,-2.034 0.959,-2.204 C 0.587,-2.297 0.522,-1.791 0.196,-1.705 C -0.157,-1.536 -0.321,-1.13 -0.702,-1.026 C -0.959,-0.508 -0.232,-0.379 0,0"
           style="fill:#231f20;fill-opacity:1;fill-rule:nonzero;stroke:none"
           id="path2540" />
      </g>
      <g
         id="g2542"
         transform="matrix(0,1.25,1.25,0,207.20661,145.54187)">
        <path
           d="M 0,0 C 0.667,0.214 1.564,0.239 2.208,-0.023 C 2.542,-0.271 2.509,-0.704 2.509,-1.075 C 2.486,-1.329 2.361,-1.575 2.121,-1.702 C 1.621,-1.711 1.265,-1.352 0.834,-1.169 C 0.487,-0.857 0.071,-0.661 -0.249,-0.35 C -0.332,-0.165 -0.136,-0.06 0,0"
           style="fill:#231f20;fill-opacity:1;fill-rule:nonzero;stroke:none"
           id="path2544" />
      </g>
      <g
         id="g2546"
         transform="matrix(0,1.25,1.25,0,222.07411,152.21812)">
        <path
           d="M 0,0 C 0,0.776 0.878,0.498 1.304,0.785 C 1.49,0.797 1.418,0.59 1.468,0.487 C 1.084,-0.6 1.348,-1.846 1.439,-2.98 C 1.535,-3.384 1.717,-3.751 1.893,-4.122 C 2.121,-5.083 2.283,-6.073 2.357,-7.104 C 2.243,-7.508 2.331,-7.954 2.561,-8.28 C 2.561,-8.371 2.482,-8.476 2.392,-8.503 C 1.995,-8.581 1.559,-8.559 1.199,-8.733 C 1.084,-8.777 1.014,-8.663 0.959,-8.594 C 0.913,-8.371 1.039,-8.224 1.039,-8.028 C 0.991,-7.239 1.06,-6.466 0.717,-5.796 C 0.636,-5.221 0.382,-4.703 0.334,-4.1 C 0.214,-3.247 -0.371,-2.504 -0.105,-1.535 C 0.091,-1.077 -0.105,-0.505 0,0"
           style="fill:#231f20;fill-opacity:1;fill-rule:nonzero;stroke:none"
           id="path2548" />
      </g>
    </g>
  </g>
</svg>
