<?xml version="1.0" encoding="UTF-8" standalone="no"?>
<!-- Created with Inkscape (http://www.inkscape.org/) -->
<svg
   xmlns:svg="http://www.w3.org/2000/svg"
   xmlns="http://www.w3.org/2000/svg"
   version="1.0"
   width="708.66144"
   height="124.91699"
   id="svg10212">
  <defs
     id="defs10214" />
  <g
     transform="translate(-360.83385,-43.249772)"
     id="layer1">
    <g
       transform="matrix(6.2426129,0,0,6.2426129,-1082.5831,-2025.9267)"
       id="g10202">
      <path
         d="M 245.9,342.23 C 245.89,342.23 245.9,349.15 245.9,349.15 C 245.9,350.02 245.15,350.78 244.17,350.78 C 243.66,350.78 243.24,350.78 243.24,350.78 L 243.24,351.13 L 251.17,351.13 L 251.17,350.78 C 251.17,350.78 250.75,350.78 250.24,350.78 C 249.27,350.78 248.51,350 248.51,349.15 L 248.51,342.12 C 248.51,342.12 248.51,334.84 248.51,333.73 C 248.51,332.89 249.26,332.1 250.24,332.1 C 250.75,332.1 251.17,332.1 251.17,332.1 L 251.17,331.74 L 243.24,331.74 L 243.24,332.1 C 243.24,332.1 243.66,332.1 244.17,332.1 C 245.17,332.1 245.9,332.89 245.9,333.73 C 245.9,334.84 245.9,341.25 245.9,341.25 L 236.49,341.25 C 236.49,341.25 236.49,334.84 236.49,333.73 C 236.49,332.89 237.25,332.1 238.22,332.1 C 238.74,332.1 239.16,332.1 239.16,332.1 L 239.16,331.74 L 231.22,331.74 L 231.22,332.1 C 231.22,332.1 231.64,332.1 232.16,332.1 C 233.13,332.1 233.88,332.89 233.88,333.73 C 233.88,334.84 233.88,342.12 233.88,342.12 L 233.88,349.15 C 233.88,350 233.13,350.78 232.16,350.78 C 231.64,350.78 231.22,350.78 231.22,350.78 L 231.22,351.13 L 239.16,351.13 L 239.16,350.78 C 239.16,350.78 238.74,350.78 238.22,350.78 C 237.25,350.78 236.49,350 236.49,349.15 C 236.49,349.15 236.51,342.23 236.49,342.23 L 245.9,342.23"
         style="font-size:9.96259975px;letter-spacing:0;word-spacing:0;fill:#000000;fill-rule:nonzero;stroke:none;font-family:fnt1"
         id="path9282" />
      <path
         d="M 264.78,346.06 C 264.85,347.2 264.14,348.93 263.16,349.81 C 262.22,350.66 260.88,351.4 259.08,351.4 C 257.05,351.4 255.29,350.31 254.65,350.07 C 254.27,349.92 253.76,349.94 253.46,350.12 C 253.1,350.34 252.89,350.69 252.8,351.35 L 252.51,351.35 L 252.51,344.63 L 252.8,344.63 C 253.08,346.7 254.04,347.91 254.64,348.6 C 255.62,349.73 257.47,350.37 259.25,350.08 C 260.66,349.85 262.21,348.32 262.04,346.42 C 261.98,345.73 261.83,344.73 260.4,343.8 C 259.51,343.22 258.24,342.38 257.03,341.59 C 255.51,340.58 254.13,339.49 253.74,339.04 C 253.23,338.46 252.6,337.63 252.6,336.3 C 252.6,335.15 253.04,333.85 253.96,332.98 C 254.89,332.11 256.13,331.46 257.93,331.46 C 259.72,331.46 261.08,332.41 261.55,332.63 C 262.01,332.84 262.52,332.79 262.81,332.63 C 263.1,332.46 263.29,332.22 263.37,331.57 L 263.67,331.57 L 263.67,337.93 L 263.37,337.93 C 263.1,335.86 262.2,334.31 261.57,333.74 C 260.95,333.17 259.72,332.38 257.9,332.74 C 256.16,333.07 255.3,333.86 255.14,335.26 C 255.02,336.33 255.6,336.99 255.93,337.38 C 256.61,338.2 260.93,340.64 262.88,342.33 C 263.88,343.2 264.67,344.24 264.78,346.06"
         style="font-size:9.96259975px;letter-spacing:0;word-spacing:0;fill:#000000;fill-rule:nonzero;stroke:none;font-family:fnt1"
         id="path9284" />
      <path
         d="M 277.36,341.23 C 280.81,342.42 281.8,344.86 281.16,347.37 C 280.4,350.33 277.07,350.93 275.99,351.07 C 275.5,351.13 274.26,351.13 273.02,351.13 C 270.83,351.13 268.05,351.12 265.82,351.12 L 265.82,350.77 C 265.82,350.77 266.42,350.77 266.96,350.77 C 267.69,350.77 268.52,350.16 268.52,349.23 C 268.52,349.23 268.52,334.68 268.52,333.76 C 268.52,332.83 267.69,332.21 266.97,332.21 C 266.42,332.21 265.83,332.21 265.83,332.21 L 265.83,331.85 C 267.8,331.85 270.67,331.85 272.72,331.85 C 274.38,331.85 275.28,332.01 275.86,332.12 C 276.84,332.31 279.69,333.16 280.37,335.82 C 280.9,337.88 279.87,340.49 277.36,341.23 z M 271.1,340.69 C 272.05,340.93 274.85,341 275.94,340.31 C 277.65,339.23 278.23,337.49 277.92,335.96 C 277.73,335.04 277.25,334.18 276.4,333.59 C 274.75,332.42 272.35,332.61 271.1,332.99 L 271.1,340.69 z M 271.1,350.04 C 272.44,350.45 275,350.77 276.78,349.49 C 278.92,347.96 279.37,344.22 276.35,342.28 C 275.14,341.49 272.11,341.55 271.1,341.78 L 271.1,350.04"
         style="font-size:9.96259975px;letter-spacing:0;word-spacing:0;fill:#000000;fill-rule:nonzero;stroke:none;font-family:fnt1"
         id="path9286" />
      <path
         d="M 299.33,332.08 L 299.61,338.65 L 299.21,338.66 C 299.02,337.01 298.4,335.84 297.61,335.07 C 297.38,334.85 296.95,334.41 296.33,334.02 C 295.29,333.37 293.75,332.79 291.92,333.12 C 289.18,333.61 287.76,335.42 287.06,337.17 C 286.19,339.32 285.64,342.99 287.11,346.09 C 288.31,348.6 290.61,349.65 292.39,349.92 C 293.9,350.15 297.25,350.08 299.81,346.63 L 300.22,346.9 C 298.23,349.7 295.6,351.5 292.58,351.47 C 288.72,351.43 286.29,349.31 285.18,348.04 C 284.01,346.71 283.12,344.18 283.1,341.98 C 283.09,340.02 283.53,337.84 284.23,336.57 C 285.44,334.38 287.97,332.21 291.3,331.88 C 293.79,331.64 295.43,332.12 296.83,332.93 C 297.53,333.33 297.93,333.37 298.31,333.21 C 298.69,333.05 298.99,332.72 298.99,332.08 L 299.33,332.08"
         style="font-size:9.96259975px;letter-spacing:0;word-spacing:0;fill:#000000;fill-rule:nonzero;stroke:none;font-family:fnt1"
         id="path9288" />
      <path
         d="M 306,341.45 L 315.68,351.13 L 315.68,331.76 L 306,341.45"
         style="font-size:9.96259975px;letter-spacing:0;word-spacing:0;fill:#ee2c30;fill-rule:nonzero;stroke:none;font-family:fnt1"
         id="path9290" />
      <path
         d="M 315.69,351.13 L 335.06,351.13 L 325.37,341.45 L 315.69,351.13"
         style="font-size:9.96259975px;letter-spacing:0;word-spacing:0;fill:#ee2c30;fill-rule:nonzero;stroke:none;font-family:fnt1"
         id="path9292" />
      <path
         d="M 325.37,341.45 L 335.06,331.76 L 315.69,331.76 L 325.37,341.45"
         style="font-size:9.96259975px;letter-spacing:0;word-spacing:0;fill:#ee2c30;fill-rule:nonzero;stroke:none;font-family:fnt1"
         id="path9294" />
      <path
         d="M 335.06,331.76 L 335.06,351.13 L 344.74,341.45 L 335.06,331.76"
         style="font-size:9.96259975px;letter-spacing:0;word-spacing:0;fill:#ee2c30;fill-rule:nonzero;stroke:none;font-family:fnt1"
         id="path9296" />
    </g>
  </g>
</svg>
