<?xml version="1.0" encoding="UTF-8" standalone="no"?>
<!-- Created with Inkscape (http://www.inkscape.org/) -->

<svg
   xmlns:dc="http://purl.org/dc/elements/1.1/"
   xmlns:cc="http://creativecommons.org/ns#"
   xmlns:rdf="http://www.w3.org/1999/02/22-rdf-syntax-ns#"
   xmlns:svg="http://www.w3.org/2000/svg"
   xmlns="http://www.w3.org/2000/svg"
   xmlns:sodipodi="http://sodipodi.sourceforge.net/DTD/sodipodi-0.dtd"
   xmlns:inkscape="http://www.inkscape.org/namespaces/inkscape"
   width="124"
   height="40"
   id="svg2"
   version="1.1"
   inkscape:version="0.47 r22583"
   sodipodi:docname="ICBC_logo.svg">
  <defs
     id="defs4">
    <inkscape:perspective
       sodipodi:type="inkscape:persp3d"
       inkscape:vp_x="0 : 526.18109 : 1"
       inkscape:vp_y="0 : 1000 : 0"
       inkscape:vp_z="744.09448 : 526.18109 : 1"
       inkscape:persp3d-origin="372.04724 : 350.78739 : 1"
       id="perspective10" />
    <clipPath
       id="clipPath3048"
       clipPathUnits="userSpaceOnUse">
      <path
         id="path3050"
         d="m 1082.2,512.557 -5.79,0 0,1.881 3.1,-0.027 0,5.895 2.69,0.011 0,-1.856 -0.76,0 0,-4.05 0.76,0 0,-1.854 m -4.64,5.976 -1.57,1.278 c 2.27,2.025 3.69,4.743 4.62,8.298 l 1.59,-0.765 0,-0.153 c -0.11,-0.809 -0.34,-1.409 -0.46,-1.809 l 0.46,0 0,-1.854 -1.19,0 c -0.79,-1.62 -1.75,-3.42 -3.45,-4.995" />
    </clipPath>
    <clipPath
       id="clipPath3036"
       clipPathUnits="userSpaceOnUse">
      <path
         id="path3038"
         d="m 1082.2,495.493 -11.31,0 0,36.999 11.31,0 0,-5.148 -1.59,0.765 c -0.93,-3.555 -2.35,-6.273 -4.62,-8.298 l 1.57,-1.278 c 1.7,1.575 2.66,3.375 3.45,4.995 l 1.19,0 0,-3.211 -2.69,-0.011 0,-5.895 -3.1,0.027 0,-1.881 5.79,0 0,-17.064 m 0,18.918 -0.76,0 0,4.05 0.76,0 0,-4.05 m 0,10.971 -0.46,0 c 0.12,0.4 0.35,1 0.46,1.809 l 0,-1.809" />
    </clipPath>
    <clipPath
       id="clipPath3024"
       clipPathUnits="userSpaceOnUse">
      <path
         id="path3026"
         d="m 1082.2,475.081 -158.998,0 0,93.996 158.998,0 0,-36.585 -11.31,0 0,-36.999 11.31,0 0,-20.412" />
    </clipPath>
    <clipPath
       id="clipPath2996"
       clipPathUnits="userSpaceOnUse">
      <path
         id="path2998"
         d="m 1185.89,495.493 -103.69,0 0,17.064 3.97,0 0,-7.173 1.97,0 0,7.2 8.62,-0.027 0,1.854 -8.62,0 0,4.05 6.37,0 0,1.845 -6.37,0 -0.03,3.204 7.62,0.045 0,1.827 -13.53,0 0,1.809 c 0,0.047 0.01,0.095 0.01,0.144 l -0.01,0.009 0,5.148 103.69,0 0,-36.999 m -99.75,18.918 -3.94,0 0,4.05 3.97,0 -0.03,-4.05 m -3.94,5.906 0,3.211 3.97,0 0,-3.195 -3.97,-0.016" />
    </clipPath>
    <clipPath
       id="clipPath2852"
       clipPathUnits="userSpaceOnUse">
      <path
         id="path2854"
         d="m 0,807.874 1240.08,0 L 1240.08,0 0,0 0,807.874 z" />
    </clipPath>
    <clipPath
       id="clipPath2838"
       clipPathUnits="userSpaceOnUse">
      <path
         id="path2840"
         d="m 627.138,807.874 612.942,0 0,-807.874 -612.942,0 0,807.874 z" />
    </clipPath>
    <clipPath
       id="clipPath2832"
       clipPathUnits="userSpaceOnUse">
      <path
         id="path2834"
         d="m 1240.16,-0.001953 -613.022,0 0,807.875953 613.022,0 0,-807.875953 M 923.202,569.077 l 0,-93.996 158.998,0 0,20.412 103.69,0 0,36.999 -103.69,0 0,36.585 -158.998,0" />
    </clipPath>
    <inkscape:perspective
       id="perspective2824"
       inkscape:persp3d-origin="0.5 : 0.33333333 : 1"
       inkscape:vp_z="1 : 0.5 : 1"
       inkscape:vp_y="0 : 1000 : 0"
       inkscape:vp_x="0 : 0.5 : 1"
       sodipodi:type="inkscape:persp3d" />
    <inkscape:perspective
       id="perspective5220"
       inkscape:persp3d-origin="0.5 : 0.33333333 : 1"
       inkscape:vp_z="1 : 0.5 : 1"
       inkscape:vp_y="0 : 1000 : 0"
       inkscape:vp_x="0 : 0.5 : 1"
       sodipodi:type="inkscape:persp3d" />
    <inkscape:perspective
       id="perspective5253"
       inkscape:persp3d-origin="0.5 : 0.33333333 : 1"
       inkscape:vp_z="1 : 0.5 : 1"
       inkscape:vp_y="0 : 1000 : 0"
       inkscape:vp_x="0 : 0.5 : 1"
       sodipodi:type="inkscape:persp3d" />
    <inkscape:perspective
       id="perspective3683"
       inkscape:persp3d-origin="0.5 : 0.33333333 : 1"
       inkscape:vp_z="1 : 0.5 : 1"
       inkscape:vp_y="0 : 1000 : 0"
       inkscape:vp_x="0 : 0.5 : 1"
       sodipodi:type="inkscape:persp3d" />
    <inkscape:perspective
       id="perspective3792"
       inkscape:persp3d-origin="0.5 : 0.33333333 : 1"
       inkscape:vp_z="1 : 0.5 : 1"
       inkscape:vp_y="0 : 1000 : 0"
       inkscape:vp_x="0 : 0.5 : 1"
       sodipodi:type="inkscape:persp3d" />
    <inkscape:perspective
       id="perspective3076"
       inkscape:persp3d-origin="0.5 : 0.33333333 : 1"
       inkscape:vp_z="1 : 0.5 : 1"
       inkscape:vp_y="0 : 1000 : 0"
       inkscape:vp_x="0 : 0.5 : 1"
       sodipodi:type="inkscape:persp3d" />
    <inkscape:perspective
       id="perspective3097"
       inkscape:persp3d-origin="0.5 : 0.33333333 : 1"
       inkscape:vp_z="1 : 0.5 : 1"
       inkscape:vp_y="0 : 1000 : 0"
       inkscape:vp_x="0 : 0.5 : 1"
       sodipodi:type="inkscape:persp3d" />
  </defs>
  <sodipodi:namedview
     id="base"
     pagecolor="#ffffff"
     bordercolor="#666666"
     borderopacity="1.0"
     inkscape:pageopacity="0.0"
     inkscape:pageshadow="2"
     inkscape:zoom="3.9333341"
     inkscape:cx="149.99997"
     inkscape:cy="19.925484"
     inkscape:document-units="px"
     inkscape:current-layer="layer1"
     showgrid="false"
     inkscape:window-width="1280"
     inkscape:window-height="725"
     inkscape:window-x="-9"
     inkscape:window-y="-9"
     inkscape:window-maximized="1" />
  <metadata
     id="metadata7">
    <rdf:RDF>
      <cc:Work
         rdf:about="">
        <dc:format>image/svg+xml</dc:format>
        <dc:type
           rdf:resource="http://purl.org/dc/dcmitype/StillImage" />
        <dc:title></dc:title>
      </cc:Work>
    </rdf:RDF>
  </metadata>
  <g
     inkscape:label="Layer 1"
     inkscape:groupmode="layer"
     id="layer1"
     transform="translate(1181.7005,-512.67029)">
    <g
       transform="matrix(0.15566784,0,0,0.15566784,-1194.2368,501.40359)"
       id="layer1-0"
       inkscape:label="Layer 1"
       style="fill:#cb0202;fill-opacity:1"
       inkscape:export-filename="C:\Users\Daijin\Pictures\logo\ICBC.png"
       inkscape:export-xdpi="90"
       inkscape:export-ydpi="90">
      <g
         id="g3518"
         transform="matrix(4.4418996,0,0,-4.4426705,731.49543,249.51027)"
         style="fill:#cb0202;fill-opacity:1">
        <path
           d="m 0,0 0,-4.426 14.363,0 0,13.28 -8.834,0 0,4.427 8.834,0 0,13.295 -14.363,0 0,-4.43 9.93,0 0,-4.437 -8.852,0 0,-13.283 8.852,0 L 9.93,0 0,0 z m -25.533,11.062 c 0,13.442 10.904,24.356 24.353,24.356 13.446,0 24.352,-10.914 24.352,-24.356 0,-13.447 -10.906,-24.353 -24.352,-24.353 -13.449,0 -24.353,10.906 -24.353,24.353 m -4.461,0 c 0,15.917 12.892,28.809 28.814,28.809 15.918,0 28.819,-12.892 28.819,-28.809 0,-15.917 -12.901,-28.814 -28.819,-28.814 -15.922,0 -28.814,12.897 -28.814,28.814 m 27.76,11.096 0,4.428 -14.381,0 0,-13.287 8.812,0 0,-4.432 -8.812,0 0,-13.285 14.381,0 0,4.428 -9.955,0 0,4.426 8.851,0 0,13.295 -8.851,0 0,4.427"
           style="fill:#cb0202;fill-opacity:1;fill-rule:evenodd;stroke:none"
           id="path3520" />
      </g>
    </g>
    <g
       inkscape:label="#g3632"
       style="color:#000000;fill:#201e1d;fill-opacity:1;fill-rule:evenodd;stroke:none;marker:none;visibility:visible;display:inline;overflow:visible;enable-background:accumulate"
       transform="matrix(0.48159012,0,0,0.48597387,-1100.1428,361.52422)"
       id="g2931">
      <path
         d="m -99.847567,355.51842 0,-0.10291 15.347369,0 c 1.402102,0 3.420214,0.22297 5.036705,1.27633 1.506437,0.98762 2.276807,2.44689 2.276807,4.33637 0,1.50501 -0.413055,2.68271 -1.222015,3.49596 -1.505009,1.49929 -4.103399,1.49643 -6.004312,1.49643 l -15.490295,0 0,-0.0928 0.05568,-10.40928 z m 0,-8.23396 0,-9.24586 14.049603,0 c 2.471187,0 6.613176,0 6.613176,4.87377 0,1.78657 -0.776087,3.05003 -2.305393,3.7618 -1.379234,0.64317 -3.101489,0.71034 -4.273481,0.71034 l -14.083905,0 0,-0.10005 z m 15.917643,26.90578 c 5.325415,0 9.343058,-1.28633 11.93859,-3.82612 2.665566,-2.60983 3.227264,-5.96429 3.227264,-8.32686 0,-5.16248 -2.169613,-8.75277 -6.451669,-10.66369 l -0.188662,-0.0785 0.178657,-0.0943 c 1.930927,-1.01049 4.487869,-3.0629 4.487869,-9.18155 0,-3.36162 -1.277756,-6.39022 -3.603159,-8.53124 -2.548366,-2.35113 -6.267295,-3.5903 -10.742301,-3.5903 l -23.193995,-0.0143 0,44.29413"
         style="color:#000000;fill:#201e1d;fill-opacity:1;fill-rule:evenodd;stroke:none;marker:none;visibility:visible;display:inline;overflow:visible;enable-background:accumulate"
         id="path2933" />
      <path
         id="path2935"
         style="color:#000000;fill:#201e1d;fill-opacity:1;fill-rule:evenodd;stroke:none;marker:none;visibility:visible;display:inline;overflow:visible;enable-background:accumulate"
         d="m -169.35094,374.19024 8.83567,0 0,-44.2927 -8.83567,0 0,44.2927 z" />
      <path
         d="m -153.34183,351.66657 c 0,4.28206 0.72607,7.81804 2.21964,10.80662 1.24774,2.48976 3.00573,4.58791 5.54409,6.60746 3.94904,3.13722 9.51028,4.73084 16.5308,4.73084 l 12.09295,0 0,-8.35973 -11.42263,0 c -6.35448,0 -10.96241,-1.57218 -13.69229,-4.67653 -1.94093,-2.20106 -2.93713,-5.17391 -2.96285,-8.82996 -0.0357,-3.92188 1.07051,-7.04052 3.27729,-9.26159 2.76132,-2.7799 7.26205,-4.18772 13.37785,-4.18772 l 11.42263,0 0,-8.29113 -11.67132,0 c -3.93046,0 -7.2249,0.39448 -10.08056,1.19201 -2.84994,0.80181 -5.19249,1.99667 -7.15486,3.64889 -2.79134,2.35399 -7.48074,7.63795 -7.48074,16.62084"
         style="color:#000000;fill:#201e1d;fill-opacity:1;fill-rule:evenodd;stroke:none;marker:none;visibility:visible;display:inline;overflow:visible;enable-background:accumulate"
         id="path2937" />
      <path
         d="m -63.432938,351.66657 c 0,4.27348 0.743214,8.04672 2.219637,11.19966 1.277756,2.73274 3.140079,5.08816 5.541232,6.99479 3.711782,2.95713 8.965734,4.33065 16.530795,4.33065 l 12.748979,0 0,-8.3583 -12.075798,0 c -6.343046,0 -10.950973,-1.64079 -13.698007,-4.8752 -1.938073,-2.2768 -2.934266,-5.30826 -2.958563,-9.0129 -0.03716,-4.0305 1.107675,-7.2449 3.391628,-9.54315 2.777048,-2.79992 7.237762,-4.21917 13.264942,-4.21917 l 12.075798,0 0,-8.28398 -12.330206,0 c -3.927601,0 -7.219181,0.39019 -10.077697,1.18915 -2.84994,0.80038 -5.192493,1.98952 -7.149147,3.64317 -2.255369,1.8952 -7.483593,7.34067 -7.483593,16.93528"
         style="color:#000000;fill:#201e1d;fill-opacity:1;fill-rule:evenodd;stroke:none;marker:none;visibility:visible;display:inline;overflow:visible;enable-background:accumulate"
         id="path2939" />
    </g>
  </g>
</svg>
