<?xml version="1.0" encoding="UTF-8" standalone="no"?>
<!-- Created with Inkscape (http://www.inkscape.org/) -->

<svg
   xmlns:dc="http://purl.org/dc/elements/1.1/"
   xmlns:cc="http://creativecommons.org/ns#"
   xmlns:rdf="http://www.w3.org/1999/02/22-rdf-syntax-ns#"
   xmlns:svg="http://www.w3.org/2000/svg"
   xmlns="http://www.w3.org/2000/svg"
   xmlns:sodipodi="http://sodipodi.sourceforge.net/DTD/sodipodi-0.dtd"
   xmlns:inkscape="http://www.inkscape.org/namespaces/inkscape"
   width="42"
   height="40"
   id="svg2"
   version="1.1"
   inkscape:version="0.47 r22583"
   sodipodi:docname="ICBC_logo.svg">
  <defs
     id="defs4">
    <inkscape:perspective
       sodipodi:type="inkscape:persp3d"
       inkscape:vp_x="0 : 526.18109 : 1"
       inkscape:vp_y="0 : 1000 : 0"
       inkscape:vp_z="744.09448 : 526.18109 : 1"
       inkscape:persp3d-origin="372.04724 : 350.78739 : 1"
       id="perspective10" />
    <clipPath
       id="clipPath3048"
       clipPathUnits="userSpaceOnUse">
      <path
         id="path3050"
         d="m 1082.2,512.557 -5.79,0 0,1.881 3.1,-0.027 0,5.895 2.69,0.011 0,-1.856 -0.76,0 0,-4.05 0.76,0 0,-1.854 m -4.64,5.976 -1.57,1.278 c 2.27,2.025 3.69,4.743 4.62,8.298 l 1.59,-0.765 0,-0.153 c -0.11,-0.809 -0.34,-1.409 -0.46,-1.809 l 0.46,0 0,-1.854 -1.19,0 c -0.79,-1.62 -1.75,-3.42 -3.45,-4.995" />
    </clipPath>
    <clipPath
       id="clipPath3036"
       clipPathUnits="userSpaceOnUse">
      <path
         id="path3038"
         d="m 1082.2,495.493 -11.31,0 0,36.999 11.31,0 0,-5.148 -1.59,0.765 c -0.93,-3.555 -2.35,-6.273 -4.62,-8.298 l 1.57,-1.278 c 1.7,1.575 2.66,3.375 3.45,4.995 l 1.19,0 0,-3.211 -2.69,-0.011 0,-5.895 -3.1,0.027 0,-1.881 5.79,0 0,-17.064 m 0,18.918 -0.76,0 0,4.05 0.76,0 0,-4.05 m 0,10.971 -0.46,0 c 0.12,0.4 0.35,1 0.46,1.809 l 0,-1.809" />
    </clipPath>
    <clipPath
       id="clipPath3024"
       clipPathUnits="userSpaceOnUse">
      <path
         id="path3026"
         d="m 1082.2,475.081 -158.998,0 0,93.996 158.998,0 0,-36.585 -11.31,0 0,-36.999 11.31,0 0,-20.412" />
    </clipPath>
    <clipPath
       id="clipPath2996"
       clipPathUnits="userSpaceOnUse">
      <path
         id="path2998"
         d="m 1185.89,495.493 -103.69,0 0,17.064 3.97,0 0,-7.173 1.97,0 0,7.2 8.62,-0.027 0,1.854 -8.62,0 0,4.05 6.37,0 0,1.845 -6.37,0 -0.03,3.204 7.62,0.045 0,1.827 -13.53,0 0,1.809 c 0,0.047 0.01,0.095 0.01,0.144 l -0.01,0.009 0,5.148 103.69,0 0,-36.999 m -99.75,18.918 -3.94,0 0,4.05 3.97,0 -0.03,-4.05 m -3.94,5.906 0,3.211 3.97,0 0,-3.195 -3.97,-0.016" />
    </clipPath>
    <clipPath
       id="clipPath2852"
       clipPathUnits="userSpaceOnUse">
      <path
         id="path2854"
         d="m 0,807.874 1240.08,0 L 1240.08,0 0,0 0,807.874 z" />
    </clipPath>
    <clipPath
       id="clipPath2838"
       clipPathUnits="userSpaceOnUse">
      <path
         id="path2840"
         d="m 627.138,807.874 612.942,0 0,-807.874 -612.942,0 0,807.874 z" />
    </clipPath>
    <clipPath
       id="clipPath2832"
       clipPathUnits="userSpaceOnUse">
      <path
         id="path2834"
         d="m 1240.16,-0.001953 -613.022,0 0,807.875953 613.022,0 0,-807.875953 M 923.202,569.077 l 0,-93.996 158.998,0 0,20.412 103.69,0 0,36.999 -103.69,0 0,36.585 -158.998,0" />
    </clipPath>
    <inkscape:perspective
       id="perspective2824"
       inkscape:persp3d-origin="0.5 : 0.33333333 : 1"
       inkscape:vp_z="1 : 0.5 : 1"
       inkscape:vp_y="0 : 1000 : 0"
       inkscape:vp_x="0 : 0.5 : 1"
       sodipodi:type="inkscape:persp3d" />
    <inkscape:perspective
       id="perspective5220"
       inkscape:persp3d-origin="0.5 : 0.33333333 : 1"
       inkscape:vp_z="1 : 0.5 : 1"
       inkscape:vp_y="0 : 1000 : 0"
       inkscape:vp_x="0 : 0.5 : 1"
       sodipodi:type="inkscape:persp3d" />
    <inkscape:perspective
       id="perspective5253"
       inkscape:persp3d-origin="0.5 : 0.33333333 : 1"
       inkscape:vp_z="1 : 0.5 : 1"
       inkscape:vp_y="0 : 1000 : 0"
       inkscape:vp_x="0 : 0.5 : 1"
       sodipodi:type="inkscape:persp3d" />
    <inkscape:perspective
       id="perspective3683"
       inkscape:persp3d-origin="0.5 : 0.33333333 : 1"
       inkscape:vp_z="1 : 0.5 : 1"
       inkscape:vp_y="0 : 1000 : 0"
       inkscape:vp_x="0 : 0.5 : 1"
       sodipodi:type="inkscape:persp3d" />
    <inkscape:perspective
       id="perspective3792"
       inkscape:persp3d-origin="0.5 : 0.33333333 : 1"
       inkscape:vp_z="1 : 0.5 : 1"
       inkscape:vp_y="0 : 1000 : 0"
       inkscape:vp_x="0 : 0.5 : 1"
       sodipodi:type="inkscape:persp3d" />
    <inkscape:perspective
       id="perspective3076"
       inkscape:persp3d-origin="0.5 : 0.33333333 : 1"
       inkscape:vp_z="1 : 0.5 : 1"
       inkscape:vp_y="0 : 1000 : 0"
       inkscape:vp_x="0 : 0.5 : 1"
       sodipodi:type="inkscape:persp3d" />
    <inkscape:perspective
       id="perspective3097"
       inkscape:persp3d-origin="0.5 : 0.33333333 : 1"
       inkscape:vp_z="1 : 0.5 : 1"
       inkscape:vp_y="0 : 1000 : 0"
       inkscape:vp_x="0 : 0.5 : 1"
       sodipodi:type="inkscape:persp3d" />
  </defs>
  <sodipodi:namedview
     id="base"
     pagecolor="#ffffff"
     bordercolor="#666666"
     borderopacity="1.0"
     inkscape:pageopacity="0.0"
     inkscape:pageshadow="2"
     inkscape:zoom="3.9333341"
     inkscape:cx="149.99997"
     inkscape:cy="19.925484"
     inkscape:document-units="px"
     inkscape:current-layer="layer1"
     showgrid="false"
     inkscape:window-width="1280"
     inkscape:window-height="725"
     inkscape:window-x="-9"
     inkscape:window-y="-9"
     inkscape:window-maximized="1" />
  <metadata
     id="metadata7">
    <rdf:RDF>
      <cc:Work
         rdf:about="">
        <dc:format>image/svg+xml</dc:format>
        <dc:type
           rdf:resource="http://purl.org/dc/dcmitype/StillImage" />
        <dc:title></dc:title>
      </cc:Work>
    </rdf:RDF>
  </metadata>
  <g
     inkscape:label="Layer 1"
     inkscape:groupmode="layer"
     id="layer1"
     transform="translate(1101.7005,-512.67029)">
    <g
       transform="matrix(0.15566784,0,0,0.15566784,-1194.2368,501.40359)"
       id="layer1-0"
       inkscape:label="Layer 1"
       style="fill:#cb0202;fill-opacity:1"
       inkscape:export-filename="C:\Users\Daijin\Pictures\logo\ICBC.png"
       inkscape:export-xdpi="90"
       inkscape:export-ydpi="90">
      <g
         id="g3518"
         transform="matrix(4.4418996,0,0,-4.4426705,731.49543,249.51027)"
         style="fill:#cb0202;fill-opacity:1">
        <path
           d="m 0,0 0,-4.426 14.363,0 0,13.28 -8.834,0 0,4.427 8.834,0 0,13.295 -14.363,0 0,-4.43 9.93,0 0,-4.437 -8.852,0 0,-13.283 8.852,0 L 9.93,0 0,0 z m -25.533,11.062 c 0,13.442 10.904,24.356 24.353,24.356 13.446,0 24.352,-10.914 24.352,-24.356 0,-13.447 -10.906,-24.353 -24.352,-24.353 -13.449,0 -24.353,10.906 -24.353,24.353 m -4.461,0 c 0,15.917 12.892,28.809 28.814,28.809 15.918,0 28.819,-12.892 28.819,-28.809 0,-15.917 -12.901,-28.814 -28.819,-28.814 -15.922,0 -28.814,12.897 -28.814,28.814 m 27.76,11.096 0,4.428 -14.381,0 0,-13.287 8.812,0 0,-4.432 -8.812,0 0,-13.285 14.381,0 0,4.428 -9.955,0 0,4.426 8.851,0 0,13.295 -8.851,0 0,4.427"
           style="fill:#cb0202;fill-opacity:1;fill-rule:evenodd;stroke:none"
           id="path3520" />
      </g>
    </g>
  </g>
</svg>
