<?xml version="1.0" encoding="UTF-8" standalone="no"?>
<!-- Created with Inkscape (http://www.inkscape.org/) -->

<svg
   xmlns:dc="http://purl.org/dc/elements/1.1/"
   xmlns:cc="http://creativecommons.org/ns#"
   xmlns:rdf="http://www.w3.org/1999/02/22-rdf-syntax-ns#"
   xmlns:svg="http://www.w3.org/2000/svg"
   xmlns="http://www.w3.org/2000/svg"
   xmlns:sodipodi="http://sodipodi.sourceforge.net/DTD/sodipodi-0.dtd"
   xmlns:inkscape="http://www.inkscape.org/namespaces/inkscape"
   width="369.95987"
   height="67.638748"
   id="svg3533"
   version="1.1"
   inkscape:version="0.48.1 r9760"
   sodipodi:docname="New document 4">
  <defs
     id="defs3535" />
  <sodipodi:namedview
     id="base"
     pagecolor="#ffffff"
     bordercolor="#666666"
     borderopacity="1.0"
     inkscape:pageopacity="0.0"
     inkscape:pageshadow="2"
     inkscape:zoom="1.4"
     inkscape:cx="167.05142"
     inkscape:cy="-16.484942"
     inkscape:document-units="px"
     inkscape:current-layer="layer1"
     showgrid="false"
     fit-margin-top="0"
     fit-margin-left="0"
     fit-margin-right="0"
     fit-margin-bottom="0"
     inkscape:window-width="1024"
     inkscape:window-height="719"
     inkscape:window-x="-4"
     inkscape:window-y="-4"
     inkscape:window-maximized="1" />
  <metadata
     id="metadata3538">
    <rdf:RDF>
      <cc:Work
         rdf:about="">
        <dc:format>image/svg+xml</dc:format>
        <dc:type
           rdf:resource="http://purl.org/dc/dcmitype/StillImage" />
        <dc:title></dc:title>
      </cc:Work>
    </rdf:RDF>
  </metadata>
  <g
     inkscape:label="Layer 1"
     inkscape:groupmode="layer"
     id="layer1"
     transform="translate(-190.02006,-498.54281)">
    <g
       id="g3137"
       transform="matrix(1.25,0,0,-1.25,256.84381,532.37806)">
      <path
         inkscape:connector-curvature="0"
         d="m 0,0 c 0,-14.559 -11.803,-26.362 -26.362,-26.362 -14.56,0 -26.363,11.803 -26.363,26.362 0,14.559 11.803,26.362 26.363,26.362 C -11.803,26.362 0,14.559 0,0"
         style="fill:#ffffff;fill-opacity:1;fill-rule:nonzero;stroke:none"
         id="path3139" />
    </g>
    <g
       id="g3141"
       transform="matrix(1.25,0,0,-1.25,245.33619,534.04931)">
      <path
         inkscape:connector-curvature="0"
         d="m 0,0 c -0.972,1.508 -3.89,2.734 -4.167,2.826 -0.276,0.093 -0.053,0.241 0.029,0.291 1.814,1.11 3.088,2.7 3.217,5.441 0.132,2.735 -0.549,3.705 -2,4.939 -1.436,1.218 -3.368,1.02 -4.157,1.004 -0.933,-0.016 -5.679,-0.009 -6.037,-0.009 -0.472,0 -1.013,0 -2.877,0.025 -0.221,0.001 -0.332,-0.14 -0.22,-0.196 0.107,-0.055 0.55,-0.365 0.918,-0.808 0.335,-0.403 0.606,-1.286 0.606,-1.615 l 0.017,-22.732 c 0,-0.639 -0.571,-1.342 -0.991,-1.597 -0.421,-0.257 -0.017,-0.31 0.129,-0.31 0,0 6.282,-0.042 6.907,0 0.623,0.033 1.723,0.035 2.769,0.123 1.047,0.094 3.783,1.013 5.417,2.739 1.634,1.726 1.817,4.02 1.835,5.27 C 1.413,-3.359 0.973,-1.508 0,0 m -9.887,12.484 c 0.034,0.418 0.645,0.838 1.13,0.838 0.646,0 1.873,-0.322 2.644,-1.227 0.602,-0.701 1.321,-1.934 1.291,-3.74 C -4.867,5.791 -6.02,4.564 -7.175,3.966 -8.111,3.481 -8.339,3.449 -8.855,3.449 c -0.513,0 -1.032,0.035 -1.032,0.743 l 0,8.292 z m 5.259,-21.969 c -1.223,-1.259 -2.517,-1.615 -3.645,-1.776 -0.303,-0.041 -0.969,0.006 -1.234,0.297 -0.26,0.289 -0.346,0.709 -0.346,0.995 L -9.887,0.835 c 0,0.551 0.678,0.841 0.999,0.841 0.324,0 1.226,0 1.485,-0.064 0.258,-0.068 2.421,-0.743 3.26,-2.292 0.838,-1.547 0.968,-2.61 0.968,-3.935 0,-1.321 -0.37,-3.759 -1.453,-4.87"
         style="fill:#d0121b;fill-opacity:1;fill-rule:nonzero;stroke:none"
         id="path3143" />
    </g>
    <g
       id="g3145"
       transform="matrix(1.25,0,0,-1.25,224.97494,558.37806)">
      <path
         inkscape:connector-curvature="0"
         d="m 0,0 c -4.049,0 -6.119,1.881 -6.628,5.692 -0.033,0.28 -0.1,0.768 0.042,1.007 0.814,0.416 2.52,1.97 3.04,2.661 1.129,1.504 1.527,3.147 1.462,5.253 -0.076,2.329 -1.136,4.525 -2.627,6.149 -0.585,0.638 -1.341,1.409 -1.995,2.201 -0.008,0.015 0.048,8.871 0.048,8.856 1.722,0 2.928,-2.452 3.389,-3.79 l 0.166,0 0,6.193 c -0.223,0 -0.166,0.056 -0.166,-0.174 -0.268,-0.13 -0.605,-0.264 -0.908,-0.42 -0.68,-0.321 -1.409,-0.362 -2.389,0.009 0,0.678 -0.014,1.045 0.115,1.774 0.178,1.114 0.634,1.996 1.188,2.9 0.804,1.33 1.867,2.076 3.348,2.504 3.87,1.125 7.008,-2.38 8.101,-5.561 l 0.176,0 0,5.502 -0.176,0 0,-0.173 c -1.767,0 -2.365,0.805 -3.819,1.289 -1.527,0.514 -3.012,0.901 -4.949,0.604 -3.097,-0.588 -5.408,-1.47 -7.138,-4.857 -0.483,-0.859 -0.854,-1.838 -1.116,-2.881 0,-0.374 -0.876,-0.479 -1.182,-0.59 -2.942,-1.052 -5.263,-2.889 -5.642,-6.299 -0.396,-3.437 1.465,-5.955 4.076,-7.713 0.713,-0.477 1.43,-0.941 2.147,-1.416 -0.022,-1.304 -0.022,-8.855 -0.026,-10.271 -0.003,-0.578 -0.578,-0.558 -1.097,-0.372 -2.291,0.804 -4.697,3.7 -5.158,6.024 -0.287,0 -0.178,-0.258 -0.178,-0.518 -0.047,-2.408 -0.109,-4.817 -0.166,-7.219 l 0.169,0 c 0,0.048 0.958,1.557 2.217,1.402 0.497,-0.053 4.344,-1.648 4.624,-1.953 0.2,-0.936 0.781,-1.662 1.17,-2.491 1.831,-3.181 3.962,-4.218 7.3,-4.513 1.472,-0.132 2.598,0.055 3.766,0.394 2.225,0.64 6.561,3.62 5.699,4.922 C 5.645,2.498 2.619,0.125 0,0 m -11.226,24.69 c -0.055,0 -1.026,0.514 -1.795,1.169 -1.967,1.686 -2.371,4.789 0.034,6.342 0.595,0.364 1.213,0.572 1.761,0.787 -0.061,-1.031 0.045,-8.294 0,-8.298 m 4.347,-8.18 c 1.899,-1.547 2.78,-3.969 1.628,-6.318 -0.616,-1.258 -1.622,-1.772 -1.69,-1.772 -0.037,0.179 0.07,5.562 0.062,8.09"
         style="fill:#d0121b;fill-opacity:1;fill-rule:nonzero;stroke:none"
         id="path3147" />
    </g>
    <g
       id="g3149"
       transform="matrix(1.25,0,0,-1.25,223.84256,498.54281)">
      <path
         inkscape:connector-curvature="0"
         d="m 0,0 c -14.918,0 -27.058,-12.136 -27.058,-27.052 0,-14.924 12.14,-27.059 27.058,-27.059 14.914,0 27.053,12.135 27.053,27.059 C 27.053,-12.136 14.914,0 0,0 m 0,-52.434 c -13.996,0 -25.38,11.385 -25.38,25.382 0,13.991 11.384,25.379 25.38,25.379 13.99,0 25.377,-11.388 25.377,-25.379 C 25.377,-41.049 13.99,-52.434 0,-52.434"
         style="fill:#d0121b;fill-opacity:1;fill-rule:nonzero;stroke:none"
         id="path3151" />
    </g>
    <g
       id="g3153"
       transform="matrix(1.25,0,0,-1.25,559.97994,560.93556)">
      <path
         inkscape:connector-curvature="0"
         d="m 0,0 c -1.28,0.414 -3.05,3.01 -6.09,6.469 3.29,3.296 4.46,4.708 5,4.708 l -1.6,0 c -0.36,-0.358 -2.97,-3.16 -4.55,-4.761 -0.01,2.156 -0.08,4.165 0.23,4.761 l -2.16,0 C -8.91,10.46 -8.73,8.231 -8.73,5.884 -8.73,3.532 -8.63,1.133 -9,0 l 2.14,0 C -7.2,1.044 -7.24,3.161 -7.24,5.326 -6.38,4.326 -3.47,0.883 -2.69,0 L 0,0 z m -83.64,8.219 c 0,1.783 -1.412,2.124 -3.197,1.975 -0.192,-0.862 -0.237,-3.418 -0.146,-3.936 1.981,-0.238 3.343,0.283 3.343,1.961 M -86.937,5.323 C -86.941,3.189 -86.898,1.271 -86.594,0 l -2.245,0 c 0.267,0.779 0.386,4.401 0.386,6.258 0,2.351 -0.085,4.202 -0.348,4.919 l 2.991,0 c 2.836,0 3.904,-1.26 3.904,-2.909 0,-1.427 -1.113,-2.886 -3.057,-2.886 0,0 3.45,-4.645 4.187,-5.382 l -2.064,0 c -1.469,1.996 -4.097,5.323 -4.097,5.323 M -123.863,0 c -0.223,0.044 -0.394,0.544 -0.297,1.225 0.063,0.421 1.288,6.065 1.428,6.562 1.191,-2.468 3.726,-7.422 3.891,-7.787 0.459,1.029 3.477,7.235 3.87,7.942 0.253,-0.609 1.057,-5.6 1.118,-6.023 0.099,-0.679 0.2,-1.834 -0.176,-1.919 l 2.73,0 c -0.892,1.263 -1.129,3.418 -1.437,4.777 -0.332,1.471 -1.1,5.448 -1.325,6.975 -0.592,-1.618 -3.191,-6.341 -4.351,-8.974 -0.385,0.832 -4.505,8.974 -4.505,8.974 -0.064,-1.251 -0.929,-5.504 -1.261,-6.975 -0.306,-1.359 -1.259,-4.393 -1.785,-4.777 l 2.1,0 z m 15.058,0 c -0.224,0.044 -0.396,0.544 -0.298,1.225 0.062,0.421 1.289,6.065 1.426,6.562 1.193,-2.468 3.73,-7.422 3.893,-7.787 0.46,1.029 3.479,7.235 3.87,7.942 0.254,-0.609 1.06,-5.6 1.118,-6.023 C -98.697,1.24 -98.593,0.085 -98.972,0 l 2.732,0 c -0.892,1.263 -1.131,3.418 -1.438,4.777 -0.329,1.471 -1.101,5.448 -1.328,6.975 -0.591,-1.618 -3.189,-6.341 -4.349,-8.974 -0.385,0.832 -4.503,8.974 -4.503,8.974 -0.066,-1.251 -0.933,-5.504 -1.264,-6.975 -0.303,-1.359 -1.26,-4.393 -1.786,-4.777 l 2.103,0 z m -18.027,4.692 c 0,2.873 -1.246,5.701 -4.316,5.701 -2.001,0 -3.881,-1.562 -3.881,-4.245 0,-3.705 2.131,-5.481 4.375,-5.481 2.217,0 3.822,1.65 3.822,4.025 m 1.742,0.84 c 0,-3.257 -2.598,-5.895 -5.802,-5.895 -3.207,0 -5.803,2.638 -5.803,5.895 0,3.253 2.596,5.891 5.803,5.891 3.204,0 5.802,-2.638 5.802,-5.891 m -58.376,4.851 c -0.816,0.676 -2.229,1.162 -3.446,1.162 -2.806,0 -6.322,-1.407 -6.322,-5.985 0,-4.233 3.545,-5.884 5.59,-5.884 2.837,0 4.137,1.004 4.137,1.004 l 0,4.155 -1.588,0 0,-3.495 c -1.744,-1.329 -6.518,-1.027 -6.518,4.334 0,4.123 2.577,4.909 4.344,4.909 1.469,0 2.484,-0.793 2.888,-1.384 l 0.915,1.184 z m 112.234,-8.19 c -0.764,-0.584 -1.944,-1.504 -4.082,-1.504 -2.28,0 -4.134,2.03 -4.134,5.04 0,3.761 2.835,4.842 4.148,4.842 1.464,0 2.658,-0.62 3.064,-1.212 l 1.004,0.845 c -0.815,0.814 -2.494,1.328 -3.711,1.328 -2.81,0 -6.263,-1.663 -6.263,-5.919 0,-4.152 3.315,-5.881 5.867,-5.881 2.163,0 3.525,0.762 3.525,0.762 l 0.582,1.699 z m -66.014,0 c -0.763,-0.584 -1.945,-1.504 -4.08,-1.504 -2.281,0 -4.137,2.03 -4.137,5.04 0,3.761 2.836,4.842 4.149,4.842 1.469,0 2.658,-0.62 3.063,-1.212 l 1.005,0.845 c -0.812,0.814 -2.494,1.328 -3.709,1.328 -2.81,0 -6.26,-1.663 -6.26,-5.919 0,-4.152 3.311,-5.881 5.864,-5.881 2.16,0 3.525,0.762 3.525,0.762 l 0.58,1.699 z m 109.486,2.844 3.06,0 c -0.64,1.367 -1.63,3.455 -1.63,3.455 0,0 -0.85,-2.062 -1.43,-3.455 M -22.86,0 c 0.16,1.27 -0.57,2.33 -1.47,4.255 l -3.76,0 C -28.1,4.232 -28.11,4.212 -28.11,4.193 -28.95,2.187 -29.63,1.323 -29.48,0 l -1.73,0 c 0.41,0.297 1.65,2.918 2.53,4.81 0.87,1.878 2.22,5.576 2.71,6.942 0.63,-1.835 1.04,-2.434 2.96,-6.429 1.66,-3.481 2.35,-5.021 3.07,-5.323 l -2.92,0 z m -41.335,5.037 3.061,0 c -0.643,1.367 -1.629,3.455 -1.629,3.455 0,0 -0.854,-2.062 -1.432,-3.455 M -59.293,0 c 0.159,1.27 -0.574,2.33 -1.473,4.255 l -3.756,0 C -64.529,4.232 -64.539,4.212 -64.548,4.193 -65.382,2.187 -66.063,1.323 -65.906,0 l -1.738,0 c 0.408,0.297 1.658,2.918 2.531,4.81 0.867,1.878 2.215,5.576 2.703,6.942 0.635,-1.835 1.049,-2.434 2.967,-6.429 1.67,-3.481 2.348,-5.021 3.062,-5.323 l -2.912,0 z m -110.026,5.037 3.064,0 c -0.645,1.367 -1.629,3.455 -1.629,3.455 0,0 -0.857,-2.062 -1.435,-3.455 M -164.414,0 c 0.157,1.27 -0.576,2.33 -1.474,4.255 l -3.756,0 c -0.008,-0.023 -0.016,-0.043 -0.026,-0.062 -0.835,-2.006 -1.513,-2.87 -1.359,-4.193 l -1.739,0 c 0.408,0.297 1.657,2.918 2.534,4.81 0.865,1.878 2.214,5.576 2.707,6.942 0.629,-1.835 1.043,-2.434 2.959,-6.429 1.668,-3.481 2.348,-5.021 3.066,-5.323 l -2.912,0 z m -46.795,5.037 3.063,0 c -0.641,1.367 -1.629,3.455 -1.629,3.455 0,0 -0.854,-2.062 -1.434,-3.455 M -206.302,0 c 0.153,1.27 -0.576,2.33 -1.475,4.255 l -3.756,0 c -0.01,-0.023 -0.017,-0.043 -0.027,-0.062 -0.834,-2.006 -1.515,-2.87 -1.36,-4.193 l -1.739,0 c 0.409,0.297 1.658,2.918 2.533,4.81 0.87,1.878 2.215,5.576 2.707,6.942 0.633,-1.835 1.046,-2.434 2.96,-6.429 1.672,-3.481 2.35,-5.021 3.069,-5.323 l -2.912,0 z m 30.585,0 2.388,0 c -0.366,1.034 -0.386,3.532 -0.386,5.884 0,2.347 0.025,4.576 0.29,5.293 l -2.282,0 c 0.244,-1.206 0.289,-3.934 0.289,-4.751 l -5.23,0 c -0.001,1.956 -0.024,3.603 0.289,4.751 l -2.277,0 c 0.259,-0.717 0.402,-2.946 0.402,-5.293 0,-2.352 -0.022,-4.751 -0.387,-5.884 l 2.274,0 c -0.305,1.271 -0.35,3.411 -0.348,5.546 l 5.297,0 c 0.003,-2.135 -0.014,-4.275 -0.319,-5.546 m 124.04,0 c 1.279,0 2.096,-0.073 2.096,-0.073 l 0,1.389 c -0.919,-0.514 -3.606,-0.437 -4.598,-0.38 -0.153,0.805 -0.153,2.596 -0.153,4.948 0,2.347 0.107,4.576 0.368,5.293 l -2.305,0 c 0.49,-0.489 0.35,-2.946 0.35,-5.293 0,-2.882 -0.143,-5.175 -0.297,-5.884 l 4.539,0 z m -16.569,0 c -0.365,1.133 -0.32,3.532 -0.32,5.884 0,2.347 -0.061,4.576 0.204,5.293 l -2.269,0 c 0.264,-0.717 0.338,-2.946 0.338,-5.293 0,-2.352 0.116,-4.751 -0.254,-5.884 l 2.301,0 z m -89.967,0 c -0.369,1.133 -0.32,3.532 -0.32,5.884 0,2.347 -0.061,4.576 0.203,5.293 l -2.269,0 c 0.263,-0.717 0.336,-2.946 0.336,-5.293 0,-2.352 0.117,-4.751 -0.251,-5.884 l 2.301,0 z m -59.148,0 2.389,0 c -0.366,1.034 -0.387,3.532 -0.387,5.884 0,2.347 0.027,4.576 0.289,5.293 l -2.281,0 c 0.244,-1.206 0.289,-3.934 0.292,-4.751 l -5.234,0 c 0,1.956 -0.021,3.603 0.293,4.751 l -2.283,0 c 0.262,-0.717 0.402,-2.946 0.402,-5.293 0,-2.352 -0.017,-4.751 -0.384,-5.884 l 2.273,0 c -0.306,1.271 -0.348,3.411 -0.346,5.546 l 5.297,0 c 0.004,-2.135 -0.013,-4.275 -0.32,-5.546 M -18.06,0 c -0.37,0.531 -0.34,1.489 -0.34,3.841 l 0,4.198 c 0.16,0 5.68,-5.805 8.16,-8.42 -0.34,1.12 -0.34,3.327 -0.34,5.677 0,2.765 -0.08,5.396 0.33,5.881 l -1.41,0 c 0.28,-1.031 0.32,-1.634 0.32,-3.985 0,-2.349 -0.02,-4.052 -0.02,-4.052 0,0 -2.04,1.993 -4.18,4.265 -2.24,2.384 -4.04,4.153 -4.04,4.153 0.25,-1.118 0.42,-3.327 0.42,-5.674 0,-2.352 -0.13,-5.091 -0.41,-5.884 l 1.51,0 z m -183.53,0 c -0.369,0.531 -0.38,1.489 -0.38,3.841 0,2.351 0.007,4.198 0.007,4.198 0.156,0 5.604,-5.805 8.082,-8.42 -0.345,1.12 -0.339,3.327 -0.339,5.677 0,2.765 -0.078,5.396 0.339,5.881 l -1.437,0 c 0.276,-1.031 0.304,-1.634 0.304,-3.985 0,-2.349 -0.005,-4.052 -0.005,-4.052 0,0 -1.912,1.993 -4.047,4.265 -2.242,2.384 -4.079,4.153 -4.079,4.153 0.249,-1.118 0.421,-3.327 0.421,-5.674 0,-2.352 -0.099,-5.091 -0.379,-5.884 l 1.513,0 z m 168.51,2.969 c 0,2.223 -2.1,2.433 -3.709,2.139 -0.07,-0.754 -0.028,-2.733 0.113,-4.109 3.276,-0.366 3.596,0.951 3.596,1.97 m -3.693,3.277 c 1.783,-0.12 3.443,0.12 3.443,1.946 0,1.855 -1.49,2.182 -3.372,2.054 -0.124,-0.412 -0.134,-2.096 -0.071,-4 M -31.04,2.983 C -31.04,1.171 -32.84,0 -35.11,0 l -3.562,0 c 0.385,1.821 0.249,3.532 0.249,5.884 0,1.624 0.029,4.392 -0.329,5.293 l 3.322,0 c 0.99,0 3.74,-0.211 3.74,-2.899 0,-1.331 -0.96,-2.094 -1.77,-2.35 1.02,-0.1 2.42,-0.866 2.42,-2.945 M -89.203,0 l 0,1.342 c -1.035,-0.563 -3.291,-0.504 -4.591,-0.421 -0.153,0.968 -0.096,3.836 -0.096,4.587 0.599,0.148 3.24,0.158 3.531,-0.134 l 0,1.399 c -0.415,-0.277 -2.582,-0.219 -3.531,-0.219 0,1.843 0.034,3.013 0.158,3.422 1.153,0.215 3.034,0.115 3.802,-0.318 l 0,1.519 -5.814,0 c 0.356,-0.901 0.279,-3.669 0.279,-5.293 0,-2.352 -0.105,-5.272 -0.271,-5.884 l 6.533,0 z m -136.116,10.256 c -0.817,0.816 -1.956,1.271 -3.147,1.271 -1.844,0 -3.092,-1.344 -3.092,-2.731 0,-2.831 4.667,-3.836 4.667,-6.37 0,-2.468 -3.448,-2.49 -4.344,0.165 l -0.964,-0.858 c 0.714,-1.148 1.908,-2.038 3.447,-2.038 1.987,0 3.371,1.423 3.371,2.936 0,3.327 -4.636,4.69 -4.636,6.454 0,2.056 2.513,2.095 3.698,0.207 l 1,0.964 z m 123.067,14.007 c -0.154,-0.134 -0.765,-0.402 -0.765,-1.429 0,-0.568 0.556,-1.933 1.509,-1.87 0.254,0.015 0.4,0.241 0.543,0.436 0.399,0.539 0.511,1.472 0.54,1.986 0.028,0.597 -0.224,0.468 -0.558,0.425 -0.215,-0.028 -0.479,-0.028 -0.447,0.269 0.028,0.299 -0.078,0.512 -0.224,0.546 -0.152,0.026 -0.279,-0.083 -0.598,-0.363 m 10.152,0.746 c 0,0 -0.509,0.028 -0.686,-0.175 -0.18,-0.216 -0.241,-0.836 -0.031,-1.103 0.208,-0.268 0.177,-1.101 0.475,-1.963 0.297,-0.862 0.804,-0.743 1.428,-0.536 0.626,0.206 0.477,0.384 1.012,0.895 0.536,0.503 0.328,1.214 0.18,1.543 -0.153,0.328 -0.506,0.51 -0.895,0.715 -0.387,0.207 -1.072,0.624 -1.483,0.624 m -8.285,6.144 c -0.507,-0.022 -0.744,-0.215 -0.759,-0.444 -0.03,-0.566 0.355,-0.642 0.83,-0.584 0.691,0.09 2.228,0.18 2.825,0.212 0.592,0.03 0.622,-0.42 0.357,-0.625 -0.268,-0.209 -1.169,-0.441 -1.733,-0.41 -0.568,0.027 -0.939,0.046 -1.293,-0.135 -0.248,-0.122 -0.391,-0.735 0.32,-0.973 0.481,-0.165 1.899,0.032 2.349,0.032 0.444,0 0.299,-0.331 0.299,-0.661 0,-0.327 0.058,-0.383 -0.181,-0.383 -0.236,0 -2.051,-0.092 -2.765,-0.238 -0.717,-0.149 -1.102,-0.031 -0.835,-0.715 0.268,-0.684 0.801,-0.416 1.903,-0.387 1.1,0.03 1.311,0.23 1.697,0.202 0.383,-0.029 0.383,-0.855 0.42,-1.452 0.023,-0.594 0.174,-1.485 -0.478,-1.55 -0.657,-0.055 -1.28,0.299 -1.489,0.448 -0.097,0.069 -0.683,0.6 -0.564,-0.149 0.254,-1.612 2.069,-3.211 3.388,-3.211 1.301,0 1.604,1.669 1.64,1.935 0.087,0.624 -0.026,3.376 0.005,3.731 0.029,0.357 0.264,0.583 1.663,0.643 1.398,0.057 1.365,0.684 1.398,1.098 0.029,0.419 -0.225,0.574 -0.582,0.693 -0.356,0.118 -0.996,-0.067 -1.44,-0.157 -0.449,-0.088 -0.627,-0.149 -0.627,0.062 0,0.208 -0.178,0.534 1.071,0.591 1.248,0.059 1.633,0.358 1.633,1.191 0,0.837 -1.04,0.628 -1.453,0.57 -0.418,-0.06 -0.833,-0.209 -1.165,-0.15 -0.324,0.058 -0.147,0.445 0.297,0.503 0.45,0.061 1.643,0.18 2.383,0.476 0.746,0.299 0.564,0.804 0.416,1.103 -0.149,0.298 -0.863,0.417 -1.218,0.388 -0.356,-0.03 -1.131,-0.241 -1.878,-0.536 -0.738,-0.297 -0.683,-0.091 -1.244,0.119 -0.566,0.207 -0.987,-0.091 -1.372,-0.416 -0.384,-0.329 -1.099,-0.597 -2.024,-0.686 -1.122,-0.055 -1.276,-0.111 -1.794,-0.135 m 1.227,3.766 c -0.416,0 -1.267,-0.693 -0.381,-2.091 0.895,-1.398 1.776,-0.639 2.324,0.112 0.604,0.827 0.879,1.5 0.759,1.741 -0.118,0.236 -0.141,0 -0.647,-0.241 -0.504,-0.235 -0.836,-0.088 -1.192,0.092 -0.355,0.176 -0.535,0.387 -0.863,0.387 m 14.195,2.528 c 0,0.716 -0.178,1.011 -0.443,1.101 -0.271,0.09 -0.746,-0.059 -2.176,-0.385 -1.425,-0.328 -3.806,-0.687 -4.579,-0.716 -0.774,-0.028 -0.568,0.153 -0.568,0.535 0,0.388 0.179,0.656 0.448,0.687 0.27,0.03 1.277,0.089 1.277,0.089 0.506,0.038 0.929,0.25 1.25,0.387 0.953,0.395 1.161,0.976 1.161,1.219 0,0.329 -0.444,0.894 -0.686,1.282 -0.234,0.382 -0.502,0.769 -1.009,0.769 -0.509,0 -0.744,-0.533 -0.802,-1.011 -0.058,-0.476 -0.15,-1.01 -0.54,-1.339 -0.381,-0.327 -0.743,-0.384 -0.77,0.357 -0.033,0.745 0.086,1.102 0.355,1.849 0.267,0.74 0.447,1.634 0.149,1.934 -0.299,0.294 -0.864,0.77 -1.845,0.832 -0.979,0.059 -1.282,-0.329 -1.282,-1.162 0,-0.832 0.32,-2.304 0.332,-3.869 0.015,-2.17 -0.595,-2.736 -0.953,-2.736 -0.356,0 -0.538,0.239 -0.538,0.654 0,0.416 0.27,2.351 0.388,3.869 0.118,1.518 -0.803,1.817 -1.518,2.173 -0.711,0.359 -1.217,0.146 -1.217,-0.715 0,-0.865 0.324,-2.263 0.299,-3.124 -0.03,-0.863 -0.717,-0.418 -1.076,-0.062 -0.358,0.357 -0.776,0.776 -1.188,1.104 -0.418,0.323 -0.776,0 -0.834,-0.656 -0.062,-0.655 0.029,-1.399 0.804,-2.288 0.29,-0.338 0.592,-0.442 0.88,-0.442 0.576,0 0.613,0.119 0.843,0.353 0.45,0.444 0.624,0.176 0.654,-0.569 0.034,-0.746 0.028,-0.746 -0.98,-0.895 -1.009,-0.146 -5.203,-0.52 -7.172,-0.52 -1.962,0 -1.761,-0.431 -1.673,-1.383 0.091,-0.954 0.98,-0.676 2.769,-0.29 1.785,0.386 6.113,0.637 9.883,1.004 0.604,0.06 1.162,0.099 1.707,0.131 -0.06,-0.088 -0.098,-0.219 -0.098,-0.428 0,-0.533 -0.179,-1.288 -0.647,-1.775 -0.262,-0.277 -0.268,-0.56 0.268,-0.56 0.538,0 1.739,0 2.367,0.805 0.622,0.803 0.376,1.314 -0.158,1.56 -0.318,0.147 -0.645,0.322 -0.905,0.436 2.543,0.099 4.414,-0.03 5.921,0.128 1.96,0.208 1.902,0.954 1.902,1.667 m 41.905,-12.496 c -0.606,-1.002 -1.455,-0.426 -2.193,0.067 -0.732,0.49 -2.657,1.181 -3.372,1.339 -0.713,0.154 -1.158,0.513 -1.384,-0.534 -0.217,-1.05 -1.135,-4.932 -2.988,-4.844 -1.376,0.065 -1.011,2.874 -0.946,4.509 0.052,1.537 0.412,8.011 0.57,10.31 0.155,2.297 0.376,3.258 0.422,3.436 0.045,0.178 0.225,0.334 0.583,0.246 0.355,-0.088 0.424,-0.468 0.424,-0.892 0,-0.425 -0.12,-1.117 0.794,-0.96 0.912,0.157 1.19,0.24 1.19,1.13 0,0.892 -0.178,1.39 -1.004,1.39 -0.827,0 -0.78,-0.29 -1.34,-0.268 -0.558,0.024 -0.493,0.603 -0.493,0.603 0,0.314 0.274,0.626 0.965,0.829 0.688,0.198 1.223,0.152 1.979,1.115 0.764,0.959 0.808,1.092 1.435,0.98 0.62,-0.112 2.093,-0.511 2.006,-1.74 -0.06,-0.774 -0.449,-0.801 -1.092,-1.83 0,0 -0.781,-1.138 -0.939,-1.674 -0.158,-0.535 -0.158,-1.095 -0.201,-1.83 -0.043,-0.738 -0.156,-3.122 -0.602,-3.367 -0.447,-0.249 -1.207,-0.584 -2.408,-0.716 -0.207,-0.023 -0.156,-0.248 -0.201,-0.715 -0.047,-0.468 -0.135,-1.9 -0.113,-2.255 0.024,-0.357 0.088,-0.357 0.38,-0.357 0.287,0 0.912,0.411 1.987,2.011 1.514,2.26 1.65,3.815 1.715,4.419 0.07,0.6 0.16,1.293 0.96,0.936 0.805,-0.357 1.245,-0.932 1.219,-1.578 -0.023,-0.648 -0.259,-0.698 -0.618,-1.347 -0.354,-0.647 -2.784,-4.173 -2.967,-4.374 -0.175,-0.201 -0.267,-0.29 0.16,-0.358 0.423,-0.065 4.013,-0.603 5.195,-1.227 1.187,-0.624 1.474,-1.45 0.877,-2.454 m -8.731,9.753 c 0,-0.625 0.427,-0.423 1.026,-0.377 0.602,0.044 0.379,1.113 0.379,1.45 0,0.331 -0.223,0.421 -0.669,0.444 0,0 -0.109,0.068 -0.49,-0.136 -0.38,-0.196 -0.246,-0.757 -0.246,-1.381 m 0.759,-8.891 c 0.415,0.746 0.028,1.281 -0.442,1.281 -0.303,0 -0.389,-0.148 -0.481,-0.595 -0.088,-0.446 -0.236,-0.627 -0.115,-1.341 0.115,-0.713 0.557,-0.206 1.038,0.655 m -3.185,14.075 c -0.414,0.476 -1.068,0.476 -2.052,0.625 -0.498,0.074 -1.02,0.182 -1.418,0.268 0.228,0.371 0.424,0.647 0.554,0.773 0.235,0.239 0.299,0.537 0.09,1.191 -0.206,0.656 -0.802,1.252 -1.34,1.429 -0.845,0 -1.228,0.232 -1.459,-0.594 -0.146,-0.536 0.053,-0.886 0.12,-1.427 0.15,-1.165 0.031,-1.55 -1.934,-5.122 -1.963,-3.57 -5.058,-5.831 -5.535,-6.216 -0.475,-0.388 -0.475,-0.536 -0.268,-0.626 0.209,-0.089 0.748,-0.277 1.25,-0.388 1.137,-0.253 0.817,-0.163 1.921,0.73 1.037,0.838 2.232,2.553 3.282,4.28 0.354,-0.253 0.877,-0.362 1.135,-0.397 0.694,-0.1 0.774,0.178 0.774,-0.328 0,-0.745 -0.711,-0.595 -1.459,-0.745 -0.742,-0.147 -0.802,-0.831 -0.594,-1.309 0.21,-0.473 0.539,-0.03 1.342,0.06 0.799,0.091 0.773,-0.474 0.742,-1.072 -0.031,-0.593 -0.36,-0.92 -0.718,-0.951 -0.354,-0.03 -0.798,0.507 -1.128,0.536 -0.33,0.03 -0.446,0.03 -0.655,-0.3 -0.317,-0.497 -0.396,-0.997 -0.237,-1.453 0.479,-1.37 1.722,-0.626 1.933,-0.481 0.213,0.151 0.415,0.269 0.568,0.151 0.069,-0.056 0.098,-1.098 -0.032,-1.456 -0.145,-0.396 -1.478,-0.846 -2.114,-0.924 -0.879,-0.116 -0.982,0.298 -1.695,0.357 -0.711,0.06 -0.919,-0.477 -0.951,-1.163 -0.044,-1.026 0.718,-1.801 1.249,-1.815 0.261,-0.001 0.553,0.119 0.895,0.182 2.109,0.387 4.564,1.759 5.59,2.586 1.227,0.983 1.638,1.667 1.699,2.082 0.062,0.418 -0.029,0.597 -0.359,0.481 -0.326,-0.121 -0.803,-0.57 -1.217,-0.806 -0.417,-0.241 -0.535,-0.39 -0.805,-0.151 -0.269,0.24 -0.06,0.866 0.27,1.011 0.326,0.153 1.068,0.421 1.605,0.598 0.445,0.147 0.781,1.438 0.24,1.903 -0.659,0.567 -1.13,0.178 -1.373,-0.088 -0.236,-0.266 -0.265,-0.862 -0.444,-1.101 -0.177,-0.237 -0.358,-0.057 -0.475,0.239 -0.121,0.297 -0.092,1.457 0.058,1.903 0.153,0.447 0.653,0.564 1.19,0.834 0.538,0.267 0.925,0.622 0.925,1.459 0,0.833 -1.044,0.267 -1.55,0.146 -0.506,-0.115 -0.325,0.151 -0.325,0.33 0,0.175 0.177,0.296 0.802,0.743 0.628,0.446 0.597,0.981 0.597,1.28 0,0.297 -0.568,0.297 -0.866,0.15 -0.298,-0.15 -0.654,-0.299 -0.831,-0.328 -0.18,-0.03 -0.239,0.207 -0.803,0.267 -0.567,0.061 -0.895,-0.3 -0.895,-0.624 0,-0.328 -0.091,-0.419 -0.358,-0.566 -0.268,-0.149 -0.566,-0.361 -0.92,-0.211 -0.051,0.023 -0.108,0.039 -0.173,0.049 0.785,1.361 1.432,2.6 1.788,3.289 0.099,-0.051 0.218,-0.098 0.378,-0.152 0.924,-0.298 1.944,-0.759 2.379,-0.923 0.477,-0.176 1.133,-0.596 1.49,0 0.357,0.596 0.534,1.309 0.117,1.785 m 40.875,-5.83 c 0,0 -0.6,-0.085 -0.67,-0.594 -0.06,-0.504 -0.02,-0.713 0.78,-1.158 0.81,-0.449 2.53,0.207 3.19,0.416 0.65,0.206 0.98,-0.239 1.01,-0.688 C -9,31.587 -9,27.157 -9,26.262 c 0,-0.891 0.24,-1.755 -0.92,-1.813 -1.17,-0.058 -1.52,0.297 -2,0.448 -0.47,0.145 -1.1,0.592 -1.37,0.592 -0.21,0 -1.01,0 0.77,-1.546 1.79,-1.548 3.16,-2.206 4.05,-2.233 0.9,-0.029 1.4,0.419 1.79,1.607 0.39,1.19 0.18,2.589 0.15,3.482 -0.03,0.893 -0.36,5.089 -0.36,5.684 0,0.596 0.3,1.013 0.66,1.069 0.35,0.061 1.87,0.298 2.94,0.805 1.07,0.508 1.04,1.549 0.78,2.172 -0.27,0.626 -1.05,0.478 -1.61,0.27 -0.57,-0.209 -2.32,-1.044 -4.05,-1.518 -1.73,-0.477 -4.58,-1.042 -5.17,-1.223 m 2.8,5.245 c 0,0 -0.69,-0.044 -0.82,-0.243 -0.19,-0.295 0.01,-0.986 0.62,-1.318 1.17,-0.624 3.66,0.156 4.6,0.534 0.94,0.38 1.2,0.738 1.2,1.453 0,0.714 -0.69,1.227 -1.31,1.227 -0.62,0 -0.71,-0.158 -1.07,-0.379 -0.36,-0.222 -2.66,-1.225 -3.22,-1.274 m -6.22,4.153 c -0.31,-0.025 -0.49,-0.175 -0.6,-0.312 -0.18,-0.222 -0.09,-0.605 -0.27,-1.184 -0.18,-0.58 -1.39,-2.433 -1.72,-2.9 -0.34,-0.469 -0.49,-0.625 -1.07,-0.784 -0.58,-0.155 -0.98,-0.424 -0.98,-1.048 0,-0.625 0.58,-1.068 1.07,-1.224 0.49,-0.16 1.29,-0.137 1.56,0.02 0.27,0.155 0.31,0.178 0.45,0.11 0.13,-0.065 0.21,-0.482 -0.03,-0.891 -1.96,-3.392 -6.06,-6.517 -6.43,-6.764 -0.35,-0.245 -0.77,-0.626 -0.44,-1.046 0.34,-0.428 0.76,-0.225 2.36,0.778 1.61,1.006 3.69,2.972 3.69,2.972 0.07,-2.346 -0.38,-3.707 -0.6,-5.201 -0.23,-1.497 0.07,-1.699 0.44,-2.011 0.38,-0.31 1.12,-0.512 1.48,0.069 0.35,0.578 0.26,4.151 0.24,5.465 -0.02,1.318 -0.22,3.369 -0.22,3.369 0,0 0.69,0.916 1.2,1.587 0.52,0.671 0.78,1.316 0.9,1.718 0.11,0.403 -0.58,1.118 -0.74,1.294 -0.16,0.18 -0.22,0.626 -0.09,0.874 0.13,0.244 0.49,0.534 0.87,1.024 0.38,0.49 0.69,0.692 0.78,1.269 0.09,0.584 0.02,1.053 -0.36,1.679 -0.37,0.623 -1.07,1.168 -1.49,1.137 m -112.816,-8.542 c 0.199,-0.237 0.134,-0.492 0.122,-0.692 -0.012,-0.202 -0.045,-0.444 -0.245,-0.906 -0.2,-0.455 -0.325,-0.958 -0.437,-1.413 -0.109,-0.463 -0.109,-0.639 -0.109,-0.861 0,-0.225 0.023,-0.793 0.101,-1.085 0.078,-0.29 0.12,-0.703 0.236,-0.894 0.072,-0.123 -0.012,-0.688 0.031,-0.848 0.043,-0.154 0.067,-0.545 0.122,-0.824 0.056,-0.278 0.011,-2.33 0.011,-2.33 0,0 -0.023,-1.587 -0.066,-1.799 -0.043,-0.212 0.01,-1.193 -0.014,-1.418 -0.021,-0.219 -0.053,-0.322 -0.053,-0.577 0,-0.246 -0.17,-0.39 -0.279,-0.478 -0.113,-0.092 -0.285,-0.245 -0.549,-0.469 -0.265,-0.225 -0.48,-0.125 -0.699,-0.125 -0.605,0 -1.205,0.324 -2.009,0.702 -0.802,0.379 -1.295,0.815 -1.743,1.26 -0.446,0.45 -0.299,0.651 -0.275,0.773 0.017,0.12 0.476,0.077 0.689,0.033 0.213,-0.048 0.614,-0.201 0.838,-0.333 0.224,-0.135 0.543,-0.248 0.969,-0.203 0.401,0.043 0.525,0.412 0.545,0.556 0.025,0.144 0.011,1.985 0.011,2.2 0,0.213 0.014,0.571 -0.109,1.059 -0.121,0.492 -0.067,2.658 -0.067,2.946 0,0.292 0.008,2.334 0.021,2.633 0.013,0.303 -0.075,0.717 -0.163,1.03 -0.091,0.313 -0.35,0.4 -0.706,0.389 -0.358,-0.013 -0.835,-0.166 -0.947,-0.202 -0.113,-0.035 -0.122,-0.213 -0.025,-0.278 0.104,-0.069 0.301,-0.323 0.684,-0.758 0.379,-0.437 0.357,-0.647 0.369,-0.971 0.01,-0.326 -0.039,-0.625 -0.225,-0.782 -0.189,-0.158 -0.325,-0.224 -0.371,-0.357 -0.043,-0.137 0,-0.202 0.036,-0.212 0.031,-0.013 0.222,-0.2 0.323,-0.292 0.1,-0.09 0.077,-0.188 0.077,-0.346 0,-0.155 0.013,-0.545 -0.043,-0.577 -0.121,-0.076 -0.135,-0.36 -0.246,-0.581 -0.111,-0.225 -0.289,-1.228 -0.377,-1.566 -0.09,-0.333 -0.166,-0.82 -0.401,-1.004 -0.38,-0.29 -1.117,-0.31 -1.703,-0.334 -0.577,-0.022 -2.095,-0.133 -2.497,-0.177 -0.403,-0.043 -0.848,-0.271 -1.137,-0.338 -0.29,-0.064 -0.803,0.403 -0.895,0.896 -0.086,0.493 0.247,1.25 0.514,1.806 0.267,0.562 0.49,1.473 0.54,1.655 0.044,0.177 0.287,0.466 0.602,0.444 0.311,-0.022 0.332,-0.29 0.4,-0.513 0.378,-0.066 2.007,0.603 2.273,0.67 0.273,0.068 0.964,0.156 1.206,0.201 0.246,0.043 0.157,0.467 0.157,0.58 0,0.112 -0.157,0.356 -0.356,0.535 -0.201,0.179 -0.847,0.918 -0.982,1.14 -0.133,0.221 -0.089,0.466 -0.067,0.757 -0.201,-0.11 -0.781,-0.064 -1.295,-0.134 0.069,-0.334 0.044,-0.98 -0.248,-1.673 -0.288,-0.689 -0.398,-0.757 -1.424,-1.429 -1.027,-0.669 -1.563,-0.625 -1.968,-0.625 0.072,-0.268 -0.287,-1.116 -0.334,-1.471 -0.041,-0.358 -0.174,-2.099 -0.222,-2.436 -0.042,-0.336 -0.085,-1.473 -0.134,-1.872 -0.045,-0.402 -0.064,-0.713 -0.133,-0.893 -0.064,-0.175 -0.738,-0.445 -0.936,-0.468 -0.2,-0.023 -0.402,0.023 -0.716,0.199 -0.312,0.18 -0.762,0.58 -0.827,0.981 -0.066,0.406 0.091,0.691 0.18,0.936 0.09,0.25 1.026,3.351 1.163,3.823 0.131,0.463 0.443,1.802 0.556,2.63 0.112,0.827 0.18,1.765 0.312,2.164 0.135,0.402 0.204,0.759 0.535,0.782 0.339,0.022 0.581,-0.356 0.581,-0.805 0,-0.442 0.022,-1.873 0,-2.363 0.748,-0.057 1.15,0.792 1.26,1.071 0.11,0.278 0.302,0.693 0.355,0.836 0.062,0.145 0.203,0.502 0.293,0.588 0.092,0.095 0.078,0.159 0.092,0.293 0.01,0.133 -0.138,0.167 -0.206,0.258 -0.065,0.089 -0.087,0.089 -0.143,0.401 -0.055,0.312 0.07,0.369 0.257,0.455 0.194,0.092 0.428,0.115 0.636,0.104 0.21,-0.012 1.206,-0.023 1.396,0.011 0.189,0.032 0.612,0.245 1.048,0.303 0.434,0.052 1.284,0.252 1.708,0.299 0.423,0.043 1.249,0.313 1.495,0.359 0.245,0.041 0.646,0.278 1.014,0.48 0.273,0.146 0.658,0.399 0.993,0.408 0.213,0.011 0.765,-0.176 0.948,-0.309 0.182,-0.133 0.481,-0.393 0.682,-0.625 m -8.838,-8.805 c 0.415,0 0.682,0.378 0.725,0.783 0.046,0.399 -0.154,0.622 -0.244,0.732 -0.089,0.115 -0.425,0.315 -0.492,0.304 -0.065,-0.012 -0.141,-0.162 -0.157,-0.324 -0.009,-0.11 -0.191,-0.751 -0.157,-0.926 0.038,-0.157 0,-0.569 0.325,-0.569 m -0.824,8.158 c 0.224,-0.045 0.513,0.175 0.625,0.313 0.109,0.135 0.535,0.4 0.756,0.623 0.18,0.18 0.137,0.892 0.092,1.071 -0.047,0.179 -0.209,0.447 -0.627,0.357 -0.414,-0.089 -0.666,0 -0.782,0.067 -0.108,0.068 -0.553,0.558 -0.759,0.627 -0.199,0.067 -0.58,0.047 -0.848,-0.111 -0.222,-0.137 -0.287,-0.361 -0.332,-0.743 -0.045,-0.376 0.223,-0.911 0.49,-1.312 0.268,-0.403 1.162,-0.851 1.385,-0.892 m 12.561,6.692 c -0.039,0.093 -0.423,0.629 -0.578,0.76 -0.153,0.135 -0.557,0.336 -0.825,0.382 -0.225,0.037 -0.716,-0.224 -0.826,-0.247 -0.108,-0.02 -0.428,-0.02 -0.602,-0.088 -0.18,-0.069 -1.094,-0.446 -1.36,-0.514 -0.27,-0.066 -0.673,-0.112 -1.05,-0.2 -0.381,-0.093 -1.785,-0.38 -2.723,-0.537 -0.939,-0.156 -3.751,-0.602 -4.197,-0.667 -0.444,-0.069 -2.611,-0.36 -3.124,-0.407 -0.512,-0.043 -2.186,-0.311 -2.659,-0.4 -0.469,-0.088 -2.07,-0.275 -2.832,-0.335 -1.116,-0.087 -1.472,-0.779 -1.56,-1.314 -0.09,-0.539 0.625,-0.961 0.822,-0.983 0.203,-0.024 0.357,0.133 0.515,0.222 0.158,0.09 0.582,0.313 1.092,0.469 0.516,0.156 1.407,0.448 2.123,0.537 0.713,0.089 1.676,0.089 2.032,0.178 0.359,0.087 0.959,0.177 1.492,0.221 0.538,0.047 1.923,0.269 2.303,0.269 0.377,0 0.822,0.133 1.404,0.112 0.581,-0.025 1.227,0.045 1.454,0.045 0.217,0 0.579,0.11 0.669,0.07 0.084,-0.05 0.062,-0.385 0.018,-0.496 -0.043,-0.109 -0.018,-0.446 -0.157,-0.623 -0.133,-0.179 -0.53,-0.804 -0.579,-1.406 -0.046,-0.601 0.266,-0.601 0.96,-0.715 0.693,-0.112 1.471,0.491 1.916,0.982 0.449,0.492 0.516,1.139 0.449,1.452 -0.067,0.31 -0.713,0.512 -0.935,0.557 -0.225,0.047 -0.38,0.089 -0.402,0.199 -0.022,0.115 0.333,0.201 0.467,0.201 0.136,0 1.029,0.113 1.182,0.135 0.156,0.022 0.761,0.18 1.003,0.223 0.248,0.044 1.32,0.067 1.743,0.044 0.428,-0.022 1.34,0.091 1.585,0.113 0.244,0.025 0.689,0.225 0.781,0.38 0.09,0.156 0.223,0.291 0.381,0.49 0.152,0.203 0.064,0.802 0.018,0.891 m -10.825,1.096 c 0.287,-0.358 0.98,-1.033 1.881,-1.015 0.899,0.018 1.134,1.015 1.202,1.439 0.069,0.426 -0.455,1.002 -0.731,1.256 -0.268,0.252 -0.626,0.676 -0.742,0.778 -0.121,0.102 -0.63,0.357 -0.901,0.357 -0.271,0 -0.558,0.087 -0.779,0.099 -0.218,0.02 -0.9,-0.447 -1.019,-0.658 -0.1,-0.186 0,-0.576 0.156,-0.83 0.152,-0.256 0.645,-1.072 0.933,-1.426 m -28.314,-11.744 c 0,-0.179 -0.149,-0.433 -0.549,-0.654 -0.402,-0.224 -0.699,-0.33 -1.334,-0.36 -0.644,-0.029 -2.832,0.063 -3.382,0 -0.551,-0.058 -1.027,-0.147 -1.193,-0.401 -0.161,-0.252 -0.415,-0.787 -0.472,-1.072 -0.062,-0.282 -0.162,-0.833 -0.017,-0.981 0.15,-0.149 0.225,-0.017 0.788,0.075 0.565,0.087 0.996,0.087 1.19,-0.031 0.196,-0.117 0.534,-0.744 0.553,-1.04 0.016,-0.296 0.016,-0.895 -0.416,-1.191 -0.433,-0.294 -0.805,-0.361 -1.39,-0.343 -0.575,0.015 -1.216,0.06 -1.318,0.032 -0.107,-0.032 -0.403,-0.476 -0.599,-0.788 -0.191,-0.311 -1.275,-2.127 -1.679,-2.561 -0.399,-0.429 -0.625,-0.846 -1.175,-0.806 -0.55,0.048 -1.218,0.51 -1.978,1.339 -0.76,0.839 -1.056,1.429 -1.043,1.774 0.017,0.344 0.106,0.417 0.328,0.294 0.222,-0.116 1.322,-0.639 1.754,-0.652 0.561,-0.015 1.135,0.456 1.252,0.849 0.043,0.149 0.119,0.355 -0.238,0.399 -0.356,0.045 -0.936,0.045 -1.341,0.045 -0.399,0 -1.309,-0.089 -1.68,-0.089 -0.373,0 -1.472,0.077 -1.845,0.179 -0.373,0.105 -1.31,0.492 -1.353,1.072 -0.017,0.224 0.082,0.542 0.295,0.833 0.166,0.225 0.568,0.789 0.701,1.012 0.133,0.225 0.297,0.608 0.313,0.727 0.014,0.121 0.044,0.211 -0.153,0.227 -0.19,0.012 -0.815,0.087 -1.216,0.072 -0.401,-0.014 -1.205,-0.105 -1.371,-0.178 -0.164,-0.072 -0.415,-0.121 -0.506,-0.191 -0.088,-0.078 -1.175,-1.235 -1.471,-1.489 -0.299,-0.255 -1.207,-1.352 -2.395,-1.31 -0.498,0.018 -1.093,0.459 -1.412,0.95 -0.134,0.209 -0.256,1.03 -0.182,1.192 0.075,0.166 0.286,0.639 0.464,0.671 0.175,0.028 0.519,-0.047 0.875,0.044 0.357,0.086 0.968,0.149 1.864,1.248 0.89,1.103 1.246,1.624 1.382,1.847 0.137,0.223 0.624,0.862 1.01,0.802 0.39,-0.059 0.714,-0.61 0.714,-0.82 0,-0.205 -0.013,-0.964 -0.013,-1.04 0,-0.073 0.06,-0.355 0.224,-0.371 0.161,-0.014 0.58,0 1.041,0.06 0.458,0.059 1.5,0.192 1.696,0.221 0.19,0.033 0.459,0.017 0.58,0.212 0.119,0.192 0.7,0.949 0.935,1.664 0.24,0.718 1.001,2.098 1.31,2.53 0.315,0.43 0.967,1.13 1.204,0.967 0.243,-0.166 0.374,-0.534 0.386,-0.743 0.018,-0.207 0.049,-0.61 0.018,-0.759 0.492,-0.179 1.324,-0.537 1.651,-0.893 0.326,-0.359 0.504,-0.846 0.447,-1.131 -0.061,-0.282 -0.254,-0.892 -0.984,-0.939 -0.731,-0.041 -0.831,0.208 -0.965,0.403 -0.134,0.192 -0.461,0.847 -0.536,0.863 -0.074,0.014 -0.281,-0.03 -0.328,-0.119 -0.045,-0.088 -0.447,-0.907 -0.474,-0.996 -0.032,-0.091 -0.063,-0.461 -0.032,-0.566 0.032,-0.104 0.072,-0.089 0.149,-0.089 0.074,0 0.935,0.089 1.412,0.161 0.478,0.074 1.103,0.18 1.355,0.18 0.25,0 0.61,-0.012 0.759,0.314 0.153,0.325 0.343,1.188 0.476,1.771 0.135,0.579 0.267,0.919 0.299,1.022 0.029,0.106 0.103,0.852 -0.015,0.956 -0.118,0.104 -0.432,0.074 -0.595,0.074 -0.165,0 -0.759,-0.12 -1.041,-0.12 -0.285,0 -0.834,-0.089 -1.043,-0.014 -0.207,0.073 -0.357,0.134 -0.386,0.372 -0.022,0.178 0.222,0.401 0.609,0.535 0.387,0.135 1.187,0.419 1.445,0.625 0.251,0.209 0.654,0.581 1.055,0.909 0.4,0.326 0.656,0.538 1.16,0.504 0.506,-0.03 0.567,-0.178 0.733,-0.327 0.159,-0.146 0.699,-0.684 0.83,-0.832 0.134,-0.149 0.207,-0.372 0.18,-0.713 -0.032,-0.343 -0.134,-0.718 -0.389,-1.267 -0.254,-0.548 -0.731,-1.398 -0.803,-1.679 -0.076,-0.281 -0.298,-0.805 -0.15,-0.999 0.15,-0.196 0.431,-0.196 0.613,-0.239 0.176,-0.045 0.863,-0.072 1.248,-0.045 0.389,0.032 1.488,0.284 1.89,0.375 0.401,0.088 0.892,0.177 1.427,0.147 0.536,-0.028 0.775,-0.194 0.82,-0.581 0.044,-0.385 0.027,-0.951 0.027,-1.129 m -9.337,-2.923 c 0.077,0.268 0.271,1.146 0.275,1.314 0.015,0.167 -0.188,0.26 -0.352,0.26 -0.172,0 -0.627,-0.236 -0.672,-0.271 -0.045,-0.036 -0.022,-0.222 0.066,-0.569 0.092,-0.343 0.056,-0.923 -0.088,-1.103 -0.144,-0.179 -0.648,-0.234 -1.026,-0.213 -0.378,0.02 -0.807,0.627 -0.917,0.88 -0.109,0.258 -0.256,0.625 -0.378,0.703 -0.073,0.045 -0.276,0.057 -0.389,0.057 -0.123,0 -0.301,-0.057 -0.471,-0.2 -0.164,-0.146 -0.637,-0.758 -0.691,-1.149 -0.054,-0.392 0.188,-0.376 1.093,-0.581 0.983,-0.223 1.898,-0.155 2.264,-0.122 0.371,0.032 0.805,0.088 0.904,0.168 0.104,0.079 0.305,0.556 0.382,0.826 m -9.341,4.964 c 0.099,-0.447 0.982,-0.257 1.619,-0.099 0.634,0.154 0.745,0.414 0.902,0.524 0.154,0.11 0.413,0.246 0.569,0.312 0.156,0.065 0.414,0.346 0.705,0.536 0.289,0.188 0.924,0.992 1.381,1.673 0.459,0.683 1.451,2.399 1.52,2.535 0.146,0.292 0.491,0.177 0.623,0.154 0.138,-0.019 1.154,-0.1 1.865,-0.044 0.836,0.067 3.293,0.378 4.026,0.515 0.739,0.133 1.073,0.49 1.296,0.778 0.225,0.291 0.288,0.648 0.135,1.229 -0.156,0.58 -0.806,0.803 -1.164,0.803 -0.353,0 -0.824,-0.223 -1.403,-0.559 -0.582,-0.335 -2.855,-1.202 -3.324,-1.314 -0.469,-0.113 -0.851,-0.093 -0.984,-0.024 -0.134,0.069 0.025,0.469 0.221,0.692 0.203,0.222 1.365,1.897 1.41,2.321 0.043,0.425 -0.157,0.914 -0.537,1.406 -0.379,0.489 -0.827,1.069 -1.473,1.184 -0.553,0.097 -1.218,-0.743 -1.118,-1.543 0.016,-0.087 0.084,-1.002 0.084,-1.382 0,-0.379 -0.184,-1.105 -0.261,-1.438 -0.076,-0.336 -0.379,-0.861 -0.68,-1.472 -0.302,-0.615 -1.316,-2.311 -1.773,-2.993 -0.459,-0.681 -1.966,-2.008 -2.298,-2.221 -0.163,-0.104 -0.341,-0.234 -0.76,-0.367 -0.654,-0.205 -0.703,-0.671 -0.581,-1.206 m -4.15,1.513 c 0.178,-0.418 0.66,-1.234 0.818,-1.444 0.156,-0.207 0.844,-0.301 1.455,-0.126 0.609,0.176 0.946,0.689 0.992,1.185 0.051,0.497 -0.301,1.296 -0.771,1.841 -0.461,0.544 -1.135,0.815 -1.691,0.849 -0.561,0.032 -1.032,-0.125 -1.333,-0.387 -0.238,-0.207 -0.238,-0.589 0.051,-0.989 0.117,-0.168 0.307,-0.514 0.479,-0.929 m 2.627,3.763 c 0.111,-0.21 0.478,-0.803 0.88,-0.786 0.401,0.016 0.768,0.063 1.216,0.607 0.447,0.546 0.802,0.978 0.751,1.508 -0.046,0.528 -0.412,1.122 -0.99,1.63 -0.576,0.513 -1.491,0.756 -2.181,0.786 -0.525,0.025 -1.004,-0.256 -1.098,-0.64 -0.1,-0.385 -0.085,-0.591 0.285,-1.219 0.416,-0.704 1.024,-1.679 1.137,-1.886 m -35.865,1.645 c -0.297,1.144 -0.542,1.223 -0.6,1.785 -0.065,0.588 0.568,1.663 1.982,1.663 0.643,0 1.364,-0.283 1.984,-0.805 0.622,-0.521 0.881,-0.639 0.862,-1.702 -0.021,-1.061 -0.281,-1.701 -0.401,-2.223 -0.12,-0.52 -0.201,-1.102 -0.102,-1.282 0.102,-0.18 0,-0.36 0.683,-0.278 0.681,0.076 2.144,0.117 2.785,0.318 0.641,0.199 1.262,0.38 1.604,0.362 0.341,-0.022 0.821,-0.263 0.758,-0.744 -0.055,-0.478 -0.28,-1.401 -1.12,-1.723 -0.842,-0.321 -1.223,-0.321 -1.922,-0.321 -0.704,0 -1.845,-0.079 -2.208,-0.217 -0.358,-0.141 -0.999,-0.363 -1.019,-0.844 -0.021,-0.48 -0.101,-1.201 -0.101,-1.924 0,-0.721 -0.162,-2.828 -0.179,-3.327 -0.024,-0.5 -0.279,-1.26 -0.1,-1.501 0.179,-0.241 0.279,-0.443 1.399,-0.221 1.124,0.221 6.536,1.462 7.077,1.625 0.535,0.159 0.961,0.238 1.342,0.221 0.377,-0.021 0.922,-0.242 1.104,-0.943 0.177,-0.701 0.138,-1.624 -0.323,-2.044 -0.463,-0.422 -0.361,-0.641 -1.545,-0.641 -1.179,0 -5.149,-0.062 -6.191,-0.104 -1.04,-0.037 -3.127,-0.258 -4.367,-0.34 -1.242,-0.08 -6.75,-0.781 -7.672,-0.921 -0.926,-0.136 -1.623,-0.197 -1.946,-0.24 -0.322,-0.04 -1.161,-0.217 -1.301,-0.279 -0.142,-0.058 -0.742,-0.421 -1.242,0.021 -0.366,0.319 -0.421,1.221 -0.162,1.601 0.263,0.381 0.602,0.781 1.245,0.781 0.64,0 3.967,0.081 6.068,0.302 2.107,0.223 2.725,0.362 3.029,0.501 0.297,0.14 0.503,0.238 0.518,0.498 0.021,0.381 0,1.145 0.021,1.808 0.02,0.663 0.182,1.543 0.182,2.28 0,0.743 -0.007,1.628 -0.022,2.508 -0.021,1.16 0.18,2.585 0.18,3.223 0,0.644 -0.135,2.498 -0.3,3.127"
         style="fill:#000000;fill-opacity:1;fill-rule:nonzero;stroke:none"
         id="path3155" />
    </g>
  </g>
</svg>
