<?xml version="1.0" encoding="UTF-8" standalone="no"?>
<!-- Created with Inkscape (http://www.inkscape.org/) -->

<svg
   xmlns:dc="http://purl.org/dc/elements/1.1/"
   xmlns:cc="http://creativecommons.org/ns#"
   xmlns:rdf="http://www.w3.org/1999/02/22-rdf-syntax-ns#"
   xmlns:svg="http://www.w3.org/2000/svg"
   xmlns="http://www.w3.org/2000/svg"
   xmlns:sodipodi="http://sodipodi.sourceforge.net/DTD/sodipodi-0.dtd"
   xmlns:inkscape="http://www.inkscape.org/namespaces/inkscape"
   width="68.95987"
   height="67.638748"
   id="svg3533"
   version="1.1"
   inkscape:version="0.48.1 r9760"
   sodipodi:docname="New document 4">
  <defs
     id="defs3535" />
  <sodipodi:namedview
     id="base"
     pagecolor="#ffffff"
     bordercolor="#666666"
     borderopacity="1.0"
     inkscape:pageopacity="0.0"
     inkscape:pageshadow="2"
     inkscape:zoom="1.4"
     inkscape:cx="167.05142"
     inkscape:cy="-16.484942"
     inkscape:document-units="px"
     inkscape:current-layer="layer1"
     showgrid="false"
     fit-margin-top="0"
     fit-margin-left="0"
     fit-margin-right="0"
     fit-margin-bottom="0"
     inkscape:window-width="1024"
     inkscape:window-height="719"
     inkscape:window-x="-4"
     inkscape:window-y="-4"
     inkscape:window-maximized="1" />
  <metadata
     id="metadata3538">
    <rdf:RDF>
      <cc:Work
         rdf:about="">
        <dc:format>image/svg+xml</dc:format>
        <dc:type
           rdf:resource="http://purl.org/dc/dcmitype/StillImage" />
        <dc:title></dc:title>
      </cc:Work>
    </rdf:RDF>
  </metadata>
  <g
     inkscape:label="Layer 1"
     inkscape:groupmode="layer"
     id="layer1"
     transform="translate(-190.02006,-498.54281)">
    <g
       id="g3137"
       transform="matrix(1.25,0,0,-1.25,256.84381,532.37806)">
      <path
         inkscape:connector-curvature="0"
         d="m 0,0 c 0,-14.559 -11.803,-26.362 -26.362,-26.362 -14.56,0 -26.363,11.803 -26.363,26.362 0,14.559 11.803,26.362 26.363,26.362 C -11.803,26.362 0,14.559 0,0"
         style="fill:#ffffff;fill-opacity:1;fill-rule:nonzero;stroke:none"
         id="path3139" />
    </g>
    <g
       id="g3141"
       transform="matrix(1.25,0,0,-1.25,245.33619,534.04931)">
      <path
         inkscape:connector-curvature="0"
         d="m 0,0 c -0.972,1.508 -3.89,2.734 -4.167,2.826 -0.276,0.093 -0.053,0.241 0.029,0.291 1.814,1.11 3.088,2.7 3.217,5.441 0.132,2.735 -0.549,3.705 -2,4.939 -1.436,1.218 -3.368,1.02 -4.157,1.004 -0.933,-0.016 -5.679,-0.009 -6.037,-0.009 -0.472,0 -1.013,0 -2.877,0.025 -0.221,0.001 -0.332,-0.14 -0.22,-0.196 0.107,-0.055 0.55,-0.365 0.918,-0.808 0.335,-0.403 0.606,-1.286 0.606,-1.615 l 0.017,-22.732 c 0,-0.639 -0.571,-1.342 -0.991,-1.597 -0.421,-0.257 -0.017,-0.31 0.129,-0.31 0,0 6.282,-0.042 6.907,0 0.623,0.033 1.723,0.035 2.769,0.123 1.047,0.094 3.783,1.013 5.417,2.739 1.634,1.726 1.817,4.02 1.835,5.27 C 1.413,-3.359 0.973,-1.508 0,0 m -9.887,12.484 c 0.034,0.418 0.645,0.838 1.13,0.838 0.646,0 1.873,-0.322 2.644,-1.227 0.602,-0.701 1.321,-1.934 1.291,-3.74 C -4.867,5.791 -6.02,4.564 -7.175,3.966 -8.111,3.481 -8.339,3.449 -8.855,3.449 c -0.513,0 -1.032,0.035 -1.032,0.743 l 0,8.292 z m 5.259,-21.969 c -1.223,-1.259 -2.517,-1.615 -3.645,-1.776 -0.303,-0.041 -0.969,0.006 -1.234,0.297 -0.26,0.289 -0.346,0.709 -0.346,0.995 L -9.887,0.835 c 0,0.551 0.678,0.841 0.999,0.841 0.324,0 1.226,0 1.485,-0.064 0.258,-0.068 2.421,-0.743 3.26,-2.292 0.838,-1.547 0.968,-2.61 0.968,-3.935 0,-1.321 -0.37,-3.759 -1.453,-4.87"
         style="fill:#d0121b;fill-opacity:1;fill-rule:nonzero;stroke:none"
         id="path3143" />
    </g>
    <g
       id="g3145"
       transform="matrix(1.25,0,0,-1.25,224.97494,558.37806)">
      <path
         inkscape:connector-curvature="0"
         d="m 0,0 c -4.049,0 -6.119,1.881 -6.628,5.692 -0.033,0.28 -0.1,0.768 0.042,1.007 0.814,0.416 2.52,1.97 3.04,2.661 1.129,1.504 1.527,3.147 1.462,5.253 -0.076,2.329 -1.136,4.525 -2.627,6.149 -0.585,0.638 -1.341,1.409 -1.995,2.201 -0.008,0.015 0.048,8.871 0.048,8.856 1.722,0 2.928,-2.452 3.389,-3.79 l 0.166,0 0,6.193 c -0.223,0 -0.166,0.056 -0.166,-0.174 -0.268,-0.13 -0.605,-0.264 -0.908,-0.42 -0.68,-0.321 -1.409,-0.362 -2.389,0.009 0,0.678 -0.014,1.045 0.115,1.774 0.178,1.114 0.634,1.996 1.188,2.9 0.804,1.33 1.867,2.076 3.348,2.504 3.87,1.125 7.008,-2.38 8.101,-5.561 l 0.176,0 0,5.502 -0.176,0 0,-0.173 c -1.767,0 -2.365,0.805 -3.819,1.289 -1.527,0.514 -3.012,0.901 -4.949,0.604 -3.097,-0.588 -5.408,-1.47 -7.138,-4.857 -0.483,-0.859 -0.854,-1.838 -1.116,-2.881 0,-0.374 -0.876,-0.479 -1.182,-0.59 -2.942,-1.052 -5.263,-2.889 -5.642,-6.299 -0.396,-3.437 1.465,-5.955 4.076,-7.713 0.713,-0.477 1.43,-0.941 2.147,-1.416 -0.022,-1.304 -0.022,-8.855 -0.026,-10.271 -0.003,-0.578 -0.578,-0.558 -1.097,-0.372 -2.291,0.804 -4.697,3.7 -5.158,6.024 -0.287,0 -0.178,-0.258 -0.178,-0.518 -0.047,-2.408 -0.109,-4.817 -0.166,-7.219 l 0.169,0 c 0,0.048 0.958,1.557 2.217,1.402 0.497,-0.053 4.344,-1.648 4.624,-1.953 0.2,-0.936 0.781,-1.662 1.17,-2.491 1.831,-3.181 3.962,-4.218 7.3,-4.513 1.472,-0.132 2.598,0.055 3.766,0.394 2.225,0.64 6.561,3.62 5.699,4.922 C 5.645,2.498 2.619,0.125 0,0 m -11.226,24.69 c -0.055,0 -1.026,0.514 -1.795,1.169 -1.967,1.686 -2.371,4.789 0.034,6.342 0.595,0.364 1.213,0.572 1.761,0.787 -0.061,-1.031 0.045,-8.294 0,-8.298 m 4.347,-8.18 c 1.899,-1.547 2.78,-3.969 1.628,-6.318 -0.616,-1.258 -1.622,-1.772 -1.69,-1.772 -0.037,0.179 0.07,5.562 0.062,8.09"
         style="fill:#d0121b;fill-opacity:1;fill-rule:nonzero;stroke:none"
         id="path3147" />
    </g>
    <g
       id="g3149"
       transform="matrix(1.25,0,0,-1.25,223.84256,498.54281)">
      <path
         inkscape:connector-curvature="0"
         d="m 0,0 c -14.918,0 -27.058,-12.136 -27.058,-27.052 0,-14.924 12.14,-27.059 27.058,-27.059 14.914,0 27.053,12.135 27.053,27.059 C 27.053,-12.136 14.914,0 0,0 m 0,-52.434 c -13.996,0 -25.38,11.385 -25.38,25.382 0,13.991 11.384,25.379 25.38,25.379 13.99,0 25.377,-11.388 25.377,-25.379 C 25.377,-41.049 13.99,-52.434 0,-52.434"
         style="fill:#d0121b;fill-opacity:1;fill-rule:nonzero;stroke:none"
         id="path3151" />
    </g>
  </g>
</svg>
