<?xml version="1.0" encoding="utf-8"?>
<!-- Generator: Adobe Illustrator 13.0.2, SVG Export Plug-In  -->
<!DOCTYPE svg PUBLIC "-//W3C//DTD SVG 1.1//EN" "http://www.w3.org/Graphics/SVG/1.1/DTD/svg11.dtd" [
	<!ENTITY ns_flows "http://ns.adobe.com/Flows/1.0/">
]>
<svg version="1.1"
	 xmlns="http://www.w3.org/2000/svg" xmlns:xlink="http://www.w3.org/1999/xlink" xmlns:a="http://ns.adobe.com/AdobeSVGViewerExtensions/3.0/"
	 x="0px" y="0px" width="179px" height="69px" viewBox="-0.948 -0.872 179 69" enable-background="new -0.948 -0.872 179 69"
	 xml:space="preserve">
<defs>
</defs>
<g>
	<g>
		<path fill="#0072AA" d="M34.854,29.421h-1.851c-1.237,0-1.75-0.79-1.75-1.931v-8.169h3.601v-2.306h-3.601v-4.345h-2.595v14.783
			c0,3.116,1.563,4.447,4.341,4.447h1.854V29.421"/>
		<path fill="#0072AA" d="M9.891,24.866v0.105c0,5.292,4.323,7.188,8.37,7.188c3.954,0,7.934-1.894,7.934-6.08
			c0-4.068-3.342-5.168-6.475-5.881l-1.094-0.238c-2.811-0.614-5.243-1.131-5.243-3.222c0-2.979,3.063-3.319,4.376-3.319
			c2.894,0,4.576,1.395,4.857,4.002l0.01,0.096h2.732l-0.002-0.112c-0.156-4.098-2.885-6.438-7.484-6.438
			c-3.666,0-7.368,1.839-7.368,5.967c0,3.68,3.077,4.655,6.505,5.404l0.675,0.149c2.896,0.615,5.63,1.2,5.63,3.675
			c0,3.07-3.11,3.526-4.969,3.526c-1.566,0-2.98-0.399-3.985-1.125c-1.132-0.821-1.729-2.059-1.729-3.593v-0.105H9.891"/>
		<path fill="#0072AA" d="M50.466,29.504l-0.145,0.053c-0.323,0.118-0.536,0.133-0.689,0.133c-0.625,0-0.654-0.339-0.654-1.512
			v-7.453c0-2.758-1.81-4.094-5.54-4.094c-2.261,0-6.079,0.64-6.247,4.956l-0.002,0.112h2.588l0.007-0.102
			c0.096-1.801,1.217-2.653,3.515-2.653c2.12,0,3.116,0.729,3.116,2.312c0,1.315-1.334,1.502-3.171,1.761
			c-0.526,0.074-1.059,0.151-1.624,0.26c-2.525,0.484-4.994,1.237-4.994,4.566c0,2.605,1.836,4.177,4.903,4.177
			c2.061,0,3.736-0.729,5.018-2.112c0.101,1.71,1.18,2.112,2.101,2.112c0.746,0,1.308-0.146,1.768-0.423l0.052-0.032V29.504
			 M42.06,29.689c-0.808,0-2.695-0.195-2.695-2.016c0-1.754,1.434-2.263,2.826-2.511c0.426-0.072,0.88-0.133,1.313-0.187
			c1.115-0.145,2.17-0.283,2.883-0.704c0,0,0.059-0.035,0,0v2.256C46.386,27.751,45.209,29.689,42.06,29.689z"/>
		<path fill="#0072AA" d="M52.76,17.016v14.701h2.6V23.43c0-2.768,1.559-4.436,4.179-4.436c1.744,0,2.834,1.09,2.834,2.813v9.909
			h2.6v-9.628c0-3.644-1.672-5.409-5.1-5.409c-2.087,0-3.646,0.817-4.66,2.442v-2.106H52.76"/>
		<path fill="#0072AA" d="M78.761,11.492v7.313c-1.098-1.553-3.085-2.125-4.621-2.125c-4.092,0-6.729,2.994-6.729,7.645
			c0,2.135,0.605,4.054,1.69,5.416c1.204,1.512,2.967,2.329,5.094,2.329c2.125,0,3.769-0.784,4.566-2.122v1.77h2.602V11.492H78.761
			 M74.528,29.739c-3.021,0-4.381-2.626-4.381-5.247c0-1.649,0.413-5.498,4.245-5.498c4.13,0,4.453,4.126,4.453,5.385
			C78.846,26.979,77.716,29.739,74.528,29.739z"/>
		<path fill="#0072AA" d="M97.819,29.553l-0.142,0.053c-0.326,0.118-0.54,0.134-0.691,0.134c-0.637,0-0.663-0.338-0.663-1.512
			v-7.452c0-2.76-1.81-4.096-5.527-4.096c-2.272,0-6.085,0.64-6.254,4.956l-0.005,0.112h2.598l0.005-0.102
			c0.096-1.801,1.208-2.652,3.511-2.652c2.123,0,3.109,0.747,3.109,2.311c0,1.315-1.326,1.503-3.163,1.762
			c-0.529,0.073-1.062,0.15-1.627,0.259c-2.518,0.485-4.986,1.237-4.986,4.566c0,2.605,1.825,4.178,4.896,4.178
			c2.063,0,3.74-0.729,5.012-2.113c0.103,1.71,1.18,2.113,2.102,2.113c0.757,0,1.317-0.146,1.775-0.424l0.051-0.03V29.553
			 M89.412,29.739c-0.81,0-2.687-0.196-2.687-2.016c0-1.755,1.421-2.263,2.814-2.512c0.425-0.072,0.869-0.133,1.315-0.186
			c1.117-0.146,2.17-0.284,2.876-0.704c0,0,0.06-0.036,0,0v2.255C93.731,27.8,92.563,29.739,89.412,29.739z"/>
		<path fill="#0072AA" d="M107.919,16.683l-0.104-0.002c-2.428-0.079-4.058,0.893-5.279,3.173v-2.838h-2.45v14.701h2.589v-6.554
			c0-3.913,1.645-5.752,5.136-5.752h0.108V16.683"/>
		<path fill="#0072AA" d="M119.629,11.492v7.313c-1.101-1.553-3.079-2.125-4.637-2.125c-4.071,0-6.721,2.994-6.721,7.645
			c0,2.135,0.6,4.054,1.703,5.416c1.203,1.512,2.957,2.329,5.086,2.329c2.131,0,3.771-0.786,4.568-2.123v1.771h2.607V11.492H119.629
			 M115.401,29.739c-3.03,0-4.382-2.626-4.382-5.247c0-1.649,0.412-5.498,4.245-5.498c4.124,0,4.446,4.126,4.446,5.385
			C119.711,26.979,118.579,29.739,115.401,29.739z"/>
		<path fill="#0072AA" d="M15.255,52.151l-0.009,0.098c-0.268,3.49-2.433,5.674-5.659,5.674c-2.229,0-3.954-0.812-5.117-2.442
			c-1.039-1.428-1.595-3.442-1.595-5.839c0-2.18,0.571-4.146,1.589-5.555c1.166-1.593,2.93-2.432,5.094-2.432
			c2.928,0,4.976,1.555,5.493,4.178l0.016,0.087h2.88l-0.02-0.122c-0.294-2.071-1.272-3.767-2.826-4.925
			c-1.462-1.093-3.374-1.671-5.514-1.671c-2.953,0-5.419,1.079-7.139,3.124C0.874,44.207,0,46.887,0,49.838
			c0,6.499,3.59,10.54,9.362,10.54c2.481,0,4.595-0.749,6.106-2.161c1.486-1.392,2.404-3.461,2.654-5.95l0.012-0.115H15.255"/>
		<path fill="#0072AA" d="M20.626,39.657v20.26h2.598v-8.302c0-2.785,1.569-4.438,4.178-4.438c1.754,0,2.838,1.073,2.838,2.8v9.94
			h2.599v-9.662c0-3.626-1.663-5.39-5.09-5.39c-1.545,0-3.597,0.584-4.524,2.228v-7.436H20.626"/>
		<path fill="#0072AA" d="M38.276,49.917l0.002-0.104c0.097-1.798,1.208-2.636,3.51-2.636c2.129,0,3.112,0.73,3.112,2.298
			c0,1.33-1.324,1.52-3.168,1.777c-0.518,0.073-1.052,0.15-1.614,0.259c-2.528,0.485-4.997,1.237-4.997,4.55
			c0,2.619,1.836,4.178,4.903,4.178c2.053,0,3.74-0.713,5.01-2.097c0.1,1.709,1.188,2.097,2.109,2.097
			c0.742,0,1.301-0.13,1.76-0.407l0.053-0.03v-2.06l-0.146,0.05c-0.325,0.12-0.538,0.132-0.689,0.132
			c-0.618,0-0.646-0.336-0.646-1.527v-7.453c0-2.743-1.816-4.077-5.548-4.077c-2.262,0-6.078,0.642-6.247,4.939l-0.001,0.112H38.276
			 M40.558,57.923c-0.815,0-2.697-0.195-2.697-2.032c0-1.754,1.425-2.245,2.828-2.49c0.423-0.076,0.868-0.133,1.297-0.188
			c1.129-0.144,2.185-0.284,2.889-0.706c0,0,0.058-0.034,0,0v2.238C44.874,55.969,43.705,57.923,40.558,57.923z"/>
		<path fill="#0072AA" d="M122.236,59.905V39.677h-2.607v7.313c-1.101-1.555-3.079-2.125-4.637-2.125
			c-4.071,0-6.721,2.993-6.721,7.644c0,2.118,0.6,4.052,1.703,5.417c1.203,1.51,2.957,2.313,5.086,2.313
			c2.131,0,3.771-0.771,4.568-2.108v1.775H122.236 M115.401,57.923c-3.03,0-4.382-2.642-4.382-5.244
			c0-1.648,0.412-5.502,4.245-5.502c4.124,0,4.446,4.129,4.446,5.388C119.711,55.149,118.579,57.923,115.401,57.923z"/>
		<path fill="#0072AA" d="M79.483,55.341c-0.443,1.67-1.703,2.582-3.596,2.582c-1.339,0-2.462-0.417-3.229-1.214
			c-0.779-0.824-1.193-2-1.171-3.337h10.836l0.009-0.104c0.104-2.613-0.7-5.095-2.149-6.602c-1.156-1.196-2.67-1.801-4.518-1.801
			c-4.008,0-6.919,3.208-6.919,7.644c0.155,4.919,2.731,7.729,7.059,7.729c3.313,0,5.591-1.78,6.271-4.897H79.483 M75.522,47.177
			c2.172,0,3.889,1.656,4.054,3.883H71.5C71.689,49.099,72.992,47.177,75.522,47.177z"/>
		<path fill="#0072AA" d="M103.728,55.375c-0.45,1.649-1.724,2.548-3.595,2.548c-1.339,0-2.451-0.417-3.219-1.214
			c-0.8-0.824-1.209-2-1.188-3.337h10.844l0.007-0.104c0.103-2.613-0.698-5.095-2.148-6.602c-1.147-1.196-2.678-1.801-4.517-1.801
			c-4.019,0-6.915,3.208-6.915,7.644c0.15,4.919,2.721,7.729,7.056,7.729c3.309,0,5.574-1.767,6.261-4.863H103.728 M99.769,47.177
			c2.164,0,3.896,1.656,4.061,3.883h-8.093C95.929,49.099,97.248,47.177,99.769,47.177z"/>
		<path fill="#0072AA" d="M53.84,59.916v-6.569c0-3.929,1.635-5.751,5.137-5.751h0.108v-2.728l-0.104-0.002
			c-2.437-0.079-4.076,0.892-5.279,3.153v-2.838h-2.458v14.734H53.84"/>
		<path fill="#0072AA" d="M87.487,59.905v-6.559c0-3.929,1.625-5.751,5.135-5.751h0.107v-2.728l-0.103-0.002
			c-2.446-0.079-4.076,0.892-5.28,3.153v-2.83H84.89v14.716H87.487"/>
		<path fill="#0072AA" d="M67.437,57.606h-1.844c-1.245,0-1.757-0.79-1.757-1.948v-8.152h3.601v-2.305h-3.601v-4.343h-2.597v14.764
			c0,3.133,1.571,4.465,4.351,4.465h1.847V57.606"/>
		<path fill="#78ADD2" d="M147.104,65.425c-1.774,1.057-3.385,1.688-5.074,1.688c-4.375,0-8.03-3.583-8.241-7.89l8.522-5.078
			l13.249,5.924L147.104,65.425"/>
		<path fill="#A4D0A0" d="M152.171,43.61l-6.329-2.788c-2.829-1.265-5.499-2.317-5.499-5.431c0-1.612,0.49-2.458,1.263-3.3
			l13.39,5.902l-3.32,1.916c-0.914,0.562-1.547,1.054-1.547,1.758C150.128,42.43,150.997,43.078,152.171,43.61"/>
		<path fill="#78ADD2" d="M158.39,14.397l-6.491,3.938c-0.575,0.348-1.346,0.91-1.346,1.774c0,0.982,1.498,1.735,2.829,2.369
			l-8.12-3.583c-2.393-1.053-4.779-2.249-4.779-5.133c0-1.212,0.351-2.193,0.913-3.035L158.95,0
			c2.104,1.193,4.145,3.605,4.145,6.841C163.095,10.303,161.341,12.622,158.39,14.397"/>
		<path fill="#A4D0A0" d="M172.194,27.083l-1.612,0.912l-13.409-5.919l15.587-9.383c2.104,1.214,4.165,3.602,4.165,6.835
			C176.925,22.991,175.219,25.378,172.194,27.083"/>
		<path fill="#78ADD2" d="M160.875,38.467l7.932,3.484c2.972,1.332,3.885,2.894,3.885,4.868c0,1.122-0.633,2.248-1.544,3.021
			l-13.338-5.924l2.257-1.265c1.908-1.055,2.542-1.688,2.542-2.391C162.608,39.532,162.163,39.051,160.875,38.467"/>
		<path fill="#21AA47" d="M175.011,67.745c-3.374-2.6-6.974-4.357-11.35-6.343l-20.226-8.948c-5.082-2.266-8.452-5.284-8.452-10.364
			c0-4.938,2.392-7.33,5.499-9.294l1.123-0.704c-0.772,0.842-1.263,1.688-1.263,3.3c0,3.113,2.67,4.166,5.499,5.431l23.53,10.369
			c4.094,1.758,7.839,4.78,7.839,9.929C177.211,63.95,176.134,66.481,175.011,67.745"/>
		<path fill="#0072AA" d="M172.623,48.924l-1.476,0.917c0.911-0.773,1.544-1.899,1.544-3.023c0-1.971-0.916-3.534-3.885-4.866
			l-25.161-11.074c-5.079-2.246-8.242-5.146-8.242-10.205c0-4.657,2.319-7.699,5.992-9.944c-0.563,0.842-0.913,1.823-0.913,3.035
			c0,2.884,2.387,4.08,4.779,5.133l24.458,10.788c4.446,1.97,8.047,4.938,8.047,10.368
			C177.767,44.286,175.786,46.956,172.623,48.924"/>
	</g>
</g>
</svg>
