<?xml version="1.0" encoding="utf-8"?>
<!-- Generator: Adobe Illustrator 13.0.2, SVG Export Plug-In  -->
<!DOCTYPE svg PUBLIC "-//W3C//DTD SVG 1.1//EN" "http://www.w3.org/Graphics/SVG/1.1/DTD/svg11.dtd" [
	<!ENTITY ns_flows "http://ns.adobe.com/Flows/1.0/">
]>
<svg version="1.1"
	 xmlns="http://www.w3.org/2000/svg" xmlns:xlink="http://www.w3.org/1999/xlink" xmlns:a="http://ns.adobe.com/AdobeSVGViewerExtensions/3.0/"
	 x="0px" y="0px" width="46px" height="69px" viewBox="-0.948 -0.872 46 69" enable-background="new -0.948 -0.872 179 69"
	 xml:space="preserve">
<defs>
</defs>
<g>
	<g transform="translate(-134,0)">
		<path fill="#78ADD2" d="M147.104,65.425c-1.774,1.057-3.385,1.688-5.074,1.688c-4.375,0-8.03-3.583-8.241-7.89l8.522-5.078
			l13.249,5.924L147.104,65.425"/>
		<path fill="#A4D0A0" d="M152.171,43.61l-6.329-2.788c-2.829-1.265-5.499-2.317-5.499-5.431c0-1.612,0.49-2.458,1.263-3.3
			l13.39,5.902l-3.32,1.916c-0.914,0.562-1.547,1.054-1.547,1.758C150.128,42.43,150.997,43.078,152.171,43.61"/>
		<path fill="#78ADD2" d="M158.39,14.397l-6.491,3.938c-0.575,0.348-1.346,0.91-1.346,1.774c0,0.982,1.498,1.735,2.829,2.369
			l-8.12-3.583c-2.393-1.053-4.779-2.249-4.779-5.133c0-1.212,0.351-2.193,0.913-3.035L158.95,0
			c2.104,1.193,4.145,3.605,4.145,6.841C163.095,10.303,161.341,12.622,158.39,14.397"/>
		<path fill="#A4D0A0" d="M172.194,27.083l-1.612,0.912l-13.409-5.919l15.587-9.383c2.104,1.214,4.165,3.602,4.165,6.835
			C176.925,22.991,175.219,25.378,172.194,27.083"/>
		<path fill="#78ADD2" d="M160.875,38.467l7.932,3.484c2.972,1.332,3.885,2.894,3.885,4.868c0,1.122-0.633,2.248-1.544,3.021
			l-13.338-5.924l2.257-1.265c1.908-1.055,2.542-1.688,2.542-2.391C162.608,39.532,162.163,39.051,160.875,38.467"/>
		<path fill="#21AA47" d="M175.011,67.745c-3.374-2.6-6.974-4.357-11.35-6.343l-20.226-8.948c-5.082-2.266-8.452-5.284-8.452-10.364
			c0-4.938,2.392-7.33,5.499-9.294l1.123-0.704c-0.772,0.842-1.263,1.688-1.263,3.3c0,3.113,2.67,4.166,5.499,5.431l23.53,10.369
			c4.094,1.758,7.839,4.78,7.839,9.929C177.211,63.95,176.134,66.481,175.011,67.745"/>
		<path fill="#0072AA" d="M172.623,48.924l-1.476,0.917c0.911-0.773,1.544-1.899,1.544-3.023c0-1.971-0.916-3.534-3.885-4.866
			l-25.161-11.074c-5.079-2.246-8.242-5.146-8.242-10.205c0-4.657,2.319-7.699,5.992-9.944c-0.563,0.842-0.913,1.823-0.913,3.035
			c0,2.884,2.387,4.08,4.779,5.133l24.458,10.788c4.446,1.97,8.047,4.938,8.047,10.368
			C177.767,44.286,175.786,46.956,172.623,48.924"/>
	</g>
</g>
</svg>
