<?xml version="1.0" encoding="UTF-8" standalone="no"?>
<!-- Created with Inkscape (http://www.inkscape.org/) -->

<svg
   xmlns:dc="http://purl.org/dc/elements/1.1/"
   xmlns:cc="http://creativecommons.org/ns#"
   xmlns:rdf="http://www.w3.org/1999/02/22-rdf-syntax-ns#"
   xmlns:svg="http://www.w3.org/2000/svg"
   xmlns="http://www.w3.org/2000/svg"
   xmlns:sodipodi="http://sodipodi.sourceforge.net/DTD/sodipodi-0.dtd"
   xmlns:inkscape="http://www.inkscape.org/namespaces/inkscape"
   width="316.01477"
   height="88.487076"
   id="svg3826"
   version="1.1"
   inkscape:version="0.48.4 r9939"
   sodipodi:docname="New document 3">
  <defs
     id="defs3828">
    <clipPath
       clipPathUnits="userSpaceOnUse"
       id="clipPath34">
      <path
         inkscape:connector-curvature="0"
         d="m 0,595.276 566.929,0 L 566.929,0 0,0 0,595.276 z"
         id="path36" />
    </clipPath>
  </defs>
  <sodipodi:namedview
     id="base"
     pagecolor="#ffffff"
     bordercolor="#666666"
     borderopacity="1.0"
     inkscape:pageopacity="0.0"
     inkscape:pageshadow="2"
     inkscape:zoom="0.98994949"
     inkscape:cx="140.29097"
     inkscape:cy="41.361949"
     inkscape:document-units="px"
     inkscape:current-layer="layer1"
     showgrid="false"
     fit-margin-top="0"
     fit-margin-left="0"
     fit-margin-right="0"
     fit-margin-bottom="0"
     inkscape:window-width="1440"
     inkscape:window-height="844"
     inkscape:window-x="-4"
     inkscape:window-y="-4"
     inkscape:window-maximized="1" />
  <metadata
     id="metadata3831">
    <rdf:RDF>
      <cc:Work
         rdf:about="">
        <dc:format>image/svg+xml</dc:format>
        <dc:type
           rdf:resource="http://purl.org/dc/dcmitype/StillImage" />
        <dc:title></dc:title>
      </cc:Work>
    </rdf:RDF>
  </metadata>
  <g
     inkscape:label="Layer 1"
     inkscape:groupmode="layer"
     id="layer1"
     transform="translate(-340.27944,-431.91186)">
    <g
       transform="matrix(2.4775193,0,0,-2.4775193,-659.87057,1862.7184)"
       id="g30">
      <g
         id="g32"
         clip-path="url(#clipPath34)">
        <g
           id="g38"
           transform="translate(447.6899,553.7915)">
          <path
             inkscape:connector-curvature="0"
             d="m 0,0 c -1.029,0 -1.777,-0.815 -1.777,-2.281 0,-1.475 0.57,-2.367 1.756,-2.367 1.027,0 1.777,0.801 1.777,2.265 C 1.756,-0.907 1.197,0 0,0 m -0.145,-6.249 c -2.335,0 -3.476,1.454 -3.476,3.791 0,2.491 1.689,4.044 3.746,4.044 2.334,0 3.473,-1.451 3.473,-3.785 0,-2.494 -1.686,-4.05 -3.743,-4.05"
             style="fill:#e2001a;fill-opacity:1;fill-rule:nonzero;stroke:none"
             id="path40" />
        </g>
        <g
           id="g42"
           transform="translate(455.5122,547.5874)">
          <path
             inkscape:connector-curvature="0"
             d="m 0,0 c -2.781,0 -3.531,1.889 -3.531,3.6 0,2.448 1.332,4.101 3.82,4.101 0.525,0 1.088,-0.068 1.543,-0.212 L 1.609,5.902 C 1.186,6.06 0.729,6.138 0.26,6.138 c -1.219,0 -1.879,-0.884 -1.879,-2.248 0,-1.488 0.603,-2.301 1.967,-2.301 0.394,0 0.927,0.099 1.285,0.278 L 1.881,0.325 C 1.344,0.122 0.65,0 0,0"
             style="fill:#e2001a;fill-opacity:1;fill-rule:nonzero;stroke:none"
             id="path44" />
        </g>
        <g
           id="g46"
           transform="translate(460.813,550.9087)">
          <path
             inkscape:connector-curvature="0"
             d="m 0,0 c -0.09,0 -0.449,0 -0.582,-0.01 l 0,-1.801 c 0.144,-0.011 0.457,-0.033 0.68,-0.033 0.781,0 1.218,0.381 1.218,0.948 C 1.316,-0.315 0.834,0 0,0 m 0.088,2.994 c -0.27,0 -0.479,-0.01 -0.67,-0.021 l 0,-1.679 c 0.144,-0.009 0.311,-0.009 0.512,-0.009 0.851,0 1.197,0.346 1.197,0.916 0,0.481 -0.322,0.793 -1.039,0.793 M 0.064,-3.243 c -0.478,0 -1.296,0.023 -2.39,0.023 l 0,7.532 c 0.691,0.035 1.777,0.057 2.703,0.057 1.625,0 2.596,-0.638 2.596,-1.898 0,-0.705 -0.371,-1.342 -1.032,-1.634 l 0,-0.033 c 0.729,-0.191 1.243,-0.87 1.243,-1.666 0,-1.253 -0.928,-2.381 -3.12,-2.381"
             style="fill:#e2001a;fill-opacity:1;fill-rule:nonzero;stroke:none"
             id="path48" />
        </g>
        <g
           id="g50"
           transform="translate(468.2661,547.5874)">
          <path
             inkscape:connector-curvature="0"
             d="m 0,0 c -2.783,0 -3.533,1.889 -3.533,3.6 0,2.448 1.332,4.101 3.822,4.101 0.527,0 1.086,-0.068 1.543,-0.212 L 1.609,5.902 C 1.186,6.06 0.727,6.138 0.256,6.138 c -1.219,0 -1.877,-0.884 -1.877,-2.248 0,-1.488 0.603,-2.301 1.967,-2.301 0.392,0 0.927,0.099 1.285,0.278 L 1.879,0.325 C 1.34,0.122 0.646,0 0,0"
             style="fill:#e2001a;fill-opacity:1;fill-rule:nonzero;stroke:none"
             id="path52" />
        </g>
        <g
           id="g54"
           transform="translate(479.6938,547.771)">
          <path
             inkscape:connector-curvature="0"
             d="M 0,0 -1.457,0 -2.709,4.538 C -2.838,4.985 -2.916,5.452 -2.99,5.921 l -0.012,0 C -3.057,5.464 -3.145,5.017 -3.264,4.56 L -4.504,0 l -1.392,0 -1.905,7.345 1.264,0 1.131,-4.461 c 0.129,-0.488 0.217,-0.958 0.281,-1.448 l 0.012,0 c 0.076,0.478 0.164,0.947 0.295,1.393 l 1.25,4.516 1.295,0 1.285,-4.528 c 0.107,-0.391 0.217,-0.879 0.293,-1.348 l 0.011,0 c 0.075,0.457 0.153,0.882 0.262,1.284 l 1.141,4.592 1.185,0 L 0,0 z"
             style="fill:#1a171c;fill-opacity:1;fill-rule:nonzero;stroke:none"
             id="path56" />
        </g>
        <path
           inkscape:connector-curvature="0"
           d="m 482.743,555.116 1.186,0 0,-7.345 -1.186,0 0,7.345 z"
           style="fill:#1a171c;fill-opacity:1;fill-rule:nonzero;stroke:none"
           id="path58" />
        <g
           id="g60"
           transform="translate(490.2622,547.771)">
          <path
             inkscape:connector-curvature="0"
             d="M 0,0 -2.514,4.179 C -2.842,4.71 -3.102,5.235 -3.33,5.724 -3.285,5.005 -3.268,3.515 -3.268,2.471 l 0,-2.471 -1.15,0 0,7.345 1.555,0 2.425,-4.004 C -0.111,2.798 0.184,2.209 0.457,1.676 0.412,2.513 0.379,4.09 0.379,5.169 l 0,2.176 1.156,0 L 1.535,0 0,0 z"
             style="fill:#1a171c;fill-opacity:1;fill-rule:nonzero;stroke:none"
             id="path62" />
        </g>
        <g
           id="g64"
           transform="translate(507.9204,547.771)">
          <path
             inkscape:connector-curvature="0"
             d="m 0,0 0,3.298 -3.471,0 0,-3.298 -1.185,0 0,7.345 1.185,0 0,-3.035 3.471,0 0,3.035 1.176,0 L 1.176,0 0,0 z"
             style="fill:#1a171c;fill-opacity:1;fill-rule:nonzero;stroke:none"
             id="path66" />
        </g>
        <g
           id="g68"
           transform="translate(513.5806,552.7642)">
          <path
             inkscape:connector-curvature="0"
             d="m 0,0 c -0.121,0.36 -0.229,0.686 -0.305,1.002 l -0.021,0 C -0.402,0.686 -0.502,0.36 -0.619,0.012 l -0.873,-2.438 2.361,0 L 0,0 z m 1.74,-4.993 -0.566,1.622 -2.969,0 -0.568,-1.622 -1.196,0 2.631,7.345 1.321,0 2.664,-7.345 -1.317,0 z"
             style="fill:#1a171c;fill-opacity:1;fill-rule:nonzero;stroke:none"
             id="path70" />
        </g>
        <g
           id="g72"
           transform="translate(521.9692,547.771)">
          <path
             inkscape:connector-curvature="0"
             d="M 0,0 -2.512,4.179 C -2.84,4.71 -3.102,5.235 -3.33,5.724 -3.285,5.005 -3.266,3.515 -3.266,2.471 l 0,-2.471 -1.152,0 0,7.345 1.555,0 2.427,-4.004 C -0.109,2.798 0.186,2.209 0.457,1.676 0.412,2.513 0.381,4.09 0.381,5.169 l 0,2.176 1.152,0 L 1.533,0 0,0 z"
             style="fill:#1a171c;fill-opacity:1;fill-rule:nonzero;stroke:none"
             id="path74" />
        </g>
        <g
           id="g76"
           transform="translate(528.8794,551.5591)">
          <path
             inkscape:connector-curvature="0"
             d="m 0,0 0,-0.952 0.869,0 0,-1.716 c -0.338,-0.108 -0.707,-0.173 -1.131,-0.173 -1.578,0 -2.547,0.99 -2.547,2.687 0,1.818 1.164,2.775 2.645,2.775 0.684,0 1.316,-0.132 1.893,-0.36 l 0.25,1.089 c -0.61,0.185 -1.315,0.304 -2.057,0.304 -2.479,0 -4.004,-1.655 -4.004,-3.927 0,-2.264 1.404,-3.622 3.678,-3.622 0.838,0 1.73,0.162 2.459,0.445 L 2.055,0 0,0 z"
             style="fill:#1a171c;fill-opacity:1;fill-rule:nonzero;stroke:none"
             id="path78" />
        </g>
        <g
           id="g80"
           transform="translate(497.1724,551.5591)">
          <path
             inkscape:connector-curvature="0"
             d="m 0,0 0,-0.952 0.869,0 0,-1.716 C 0.531,-2.776 0.16,-2.841 -0.264,-2.841 c -1.576,0 -2.545,0.99 -2.545,2.687 0,1.818 1.164,2.775 2.645,2.775 0.684,0 1.316,-0.132 1.893,-0.36 l 0.25,1.089 c -0.61,0.185 -1.317,0.304 -2.055,0.304 -2.483,0 -4.006,-1.655 -4.006,-3.927 0,-2.264 1.402,-3.622 3.678,-3.622 0.838,0 1.73,0.162 2.461,0.445 L 2.057,0 0,0 z"
             style="fill:#1a171c;fill-opacity:1;fill-rule:nonzero;stroke:none"
             id="path82" />
        </g>
        <path
           inkscape:connector-curvature="0"
           d="m 450.993,564.245 1.094,0 0,0.678 -1.094,0 0,-0.678 z m 0,2.032 1.094,0 0,0.677 -1.094,0 0,-0.677 z m -2.762,-2.032 1.094,0 0,0.678 -1.094,0 0,-0.678 z m 0,2.032 1.094,0 0,0.677 -1.094,0 0,-0.677 z m -4.064,4.116 3.281,0 0,0.938 c 0.453,-0.036 0.939,-0.071 1.459,-0.104 0.209,-0.037 0.244,-0.176 0.105,-0.418 l 0,-0.103 0,-0.313 2.291,0 0,0.938 c 0.522,-0.036 1.008,-0.071 1.461,-0.104 0.209,-0.037 0.26,-0.156 0.154,-0.365 l -0.05,-0.156 0,-0.313 3.23,0 0,-1.252 -3.23,0 0,-0.676 -1.565,0 0,0.676 -2.291,0 0,-0.676 -1.564,0 0,0.676 -3.281,0 0,1.252 z m 2.396,-3.439 -1.563,0 0,1.355 10.317,0 0,-1.355 -1.565,0 0,-0.677 2.502,0 0,-1.355 -2.502,0 0,-0.677 1.565,0 0,-1.354 -4.324,0 0,-0.73 4.896,0 0,-1.356 -4.896,0 0,-1.457 -1.668,0 0,1.457 -4.846,0 0,1.356 4.846,0 0,0.73 -4.325,0 0,1.354 1.563,0 0,0.677 -2.5,0 0,1.355 2.5,0 0,0.677 z"
           style="fill:#e2001a;fill-opacity:1;fill-rule:nonzero;stroke:none"
           id="path84" />
        <path
           inkscape:connector-curvature="0"
           d="m 466.668,561.64 1.199,0 0,0.624 -1.199,0 0,-0.624 z m -0.259,5.992 1.875,0 c -0.174,0.208 -0.366,0.415 -0.575,0.625 l -0.832,0 c -0.175,-0.21 -0.332,-0.417 -0.468,-0.625 m 1.771,-0.991 -1.98,0 0,-0.625 1.98,0 0,0.625 z m 2.969,-2.084 0,-3.699 c 0.103,-1.006 -0.643,-1.424 -2.24,-1.251 -0.104,0.522 -0.227,0.921 -0.366,1.198 l -1.875,0 0,-0.259 -1.146,0 0,2.552 3.492,0 0,-2.032 c 0.381,-0.069 0.572,0.034 0.572,0.313 l 0,2.188 -4.533,0 0,-3.803 -1.562,0 0,4.793 7.658,0 z m -3.594,4.949 3.959,0 0,-1.249 -2.031,0 c 0.728,-0.729 1.51,-1.268 2.344,-1.616 -0.383,-0.279 -0.764,-0.642 -1.147,-1.094 -0.07,0 -0.121,0.035 -0.156,0.105 -0.313,0.208 -0.625,0.468 -0.938,0.78 l 0,-1.406 -4.793,0 0,1.043 c -0.312,-0.277 -0.677,-0.539 -1.093,-0.783 -0.348,0.382 -0.713,0.748 -1.094,1.095 1.076,0.555 1.908,1.18 2.5,1.876 l -1.824,0 0,1.249 2.605,0 c 0.033,0.139 0.086,0.28 0.156,0.418 -0.173,-0.035 -0.435,-0.07 -0.781,-0.104 l -0.73,0 c -0.174,0.485 -0.348,0.903 -0.52,1.251 1.283,0 2.397,0.051 3.334,0.156 0.938,0.104 1.737,0.242 2.397,0.416 0.033,-0.103 0.121,-0.244 0.259,-0.416 0.106,-0.176 0.192,-0.297 0.262,-0.365 0.172,-0.383 0.086,-0.573 -0.262,-0.573 -0.035,0 -0.052,0.016 -0.052,0.051 -0.66,-0.138 -1.371,-0.225 -2.135,-0.261 -0.07,-0.104 -0.123,-0.207 -0.156,-0.313 -0.035,-0.103 -0.071,-0.189 -0.104,-0.26 m -4.949,-9.742 -1.564,0 0,6.513 c -0.139,-0.278 -0.399,-0.591 -0.782,-0.939 -0.312,0.314 -0.713,0.643 -1.197,0.991 1.354,1.355 2.291,3.021 2.811,5.002 0.349,-0.104 0.8,-0.245 1.355,-0.417 0.244,-0.105 0.279,-0.261 0.105,-0.469 l -0.105,-0.105 c -0.242,-0.59 -0.486,-1.164 -0.729,-1.718 0.243,-0.036 0.293,-0.174 0.157,-0.418 l -0.051,-0.104 0,-8.336 z"
           style="fill:#e2001a;fill-opacity:1;fill-rule:nonzero;stroke:none"
           id="path86" />
        <g
           id="g88"
           transform="translate(478.5415,571.7993)">
          <path
             inkscape:connector-curvature="0"
             d="M 0,0 C 1.215,-0.244 2.518,-0.609 3.908,-1.094 3.871,-1.199 3.785,-1.389 3.648,-1.668 3.543,-1.945 3.42,-2.24 3.281,-2.553 c -1.285,0.52 -2.535,0.885 -3.75,1.094 0.033,0.139 0.121,0.416 0.26,0.834 C -0.104,-0.313 -0.035,-0.104 0,0 m 3.178,-2.658 0,-1.613 c 0,-0.383 0.191,-0.94 0.574,-1.668 0.728,0.625 1.613,1.562 2.656,2.814 0,-0.037 0.033,-0.088 0.104,-0.158 C 7.033,-3.699 7.379,-3.977 7.555,-4.115 7.691,-4.29 7.676,-4.428 7.502,-4.533 7.363,-4.604 7.275,-4.654 7.24,-4.689 6.234,-5.73 5.348,-6.564 4.586,-7.189 c 1.283,-1.704 2.621,-2.885 4.01,-3.544 -0.069,-0.07 -0.139,-0.139 -0.207,-0.208 -0.698,-0.487 -1.114,-0.85 -1.25,-1.094 -1.842,1.111 -3.178,2.639 -4.014,4.584 l 0,-3.594 c -0.068,-0.868 -0.832,-1.285 -2.291,-1.251 -0.244,0.694 -0.504,1.181 -0.781,1.46 1.041,-0.07 1.543,0.067 1.51,0.416 l 0,6.461 -2.606,0 0,1.301 4.221,0 z m -3.647,-3.594 -2.865,0 0,1.355 4.533,0 c -0.279,-2.744 -1.494,-5.072 -3.648,-6.982 -0.451,0.382 -0.903,0.677 -1.354,0.885 1.84,1.181 2.951,2.762 3.334,4.742"
             style="fill:#e2001a;fill-opacity:1;fill-rule:nonzero;stroke:none"
             id="path90" />
        </g>
        <path
           inkscape:connector-curvature="0"
           d="m 497.075,567.84 -4.791,0 0,-0.834 4.791,0 0,0.834 z m -6.354,0.989 7.918,0 0,-2.813 -7.918,0 0,2.813 z m -0.679,-4.584 0,1.302 8.546,0 0.469,-0.834 c 0.033,0.071 -1.025,-0.781 -3.18,-2.552 l 0,-1.041 c 0,-0.661 -0.173,-1.077 -0.519,-1.252 -0.277,-0.207 -0.99,-0.313 -2.137,-0.313 -0.14,0.592 -0.365,1.129 -0.678,1.615 1.25,-0.207 1.805,-0.104 1.668,0.313 l 0,2.241 0.989,0 0.73,0.521 -5.888,0 z m -1.25,6.408 5.107,0 0,0.887 c 0.764,0 1.301,-0.02 1.615,-0.053 0.242,-0.035 0.295,-0.156 0.156,-0.365 l -0.052,-0.104 0,-0.365 4.949,0 0,-1.303 -11.775,0 0,1.303 z"
           style="fill:#e2001a;fill-opacity:1;fill-rule:nonzero;stroke:none"
           id="path92" />
        <g
           id="g94"
           transform="translate(514.5239,565.8071)">
          <path
             inkscape:connector-curvature="0"
             d="m 0,0 -1.666,0 c 0.068,-0.242 0.172,-0.555 0.312,-0.938 0.069,-0.242 0.137,-0.398 0.208,-0.468 C -0.764,-0.955 -0.381,-0.486 0,0 m -3.178,-0.051 -0.26,0 0,-3.699 c 0.485,0.104 0.885,0.207 1.2,0.312 0.136,0.034 0.275,0.069 0.416,0.104 -0.557,1.006 -1.008,2.102 -1.356,3.283 m 2.658,2.031 -2.918,0 0,-0.781 2.918,0 0,0.781 z m -2.918,1.25 2.918,0 0,0.782 -2.918,0 0,-0.782 z m -2.552,-6.72 -1.043,0.312 0,-0.521 c 0.347,0.07 0.695,0.138 1.043,0.209 m -3.074,5.886 2.968,0 C -6.166,2.432 -6.234,2.467 -6.305,2.502 -6.965,2.987 -7.449,3.421 -7.762,3.805 -8.145,3.318 -8.58,2.848 -9.064,2.396 m 0.468,-5.834 -1.459,-0.365 c -0.174,0.867 -0.347,1.58 -0.521,2.137 l 1.408,0.312 c 0.207,-0.661 0.398,-1.355 0.572,-2.084 m 2.709,5.784 0,-1.2 -1.146,0 0,-0.728 1.666,0 0,-1.406 -1.666,0 0,-1.877 c 0.242,0.592 0.469,1.129 0.678,1.615 l 1.302,-0.363 c -0.035,-0.035 -0.07,-0.088 -0.105,-0.158 -0.244,-0.729 -0.469,-1.286 -0.678,-1.667 0.106,0.034 0.209,0.052 0.315,0.052 -0.036,-0.382 -0.02,-0.677 0.05,-0.885 0.033,0 0.104,0.017 0.209,0.052 0.104,0 0.19,0.016 0.262,0.052 l 0,9.431 6.043,0 0,-5.264 -0.99,0 C 0.086,-0.07 0.174,-0.155 0.313,-0.26 0.695,-0.572 0.938,-0.764 1.043,-0.834 1.285,-1.111 1.268,-1.319 0.988,-1.459 0.885,-1.492 0.816,-1.527 0.781,-1.563 L 0.209,-2.135 C -0.035,-2.413 -0.227,-2.621 -0.363,-2.76 0.086,-3.455 0.764,-4.098 1.668,-4.688 1.043,-5.035 0.555,-5.383 0.209,-5.73 c -0.834,0.625 -1.494,1.371 -1.98,2.24 0,-0.696 0.017,-1.094 0.052,-1.198 -0.383,-0.139 -0.974,-0.314 -1.771,-0.522 -0.799,-0.276 -1.356,-0.485 -1.668,-0.625 -0.069,0 -0.121,-0.017 -0.156,-0.052 -0.243,-0.242 -0.416,-0.207 -0.522,0.106 -0.068,0.172 -0.154,0.381 -0.26,0.625 -0.07,0.103 -0.105,0.207 -0.105,0.312 -1.285,-0.244 -2.379,-0.539 -3.281,-0.886 -0.071,0 -0.157,-0.034 -0.26,-0.105 -0.278,-0.241 -0.451,-0.226 -0.52,0.054 -0.072,0.172 -0.158,0.416 -0.261,0.728 -0.104,0.242 -0.176,0.434 -0.209,0.573 0.728,0.105 1.441,0.244 2.136,0.417 l 0,3.075 -1.877,0 0,1.406 1.877,0 0,0.728 -0.677,0 0,1.043 C -9.516,2.016 -9.76,1.807 -10.004,1.564 c -0.207,0.278 -0.555,0.659 -1.041,1.145 1.078,0.592 2.014,1.562 2.815,2.918 C -8.023,5.592 -7.729,5.541 -7.346,5.472 -7.207,5.436 -7.084,5.42 -6.98,5.42 -6.877,5.383 -6.809,5.332 -6.771,5.264 -6.771,5.193 -6.809,5.123 -6.877,5.055 -6.285,4.359 -5.66,3.82 -5,3.439 -5.211,3.23 -5.418,2.971 -5.627,2.658 -5.73,2.555 -5.818,2.45 -5.887,2.346"
             style="fill:#e2001a;fill-opacity:1;fill-rule:nonzero;stroke:none"
             id="path96" />
        </g>
        <path
           inkscape:connector-curvature="0"
           d="m 524.731,571.122 6.043,0 0,-1.615 -6.043,0 0,1.615 z m -0.365,-3.49 6.877,0 0,-1.512 -1.719,0 0,-5.366 c -0.07,-1.251 -1.041,-1.718 -2.918,-1.406 -0.035,0.52 -0.191,1.059 -0.469,1.615 1.18,-0.244 1.719,-0.158 1.615,0.26 l 0,4.793 -3.386,0 0,1.616 z m -1.928,3.699 c 0.348,-0.245 0.711,-0.487 1.094,-0.731 0.242,-0.207 0.242,-0.363 0,-0.469 l -0.157,-0.103 c -1.25,-1.182 -2.257,-2.031 -3.021,-2.553 -0.416,0.451 -0.781,0.834 -1.094,1.147 1.076,0.66 2.135,1.562 3.178,2.709 m 0.365,-6.512 0,-5.524 -1.615,0 0,4.846 c -0.383,-0.383 -0.73,-0.695 -1.043,-0.937 -0.486,0.554 -0.885,0.937 -1.197,1.144 1.353,0.938 2.674,2.345 3.959,4.221 0.345,-0.174 0.73,-0.348 1.146,-0.522 0.242,-0.138 0.26,-0.295 0.053,-0.468 -0.07,-0.104 -0.123,-0.174 -0.156,-0.207 -0.489,-0.697 -0.938,-1.268 -1.356,-1.72 0.278,-0.034 0.365,-0.175 0.26,-0.417 -0.035,-0.174 -0.051,-0.313 -0.051,-0.416"
           style="fill:#e2001a;fill-opacity:1;fill-rule:nonzero;stroke:none"
           id="path98" />
        <g
           id="g100"
           transform="translate(414.5903,565.2466)">
          <path
             inkscape:connector-curvature="0"
             d="m 0,0 -7.443,4.965 c 1.216,1.648 2.691,3.081 4.388,4.226 L 3.395,2.602 C 2.068,2.023 0.9,1.113 0,0"
             style="fill:#e2001a;fill-opacity:1;fill-rule:nonzero;stroke:none"
             id="path102" />
        </g>
        <g
           id="g104"
           transform="translate(425.6157,551.6978)">
          <path
             inkscape:connector-curvature="0"
             d="m 0,0 c 0.627,0.326 1.219,0.727 1.756,1.187 0.342,0.285 0.67,0.61 0.965,0.963 1.332,1.563 2.146,3.595 2.146,5.811 0,4.934 -3.992,8.937 -8.928,8.937 -1.035,0 -2.033,-0.188 -2.951,-0.507 l -6.228,6.889 c 2.676,1.613 5.822,2.538 9.179,2.538 9.854,0 17.85,-7.998 17.85,-17.869 0,-9.861 -7.996,-17.847 -17.85,-17.847 -4.908,0 -9.351,1.978 -12.574,5.172 l 21.905,0 -22.963,1.148 24.261,0.146 -25.39,1.33 9.752,0.151 c 0,0 5.113,-0.156 9.07,1.951"
             style="fill:#e2001a;fill-opacity:1;fill-rule:nonzero;stroke:none"
             id="path106" />
        </g>
        <g
           id="g108"
           transform="translate(405.3403,552.144)">
          <path
             inkscape:connector-curvature="0"
             d="m 0,0 c -0.146,0.337 -0.295,0.679 -0.434,1.025 l 5.313,0 0.996,-1.036 7.963,0 -1.748,-1.84 -9.805,0 C 1.98,-0.852 1.09,-0.095 0,0"
             style="fill:#e2001a;fill-opacity:1;fill-rule:nonzero;stroke:none"
             id="path110" />
        </g>
        <g
           id="g112"
           transform="translate(404.6841,553.77)">
          <path
             inkscape:connector-curvature="0"
             d="m 0,0 c -0.633,1.834 -0.994,3.819 -0.994,5.877 0,1.158 0.111,2.277 0.32,3.361 L 7.947,6.207 7.939,5.889 C 7.939,3.768 8.686,1.811 9.924,0.288 9.287,1.66 8.836,3.191 8.836,4.83 8.836,5.184 8.859,5.533 8.9,5.872 L 18.119,2.635 18.119,0 0,0 z"
             style="fill:#e2001a;fill-opacity:1;fill-rule:nonzero;stroke:none"
             id="path114" />
        </g>
        <g
           id="g116"
           transform="translate(422.8032,559.7554)">
          <path
             inkscape:connector-curvature="0"
             d="m 0,0 -7.07,4.729 c 0.89,1.006 2.002,1.817 3.252,2.342 L 0,3.175 0,0 z"
             style="fill:#e2001a;fill-opacity:1;fill-rule:nonzero;stroke:none"
             id="path118" />
        </g>
        <g
           id="g120"
           transform="translate(422.8032,556.7241)">
          <path
             inkscape:connector-curvature="0"
             d="m 0,0 -9.137,3.493 c 0.264,1.423 0.856,2.713 1.707,3.811 L 0,2.683 0,0 z"
             style="fill:#e2001a;fill-opacity:1;fill-rule:nonzero;stroke:none"
             id="path122" />
        </g>
        <g
           id="g124"
           transform="translate(412.6704,560.5962)">
          <path
             inkscape:connector-curvature="0"
             d="M 0,0 -8.484,3.248 C -8,5.275 -7.154,7.176 -6.041,8.873 L 1.545,4.152 C 0.709,2.949 0.166,1.531 0,0"
             style="fill:#e2001a;fill-opacity:1;fill-rule:nonzero;stroke:none"
             id="path126" />
        </g>
      </g>
    </g>
  </g>
</svg>
