<?xml version="1.0" encoding="UTF-8" standalone="no"?>
<!-- Created with Inkscape (http://www.inkscape.org/) -->

<svg
   xmlns:dc="http://purl.org/dc/elements/1.1/"
   xmlns:cc="http://creativecommons.org/ns#"
   xmlns:rdf="http://www.w3.org/1999/02/22-rdf-syntax-ns#"
   xmlns:svg="http://www.w3.org/2000/svg"
   xmlns="http://www.w3.org/2000/svg"
   xmlns:sodipodi="http://sodipodi.sourceforge.net/DTD/sodipodi-0.dtd"
   xmlns:inkscape="http://www.inkscape.org/namespaces/inkscape"
   width="252.05573"
   height="61.884499"
   id="svg3617"
   version="1.1"
   inkscape:version="0.48.1 r9760"
   sodipodi:docname="New document 5">
  <defs
     id="defs3619" />
  <sodipodi:namedview
     id="base"
     pagecolor="#ffffff"
     bordercolor="#666666"
     borderopacity="1.0"
     inkscape:pageopacity="0.0"
     inkscape:pageshadow="2"
     inkscape:zoom="0.98994949"
     inkscape:cx="39.118132"
     inkscape:cy="36.881707"
     inkscape:document-units="px"
     inkscape:current-layer="layer1"
     showgrid="false"
     fit-margin-top="0"
     fit-margin-left="0"
     fit-margin-right="0"
     fit-margin-bottom="0"
     inkscape:window-width="470"
     inkscape:window-height="420"
     inkscape:window-x="88"
     inkscape:window-y="116"
     inkscape:window-maximized="0" />
  <metadata
     id="metadata3622">
    <rdf:RDF>
      <cc:Work
         rdf:about="">
        <dc:format>image/svg+xml</dc:format>
        <dc:type
           rdf:resource="http://purl.org/dc/dcmitype/StillImage" />
        <dc:title></dc:title>
      </cc:Work>
    </rdf:RDF>
  </metadata>
  <g
     inkscape:label="Layer 1"
     inkscape:groupmode="layer"
     id="layer1"
     transform="translate(-248.97214,-501.41993)">
    <g
       id="g3113"
       transform="matrix(1.25,0,0,-1.25,348.31749,520.57606)">
      <path
         inkscape:connector-curvature="0"
         d="m 0,0 -0.009,0.289 c 1.123,0.138 3.228,0.352 4.134,-0.706 0.582,-0.68 0.852,-1.802 0.618,-2.591 -0.35,-1.186 -2.431,-1.67 -3.428,-2.101 -1.26,-0.544 -2.382,-0.917 -3.245,-1.259 0.734,-0.762 1.703,-1.252 2.579,-1.824 2.029,-1.327 4.19,-2.551 6.537,-3.617 1.515,-0.689 2.627,-0.452 3.617,-2.113 -1.395,-1.046 -2.856,-0.987 -4.46,-1.411 -2.081,-0.55 -3.709,-1.088 -5.217,1.058 -1.401,1.993 -3.369,4.325 -5.282,5.778 -0.11,-1.654 -0.348,-3.682 -0.205,-5.556 0.12,-1.578 0.997,-3.411 0.116,-4.931 -0.365,-0.629 -1.544,-1.647 -2.616,-1.5 -0.836,0.114 -1.425,1.256 -1.877,1.866 -0.627,0.847 -1.121,1.685 -2.033,2.233 -0.393,0.262 -0.499,0.542 -0.596,0.989 0.966,0.941 1.712,0.052 2.449,0.348 1.378,0.553 0.844,5.496 0.94,6.972 -0.27,-0.247 -0.363,-0.356 -0.456,-0.471 l -0.28,-0.35 c -1.108,-1.345 -2.329,-2.888 -3.415,-4.28 -0.717,-0.735 -1.639,-1.183 -3.131,-1.372 -1.331,-0.17 -2.581,-0.74 -3.723,0.284 0.343,1.41 1.278,1.417 2.347,1.973 2.062,1.075 3.755,2.872 5.332,4.651 -1.196,-0.12 -1.731,-0.687 -2.662,-1.227 -2.66,-1.543 -4.186,2.985 -2.299,3.562 1.428,0.437 1.526,-0.975 4.032,-0.002 1.451,0.563 2.808,1.348 4.159,2.108 0.062,0.911 0.036,1.665 0,2.574 -1.755,-0.141 -1.972,-2.805 -4.438,-2.287 -2.178,0.458 -1.487,3.962 1.027,4.667 0.122,-0.655 0.188,-1.44 1.087,-1.121 0.596,0.211 1.3,0.793 1.867,1.279 l 0.84,0.734 C -6.676,3.507 -5.81,3.869 -4.408,3.728 -3.151,3.601 -1.253,2.631 -1.269,1.114 -1.286,-0.557 -3.505,-0.727 -3.733,-2.967 -3.767,-3.302 -3.776,-3.68 -3.791,-4.155 -1.676,-3.494 0.063,-2.13 0,0 m -7.21,4.831 c 0.092,0.574 -0.192,0.806 -0.707,0.927 L -8.352,5.847 C -10.325,6.268 -9.707,8.51 -8.497,9.296 -6.491,10.6 -3.023,10.2 -1.575,8.356 -0.522,7.016 -0.764,4.717 -2.909,4.502 -4.027,4.39 -5.938,4.815 -6.75,3.982 l -0.603,-0.62 c 0.035,0.513 0.063,0.97 0.143,1.469"
         style="fill:#231f20;fill-opacity:1;fill-rule:nonzero;stroke:none"
         id="path3115" />
    </g>
    <g
       id="g3117"
       transform="matrix(1.25,0,0,-1.25,387.94488,529.74206)">
      <path
         inkscape:connector-curvature="0"
         d="m 0,0 c 0.115,-0.143 0.249,-0.268 0.369,-0.407 0.275,-0.317 0.493,-0.714 0.407,-1.38 0.194,-0.125 0.676,-0.146 1.01,0.003 l 0,1.428 c -0.43,0.082 -0.814,0.3 -1.211,0.47 C 0.233,0.26 0.024,0.3 -0.142,0.218 -0.105,0.141 -0.058,0.071 0,0 m -8.186,-1.799 c 1.232,0.641 2.349,1.387 3.318,2.274 -1.438,0.164 -2.182,1.246 -3.45,1.54 -0.101,-1.214 -0.014,-2.637 0.132,-3.814 M 3.271,3.953 C 2.888,3.563 2.425,3.244 2.099,2.8 2.782,2.129 4.385,2.467 5.017,3.211 4.58,3.629 4.137,4.058 3.571,4.297 3.476,4.172 3.374,4.059 3.271,3.953 m -3.554,1.142 c 0.593,0.657 1.42,1.609 0.43,2.394 -1.25,-0.472 -2.255,-1.375 -3.569,-1.75 0.466,-0.857 0.752,-2.035 0.683,-3.261 0.592,0.503 1.073,1.135 1.596,1.704 0.261,0.284 0.571,0.592 0.86,0.913 M -8.456,4.35 c 0.866,-0.837 2.235,-0.434 2.235,0.408 0,0.807 -1.144,1.225 -1.481,2.012 0.755,1.122 1.925,1.962 1.821,3.378 C -6.978,10.484 -7.974,9.423 -8.6,8.462 -8.617,6.892 -8.614,5.626 -8.456,4.35 M 3.47,9.62 C 3.646,9.764 4.075,10.089 4.085,10.312 4.096,10.536 3.779,10.92 3.687,10.974 2.831,11.474 2.177,9.886 1.914,9.306 2.018,9.154 2.11,8.996 2.195,8.844 L 2.383,8.504 C 2.68,8.725 2.887,9.07 3.145,9.333 3.243,9.432 3.361,9.531 3.47,9.62 M 8.147,5.677 C 8.997,5.187 9.895,4.747 10.747,4.24 11.604,3.73 12.463,3.269 13.393,2.919 14.73,2.415 15.38,2.499 16.569,1.48 15.747,0.407 14.947,0.397 13.808,-0.12 11.858,-1.005 10.449,-2.457 8.725,-0.113 L 8.446,0.264 C 8.227,0.551 7.982,0.837 7.656,1.006 7.477,0.914 7.309,0.811 7.146,0.703 L 6.504,0.271 C 6.103,0.011 5.652,-0.232 5.068,-0.346 5.021,-0.642 4.969,-1.178 5.078,-1.458 5.296,-1.5 5.45,-1.391 5.676,-1.143 6.424,-0.299 7.172,0.103 8.019,-1.182 8.341,-1.671 8.54,-2.225 8.736,-2.772 8.122,-3.334 7.547,-3.425 6.746,-3.491 L 5.748,-3.561 C 5.502,-3.582 5.264,-3.61 5.045,-3.658 5.029,-3.75 5.023,-3.878 5.028,-4.049 l 0.014,-0.4 0.685,0.119 c 0.412,0.069 0.845,0.128 1.234,0.128 0.792,0 1.668,-0.277 1.563,-1.435 C 8.384,-7.159 6.074,-6.929 5.047,-7.011 5.028,-7.135 5.023,-7.295 5.028,-7.491 l 0.016,-0.57 c 0.834,-10e-4 2.229,0.008 2.931,0.441 0.672,0.414 1.07,0.8 1.973,0.579 1.544,-0.379 1.445,-3.011 1.23,-3.924 -1.136,-0.602 -2.349,-0.079 -3.541,-0.025 -3.255,0.15 -6.555,0.093 -9.75,-0.589 -0.423,-0.09 -0.868,-0.169 -1.219,-0.12 -0.786,0.111 -2.298,1.211 -2.411,2.011 -0.176,1.267 1.939,2.961 2.997,1.581 l 0.222,-0.285 c 1.513,-0.028 2.818,0.119 4.225,0.166 0.014,0.11 0.018,0.251 0.014,0.425 L 1.699,-7.231 1.454,-7.236 C 0.72,-7.28 -0.014,-7.488 -0.741,-7.238 c -0.537,0.39 -0.446,1.175 -0.29,1.727 0.727,0.644 1.692,0.589 2.578,0.802 0.01,0.071 0.01,0.151 0.008,0.234 L 1.548,-4.251 C 0.869,-4.363 0.022,-4.402 -0.583,-4.087 -0.755,-4.212 -0.93,-4.363 -1.123,-4.53 l -0.391,-0.329 c -0.966,-0.781 -1.718,-1.007 -2.975,-0.576 0.048,0.952 0.616,1.379 1.205,2.046 0.542,0.615 0.858,1.111 0.723,1.568 -0.191,0.645 -2.473,-0.627 -2.837,-0.761 -1.001,-0.369 -1.782,-0.695 -2.646,-0.986 -0.986,-2.597 1.092,-5.667 -0.453,-8.377 -2.05,0.057 -4.575,1.919 -4.302,4.315 0.043,0.378 0.215,0.728 0.376,1.037 l 0.242,0.466 c 1.406,2.879 1.275,10.103 0.889,13.06 -0.202,1.546 -0.668,2.699 -0.276,4.295 1.727,0.861 3.52,0.38 4.73,2.21 0.899,1.36 2.029,2.6 3.59,1.085 0.253,-0.246 0.488,-0.519 0.65,-0.668 1.062,-0.901 1.961,-2.011 0.454,-3.235 C -2.918,9.991 -3.333,9.883 -3.563,8.779 L -3.694,8.125 c 2.204,1.023 3.11,3.678 3.503,5.792 0.128,0.69 0.032,1.819 0.69,2.262 0.841,0.568 2.223,0.175 2.817,-0.24 0.83,-0.582 1.217,-3.547 2.236,-1.182 l 0.187,0.421 c 0.201,0.426 0.499,0.895 1.04,0.897 0.612,0.003 0.872,-0.647 1.048,-1.112 L 7.919,14.744 C 8.599,13.697 10.232,13.569 9.948,11.752 9.819,10.931 8.446,9.843 7.889,9.216 7.208,8.45 6.615,7.799 6.094,7.154 6.689,6.577 7.391,6.111 8.147,5.677"
         style="fill:#231f20;fill-opacity:1;fill-rule:nonzero;stroke:none"
         id="path3119" />
    </g>
    <g
       id="g3121"
       transform="matrix(1.25,0,0,-1.25,428.79563,535.14593)">
      <path
         inkscape:connector-curvature="0"
         d="M 0,0 C -0.105,0.166 -0.226,0.408 -0.17,0.741 -0.465,1.166 -0.76,1.106 -0.981,0.908 -1.238,0.678 -1.448,0.197 -1.397,-0.396 -0.922,-0.276 -0.469,-0.126 0,0 M 9.967,2.578 C 9.833,2.995 9.359,3.405 8.778,3.671 8.741,3.154 8.693,2.489 8.666,1.872 9.17,2.054 9.608,2.283 9.967,2.578 M 2.307,3.359 C 2.195,2.829 2.19,2.158 2.211,1.484 2.87,1.937 3.31,2.662 3.771,3.297 L 3.674,3.539 C 3.557,3.821 3.413,4.149 3.115,4.282 2.691,4.284 2.444,4.002 2.307,3.359 m 8.395,3.179 C 10.441,6.449 10.175,6.357 9.895,6.289 L 9.606,6.229 c 0.739,-0.852 1.558,-1.633 2.399,-2.41 0.852,0.58 2.109,1.006 2.556,1.995 -1.925,0.31 -1.646,1.49 -3.859,0.724 m 0.226,3.664 C 10.462,10.165 9.998,10.106 9.55,10.075 9.598,9.51 9.621,9.042 9.559,8.487 c 0.823,-0.14 1.751,-0.035 2.368,0.273 0.605,0.301 0.868,0.742 0.489,1.409 -0.468,0.084 -0.967,0.074 -1.488,0.033 m -11.498,0.93 c -0.359,-0.273 -0.754,-0.54 -1.058,-0.873 -0.307,-0.335 -0.391,-0.583 0.005,-0.915 0.649,0.001 1.118,0.157 1.479,0.403 0.015,0.725 -0.073,1.216 -0.308,1.48 L -0.57,11.132 z M 3.288,0.7 C 4.12,0.87 5.03,0.98 5.796,1.213 5.923,1.571 6.012,2.136 5.963,2.516 5.101,1.911 4.094,1.286 3.288,0.7 m -0.876,10.067 0.834,0.159 c 0.555,0.101 1.06,0.14 1.579,-0.152 C 5.03,10.489 5.084,10.205 5.083,9.862 5.083,9.543 5.03,9.229 4.976,8.915 4.351,8.521 2.749,8.093 3.089,7.101 3.866,7.106 4.13,7.796 5.235,7.382 5.718,6.373 5.394,5.374 4.393,4.891 4.679,4.523 5.727,4.432 6.216,4.193 6.39,5.217 6.448,6.485 6.511,7.856 6.538,8.452 7.013,11.998 6.371,12.175 5.846,12.32 5.017,10.445 3.483,12.312 L 3.259,12.579 C 2.106,13.889 0.424,12.306 0.91,12.044 1.527,11.71 2.213,12.149 2.638,11.294 2.611,11.132 2.577,11.009 2.485,10.87 L 2.412,10.767 z m 10.612,3.631 C 12.781,15.216 10.238,14.084 9.882,13.888 9.792,13.455 9.763,12.95 9.76,12.403 l 0.39,0.019 c 0.574,0.007 1.414,-0.095 1.905,0.202 0.486,0.295 1.073,1.428 0.969,1.774 M 8.523,-0.154 C 8.465,-0.511 8.385,-0.893 8.367,-1.259 9.412,-0.604 10.546,-0.051 11.479,0.766 10.69,1.156 9.384,0.762 8.568,0.3 8.561,0.15 8.544,-0.002 8.523,-0.154 M 6.607,14.953 c -0.24,0.916 -0.743,1.705 -0.071,2.633 0.867,0.439 2.092,0.269 2.726,-0.515 1.072,0.257 1.997,-0.266 2.765,0.775 0.791,1.073 1.337,2.29 3.001,2.102 1.617,-0.183 1.907,-2.011 2.924,-2.89 l 0.255,-0.226 c 1.349,-1.284 -0.512,-2.858 -1.365,-3.791 -0.725,-1.41 -1.531,-3.217 -1.331,-5.056 l 0.202,0.012 0.613,0.064 c 0.515,0.052 0.971,0.069 1.469,-0.107 0.648,-0.765 0.779,-1.578 0.762,-2.557 -1.328,-1.118 -3.065,-1.705 -4.298,-2.918 2.023,-1.752 4.361,-2.446 6.868,-3.098 1.084,-0.281 2.083,-0.609 3.099,-1.083 -1.173,-1.368 -2.22,-1.38 -3.821,-1.915 -0.548,-0.183 -1.222,-0.34 -1.907,-0.555 -1.667,-0.526 -2.193,-0.907 -3.482,0.709 -0.381,0.477 -0.732,1.003 -0.976,1.284 -0.691,0.798 -1.258,1.381 -1.845,2.046 C 10.832,-1.42 9.173,-3.144 8.053,-5.059 7.74,-5.593 7.207,-6.921 6.479,-7.032 4.861,-7.28 1.837,-3.504 4.379,-2.182 l 0.505,0.249 c 0.128,0.065 0.256,0.136 0.378,0.219 0.07,0.481 0.228,0.945 0.278,1.428 -2.536,-0.442 -4.938,-1.914 -7.111,-3.223 -1.02,-0.615 -2.112,-1.584 -3.418,-1.221 -1.514,0.42 -1.723,2.723 -1.538,3.837 0.358,0.043 0.695,0.06 1.056,0.04 l 0.832,-0.055 c 0.429,-0.024 0.813,-0.018 1.139,0.069 -0.777,1.272 -2.353,2.066 -1.124,3.896 0.643,0.154 1.059,0.104 1.599,-0.243 l 0.33,-0.226 c 0.386,-0.268 0.746,-0.479 1.492,-0.223 0.586,0.2 0.887,0.43 0.857,0.859 -1.417,0.266 -3.415,-0.05 -3.198,2.161 0.868,0.774 3.503,0.172 3.25,1.021 C -0.35,6.593 -1.167,6.54 -1.317,6.539 -2.481,6.535 -3.859,7.209 -3.87,8.596 -5.429,7.876 -6.842,6.837 -8.401,6.129 -9.344,5.701 -9.943,5.682 -10.941,5.87 c 0.708,1.301 1.476,1.824 2.482,2.829 0.739,0.737 1.473,1.516 2.215,2.291 0.958,0.997 4.93,4.425 5.144,5.718 0.005,0.399 -0.698,0.903 -0.713,1.492 -0.031,1.116 1.764,2.712 2.412,2.99 1.226,0.526 5.297,-1.835 3.566,-4.521 l -0.25,-0.366 c -0.734,-1.04 -0.838,-1.661 0.832,-1.907 0.686,-0.102 1.439,-0.058 1.936,0.086 -0.004,0.145 -0.031,0.3 -0.076,0.471"
         style="fill:#231f20;fill-opacity:1;fill-rule:nonzero;stroke:none"
         id="path3123" />
    </g>
    <g
       id="g3125"
       transform="matrix(1.25,0,0,-1.25,484.53363,521.56855)">
      <path
         inkscape:connector-curvature="0"
         d="m 0,0 c 2.113,0.175 6.773,0.209 8.438,1.359 l 0.495,0.344 c 0.324,0.214 0.775,0.48 1.216,0.402 1.771,-0.318 4.327,-2.552 2.301,-4.334 -1.506,-0.193 -3.76,-0.115 -5.129,-0.692 0.058,-3.751 0.166,-7.491 0.008,-11.242 -0.087,-2.019 -0.38,-5.129 -3.425,-4.293 -1.324,0.364 -2.525,1.121 -3.771,1.679 -1.457,0.653 -2.744,1.029 -3.944,2.148 2.649,1.809 5.853,-1.255 6.456,2.7 0.381,2.504 0.231,5.924 0.088,8.569 -1.126,0.239 -2.093,-0.548 -3.184,-0.546 -1.172,0.002 -2.299,1.1 -2.299,2.137 0,1.506 1.495,1.649 2.317,2.444 l 0.537,0.52 0,-0.748 C 0.104,0.317 0.078,0.209 0.048,0.12 L 0,0 z m -11.642,3.872 c 1.368,1.186 2.402,2.733 3.179,4.542 l -0.146,0.39 c -0.08,0.204 -0.163,0.541 0.062,0.861 0.251,0.281 0.636,0.461 0.958,0.586 l 0.483,0.182 c 0.733,0.287 0.814,0.388 1.539,-0.09 0.515,-0.34 1.933,-1.487 2.021,-2.096 C -3.365,6.993 -4.827,5.918 -5.618,5.129 -6.104,4.643 -6.49,4.292 -6.9,3.929 L -7.211,3.657 C -7.434,3.456 -7.671,3.218 -7.73,2.91 -7.534,2.817 -7.308,2.805 -7.031,2.829 l 0.545,0.062 c 1.303,0.136 3.192,-0.985 3.261,-2.429 0.057,-1.229 -1.104,-2.035 -1.826,-2.838 -0.604,-0.673 -1.19,-1.37 -1.86,-1.979 1.188,-1.126 0.786,-4.636 0.672,-6.064 -0.112,-1.401 -0.294,-3.227 -1.47,-4.253 -2.792,0.094 -2.945,2.198 -2.364,4.181 0.318,1.087 0.859,2.428 0.265,3.515 -2.084,-1.493 -5.129,-1.978 -7.557,-2.387 0.309,1.243 0.475,0.955 1.346,1.598 2.544,1.878 4.689,4.161 6.878,6.422 0.44,0.454 2.085,2.391 0.782,2.799 -1.226,0.383 -2.816,-0.51 -3.964,0.341 -0.424,0.505 -0.241,1.363 -0.162,1.957 0.214,0.229 0.412,0.336 0.71,0.192 l 0.133,-0.074 z M 1.915,3.673 C 0.264,4.268 -0.741,5.453 -0.001,7.372 0.105,7.452 0.197,7.5 0.32,7.549 L 0.535,7.725 C 1.97,7.929 2.722,7.143 4.101,7.9 5.25,8.53 6.527,9.503 7.886,8.627 9.733,7.437 9.945,4.226 7.373,4.123 7.009,4.109 6.606,4.135 6.161,4.088 4.283,3.891 3.025,3.105 1.609,1.95 1.275,2.496 1.018,2.931 1.618,3.433 l 0.297,0.24 z"
         style="fill:#231f20;fill-opacity:1;fill-rule:nonzero;stroke:none"
         id="path3127" />
    </g>
    <g
       id="g3129"
       transform="matrix(1.25,0,0,-1.25,342.979,553.46068)">
      <path
         inkscape:connector-curvature="0"
         d="m 0,0 0,-0.21 c -0.23,0 -0.416,-0.036 -0.559,-0.108 -0.143,-0.072 -0.279,-0.206 -0.409,-0.403 -0.087,-0.132 -0.224,-0.448 -0.41,-0.947 l -2.457,-6.201 -0.26,0 -2.008,4.919 -1.996,-4.919 -0.233,0 -2.62,6.388 c -0.195,0.477 -0.319,0.758 -0.37,0.846 -0.087,0.143 -0.207,0.249 -0.358,0.317 -0.147,0.072 -0.349,0.108 -0.604,0.108 l 0,0.21 3.262,0 0,-0.21 -0.156,0 c -0.229,0 -0.405,-0.046 -0.526,-0.136 -0.121,-0.091 -0.182,-0.201 -0.182,-0.329 0,-0.133 0.095,-0.437 0.286,-0.914 l 1.735,-4.317 1.463,3.67 -0.26,0.647 -0.208,0.517 c -0.091,0.189 -0.193,0.355 -0.306,0.499 -0.056,0.071 -0.126,0.132 -0.208,0.181 -0.108,0.069 -0.216,0.118 -0.324,0.148 -0.083,0.022 -0.213,0.034 -0.391,0.034 l 0,0.21 3.432,0 0,-0.21 -0.234,0 c -0.243,0 -0.42,-0.046 -0.533,-0.136 -0.113,-0.091 -0.169,-0.214 -0.169,-0.369 0,-0.193 0.098,-0.53 0.293,-1.01 l 1.69,-4.181 1.677,4.238 c 0.19,0.469 0.285,0.794 0.286,0.976 0,0.087 -0.033,0.168 -0.098,0.244 -0.06,0.075 -0.138,0.128 -0.234,0.159 -0.165,0.052 -0.379,0.079 -0.643,0.079 L -2.632,0 0,0 z"
         style="fill:#231f20;fill-opacity:1;fill-rule:nonzero;stroke:none"
         id="path3131" />
    </g>
    <g
       id="g3133"
       transform="matrix(1.25,0,0,-1.25,350.10424,562.81481)">
      <path
         inkscape:connector-curvature="0"
         d="m 0,0 0,-0.21 -3.776,0 0,0.21 0.312,0 c 0.363,0 0.628,0.092 0.793,0.278 0.104,0.121 0.155,0.412 0.155,0.874 l 0,4.97 c 0,0.389 -0.028,0.646 -0.084,0.771 -0.044,0.095 -0.132,0.176 -0.267,0.244 -0.19,0.091 -0.389,0.136 -0.597,0.136 l -0.312,0 0,0.21 3.776,0 0,-0.21 -0.319,0 C -0.678,7.273 -0.94,7.18 -1.105,6.995 -1.213,6.874 -1.267,6.583 -1.267,6.122 l 0,-4.97 c 0,-0.39 0.027,-0.647 0.084,-0.772 C -1.14,0.285 -1.049,0.204 -0.91,0.136 -0.724,0.045 -0.527,0 -0.319,0 L 0,0 z"
         style="fill:#231f20;fill-opacity:1;fill-rule:nonzero;stroke:none"
         id="path3135" />
    </g>
    <g
       id="g3137"
       transform="matrix(1.25,0,0,-1.25,352.15149,553.46068)">
      <path
         inkscape:connector-curvature="0"
         d="m 0,0 2.392,0 5.388,-5.77 0,4.437 c 0,0.472 -0.06,0.767 -0.182,0.885 -0.16,0.159 -0.414,0.238 -0.76,0.238 l -0.306,0 0,0.21 3.068,0 0,-0.21 -0.312,0 C 8.916,-0.21 8.651,-0.308 8.495,-0.505 8.4,-0.626 8.352,-0.902 8.352,-1.333 l 0,-6.485 -0.234,0 -5.811,6.195 0,-4.737 c 0,-0.473 0.059,-0.768 0.176,-0.885 0.164,-0.159 0.418,-0.238 0.76,-0.238 l 0.312,0 0,-0.211 -3.067,0 0,0.211 0.305,0 c 0.377,0 0.643,0.098 0.8,0.295 0.095,0.12 0.142,0.396 0.143,0.828 l 0,5.35 C 1.48,-0.749 1.285,-0.577 1.151,-0.494 1.02,-0.411 0.827,-0.333 0.572,-0.261 0.446,-0.227 0.255,-0.21 0,-0.21 L 0,0 z"
         style="fill:#231f20;fill-opacity:1;fill-rule:nonzero;stroke:none"
         id="path3139" />
    </g>
    <g
       id="g3141"
       transform="matrix(1.25,0,0,-1.25,376.46088,553.24107)">
      <path
         inkscape:connector-curvature="0"
         d="m 0,0 0.227,-2.428 -0.227,0 c -0.23,0.605 -0.527,1.061 -0.891,1.367 -0.524,0.443 -1.198,0.664 -2.021,0.664 -1.123,0 -1.976,-0.388 -2.561,-1.163 -0.49,-0.655 -0.735,-1.434 -0.735,-2.338 0,-0.734 0.163,-1.403 0.488,-2.008 0.325,-0.605 0.749,-1.05 1.274,-1.333 0.528,-0.28 1.07,-0.42 1.625,-0.42 0.325,0 0.639,0.035 0.942,0.108 0.303,0.071 0.596,0.177 0.878,0.317 l 0,2.224 c 0,0.386 -0.035,0.638 -0.104,0.755 -0.065,0.121 -0.169,0.211 -0.312,0.272 -0.139,0.064 -0.386,0.097 -0.741,0.097 l 0,0.215 3.412,0 0,-0.215 -0.162,0 c -0.338,0 -0.57,-0.099 -0.696,-0.296 -0.087,-0.139 -0.13,-0.415 -0.13,-0.828 l 0,-2.354 c -0.498,-0.235 -0.99,-0.407 -1.475,-0.517 -0.486,-0.109 -1.025,-0.164 -1.619,-0.164 -1.703,0 -2.996,0.476 -3.88,1.43 -0.663,0.715 -0.995,1.539 -0.995,2.473 0,0.677 0.186,1.326 0.559,1.946 0.442,0.738 1.049,1.305 1.82,1.702 0.646,0.329 1.409,0.494 2.288,0.494 0.321,0 0.611,-0.023 0.871,-0.068 0.264,-0.045 0.637,-0.146 1.118,-0.301 0.243,-0.079 0.405,-0.119 0.488,-0.119 0.082,0 0.151,0.032 0.208,0.097 0.06,0.068 0.097,0.198 0.11,0.391 L 0,0 z"
         style="fill:#231f20;fill-opacity:1;fill-rule:nonzero;stroke:none"
         id="path3143" />
    </g>
    <g
       id="g3145"
       transform="matrix(1.25,0,0,-1.25,395.68238,560.41781)">
      <path
         inkscape:connector-curvature="0"
         d="m 0,0 0.215,-0.04 -0.754,-2.088 -6.825,0 0,0.21 0.332,0 c 0.372,0 0.638,0.106 0.799,0.318 0.091,0.121 0.136,0.401 0.136,0.84 l 0,4.964 c 0,0.48 -0.059,0.781 -0.181,0.902 -0.169,0.167 -0.421,0.25 -0.754,0.25 l -0.332,0 0,0.21 3.991,0 0,-0.21 C -3.841,5.36 -4.171,5.322 -4.361,5.242 -4.548,5.163 -4.675,5.063 -4.745,4.941 -4.814,4.82 -4.849,4.531 -4.849,4.073 l 0,-4.833 c 0,-0.315 0.035,-0.53 0.104,-0.647 0.053,-0.08 0.133,-0.139 0.241,-0.176 0.108,-0.038 0.446,-0.057 1.014,-0.057 l 0.644,0 c 0.676,0 1.15,0.044 1.423,0.131 0.273,0.087 0.522,0.24 0.748,0.459 C -0.45,-0.827 -0.225,-0.477 0,0"
         style="fill:#231f20;fill-opacity:1;fill-rule:nonzero;stroke:none"
         id="path3147" />
    </g>
    <g
       id="g3149"
       transform="matrix(1.25,0,0,-1.25,406.1065,553.72318)">
      <path
         inkscape:connector-curvature="0"
         d="m 0,0 0,0.21 3.12,0 L 3.12,0 2.789,0 C 2.442,0 2.175,-0.127 1.989,-0.38 1.898,-0.497 1.853,-0.77 1.853,-1.197 l 0,-3.12 C 1.853,-5.089 1.764,-5.689 1.586,-6.116 1.413,-6.54 1.068,-6.905 0.552,-7.211 0.041,-7.513 -0.656,-7.665 -1.541,-7.665 c -0.962,0 -1.691,0.146 -2.19,0.437 -0.498,0.291 -0.852,0.683 -1.059,1.174 -0.139,0.337 -0.208,0.969 -0.208,1.895 l 0,3.008 c 0,0.472 -0.076,0.782 -0.227,0.93 C -5.373,-0.074 -5.613,0 -5.947,0 l -0.331,0 0,0.21 3.808,0 0,-0.21 -0.338,0 c -0.364,0 -0.623,-0.1 -0.78,-0.301 -0.108,-0.136 -0.163,-0.419 -0.163,-0.85 l 0,-3.354 c 0,-0.299 0.031,-0.641 0.092,-1.027 0.065,-0.386 0.18,-0.686 0.344,-0.902 0.165,-0.215 0.401,-0.393 0.709,-0.533 0.311,-0.14 0.693,-0.21 1.144,-0.21 0.576,0 1.091,0.11 1.547,0.329 0.455,0.219 0.764,0.499 0.929,0.84 0.169,0.344 0.253,0.924 0.253,1.742 l 0,3.115 c 0,0.479 -0.06,0.78 -0.181,0.902 C 0.916,-0.083 0.665,0 0.332,0 L 0,0 z"
         style="fill:#231f20;fill-opacity:1;fill-rule:nonzero;stroke:none"
         id="path3151" />
    </g>
    <g
       id="g3153"
       transform="matrix(1.25,0,0,-1.25,411.82613,553.46068)">
      <path
         inkscape:connector-curvature="0"
         d="m 0,0 2.392,0 5.389,-5.77 0,4.437 c 0,0.472 -0.061,0.767 -0.182,0.885 -0.161,0.159 -0.414,0.238 -0.761,0.238 l -0.306,0 0,0.21 3.068,0 0,-0.21 -0.311,0 C 8.915,-0.21 8.652,-0.308 8.496,-0.505 8.4,-0.626 8.353,-0.902 8.353,-1.333 l 0,-6.485 -0.234,0 -5.811,6.195 0,-4.737 c 0,-0.473 0.058,-0.768 0.175,-0.885 0.164,-0.159 0.418,-0.238 0.76,-0.238 l 0.313,0 0,-0.211 -3.068,0 0,0.211 0.305,0 c 0.377,0 0.643,0.098 0.8,0.295 0.094,0.12 0.142,0.396 0.143,0.828 l 0,5.35 C 1.48,-0.749 1.285,-0.577 1.15,-0.494 1.021,-0.411 0.828,-0.333 0.572,-0.261 0.447,-0.227 0.255,-0.21 0,-0.21 L 0,0 z"
         style="fill:#231f20;fill-opacity:1;fill-rule:nonzero;stroke:none"
         id="path3155" />
    </g>
    <g
       id="g3157"
       transform="matrix(1.25,0,0,-1.25,436.13488,553.24107)">
      <path
         inkscape:connector-curvature="0"
         d="m 0,0 0.227,-2.428 -0.227,0 c -0.23,0.605 -0.527,1.061 -0.89,1.367 -0.525,0.443 -1.198,0.664 -2.022,0.664 -1.122,0 -1.975,-0.388 -2.561,-1.163 -0.49,-0.655 -0.734,-1.434 -0.734,-2.338 0,-0.734 0.162,-1.403 0.487,-2.008 0.326,-0.605 0.75,-1.05 1.275,-1.333 0.528,-0.28 1.069,-0.42 1.624,-0.42 0.325,0 0.64,0.035 0.943,0.108 0.303,0.071 0.595,0.177 0.878,0.317 l 0,2.224 c 0,0.386 -0.035,0.638 -0.105,0.755 -0.065,0.121 -0.169,0.211 -0.312,0.272 -0.138,0.064 -0.386,0.097 -0.741,0.097 l 0,0.215 3.413,0 0,-0.215 -0.163,0 c -0.337,0 -0.57,-0.099 -0.696,-0.296 C 0.31,-4.321 0.267,-4.597 0.267,-5.01 l 0,-2.354 c -0.499,-0.235 -0.99,-0.407 -1.476,-0.517 -0.485,-0.109 -1.025,-0.164 -1.618,-0.164 -1.703,0 -2.996,0.476 -3.881,1.43 -0.662,0.715 -0.993,1.539 -0.993,2.473 0,0.677 0.185,1.326 0.558,1.946 0.442,0.738 1.048,1.305 1.82,1.702 0.646,0.329 1.408,0.494 2.288,0.494 0.321,0 0.61,-0.023 0.87,-0.068 0.265,-0.045 0.638,-0.146 1.119,-0.301 0.243,-0.079 0.405,-0.119 0.487,-0.119 0.083,0 0.151,0.032 0.208,0.097 0.061,0.068 0.097,0.198 0.11,0.391 L 0,0 z"
         style="fill:#231f20;fill-opacity:1;fill-rule:nonzero;stroke:none"
         id="path3159" />
    </g>
    <g
       id="g3161"
       transform="matrix(1.25,0,0,-1.25,453.5055,558.16981)">
      <path
         inkscape:connector-curvature="0"
         d="M 0,0 C 0.611,-0.113 1.068,-0.295 1.371,-0.545 1.792,-0.893 2.001,-1.318 2.002,-1.821 2.002,-2.203 1.863,-2.57 1.586,-2.922 1.308,-3.27 0.927,-3.525 0.442,-3.688 -0.039,-3.847 -0.776,-3.926 -1.768,-3.926 l -4.16,0 0,0.21 0.331,0 c 0.369,0 0.633,0.102 0.793,0.306 0.1,0.132 0.15,0.414 0.151,0.845 l 0,4.971 c 0,0.476 -0.064,0.777 -0.19,0.902 -0.168,0.166 -0.42,0.249 -0.754,0.249 l -0.331,0 0,0.21 3.809,0 c 0.71,0 1.28,-0.045 1.709,-0.136 C 0.241,3.495 0.737,3.253 1.079,2.905 1.421,2.56 1.592,2.163 1.593,1.713 1.593,1.328 1.458,0.982 1.189,0.675 0.921,0.373 0.524,0.148 0,0 m -3.406,0.306 c 0.16,-0.026 0.343,-0.047 0.546,-0.062 0.208,-0.011 0.435,-0.017 0.682,-0.017 0.633,0 1.107,0.059 1.424,0.176 0.321,0.121 0.565,0.304 0.735,0.55 0.168,0.246 0.253,0.514 0.253,0.806 0,0.45 -0.21,0.834 -0.631,1.152 -0.42,0.317 -1.033,0.476 -1.839,0.476 -0.434,0 -0.823,-0.042 -1.17,-0.125 l 0,-2.956 z m 0,-3.676 c 0.503,-0.102 0.999,-0.153 1.489,-0.153 0.784,0 1.381,0.153 1.793,0.459 0.412,0.31 0.618,0.692 0.618,1.146 0,0.299 -0.093,0.586 -0.28,0.863 -0.186,0.276 -0.49,0.493 -0.91,0.652 -0.42,0.159 -0.94,0.239 -1.559,0.239 -0.269,0 -0.499,-0.005 -0.689,-0.012 -0.192,-0.008 -0.345,-0.021 -0.462,-0.04 l 0,-3.154 z"
         style="fill:#231f20;fill-opacity:1;fill-rule:nonzero;stroke:none"
         id="path3163" />
    </g>
    <g
       id="g3165"
       transform="matrix(1.25,0,0,-1.25,466.39113,559.85781)">
      <path
         inkscape:connector-curvature="0"
         d="m 0,0 -3.413,0 -0.598,-1.214 c -0.147,-0.299 -0.221,-0.522 -0.221,-0.67 0,-0.117 0.063,-0.221 0.189,-0.312 0.13,-0.086 0.407,-0.144 0.832,-0.17 l 0,-0.21 -2.776,0 0,0.21 c 0.369,0.057 0.607,0.131 0.715,0.222 0.222,0.181 0.466,0.55 0.735,1.106 l 3.101,6.331 0.227,0 3.068,-6.399 c 0.247,-0.515 0.47,-0.85 0.669,-1.004 0.204,-0.152 0.486,-0.237 0.846,-0.256 l 0,-0.21 -3.478,0 0,0.21 c 0.351,0.015 0.587,0.066 0.708,0.153 0.126,0.087 0.188,0.193 0.189,0.318 0,0.167 -0.087,0.429 -0.26,0.789 L 0,0 z m -0.182,0.42 -1.495,3.109 -1.534,-3.109 3.029,0 z"
         style="fill:#231f20;fill-opacity:1;fill-rule:nonzero;stroke:none"
         id="path3167" />
    </g>
    <g
       id="g3169"
       transform="matrix(1.25,0,0,-1.25,472.43575,553.46068)">
      <path
         inkscape:connector-curvature="0"
         d="m 0,0 2.391,0 5.389,-5.77 0,4.437 c 0,0.472 -0.06,0.767 -0.181,0.885 -0.161,0.159 -0.415,0.238 -0.761,0.238 l -0.306,0 0,0.21 3.068,0 0,-0.21 -0.312,0 C 8.915,-0.21 8.651,-0.308 8.495,-0.505 8.4,-0.626 8.352,-0.902 8.352,-1.333 l 0,-6.485 -0.234,0 -5.811,6.195 0,-4.737 c 0,-0.473 0.059,-0.768 0.176,-0.885 0.164,-0.159 0.418,-0.238 0.76,-0.238 l 0.312,0 0,-0.211 -3.067,0 0,0.211 0.305,0 c 0.377,0 0.643,0.098 0.799,0.295 0.096,0.12 0.143,0.396 0.143,0.828 l 0,5.35 C 1.479,-0.749 1.284,-0.577 1.15,-0.494 1.02,-0.411 0.828,-0.333 0.572,-0.261 0.446,-0.227 0.255,-0.21 0,-0.21 L 0,0 z"
         style="fill:#231f20;fill-opacity:1;fill-rule:nonzero;stroke:none"
         id="path3171" />
    </g>
    <g
       id="g3173"
       transform="matrix(1.25,0,0,-1.25,491.50338,557.74405)">
      <path
         inkscape:connector-curvature="0"
         d="m 0,0 3.25,-2.82 c 0.533,-0.465 0.989,-0.783 1.366,-0.953 0.376,-0.167 0.753,-0.261 1.13,-0.284 l 0,-0.21 -4.192,0 0,0.21 c 0.251,0 0.431,0.036 0.54,0.108 0.112,0.076 0.168,0.159 0.169,0.25 0,0.09 -0.023,0.172 -0.066,0.244 -0.039,0.071 -0.173,0.206 -0.403,0.402 l -3.042,2.627 0,-2.479 c 0,-0.39 0.029,-0.647 0.085,-0.772 0.043,-0.094 0.134,-0.176 0.273,-0.244 0.186,-0.09 0.384,-0.136 0.592,-0.136 l 0.298,0 0,-0.21 -3.756,0 0,0.21 0.312,0 c 0.364,0 0.628,0.093 0.792,0.278 0.104,0.121 0.157,0.412 0.157,0.874 l 0,4.97 c 0,0.389 -0.029,0.649 -0.085,0.777 -0.044,0.091 -0.132,0.171 -0.266,0.239 -0.192,0.09 -0.391,0.136 -0.598,0.136 l -0.312,0 0,0.21 3.756,0 0,-0.21 -0.298,0 C -0.502,3.217 -0.699,3.173 -0.89,3.086 -1.024,3.026 -1.118,2.935 -1.169,2.814 -1.221,2.693 -1.248,2.443 -1.248,2.065 l 0,-2.354 c 0.087,0.071 0.384,0.311 0.891,0.72 C 0.93,1.46 1.708,2.146 1.977,2.491 2.094,2.642 2.152,2.774 2.152,2.888 2.152,2.975 2.106,3.05 2.016,3.115 1.925,3.183 1.77,3.217 1.554,3.217 l -0.202,0 0,0.21 3.237,0 0,-0.21 C 4.399,3.213 4.225,3.19 4.07,3.149 3.913,3.107 3.723,3.026 3.497,2.905 3.272,2.787 2.995,2.596 2.666,2.332 2.569,2.256 2.13,1.868 1.346,1.169 L 0,0 z"
         style="fill:#231f20;fill-opacity:1;fill-rule:nonzero;stroke:none"
         id="path3175" />
    </g>
    <g
       id="g3177"
       transform="matrix(1.25,0,0,-1.25,248.97214,532.33618)">
      <path
         inkscape:connector-curvature="0"
         d="m 0,0 c 0,13.66 11.073,24.733 24.733,24.733 11.293,0 20.819,-7.569 23.78,-17.912 l -10.561,0 -6.161,15.366 -6.914,-17.188 -7.051,17.036 -13.069,-32.216 5.333,-7.508 29.512,0 5.107,7.659 -0.654,1.63 3.947,0 C 44.564,-17.924 35.443,-24.733 24.733,-24.733 11.073,-24.733 0,-13.66 0,0 m 38.394,5.719 10.407,0 c 0.097,-0.413 0.185,-0.83 0.262,-1.251 l -10.167,0 -0.502,1.251 z m 0.944,-2.353 9.9,0 c 0.056,-0.414 0.103,-0.831 0.138,-1.251 l -9.536,0 -0.502,1.251 z m 0.943,-2.353 9.164,0 C 49.458,0.677 49.465,0.339 49.465,0 l -0.001,-0.238 -8.681,0 -0.502,1.251 z m 0.944,-2.353 8.205,0 c -0.023,-0.42 -0.056,-0.837 -0.099,-1.251 l -7.605,0 -0.501,1.251 z m 0.943,-2.354 7.023,0 c -0.063,-0.42 -0.136,-0.837 -0.22,-1.251 l -6.301,0 -0.502,1.251 z m 0.944,-2.353 5.609,0 c -0.106,-0.421 -0.223,-0.838 -0.35,-1.251 l -4.758,0 -0.501,1.251 z M 15.614,7.097 8.548,-10.181 l 28.084,0 L 29.58,7.173 22.59,-9.954 15.614,7.097 z"
         style="fill:#c81e37;fill-opacity:1;fill-rule:nonzero;stroke:none"
         id="path3179" />
    </g>
  </g>
</svg>
