<?xml version="1.0" encoding="UTF-8" standalone="no"?>
<!-- Created with Inkscape (http://www.inkscape.org/) -->

<svg
   xmlns:dc="http://purl.org/dc/elements/1.1/"
   xmlns:cc="http://creativecommons.org/ns#"
   xmlns:rdf="http://www.w3.org/1999/02/22-rdf-syntax-ns#"
   xmlns:svg="http://www.w3.org/2000/svg"
   xmlns="http://www.w3.org/2000/svg"
   xmlns:sodipodi="http://sodipodi.sourceforge.net/DTD/sodipodi-0.dtd"
   xmlns:inkscape="http://www.inkscape.org/namespaces/inkscape"
   width="90"
   height="88.487076"
   id="svg3826"
   version="1.1"
   inkscape:version="0.48.4 r9939"
   sodipodi:docname="New document 3">
  <defs
     id="defs3828">
    <clipPath
       clipPathUnits="userSpaceOnUse"
       id="clipPath34">
      <path
         inkscape:connector-curvature="0"
         d="m 0,595.276 566.929,0 L 566.929,0 0,0 0,595.276 z"
         id="path36" />
    </clipPath>
  </defs>
  <sodipodi:namedview
     id="base"
     pagecolor="#ffffff"
     bordercolor="#666666"
     borderopacity="1.0"
     inkscape:pageopacity="0.0"
     inkscape:pageshadow="2"
     inkscape:zoom="0.98994949"
     inkscape:cx="140.29097"
     inkscape:cy="41.361949"
     inkscape:document-units="px"
     inkscape:current-layer="layer1"
     showgrid="false"
     fit-margin-top="0"
     fit-margin-left="0"
     fit-margin-right="0"
     fit-margin-bottom="0"
     inkscape:window-width="1440"
     inkscape:window-height="844"
     inkscape:window-x="-4"
     inkscape:window-y="-4"
     inkscape:window-maximized="1" />
  <metadata
     id="metadata3831">
    <rdf:RDF>
      <cc:Work
         rdf:about="">
        <dc:format>image/svg+xml</dc:format>
        <dc:type
           rdf:resource="http://purl.org/dc/dcmitype/StillImage" />
        <dc:title></dc:title>
      </cc:Work>
    </rdf:RDF>
  </metadata>
  <g
     inkscape:label="Layer 1"
     inkscape:groupmode="layer"
     id="layer1"
     transform="translate(-340.27944,-431.91186)">
    <g
       transform="matrix(2.4775193,0,0,-2.4775193,-659.87057,1862.7184)"
       id="g30">
      <g
         id="g32"
         clip-path="url(#clipPath34)">
        <g
           id="g100"
           transform="translate(414.5903,565.2466)">
          <path
             inkscape:connector-curvature="0"
             d="m 0,0 -7.443,4.965 c 1.216,1.648 2.691,3.081 4.388,4.226 L 3.395,2.602 C 2.068,2.023 0.9,1.113 0,0"
             style="fill:#e2001a;fill-opacity:1;fill-rule:nonzero;stroke:none"
             id="path102" />
        </g>
        <g
           id="g104"
           transform="translate(425.6157,551.6978)">
          <path
             inkscape:connector-curvature="0"
             d="m 0,0 c 0.627,0.326 1.219,0.727 1.756,1.187 0.342,0.285 0.67,0.61 0.965,0.963 1.332,1.563 2.146,3.595 2.146,5.811 0,4.934 -3.992,8.937 -8.928,8.937 -1.035,0 -2.033,-0.188 -2.951,-0.507 l -6.228,6.889 c 2.676,1.613 5.822,2.538 9.179,2.538 9.854,0 17.85,-7.998 17.85,-17.869 0,-9.861 -7.996,-17.847 -17.85,-17.847 -4.908,0 -9.351,1.978 -12.574,5.172 l 21.905,0 -22.963,1.148 24.261,0.146 -25.39,1.33 9.752,0.151 c 0,0 5.113,-0.156 9.07,1.951"
             style="fill:#e2001a;fill-opacity:1;fill-rule:nonzero;stroke:none"
             id="path106" />
        </g>
        <g
           id="g108"
           transform="translate(405.3403,552.144)">
          <path
             inkscape:connector-curvature="0"
             d="m 0,0 c -0.146,0.337 -0.295,0.679 -0.434,1.025 l 5.313,0 0.996,-1.036 7.963,0 -1.748,-1.84 -9.805,0 C 1.98,-0.852 1.09,-0.095 0,0"
             style="fill:#e2001a;fill-opacity:1;fill-rule:nonzero;stroke:none"
             id="path110" />
        </g>
        <g
           id="g112"
           transform="translate(404.6841,553.77)">
          <path
             inkscape:connector-curvature="0"
             d="m 0,0 c -0.633,1.834 -0.994,3.819 -0.994,5.877 0,1.158 0.111,2.277 0.32,3.361 L 7.947,6.207 7.939,5.889 C 7.939,3.768 8.686,1.811 9.924,0.288 9.287,1.66 8.836,3.191 8.836,4.83 8.836,5.184 8.859,5.533 8.9,5.872 L 18.119,2.635 18.119,0 0,0 z"
             style="fill:#e2001a;fill-opacity:1;fill-rule:nonzero;stroke:none"
             id="path114" />
        </g>
        <g
           id="g116"
           transform="translate(422.8032,559.7554)">
          <path
             inkscape:connector-curvature="0"
             d="m 0,0 -7.07,4.729 c 0.89,1.006 2.002,1.817 3.252,2.342 L 0,3.175 0,0 z"
             style="fill:#e2001a;fill-opacity:1;fill-rule:nonzero;stroke:none"
             id="path118" />
        </g>
        <g
           id="g120"
           transform="translate(422.8032,556.7241)">
          <path
             inkscape:connector-curvature="0"
             d="m 0,0 -9.137,3.493 c 0.264,1.423 0.856,2.713 1.707,3.811 L 0,2.683 0,0 z"
             style="fill:#e2001a;fill-opacity:1;fill-rule:nonzero;stroke:none"
             id="path122" />
        </g>
        <g
           id="g124"
           transform="translate(412.6704,560.5962)">
          <path
             inkscape:connector-curvature="0"
             d="M 0,0 -8.484,3.248 C -8,5.275 -7.154,7.176 -6.041,8.873 L 1.545,4.152 C 0.709,2.949 0.166,1.531 0,0"
             style="fill:#e2001a;fill-opacity:1;fill-rule:nonzero;stroke:none"
             id="path126" />
        </g>
      </g>
    </g>
  </g>
</svg>
